<svg version="1.1" xmlns="http://www.w3.org/2000/svg" xmlns:xlink="http://www.w3.org/1999/xlink" stroke-linecap="round" stroke-linejoin="round" stroke-width="0" fill-rule="evenodd" clip-rule="evenodd" id="jmi7OaeI9W77_top" viewBox="97300 -106900 74000 74000" width="74mm" height="74mm"><defs><style>.jmi7OaeI9W77_fr4 {color: #1b4420;}
.jmi7OaeI9W77_cu {color: #a0781a;}
.jmi7OaeI9W77_cf {color: #d8b93c;}
.jmi7OaeI9W77_sm {color: #004418; opacity: 0.9;}
.jmi7OaeI9W77_ss {color: #e9ecef;}
.jmi7OaeI9W77_sp {color: #000000; opacity: 0;}
.jmi7OaeI9W77_out {color: #000000;}</style><rect x="-850" y="-850" width="1700" height="1700" id="laMEDBxRYDm1_pad-10"/><rect x="-850" y="-850" width="1700" height="1700" rx="850" ry="850" id="laMEDBxRYDm1_pad-11"/><rect x="-850" y="-850" width="1700" height="1700" id="tdh4Swqtd_mn_pad-10"/><rect x="-850" y="-850" width="1700" height="1700" rx="850" ry="850" id="tdh4Swqtd_mn_pad-11"/><circle cx="0" cy="0" r="500" id="RN8XjhAKbrBA_pad-1"/><g id="jmi7OaeI9W77_top_copper"><use xlink:href="#laMEDBxRYDm1_pad-10" x="136700" y="-85400"/><use xlink:href="#laMEDBxRYDm1_pad-11" x="134160" y="-85400"/><use xlink:href="#laMEDBxRYDm1_pad-11" x="131620" y="-85400"/><use xlink:href="#laMEDBxRYDm1_pad-10" x="145220" y="-85200"/><use xlink:href="#laMEDBxRYDm1_pad-11" x="147760" y="-85200"/><use xlink:href="#laMEDBxRYDm1_pad-11" x="150300" y="-85200"/><use xlink:href="#laMEDBxRYDm1_pad-11" x="152840" y="-85200"/><use xlink:href="#laMEDBxRYDm1_pad-11" x="155380" y="-85200"/><use xlink:href="#laMEDBxRYDm1_pad-10" x="100790" y="-59160"/><use xlink:href="#laMEDBxRYDm1_pad-11" x="100790" y="-61700"/><use xlink:href="#laMEDBxRYDm1_pad-11" x="100790" y="-64240"/><use xlink:href="#laMEDBxRYDm1_pad-11" x="100790" y="-66780"/><use xlink:href="#laMEDBxRYDm1_pad-10" x="152000" y="-46500"/><use xlink:href="#laMEDBxRYDm1_pad-11" x="152000" y="-49040"/><use xlink:href="#laMEDBxRYDm1_pad-11" x="152000" y="-51580"/><use xlink:href="#laMEDBxRYDm1_pad-11" x="152000" y="-54120"/><use xlink:href="#laMEDBxRYDm1_pad-10" x="165280" y="-62260"/><use xlink:href="#laMEDBxRYDm1_pad-11" x="162740" y="-62260"/><use xlink:href="#laMEDBxRYDm1_pad-11" x="160200" y="-62260"/><use xlink:href="#laMEDBxRYDm1_pad-11" x="157660" y="-62260"/><use xlink:href="#laMEDBxRYDm1_pad-11" x="155120" y="-62260"/><use xlink:href="#laMEDBxRYDm1_pad-11" x="152580" y="-62260"/><use xlink:href="#laMEDBxRYDm1_pad-11" x="150040" y="-62260"/><use xlink:href="#laMEDBxRYDm1_pad-11" x="147500" y="-62260"/><use xlink:href="#laMEDBxRYDm1_pad-11" x="144960" y="-62260"/><use xlink:href="#laMEDBxRYDm1_pad-11" x="142420" y="-62260"/><use xlink:href="#laMEDBxRYDm1_pad-11" x="139880" y="-62260"/><use xlink:href="#laMEDBxRYDm1_pad-11" x="137340" y="-62260"/><use xlink:href="#laMEDBxRYDm1_pad-11" x="134800" y="-62260"/><use xlink:href="#laMEDBxRYDm1_pad-11" x="132260" y="-62260"/><use xlink:href="#laMEDBxRYDm1_pad-11" x="129720" y="-62260"/><use xlink:href="#laMEDBxRYDm1_pad-10" x="113250" y="-85200"/><use xlink:href="#laMEDBxRYDm1_pad-11" x="115790" y="-85200"/><use xlink:href="#laMEDBxRYDm1_pad-11" x="118330" y="-85200"/><use xlink:href="#laMEDBxRYDm1_pad-11" x="120870" y="-85200"/><use xlink:href="#laMEDBxRYDm1_pad-11" x="123410" y="-85200"/><use xlink:href="#laMEDBxRYDm1_pad-10" x="165280" y="-77500"/><use xlink:href="#laMEDBxRYDm1_pad-11" x="162740" y="-77500"/><use xlink:href="#laMEDBxRYDm1_pad-11" x="160200" y="-77500"/><use xlink:href="#laMEDBxRYDm1_pad-11" x="157660" y="-77500"/><use xlink:href="#laMEDBxRYDm1_pad-11" x="155120" y="-77500"/><use xlink:href="#laMEDBxRYDm1_pad-11" x="152580" y="-77500"/><use xlink:href="#laMEDBxRYDm1_pad-11" x="150040" y="-77500"/><use xlink:href="#laMEDBxRYDm1_pad-11" x="147500" y="-77500"/><use xlink:href="#laMEDBxRYDm1_pad-11" x="144960" y="-77500"/><use xlink:href="#laMEDBxRYDm1_pad-11" x="142420" y="-77500"/><use xlink:href="#laMEDBxRYDm1_pad-11" x="139880" y="-77500"/><use xlink:href="#laMEDBxRYDm1_pad-11" x="137340" y="-77500"/><use xlink:href="#laMEDBxRYDm1_pad-11" x="134800" y="-77500"/><use xlink:href="#laMEDBxRYDm1_pad-11" x="132260" y="-77500"/><use xlink:href="#laMEDBxRYDm1_pad-11" x="129720" y="-77500"/><path d="M 134160 -85400 131260 -88300 M 110350 -55140 133930 -55140 M 137340 -64570 137340 -62260 M 127760 -88300 125870 -86410 125870 -76040 M 113250 -65850 121900 -57200 M 167350 -82380 148040 -82380 M 170200 -79530 167350 -82380 M 132300 -57200 137340 -62240 M 125870 -76040 137340 -64570 M 133930 -55140 137340 -58550 M 113250 -85200 113250 -65850 M 148040 -82380 145220 -85200 M 137340 -62240 137340 -62260 M 141600 -58000 168000 -58000 M 100790 -61700 103790 -61700 M 131260 -88300 127760 -88300 M 170200 -60200 170200 -79530 M 121900 -57200 132300 -57200 M 137340 -62260 141600 -58000 M 103790 -61700 110350 -55140 M 137340 -58550 137340 -62260 M 168000 -58000 170200 -60200 M 151580 -89000 155380 -85200 M 136700 -85400 136700 -78140 M 123410 -85200 123410 -77190 132260 -68340 M 140700 -80860 137340 -77500 M 136700 -78140 137340 -77500 M 132260 -68340 132260 -62260 M 140700 -87200 140700 -80860 M 142500 -89000 151580 -89000 M 142500 -89000 140700 -87200 M 128210 -74710 139120 -74710 M 127280 -75640 128210 -74710 M 127280 -81060 127280 -75640 M 139880 -75470 139880 -77500 M 139120 -74710 139880 -75470 M 131620 -85400 127280 -81060" fill="none" stroke-width="200"/></g><g id="jmi7OaeI9W77_top_soldermask"><use xlink:href="#tdh4Swqtd_mn_pad-10" x="136700" y="-85400"/><use xlink:href="#tdh4Swqtd_mn_pad-11" x="134160" y="-85400"/><use xlink:href="#tdh4Swqtd_mn_pad-11" x="131620" y="-85400"/><use xlink:href="#tdh4Swqtd_mn_pad-10" x="145220" y="-85200"/><use xlink:href="#tdh4Swqtd_mn_pad-11" x="147760" y="-85200"/><use xlink:href="#tdh4Swqtd_mn_pad-11" x="150300" y="-85200"/><use xlink:href="#tdh4Swqtd_mn_pad-11" x="152840" y="-85200"/><use xlink:href="#tdh4Swqtd_mn_pad-11" x="155380" y="-85200"/><use xlink:href="#tdh4Swqtd_mn_pad-10" x="100790" y="-59160"/><use xlink:href="#tdh4Swqtd_mn_pad-11" x="100790" y="-61700"/><use xlink:href="#tdh4Swqtd_mn_pad-11" x="100790" y="-64240"/><use xlink:href="#tdh4Swqtd_mn_pad-11" x="100790" y="-66780"/><use xlink:href="#tdh4Swqtd_mn_pad-10" x="152000" y="-46500"/><use xlink:href="#tdh4Swqtd_mn_pad-11" x="152000" y="-49040"/><use xlink:href="#tdh4Swqtd_mn_pad-11" x="152000" y="-51580"/><use xlink:href="#tdh4Swqtd_mn_pad-11" x="152000" y="-54120"/><use xlink:href="#tdh4Swqtd_mn_pad-10" x="165280" y="-62260"/><use xlink:href="#tdh4Swqtd_mn_pad-11" x="162740" y="-62260"/><use xlink:href="#tdh4Swqtd_mn_pad-11" x="160200" y="-62260"/><use xlink:href="#tdh4Swqtd_mn_pad-11" x="157660" y="-62260"/><use xlink:href="#tdh4Swqtd_mn_pad-11" x="155120" y="-62260"/><use xlink:href="#tdh4Swqtd_mn_pad-11" x="152580" y="-62260"/><use xlink:href="#tdh4Swqtd_mn_pad-11" x="150040" y="-62260"/><use xlink:href="#tdh4Swqtd_mn_pad-11" x="147500" y="-62260"/><use xlink:href="#tdh4Swqtd_mn_pad-11" x="144960" y="-62260"/><use xlink:href="#tdh4Swqtd_mn_pad-11" x="142420" y="-62260"/><use xlink:href="#tdh4Swqtd_mn_pad-11" x="139880" y="-62260"/><use xlink:href="#tdh4Swqtd_mn_pad-11" x="137340" y="-62260"/><use xlink:href="#tdh4Swqtd_mn_pad-11" x="134800" y="-62260"/><use xlink:href="#tdh4Swqtd_mn_pad-11" x="132260" y="-62260"/><use xlink:href="#tdh4Swqtd_mn_pad-11" x="129720" y="-62260"/><use xlink:href="#tdh4Swqtd_mn_pad-10" x="113250" y="-85200"/><use xlink:href="#tdh4Swqtd_mn_pad-11" x="115790" y="-85200"/><use xlink:href="#tdh4Swqtd_mn_pad-11" x="118330" y="-85200"/><use xlink:href="#tdh4Swqtd_mn_pad-11" x="120870" y="-85200"/><use xlink:href="#tdh4Swqtd_mn_pad-11" x="123410" y="-85200"/><use xlink:href="#tdh4Swqtd_mn_pad-10" x="165280" y="-77500"/><use xlink:href="#tdh4Swqtd_mn_pad-11" x="162740" y="-77500"/><use xlink:href="#tdh4Swqtd_mn_pad-11" x="160200" y="-77500"/><use xlink:href="#tdh4Swqtd_mn_pad-11" x="157660" y="-77500"/><use xlink:href="#tdh4Swqtd_mn_pad-11" x="155120" y="-77500"/><use xlink:href="#tdh4Swqtd_mn_pad-11" x="152580" y="-77500"/><use xlink:href="#tdh4Swqtd_mn_pad-11" x="150040" y="-77500"/><use xlink:href="#tdh4Swqtd_mn_pad-11" x="147500" y="-77500"/><use xlink:href="#tdh4Swqtd_mn_pad-11" x="144960" y="-77500"/><use xlink:href="#tdh4Swqtd_mn_pad-11" x="142420" y="-77500"/><use xlink:href="#tdh4Swqtd_mn_pad-11" x="139880" y="-77500"/><use xlink:href="#tdh4Swqtd_mn_pad-11" x="137340" y="-77500"/><use xlink:href="#tdh4Swqtd_mn_pad-11" x="134800" y="-77500"/><use xlink:href="#tdh4Swqtd_mn_pad-11" x="132260" y="-77500"/><use xlink:href="#tdh4Swqtd_mn_pad-11" x="129720" y="-77500"/></g><g id="jmi7OaeI9W77_top_silkscreen"><path d="M 139877.2 -87614.285 139924.819 -87471.428 139924.819 -87233.333 139877.2 -87138.095 139829.58 -87090.476 139734.342 -87042.857 139639.104 -87042.857 139543.866 -87090.476 139496.247 -87138.095 139448.628 -87233.333 139401.009 -87423.809 139353.39 -87519.047 139305.771 -87566.666 139210.533 -87614.285 139115.295 -87614.285 139020.057 -87566.666 138972.438 -87519.047 138924.819 -87423.809 138924.819 -87185.714 138972.438 -87042.857 M 139924.819 -86042.857 139448.628 -86376.19 M 139924.819 -86614.285 138924.819 -86614.285 138924.819 -86233.333 138972.438 -86138.095 139020.057 -86090.476 139115.295 -86042.857 139258.152 -86042.857 139353.39 -86090.476 139401.009 -86138.095 139448.628 -86233.333 139448.628 -86614.285 M 138924.819 -85185.714 138924.819 -85376.19 138972.438 -85471.428 139020.057 -85519.047 139162.914 -85614.285 139353.39 -85661.904 139734.342 -85661.904 139829.58 -85614.285 139877.2 -85566.666 139924.819 -85471.428 139924.819 -85280.952 139877.2 -85185.714 139829.58 -85138.095 139734.342 -85090.476 139496.247 -85090.476 139401.009 -85138.095 139353.39 -85185.714 139305.771 -85280.952 139305.771 -85471.428 139353.39 -85566.666 139401.009 -85614.285 139496.247 -85661.904 M 138924.819 -84471.428 138924.819 -84376.19 138972.438 -84280.952 139020.057 -84233.333 139115.295 -84185.714 139305.771 -84138.095 139543.866 -84138.095 139734.342 -84185.714 139829.58 -84233.333 139877.2 -84280.952 139924.819 -84376.19 139924.819 -84471.428 139877.2 -84566.666 139829.58 -84614.285 139734.342 -84661.904 139543.866 -84709.523 139305.771 -84709.523 139115.295 -84661.904 139020.057 -84614.285 138972.438 -84566.666 138924.819 -84471.428 M 139020.057 -83757.142 138972.438 -83709.523 138924.819 -83614.285 138924.819 -83376.19 138972.438 -83280.952 139020.057 -83233.333 139115.295 -83185.714 139210.533 -83185.714 139353.39 -83233.333 139924.819 -83804.761 139924.819 -83185.714 M 142904.819 -87295.237 141904.819 -87295.237 M 142904.819 -86723.809 142333.39 -87152.38 M 141904.819 -86723.809 142476.247 -87295.237 M 142238.152 -86295.237 142904.819 -86295.237 M 142333.39 -86295.237 142285.771 -86247.618 142238.152 -86152.38 142238.152 -86009.523 142285.771 -85914.285 142381.009 -85866.666 142904.819 -85866.666 M 142904.819 -85247.618 142857.2 -85342.856 142809.58 -85390.475 142714.342 -85438.094 142428.628 -85438.094 142333.39 -85390.475 142285.771 -85342.856 142238.152 -85247.618 142238.152 -85104.761 142285.771 -85009.523 142333.39 -84961.904 142428.628 -84914.285 142714.342 -84914.285 142809.58 -84961.904 142857.2 -85009.523 142904.819 -85104.761 142904.819 -85247.618 M 142904.819 -84485.713 141904.819 -84485.713 M 142285.771 -84485.713 142238.152 -84390.475 142238.152 -84199.999 142285.771 -84104.761 142333.39 -84057.142 142428.628 -84009.523 142714.342 -84009.523 142809.58 -84057.142 142857.2 -84104.761 142904.819 -84199.999 142904.819 -84390.475 142857.2 -84485.713 M 142000.057 -83628.57 141952.438 -83580.951 141904.819 -83485.713 141904.819 -83247.618 141952.438 -83152.38 142000.057 -83104.761 142095.295 -83057.142 142190.533 -83057.142 142333.39 -83104.761 142904.819 -83676.189 142904.819 -83057.142 M 99337.619 -56284.819 99528.095 -56284.819 99623.333 -56332.438 99718.571 -56427.676 99766.19 -56618.152 99766.19 -56951.485 99718.571 -57141.961 99623.333 -57237.2 99528.095 -57284.819 99337.619 -57284.819 99242.381 -57237.2 99147.143 -57141.961 99099.524 -56951.485 99099.524 -56618.152 99147.143 -56427.676 99242.381 -56332.438 99337.619 -56284.819 M 100670.952 -57284.819 100194.762 -57284.819 100194.762 -56284.819 M 101004.286 -56761.009 101337.619 -56761.009 M 101480.476 -57284.819 101004.286 -57284.819 101004.286 -56284.819 101480.476 -56284.819 M 101909.048 -57284.819 101909.048 -56284.819 102147.143 -56284.819 102290 -56332.438 102385.238 -56427.676 102432.857 -56522.914 102480.476 -56713.39 102480.476 -56856.247 102432.857 -57046.723 102385.238 -57141.961 102290 -57237.2 102147.143 -57284.819 101909.048 -57284.819 M 148738.095 -44624.819 148738.095 -43624.819 149071.428 -44339.104 149404.761 -43624.819 149404.761 -44624.819 M 150452.38 -44529.58 150404.761 -44577.2 150261.904 -44624.819 150166.666 -44624.819 150023.809 -44577.2 149928.571 -44481.961 149880.952 -44386.723 149833.333 -44196.247 149833.333 -44053.39 149880.952 -43862.914 149928.571 -43767.676 150023.809 -43672.438 150166.666 -43624.819 150261.904 -43624.819 150404.761 -43672.438 150452.38 -43720.057 M 150880.952 -43624.819 150880.952 -44434.342 150928.571 -44529.58 150976.19 -44577.2 151071.428 -44624.819 151261.904 -44624.819 151357.142 -44577.2 151404.761 -44529.58 151452.38 -44434.342 151452.38 -43624.819 M 152452.38 -44624.819 151880.952 -44624.819 M 152166.666 -44624.819 152166.666 -43624.819 152071.428 -43767.676 151976.19 -43862.914 151880.952 -43910.533 M 153071.428 -43624.819 153166.666 -43624.819 153261.904 -43672.438 153309.523 -43720.057 153357.142 -43815.295 153404.761 -44005.771 153404.761 -44243.866 153357.142 -44434.342 153309.523 -44529.58 153261.904 -44577.2 153166.666 -44624.819 153071.428 -44624.819 152976.19 -44577.2 152928.571 -44529.58 152880.952 -44434.342 152833.333 -44243.866 152833.333 -44005.771 152880.952 -43815.295 152928.571 -43720.057 152976.19 -43672.438 153071.428 -43624.819 M 153976.19 -44053.39 153880.952 -44005.771 153833.333 -43958.152 153785.714 -43862.914 153785.714 -43815.295 153833.333 -43720.057 153880.952 -43672.438 153976.19 -43624.819 154166.666 -43624.819 154261.904 -43672.438 154309.523 -43720.057 154357.142 -43815.295 154357.142 -43862.914 154309.523 -43958.152 154261.904 -44005.771 154166.666 -44053.39 153976.19 -44053.39 153880.952 -44101.009 153833.333 -44148.628 153785.714 -44243.866 153785.714 -44434.342 153833.333 -44529.58 153880.952 -44577.2 153976.19 -44624.819 154166.666 -44624.819 154261.904 -44577.2 154309.523 -44529.58 154357.142 -44434.342 154357.142 -44243.866 154309.523 -44148.628 154261.904 -44101.009 154166.666 -44053.39 M 154976.19 -43624.819 155071.428 -43624.819 155166.666 -43672.438 155214.285 -43720.057 155261.904 -43815.295 155309.523 -44005.771 155309.523 -44243.866 155261.904 -44434.342 155214.285 -44529.58 155166.666 -44577.2 155071.428 -44624.819 154976.19 -44624.819 154880.952 -44577.2 154833.333 -44529.58 154785.714 -44434.342 154738.095 -44243.866 154738.095 -44005.771 154785.714 -43815.295 154833.333 -43720.057 154880.952 -43672.438 154976.19 -43624.819 M 168504.819 -64021.904 167504.819 -64021.904 168504.819 -63450.476 167504.819 -63450.476 M 168219.104 -63021.904 168219.104 -62545.714 M 168504.819 -63117.142 167504.819 -62783.809 168504.819 -62450.476 M 168504.819 -62117.142 167504.819 -62117.142 168504.819 -61545.714 167504.819 -61545.714 M 167504.819 -60879.047 167504.819 -60688.571 167552.438 -60593.333 167647.676 -60498.095 167838.152 -60450.476 168171.485 -60450.476 168361.961 -60498.095 168457.2 -60593.333 168504.819 -60688.571 168504.819 -60879.047 168457.2 -60974.285 168361.961 -61069.523 168171.485 -61117.142 167838.152 -61117.142 167647.676 -61069.523 167552.438 -60974.285 167504.819 -60879.047 M 110934.819 -87295.237 109934.819 -87295.237 M 110934.819 -86723.809 110363.39 -87152.38 M 109934.819 -86723.809 110506.247 -87295.237 M 110268.152 -86295.237 110934.819 -86295.237 M 110363.39 -86295.237 110315.771 -86247.618 110268.152 -86152.38 110268.152 -86009.523 110315.771 -85914.285 110411.009 -85866.666 110934.819 -85866.666 M 110934.819 -85247.618 110887.2 -85342.856 110839.58 -85390.475 110744.342 -85438.094 110458.628 -85438.094 110363.39 -85390.475 110315.771 -85342.856 110268.152 -85247.618 110268.152 -85104.761 110315.771 -85009.523 110363.39 -84961.904 110458.628 -84914.285 110744.342 -84914.285 110839.58 -84961.904 110887.2 -85009.523 110934.819 -85104.761 110934.819 -85247.618 M 110934.819 -84485.713 109934.819 -84485.713 M 110315.771 -84485.713 110268.152 -84390.475 110268.152 -84199.999 110315.771 -84104.761 110363.39 -84057.142 110458.628 -84009.523 110744.342 -84009.523 110839.58 -84057.142 110887.2 -84104.761 110934.819 -84199.999 110934.819 -84390.475 110887.2 -84485.713 M 110934.819 -83057.142 110934.819 -83628.57 M 110934.819 -83342.856 109934.819 -83342.856 110077.676 -83438.094 110172.914 -83533.332 110220.533 -83628.57 M 167981.009 -79642.856 167981.009 -79309.523 M 168504.819 -79166.666 168504.819 -79642.856 167504.819 -79642.856 167504.819 -79166.666 M 168457.2 -78785.713 168504.819 -78642.856 168504.819 -78404.761 168457.2 -78309.523 168409.58 -78261.904 168314.342 -78214.285 168219.104 -78214.285 168123.866 -78261.904 168076.247 -78309.523 168028.628 -78404.761 167981.009 -78595.237 167933.39 -78690.475 167885.771 -78738.094 167790.533 -78785.713 167695.295 -78785.713 167600.057 -78738.094 167552.438 -78690.475 167504.819 -78595.237 167504.819 -78357.142 167552.438 -78214.285 M 168504.819 -77785.713 167504.819 -77785.713 167504.819 -77404.761 167552.438 -77309.523 167600.057 -77261.904 167695.295 -77214.285 167838.152 -77214.285 167933.39 -77261.904 167981.009 -77309.523 168028.628 -77404.761 168028.628 -77785.713 M 167504.819 -76880.951 167504.819 -76261.904 167885.771 -76595.237 167885.771 -76452.38 167933.39 -76357.142 167981.009 -76309.523 168076.247 -76261.904 168314.342 -76261.904 168409.58 -76309.523 168457.2 -76357.142 168504.819 -76452.38 168504.819 -76738.094 168457.2 -76833.332 168409.58 -76880.951 M 167600.057 -75880.951 167552.438 -75833.332 167504.819 -75738.094 167504.819 -75499.999 167552.438 -75404.761 167600.057 -75357.142 167695.295 -75309.523 167790.533 -75309.523 167933.39 -75357.142 168504.819 -75928.57 168504.819 -75309.523" fill="none" stroke-width="150"/><path d="M 130290 -84070 130290 -86730 M 135430 -84070 130290 -84070 M 135430 -84070 135430 -86730 130290 -86730 M 138030 -85400 138030 -86730 136700 -86730 M 143890 -83870 145220 -83870 M 143890 -85200 143890 -83870 M 146490 -83870 156710 -83870 M 146490 -86530 146490 -83870 M 146490 -86530 156710 -86530 156710 -83870 M 99460 -57830 100790 -57830 M 99460 -59160 99460 -57830 M 99460 -60430 99460 -68110 M 99460 -60430 102120 -60430 M 99460 -68110 102120 -68110 M 102120 -60430 102120 -68110 M 150670 -45170 152000 -45170 M 150670 -46500 150670 -45170 M 150670 -47770 150670 -55450 M 150670 -47770 153330 -47770 M 150670 -55450 153330 -55450 M 153330 -47770 153330 -55450 M 128390 -60930 128390 -63590 M 164010 -60930 128390 -60930 M 164010 -60930 164010 -63590 128390 -63590 M 166610 -62260 166610 -63590 165280 -63590 M 111920 -83870 113250 -83870 M 111920 -85200 111920 -83870 M 114520 -83870 124740 -83870 M 114520 -86530 114520 -83870 M 114520 -86530 124740 -86530 124740 -83870 M 128390 -76170 128390 -78830 M 164010 -76170 128390 -76170 M 164010 -76170 164010 -78830 128390 -78830 M 166610 -77500 166610 -78830 165280 -78830" fill="none" stroke-width="120"/></g><g id="jmi7OaeI9W77_top_drill1"><use xlink:href="#RN8XjhAKbrBA_pad-1" x="100790" y="-59160"/><use xlink:href="#RN8XjhAKbrBA_pad-1" x="100790" y="-61700"/><use xlink:href="#RN8XjhAKbrBA_pad-1" x="100790" y="-64240"/><use xlink:href="#RN8XjhAKbrBA_pad-1" x="100790" y="-66780"/><use xlink:href="#RN8XjhAKbrBA_pad-1" x="113250" y="-85200"/><use xlink:href="#RN8XjhAKbrBA_pad-1" x="115790" y="-85200"/><use xlink:href="#RN8XjhAKbrBA_pad-1" x="118330" y="-85200"/><use xlink:href="#RN8XjhAKbrBA_pad-1" x="120870" y="-85200"/><use xlink:href="#RN8XjhAKbrBA_pad-1" x="123410" y="-85200"/><use xlink:href="#RN8XjhAKbrBA_pad-1" x="129720" y="-62260"/><use xlink:href="#RN8XjhAKbrBA_pad-1" x="129720" y="-77500"/><use xlink:href="#RN8XjhAKbrBA_pad-1" x="131620" y="-85400"/><use xlink:href="#RN8XjhAKbrBA_pad-1" x="132260" y="-62260"/><use xlink:href="#RN8XjhAKbrBA_pad-1" x="132260" y="-77500"/><use xlink:href="#RN8XjhAKbrBA_pad-1" x="134160" y="-85400"/><use xlink:href="#RN8XjhAKbrBA_pad-1" x="134800" y="-62260"/><use xlink:href="#RN8XjhAKbrBA_pad-1" x="134800" y="-77500"/><use xlink:href="#RN8XjhAKbrBA_pad-1" x="136700" y="-85400"/><use xlink:href="#RN8XjhAKbrBA_pad-1" x="137340" y="-62260"/><use xlink:href="#RN8XjhAKbrBA_pad-1" x="137340" y="-77500"/><use xlink:href="#RN8XjhAKbrBA_pad-1" x="139880" y="-62260"/><use xlink:href="#RN8XjhAKbrBA_pad-1" x="139880" y="-77500"/><use xlink:href="#RN8XjhAKbrBA_pad-1" x="142420" y="-62260"/><use xlink:href="#RN8XjhAKbrBA_pad-1" x="142420" y="-77500"/><use xlink:href="#RN8XjhAKbrBA_pad-1" x="144960" y="-62260"/><use xlink:href="#RN8XjhAKbrBA_pad-1" x="144960" y="-77500"/><use xlink:href="#RN8XjhAKbrBA_pad-1" x="145220" y="-85200"/><use xlink:href="#RN8XjhAKbrBA_pad-1" x="147500" y="-62260"/><use xlink:href="#RN8XjhAKbrBA_pad-1" x="147500" y="-77500"/><use xlink:href="#RN8XjhAKbrBA_pad-1" x="147760" y="-85200"/><use xlink:href="#RN8XjhAKbrBA_pad-1" x="150040" y="-62260"/><use xlink:href="#RN8XjhAKbrBA_pad-1" x="150040" y="-77500"/><use xlink:href="#RN8XjhAKbrBA_pad-1" x="150300" y="-85200"/><use xlink:href="#RN8XjhAKbrBA_pad-1" x="152000" y="-46500"/><use xlink:href="#RN8XjhAKbrBA_pad-1" x="152000" y="-49040"/><use xlink:href="#RN8XjhAKbrBA_pad-1" x="152000" y="-51580"/><use xlink:href="#RN8XjhAKbrBA_pad-1" x="152000" y="-54120"/><use xlink:href="#RN8XjhAKbrBA_pad-1" x="152580" y="-62260"/><use xlink:href="#RN8XjhAKbrBA_pad-1" x="152580" y="-77500"/><use xlink:href="#RN8XjhAKbrBA_pad-1" x="152840" y="-85200"/><use xlink:href="#RN8XjhAKbrBA_pad-1" x="155120" y="-62260"/><use xlink:href="#RN8XjhAKbrBA_pad-1" x="155120" y="-77500"/><use xlink:href="#RN8XjhAKbrBA_pad-1" x="155380" y="-85200"/><use xlink:href="#RN8XjhAKbrBA_pad-1" x="157660" y="-62260"/><use xlink:href="#RN8XjhAKbrBA_pad-1" x="157660" y="-77500"/><use xlink:href="#RN8XjhAKbrBA_pad-1" x="160200" y="-62260"/><use xlink:href="#RN8XjhAKbrBA_pad-1" x="160200" y="-77500"/><use xlink:href="#RN8XjhAKbrBA_pad-1" x="162740" y="-62260"/><use xlink:href="#RN8XjhAKbrBA_pad-1" x="162740" y="-77500"/><use xlink:href="#RN8XjhAKbrBA_pad-1" x="165280" y="-62260"/><use xlink:href="#RN8XjhAKbrBA_pad-1" x="165280" y="-77500"/></g><clipPath id="jmi7OaeI9W77_top_outline"><path d="M 163300 -40900 171300 -40900 171300 -98900 163300 -98900 163300 -106900 105300 -106900 105300 -98900 97300 -98900 97300 -40900 105300 -40900 105300 -32900 163300 -32900 163300 -40900" fill="none" stroke-width="50"/></clipPath><mask id="jmi7OaeI9W77_top_mech-mask"><g fill="#000" stroke="#000"><rect x="97300" y="-106900" width="74000" height="74000" fill="#fff"/><use xlink:href="#jmi7OaeI9W77_top_drill1"/></g></mask><mask id="jmi7OaeI9W77_top_cf-mask"><g fill="#fff" stroke="#fff"><use xlink:href="#jmi7OaeI9W77_top_soldermask"/></g></mask><mask id="jmi7OaeI9W77_top_sm-mask"><g fill="#000" stroke="#000"><rect x="97300" y="-106900" width="74000" height="74000" fill="#fff"/><use xlink:href="#jmi7OaeI9W77_top_soldermask"/></g></mask></defs><g transform="translate(0,-139800) scale(1,-1)"><g mask="url(#jmi7OaeI9W77_top_mech-mask)" clip-path="url(#jmi7OaeI9W77_top_outline)"><rect x="97300" y="-106900" width="74000" height="74000" fill="currentColor" class="jmi7OaeI9W77_fr4"/><use xlink:href="#jmi7OaeI9W77_top_copper" fill="currentColor" stroke="currentColor" class="jmi7OaeI9W77_cu"/><use xlink:href="#jmi7OaeI9W77_top_copper" fill="currentColor" stroke="currentColor" class="jmi7OaeI9W77_cf" mask="url(#jmi7OaeI9W77_top_cf-mask)"/><g mask="url(#jmi7OaeI9W77_top_sm-mask)"><rect x="97300" y="-106900" width="74000" height="74000" fill="currentColor" class="jmi7OaeI9W77_sm"/><use xlink:href="#jmi7OaeI9W77_top_silkscreen" fill="currentColor" stroke="currentColor" class="jmi7OaeI9W77_ss"/></g></g></g></svg>