<svg version="1.1" xmlns="http://www.w3.org/2000/svg" xmlns:xlink="http://www.w3.org/1999/xlink" stroke-linecap="round" stroke-linejoin="round" stroke-width="0" fill-rule="evenodd" clip-rule="evenodd" id="xl2VgejM70jH_bottom" viewBox="97300 -106900 74000 74000" width="74mm" height="74mm"><defs><style>.xl2VgejM70jH_fr4 {color: #1b4420;}
.xl2VgejM70jH_cu {color: #a0781a;}
.xl2VgejM70jH_cf {color: #d8b93c;}
.xl2VgejM70jH_sm {color: #004418; opacity: 0.9;}
.xl2VgejM70jH_ss {color: #e9ecef;}
.xl2VgejM70jH_sp {color: #000000; opacity: 0;}
.xl2VgejM70jH_out {color: #000000;}</style><rect x="-850" y="-850" width="1700" height="1700" id="WfUBoeHWsbtI_pad-10"/><rect x="-850" y="-850" width="1700" height="1700" rx="850" ry="850" id="WfUBoeHWsbtI_pad-11"/><rect x="-850" y="-850" width="1700" height="1700" id="voDlSi20eInb_pad-10"/><rect x="-850" y="-850" width="1700" height="1700" rx="850" ry="850" id="voDlSi20eInb_pad-11"/><circle cx="0" cy="0" r="500" id="E8S_axS097l5_pad-1"/><g id="xl2VgejM70jH_bottom_copper"><use xlink:href="#WfUBoeHWsbtI_pad-10" x="136700" y="-85400"/><use xlink:href="#WfUBoeHWsbtI_pad-11" x="134160" y="-85400"/><use xlink:href="#WfUBoeHWsbtI_pad-11" x="131620" y="-85400"/><use xlink:href="#WfUBoeHWsbtI_pad-10" x="145220" y="-85200"/><use xlink:href="#WfUBoeHWsbtI_pad-11" x="147760" y="-85200"/><use xlink:href="#WfUBoeHWsbtI_pad-11" x="150300" y="-85200"/><use xlink:href="#WfUBoeHWsbtI_pad-11" x="152840" y="-85200"/><use xlink:href="#WfUBoeHWsbtI_pad-11" x="155380" y="-85200"/><use xlink:href="#WfUBoeHWsbtI_pad-10" x="100790" y="-59160"/><use xlink:href="#WfUBoeHWsbtI_pad-11" x="100790" y="-61700"/><use xlink:href="#WfUBoeHWsbtI_pad-11" x="100790" y="-64240"/><use xlink:href="#WfUBoeHWsbtI_pad-11" x="100790" y="-66780"/><use xlink:href="#WfUBoeHWsbtI_pad-10" x="152000" y="-46500"/><use xlink:href="#WfUBoeHWsbtI_pad-11" x="152000" y="-49040"/><use xlink:href="#WfUBoeHWsbtI_pad-11" x="152000" y="-51580"/><use xlink:href="#WfUBoeHWsbtI_pad-11" x="152000" y="-54120"/><use xlink:href="#WfUBoeHWsbtI_pad-10" x="165280" y="-62260"/><use xlink:href="#WfUBoeHWsbtI_pad-11" x="162740" y="-62260"/><use xlink:href="#WfUBoeHWsbtI_pad-11" x="160200" y="-62260"/><use xlink:href="#WfUBoeHWsbtI_pad-11" x="157660" y="-62260"/><use xlink:href="#WfUBoeHWsbtI_pad-11" x="155120" y="-62260"/><use xlink:href="#WfUBoeHWsbtI_pad-11" x="152580" y="-62260"/><use xlink:href="#WfUBoeHWsbtI_pad-11" x="150040" y="-62260"/><use xlink:href="#WfUBoeHWsbtI_pad-11" x="147500" y="-62260"/><use xlink:href="#WfUBoeHWsbtI_pad-11" x="144960" y="-62260"/><use xlink:href="#WfUBoeHWsbtI_pad-11" x="142420" y="-62260"/><use xlink:href="#WfUBoeHWsbtI_pad-11" x="139880" y="-62260"/><use xlink:href="#WfUBoeHWsbtI_pad-11" x="137340" y="-62260"/><use xlink:href="#WfUBoeHWsbtI_pad-11" x="134800" y="-62260"/><use xlink:href="#WfUBoeHWsbtI_pad-11" x="132260" y="-62260"/><use xlink:href="#WfUBoeHWsbtI_pad-11" x="129720" y="-62260"/><use xlink:href="#WfUBoeHWsbtI_pad-10" x="113250" y="-85200"/><use xlink:href="#WfUBoeHWsbtI_pad-11" x="115790" y="-85200"/><use xlink:href="#WfUBoeHWsbtI_pad-11" x="118330" y="-85200"/><use xlink:href="#WfUBoeHWsbtI_pad-11" x="120870" y="-85200"/><use xlink:href="#WfUBoeHWsbtI_pad-11" x="123410" y="-85200"/><use xlink:href="#WfUBoeHWsbtI_pad-10" x="165280" y="-77500"/><use xlink:href="#WfUBoeHWsbtI_pad-11" x="162740" y="-77500"/><use xlink:href="#WfUBoeHWsbtI_pad-11" x="160200" y="-77500"/><use xlink:href="#WfUBoeHWsbtI_pad-11" x="157660" y="-77500"/><use xlink:href="#WfUBoeHWsbtI_pad-11" x="155120" y="-77500"/><use xlink:href="#WfUBoeHWsbtI_pad-11" x="152580" y="-77500"/><use xlink:href="#WfUBoeHWsbtI_pad-11" x="150040" y="-77500"/><use xlink:href="#WfUBoeHWsbtI_pad-11" x="147500" y="-77500"/><use xlink:href="#WfUBoeHWsbtI_pad-11" x="144960" y="-77500"/><use xlink:href="#WfUBoeHWsbtI_pad-11" x="142420" y="-77500"/><use xlink:href="#WfUBoeHWsbtI_pad-11" x="139880" y="-77500"/><use xlink:href="#WfUBoeHWsbtI_pad-11" x="137340" y="-77500"/><use xlink:href="#WfUBoeHWsbtI_pad-11" x="134800" y="-77500"/><use xlink:href="#WfUBoeHWsbtI_pad-11" x="132260" y="-77500"/><use xlink:href="#WfUBoeHWsbtI_pad-11" x="129720" y="-77500"/><path d="M 152000 -54120 145480 -54120 137340 -62260 M 139730 -82870 137340 -80480 M 139730 -90080 139730 -82870 M 148020 -46500 132260 -62260 M 136680 -93130 139730 -90080 M 98290 -61660 98290 -81890 M 109530 -93130 136680 -93130 M 98290 -81890 109530 -93130 M 100790 -59160 98290 -61660 M 152000 -46500 148020 -46500 M 137340 -80480 137340 -77500 M 155100 -37000 153600 -35500 M 155100 -45940 155100 -37000 M 141920 -65300 144960 -62260 144960 -64390 M 128100 -65300 141920 -65300 M 142330 -67020 103570 -67020 M 127600 -35500 125400 -37700 M 144960 -64390 142330 -67020 M 153600 -35500 127600 -35500 M 152000 -49040 155100 -45940 M 125400 -37700 125400 -62600 M 103570 -67020 100790 -64240 M 125400 -62600 128100 -65300 M 103250 -69240 144000 -69240 M 155230 -57470 153690 -59010 M 100790 -66780 103250 -69240 M 144000 -69240 147500 -65740 M 150750 -59010 147500 -62260 M 152000 -51580 153920 -51580 155230 -52890 155230 -57470 M 147500 -65740 147500 -62260 M 153690 -59010 150750 -59010 M 115790 -78410 123400 -70800 M 158580 -70800 165280 -77500 M 123400 -70800 158580 -70800 M 115790 -85200 115790 -78410 M 124700 -72300 157540 -72300 162740 -77500 M 118330 -85200 118330 -78670 124700 -72300 M 120870 -85200 120870 -78630 M 156100 -73400 160200 -77500 M 120870 -78630 126100 -73400 156100 -73400 M 157660 -80380 157660 -77500 M 152840 -85200 157660 -80380 M 155120 -80380 155120 -77500 M 150300 -85200 155120 -80380 M 152580 -80380 152580 -77500 M 147760 -85200 152580 -80380" fill="none" stroke-width="200"/></g><g id="xl2VgejM70jH_bottom_soldermask"><use xlink:href="#voDlSi20eInb_pad-10" x="136700" y="-85400"/><use xlink:href="#voDlSi20eInb_pad-11" x="134160" y="-85400"/><use xlink:href="#voDlSi20eInb_pad-11" x="131620" y="-85400"/><use xlink:href="#voDlSi20eInb_pad-10" x="145220" y="-85200"/><use xlink:href="#voDlSi20eInb_pad-11" x="147760" y="-85200"/><use xlink:href="#voDlSi20eInb_pad-11" x="150300" y="-85200"/><use xlink:href="#voDlSi20eInb_pad-11" x="152840" y="-85200"/><use xlink:href="#voDlSi20eInb_pad-11" x="155380" y="-85200"/><use xlink:href="#voDlSi20eInb_pad-10" x="100790" y="-59160"/><use xlink:href="#voDlSi20eInb_pad-11" x="100790" y="-61700"/><use xlink:href="#voDlSi20eInb_pad-11" x="100790" y="-64240"/><use xlink:href="#voDlSi20eInb_pad-11" x="100790" y="-66780"/><use xlink:href="#voDlSi20eInb_pad-10" x="152000" y="-46500"/><use xlink:href="#voDlSi20eInb_pad-11" x="152000" y="-49040"/><use xlink:href="#voDlSi20eInb_pad-11" x="152000" y="-51580"/><use xlink:href="#voDlSi20eInb_pad-11" x="152000" y="-54120"/><use xlink:href="#voDlSi20eInb_pad-10" x="165280" y="-62260"/><use xlink:href="#voDlSi20eInb_pad-11" x="162740" y="-62260"/><use xlink:href="#voDlSi20eInb_pad-11" x="160200" y="-62260"/><use xlink:href="#voDlSi20eInb_pad-11" x="157660" y="-62260"/><use xlink:href="#voDlSi20eInb_pad-11" x="155120" y="-62260"/><use xlink:href="#voDlSi20eInb_pad-11" x="152580" y="-62260"/><use xlink:href="#voDlSi20eInb_pad-11" x="150040" y="-62260"/><use xlink:href="#voDlSi20eInb_pad-11" x="147500" y="-62260"/><use xlink:href="#voDlSi20eInb_pad-11" x="144960" y="-62260"/><use xlink:href="#voDlSi20eInb_pad-11" x="142420" y="-62260"/><use xlink:href="#voDlSi20eInb_pad-11" x="139880" y="-62260"/><use xlink:href="#voDlSi20eInb_pad-11" x="137340" y="-62260"/><use xlink:href="#voDlSi20eInb_pad-11" x="134800" y="-62260"/><use xlink:href="#voDlSi20eInb_pad-11" x="132260" y="-62260"/><use xlink:href="#voDlSi20eInb_pad-11" x="129720" y="-62260"/><use xlink:href="#voDlSi20eInb_pad-10" x="113250" y="-85200"/><use xlink:href="#voDlSi20eInb_pad-11" x="115790" y="-85200"/><use xlink:href="#voDlSi20eInb_pad-11" x="118330" y="-85200"/><use xlink:href="#voDlSi20eInb_pad-11" x="120870" y="-85200"/><use xlink:href="#voDlSi20eInb_pad-11" x="123410" y="-85200"/><use xlink:href="#voDlSi20eInb_pad-10" x="165280" y="-77500"/><use xlink:href="#voDlSi20eInb_pad-11" x="162740" y="-77500"/><use xlink:href="#voDlSi20eInb_pad-11" x="160200" y="-77500"/><use xlink:href="#voDlSi20eInb_pad-11" x="157660" y="-77500"/><use xlink:href="#voDlSi20eInb_pad-11" x="155120" y="-77500"/><use xlink:href="#voDlSi20eInb_pad-11" x="152580" y="-77500"/><use xlink:href="#voDlSi20eInb_pad-11" x="150040" y="-77500"/><use xlink:href="#voDlSi20eInb_pad-11" x="147500" y="-77500"/><use xlink:href="#voDlSi20eInb_pad-11" x="144960" y="-77500"/><use xlink:href="#voDlSi20eInb_pad-11" x="142420" y="-77500"/><use xlink:href="#voDlSi20eInb_pad-11" x="139880" y="-77500"/><use xlink:href="#voDlSi20eInb_pad-11" x="137340" y="-77500"/><use xlink:href="#voDlSi20eInb_pad-11" x="134800" y="-77500"/><use xlink:href="#voDlSi20eInb_pad-11" x="132260" y="-77500"/><use xlink:href="#voDlSi20eInb_pad-11" x="129720" y="-77500"/></g><g id="xl2VgejM70jH_bottom_drill1"><use xlink:href="#E8S_axS097l5_pad-1" x="100790" y="-59160"/><use xlink:href="#E8S_axS097l5_pad-1" x="100790" y="-61700"/><use xlink:href="#E8S_axS097l5_pad-1" x="100790" y="-64240"/><use xlink:href="#E8S_axS097l5_pad-1" x="100790" y="-66780"/><use xlink:href="#E8S_axS097l5_pad-1" x="113250" y="-85200"/><use xlink:href="#E8S_axS097l5_pad-1" x="115790" y="-85200"/><use xlink:href="#E8S_axS097l5_pad-1" x="118330" y="-85200"/><use xlink:href="#E8S_axS097l5_pad-1" x="120870" y="-85200"/><use xlink:href="#E8S_axS097l5_pad-1" x="123410" y="-85200"/><use xlink:href="#E8S_axS097l5_pad-1" x="129720" y="-62260"/><use xlink:href="#E8S_axS097l5_pad-1" x="129720" y="-77500"/><use xlink:href="#E8S_axS097l5_pad-1" x="131620" y="-85400"/><use xlink:href="#E8S_axS097l5_pad-1" x="132260" y="-62260"/><use xlink:href="#E8S_axS097l5_pad-1" x="132260" y="-77500"/><use xlink:href="#E8S_axS097l5_pad-1" x="134160" y="-85400"/><use xlink:href="#E8S_axS097l5_pad-1" x="134800" y="-62260"/><use xlink:href="#E8S_axS097l5_pad-1" x="134800" y="-77500"/><use xlink:href="#E8S_axS097l5_pad-1" x="136700" y="-85400"/><use xlink:href="#E8S_axS097l5_pad-1" x="137340" y="-62260"/><use xlink:href="#E8S_axS097l5_pad-1" x="137340" y="-77500"/><use xlink:href="#E8S_axS097l5_pad-1" x="139880" y="-62260"/><use xlink:href="#E8S_axS097l5_pad-1" x="139880" y="-77500"/><use xlink:href="#E8S_axS097l5_pad-1" x="142420" y="-62260"/><use xlink:href="#E8S_axS097l5_pad-1" x="142420" y="-77500"/><use xlink:href="#E8S_axS097l5_pad-1" x="144960" y="-62260"/><use xlink:href="#E8S_axS097l5_pad-1" x="144960" y="-77500"/><use xlink:href="#E8S_axS097l5_pad-1" x="145220" y="-85200"/><use xlink:href="#E8S_axS097l5_pad-1" x="147500" y="-62260"/><use xlink:href="#E8S_axS097l5_pad-1" x="147500" y="-77500"/><use xlink:href="#E8S_axS097l5_pad-1" x="147760" y="-85200"/><use xlink:href="#E8S_axS097l5_pad-1" x="150040" y="-62260"/><use xlink:href="#E8S_axS097l5_pad-1" x="150040" y="-77500"/><use xlink:href="#E8S_axS097l5_pad-1" x="150300" y="-85200"/><use xlink:href="#E8S_axS097l5_pad-1" x="152000" y="-46500"/><use xlink:href="#E8S_axS097l5_pad-1" x="152000" y="-49040"/><use xlink:href="#E8S_axS097l5_pad-1" x="152000" y="-51580"/><use xlink:href="#E8S_axS097l5_pad-1" x="152000" y="-54120"/><use xlink:href="#E8S_axS097l5_pad-1" x="152580" y="-62260"/><use xlink:href="#E8S_axS097l5_pad-1" x="152580" y="-77500"/><use xlink:href="#E8S_axS097l5_pad-1" x="152840" y="-85200"/><use xlink:href="#E8S_axS097l5_pad-1" x="155120" y="-62260"/><use xlink:href="#E8S_axS097l5_pad-1" x="155120" y="-77500"/><use xlink:href="#E8S_axS097l5_pad-1" x="155380" y="-85200"/><use xlink:href="#E8S_axS097l5_pad-1" x="157660" y="-62260"/><use xlink:href="#E8S_axS097l5_pad-1" x="157660" y="-77500"/><use xlink:href="#E8S_axS097l5_pad-1" x="160200" y="-62260"/><use xlink:href="#E8S_axS097l5_pad-1" x="160200" y="-77500"/><use xlink:href="#E8S_axS097l5_pad-1" x="162740" y="-62260"/><use xlink:href="#E8S_axS097l5_pad-1" x="162740" y="-77500"/><use xlink:href="#E8S_axS097l5_pad-1" x="165280" y="-62260"/><use xlink:href="#E8S_axS097l5_pad-1" x="165280" y="-77500"/></g><clipPath id="xl2VgejM70jH_bottom_outline"><path d="M 163300 -40900 171300 -40900 171300 -98900 163300 -98900 163300 -106900 105300 -106900 105300 -98900 97300 -98900 97300 -40900 105300 -40900 105300 -32900 163300 -32900 163300 -40900" fill="none" stroke-width="50"/></clipPath><mask id="xl2VgejM70jH_bottom_mech-mask"><g fill="#000" stroke="#000"><rect x="97300" y="-106900" width="74000" height="74000" fill="#fff"/><use xlink:href="#xl2VgejM70jH_bottom_drill1"/></g></mask><mask id="xl2VgejM70jH_bottom_cf-mask"><g fill="#fff" stroke="#fff"><use xlink:href="#xl2VgejM70jH_bottom_soldermask"/></g></mask><mask id="xl2VgejM70jH_bottom_sm-mask"><g fill="#000" stroke="#000"><rect x="97300" y="-106900" width="74000" height="74000" fill="#fff"/><use xlink:href="#xl2VgejM70jH_bottom_soldermask"/></g></mask></defs><g transform="translate(0,-139800) scale(1,-1)"><g mask="url(#xl2VgejM70jH_bottom_mech-mask)" clip-path="url(#xl2VgejM70jH_bottom_outline)" transform="translate(268600,0) scale(-1,1)"><rect x="97300" y="-106900" width="74000" height="74000" fill="currentColor" class="xl2VgejM70jH_fr4"/><use xlink:href="#xl2VgejM70jH_bottom_copper" fill="currentColor" stroke="currentColor" class="xl2VgejM70jH_cu"/><use xlink:href="#xl2VgejM70jH_bottom_copper" fill="currentColor" stroke="currentColor" class="xl2VgejM70jH_cf" mask="url(#xl2VgejM70jH_bottom_cf-mask)"/><g mask="url(#xl2VgejM70jH_bottom_sm-mask)"><rect x="97300" y="-106900" width="74000" height="74000" fill="currentColor" class="xl2VgejM70jH_sm"/></g></g></g></svg>