<?xml version="1.0" standalone="no"?>
 <!DOCTYPE svg PUBLIC "-//W3C//DTD SVG 1.1//EN" 
 "http://www.w3.org/Graphics/SVG/1.1/DTD/svg11.dtd"> 
<svg
  xmlns:svg="http://www.w3.org/2000/svg"
  xmlns="http://www.w3.org/2000/svg"
  xmlns:xlink="http://www.w3.org/1999/xlink"
  version="1.1"
  width="74.0410mm" height="85.5218mm" viewBox="0.0000 0.0000 74.0410 85.5218">
<title>SVG Image created as layout-top-test.svg date 2026/07/10 20:13:07 </title>
  <desc>Image generated by PCBNEW </desc>
<g style="fill:#000000; fill-opacity:1.0000;stroke:#000000; stroke-opacity:1.0000;
stroke-linecap:round; stroke-linejoin:round;"
 transform="translate(0 0) scale(1 1)">
<path style="fill:#4D7FC4; fill-opacity:1.0000; stroke:none;fill-rule:evenodd;"
d="M 38.5750,63.1482
40.2750,63.1482
40.2750,64.8482
38.5750,64.8482
Z" /> 
</g>
<g style="fill:#4D7FC4; fill-opacity:1.0000; stroke:none;">
<circle cx="36.8850" cy="63.9982" r="0.8500" /> 
<circle cx="34.3450" cy="63.9982" r="0.8500" /> 
<path style="fill:#4D7FC4; fill-opacity:1.0000; stroke:none;fill-rule:evenodd;"
d="M 48.7950,64.6482
47.0950,64.6482
47.0950,62.9482
48.7950,62.9482
Z" /> 
<circle cx="50.4850" cy="63.7982" r="0.8500" /> 
<circle cx="53.0250" cy="63.7982" r="0.8500" /> 
<circle cx="55.5650" cy="63.7982" r="0.8500" /> 
<circle cx="58.1050" cy="63.7982" r="0.8500" /> 
<path style="fill:#4D7FC4; fill-opacity:1.0000; stroke:none;fill-rule:evenodd;"
d="M 2.6650,38.6082
2.6650,36.9082
4.3650,36.9082
4.3650,38.6082
Z" /> 
<circle cx="3.5150" cy="40.2982" r="0.8500" /> 
<circle cx="3.5150" cy="42.8382" r="0.8500" /> 
<circle cx="3.5150" cy="45.3783" r="0.8500" /> 
<path style="fill:#4D7FC4; fill-opacity:1.0000; stroke:none;fill-rule:evenodd;"
d="M 53.8750,25.9482
53.8750,24.2482
55.5750,24.2482
55.5750,25.9482
Z" /> 
<circle cx="54.7250" cy="27.6382" r="0.8500" /> 
<circle cx="54.7250" cy="30.1782" r="0.8500" /> 
<circle cx="54.7250" cy="32.7182" r="0.8500" /> 
<path style="fill:#4D7FC4; fill-opacity:1.0000; stroke:none;fill-rule:evenodd;"
d="M 67.1550,40.0082
68.8550,40.0082
68.8550,41.7082
67.1550,41.7082
Z" /> 
<circle cx="65.4650" cy="40.8582" r="0.8500" /> 
<circle cx="62.9250" cy="40.8582" r="0.8500" /> 
<circle cx="60.3850" cy="40.8582" r="0.8500" /> 
<circle cx="57.8450" cy="40.8582" r="0.8500" /> 
<circle cx="55.3050" cy="40.8582" r="0.8500" /> 
<circle cx="52.7650" cy="40.8582" r="0.8500" /> 
<circle cx="50.2250" cy="40.8582" r="0.8500" /> 
<circle cx="47.6850" cy="40.8582" r="0.8500" /> 
<circle cx="45.1450" cy="40.8582" r="0.8500" /> 
<circle cx="42.6050" cy="40.8582" r="0.8500" /> 
<circle cx="40.0650" cy="40.8582" r="0.8500" /> 
<circle cx="37.5250" cy="40.8582" r="0.8500" /> 
<circle cx="34.9850" cy="40.8582" r="0.8500" /> 
<circle cx="32.4450" cy="40.8582" r="0.8500" /> 
<path style="fill:#4D7FC4; fill-opacity:1.0000; stroke:none;fill-rule:evenodd;"
d="M 16.8250,64.6482
15.1250,64.6482
15.1250,62.9482
16.8250,62.9482
Z" /> 
<circle cx="18.5150" cy="63.7982" r="0.8500" /> 
<circle cx="21.0550" cy="63.7982" r="0.8500" /> 
<circle cx="23.5950" cy="63.7982" r="0.8500" /> 
<circle cx="26.1350" cy="63.7982" r="0.8500" /> 
<path style="fill:#4D7FC4; fill-opacity:1.0000; stroke:none;fill-rule:evenodd;"
d="M 67.1550,55.2482
68.8550,55.2482
68.8550,56.9482
67.1550,56.9482
Z" /> 
<circle cx="65.4650" cy="56.0983" r="0.8500" /> 
<circle cx="62.9250" cy="56.0983" r="0.8500" /> 
<circle cx="60.3850" cy="56.0983" r="0.8500" /> 
<circle cx="57.8450" cy="56.0983" r="0.8500" /> 
<circle cx="55.3050" cy="56.0983" r="0.8500" /> 
<circle cx="52.7650" cy="56.0983" r="0.8500" /> 
<circle cx="50.2250" cy="56.0983" r="0.8500" /> 
<circle cx="47.6850" cy="56.0983" r="0.8500" /> 
<circle cx="45.1450" cy="56.0983" r="0.8500" /> 
<circle cx="42.6050" cy="56.0983" r="0.8500" /> 
<circle cx="40.0650" cy="56.0983" r="0.8500" /> 
<circle cx="37.5250" cy="56.0983" r="0.8500" /> 
<circle cx="34.9850" cy="56.0983" r="0.8500" /> 
<circle cx="32.4450" cy="56.0983" r="0.8500" /> 
</g>
<g style="fill:none; 
stroke:#4D7FC4; stroke-width:0.2000; stroke-opacity:1; 
stroke-linecap:round; stroke-linejoin:round;">
<path d="M54.7250 32.7182
L48.2050 32.7182
" />
<path d="M48.2050 32.7182
L40.0650 40.8582
" />
<path d="M42.4550 61.4682
L40.0650 59.0782
" />
<path d="M42.4550 68.6782
L42.4550 61.4682
" />
<path d="M50.7450 25.0983
L34.9850 40.8582
" />
<path d="M39.4050 71.7283
L42.4550 68.6782
" />
<path d="M1.0150 40.2582
L1.0150 60.4883
" />
<path d="M12.2550 71.7283
L39.4050 71.7283
" />
<path d="M1.0150 60.4883
L12.2550 71.7283
" />
<path d="M3.5150 37.7582
L1.0150 40.2582
" />
<path d="M54.7250 25.0983
L50.7450 25.0983
" />
<path d="M40.0650 59.0782
L40.0650 56.0983
" />
<path d="M57.8250 15.5983
L56.3250 14.0983
" />
<path d="M57.8250 24.5382
L57.8250 15.5983
" />
<path d="M44.6450 43.8982
L47.6850 40.8582
" />
<path d="M47.6850 40.8582
L47.6850 42.9883
" />
<path d="M30.8250 43.8982
L44.6450 43.8982
" />
<path d="M45.0550 45.6182
L6.2950 45.6182
" />
<path d="M30.3250 14.0983
L28.1250 16.2982
" />
<path d="M47.6850 42.9883
L45.0550 45.6182
" />
<path d="M56.3250 14.0983
L30.3250 14.0983
" />
<path d="M54.7250 27.6382
L57.8250 24.5382
" />
<path d="M28.1250 16.2982
L28.1250 41.1983
" />
<path d="M6.2950 45.6182
L3.5150 42.8382
" />
<path d="M28.1250 41.1983
L30.8250 43.8982
" />
<path d="M5.9750 47.8382
L46.7250 47.8382
" />
<path d="M57.9550 36.0682
L56.4150 37.6082
" />
<path d="M3.5150 45.3783
L5.9750 47.8382
" />
<path d="M46.7250 47.8382
L50.2250 44.3382
" />
<path d="M53.4750 37.6082
L50.2250 40.8582
" />
<path d="M54.7250 30.1782
L56.6450 30.1782
" />
<path d="M56.6450 30.1782
L57.9550 31.4882
" />
<path d="M57.9550 31.4882
L57.9550 36.0682
" />
<path d="M50.2250 44.3382
L50.2250 40.8582
" />
<path d="M56.4150 37.6082
L53.4750 37.6082
" />
<path d="M18.5150 57.0082
L26.1250 49.3982
" />
<path d="M61.3050 49.3982
L68.0050 56.0983
" />
<path d="M26.1250 49.3982
L61.3050 49.3982
" />
<path d="M18.5150 63.7982
L18.5150 57.0082
" />
<path d="M27.4250 50.8982
L60.2650 50.8982
" />
<path d="M60.2650 50.8982
L65.4650 56.0983
" />
<path d="M21.0550 63.7982
L21.0550 57.2682
" />
<path d="M21.0550 57.2682
L27.4250 50.8982
" />
<path d="M23.5950 63.7982
L23.5950 57.2282
" />
<path d="M58.8250 51.9982
L62.9250 56.0983
" />
<path d="M23.5950 57.2282
L28.8250 51.9982
" />
<path d="M28.8250 51.9982
L58.8250 51.9982
" />
<path d="M60.3850 58.9782
L60.3850 56.0983
" />
<path d="M55.5650 63.7982
L60.3850 58.9782
" />
<path d="M57.8450 58.9782
L57.8450 56.0983
" />
<path d="M53.0250 63.7982
L57.8450 58.9782
" />
<path d="M55.3050 58.9782
L55.3050 56.0983
" />
<path d="M50.4850 63.7982
L55.3050 58.9782
" />
<path style="fill:#C83434; fill-opacity:1.0000; stroke:none;fill-rule:evenodd;"
d="M 38.5750,63.1482
40.2750,63.1482
40.2750,64.8482
38.5750,64.8482
Z" /> 
</g>
<g style="fill:#C83434; fill-opacity:1.0000; stroke:none;">
<circle cx="36.8850" cy="63.9982" r="0.8500" /> 
<circle cx="34.3450" cy="63.9982" r="0.8500" /> 
<path style="fill:#C83434; fill-opacity:1.0000; stroke:none;fill-rule:evenodd;"
d="M 48.7950,64.6482
47.0950,64.6482
47.0950,62.9482
48.7950,62.9482
Z" /> 
<circle cx="50.4850" cy="63.7982" r="0.8500" /> 
<circle cx="53.0250" cy="63.7982" r="0.8500" /> 
<circle cx="55.5650" cy="63.7982" r="0.8500" /> 
<circle cx="58.1050" cy="63.7982" r="0.8500" /> 
<path style="fill:#C83434; fill-opacity:1.0000; stroke:none;fill-rule:evenodd;"
d="M 2.6650,38.6082
2.6650,36.9082
4.3650,36.9082
4.3650,38.6082
Z" /> 
<circle cx="3.5150" cy="40.2982" r="0.8500" /> 
<circle cx="3.5150" cy="42.8382" r="0.8500" /> 
<circle cx="3.5150" cy="45.3783" r="0.8500" /> 
<path style="fill:#C83434; fill-opacity:1.0000; stroke:none;fill-rule:evenodd;"
d="M 53.8750,25.9482
53.8750,24.2482
55.5750,24.2482
55.5750,25.9482
Z" /> 
<circle cx="54.7250" cy="27.6382" r="0.8500" /> 
<circle cx="54.7250" cy="30.1782" r="0.8500" /> 
<circle cx="54.7250" cy="32.7182" r="0.8500" /> 
<path style="fill:#C83434; fill-opacity:1.0000; stroke:none;fill-rule:evenodd;"
d="M 67.1550,40.0082
68.8550,40.0082
68.8550,41.7082
67.1550,41.7082
Z" /> 
<circle cx="65.4650" cy="40.8582" r="0.8500" /> 
<circle cx="62.9250" cy="40.8582" r="0.8500" /> 
<circle cx="60.3850" cy="40.8582" r="0.8500" /> 
<circle cx="57.8450" cy="40.8582" r="0.8500" /> 
<circle cx="55.3050" cy="40.8582" r="0.8500" /> 
<circle cx="52.7650" cy="40.8582" r="0.8500" /> 
<circle cx="50.2250" cy="40.8582" r="0.8500" /> 
<circle cx="47.6850" cy="40.8582" r="0.8500" /> 
<circle cx="45.1450" cy="40.8582" r="0.8500" /> 
<circle cx="42.6050" cy="40.8582" r="0.8500" /> 
<circle cx="40.0650" cy="40.8582" r="0.8500" /> 
<circle cx="37.5250" cy="40.8582" r="0.8500" /> 
<circle cx="34.9850" cy="40.8582" r="0.8500" /> 
<circle cx="32.4450" cy="40.8582" r="0.8500" /> 
<path style="fill:#C83434; fill-opacity:1.0000; stroke:none;fill-rule:evenodd;"
d="M 16.8250,64.6482
15.1250,64.6482
15.1250,62.9482
16.8250,62.9482
Z" /> 
<circle cx="18.5150" cy="63.7982" r="0.8500" /> 
<circle cx="21.0550" cy="63.7982" r="0.8500" /> 
<circle cx="23.5950" cy="63.7982" r="0.8500" /> 
<circle cx="26.1350" cy="63.7982" r="0.8500" /> 
<path style="fill:#C83434; fill-opacity:1.0000; stroke:none;fill-rule:evenodd;"
d="M 67.1550,55.2482
68.8550,55.2482
68.8550,56.9482
67.1550,56.9482
Z" /> 
<circle cx="65.4650" cy="56.0983" r="0.8500" /> 
<circle cx="62.9250" cy="56.0983" r="0.8500" /> 
<circle cx="60.3850" cy="56.0983" r="0.8500" /> 
<circle cx="57.8450" cy="56.0983" r="0.8500" /> 
<circle cx="55.3050" cy="56.0983" r="0.8500" /> 
<circle cx="52.7650" cy="56.0983" r="0.8500" /> 
<circle cx="50.2250" cy="56.0983" r="0.8500" /> 
<circle cx="47.6850" cy="56.0983" r="0.8500" /> 
<circle cx="45.1450" cy="56.0983" r="0.8500" /> 
<circle cx="42.6050" cy="56.0983" r="0.8500" /> 
<circle cx="40.0650" cy="56.0983" r="0.8500" /> 
<circle cx="37.5250" cy="56.0983" r="0.8500" /> 
<circle cx="34.9850" cy="56.0983" r="0.8500" /> 
<circle cx="32.4450" cy="56.0983" r="0.8500" /> 
</g>
<g style="fill:none; 
stroke:#C83434; stroke-width:0.2000; stroke-opacity:1; 
stroke-linecap:round; stroke-linejoin:round;">
<path d="M36.8850 63.9982
L33.9850 66.8982
" />
<path d="M13.0750 33.7383
L36.6550 33.7383
" />
<path d="M40.0650 43.1683
L40.0650 40.8582
" />
<path d="M30.4850 66.8982
L28.5950 65.0083
" />
<path d="M28.5950 65.0083
L28.5950 54.6382
" />
<path d="M15.9750 44.4482
L24.6250 35.7982
" />
<path d="M70.0750 60.9782
L50.7650 60.9782
" />
<path d="M72.9250 58.1282
L70.0750 60.9782
" />
<path d="M35.0250 35.7982
L40.0650 40.8382
" />
<path d="M28.5950 54.6382
L40.0650 43.1683
" />
<path d="M36.6550 33.7383
L40.0650 37.1482
" />
<path d="M15.9750 63.7982
L15.9750 44.4482
" />
<path d="M50.7650 60.9782
L47.9450 63.7982
" />
<path d="M40.0650 40.8382
L40.0650 40.8582
" />
<path d="M44.3250 36.5983
L70.7250 36.5983
" />
<path d="M3.5150 40.2982
L6.5150 40.2982
" />
<path d="M33.9850 66.8982
L30.4850 66.8982
" />
<path d="M72.9250 38.7982
L72.9250 58.1282
" />
<path d="M24.6250 35.7982
L35.0250 35.7982
" />
<path d="M40.0650 40.8582
L44.3250 36.5983
" />
<path d="M6.5150 40.2982
L13.0750 33.7383
" />
<path d="M40.0650 37.1482
L40.0650 40.8582
" />
<path d="M70.7250 36.5983
L72.9250 38.7982
" />
<path d="M54.3050 67.5982
L58.1050 63.7982
" />
<path d="M39.4250 63.9982
L39.4250 56.7383
" />
<path d="M26.1350 63.7982
L26.1350 55.7882
" />
<path d="M26.1350 55.7882
L34.9850 46.9382
" />
<path d="M43.4250 59.4582
L40.0650 56.0983
" />
<path d="M39.4250 56.7383
L40.0650 56.0983
" />
<path d="M34.9850 46.9382
L34.9850 40.8582
" />
<path d="M43.4250 65.7982
L43.4250 59.4582
" />
<path d="M45.2250 67.5982
L54.3050 67.5982
" />
<path d="M45.2250 67.5982
L43.4250 65.7982
" />
<path d="M30.9350 53.3083
L41.8450 53.3083
" />
<path d="M30.0050 54.2383
L30.9350 53.3083
" />
<path d="M30.0050 59.6582
L30.0050 54.2383
" />
<path d="M42.6050 54.0682
L42.6050 56.0983
" />
<path d="M41.8450 53.3083
L42.6050 54.0682
" />
<path d="M34.3450 63.9982
L30.0050 59.6582
" />
</g>
<g style="fill:none; 
stroke:#F2EDA1; stroke-width:0.1500; stroke-opacity:1; 
stroke-linecap:round; stroke-linejoin:round;">
<g transform="rotate(-90.000000 42.1950 63.9982)">
<text x="42.1950" y="64.4982"
textLength="5.0595" font-size="1.3333" lengthAdjust="spacingAndGlyphs"
text-anchor="middle" opacity="0" stroke-opacity="0">SR602</text>
</g>
<g class="stroked-text"><desc>SR602</desc>
<path d="M42.6022 66.2125
L42.6498 66.0697
" />
<path d="M42.6498 66.0697
L42.6498 65.8316
" />
<path d="M42.6498 65.8316
L42.6022 65.7363
" />
<path d="M42.6022 65.7363
L42.5546 65.6887
" />
<path d="M42.5546 65.6887
L42.4593 65.6411
" />
<path d="M42.4593 65.6411
L42.3641 65.6411
" />
<path d="M42.3641 65.6411
L42.2689 65.6887
" />
<path d="M42.2689 65.6887
L42.2212 65.7363
" />
<path d="M42.2212 65.7363
L42.1736 65.8316
" />
<path d="M42.1736 65.8316
L42.1260 66.0221
" />
<path d="M42.1260 66.0221
L42.0784 66.1173
" />
<path d="M42.0784 66.1173
L42.0308 66.1649
" />
<path d="M42.0308 66.1649
L41.9355 66.2125
" />
<path d="M41.9355 66.2125
L41.8403 66.2125
" />
<path d="M41.8403 66.2125
L41.7451 66.1649
" />
<path d="M41.7451 66.1649
L41.6974 66.1173
" />
<path d="M41.6974 66.1173
L41.6498 66.0221
" />
<path d="M41.6498 66.0221
L41.6498 65.7840
" />
<path d="M41.6498 65.7840
L41.6974 65.6411
" />
<path d="M42.6498 64.6411
L42.1736 64.9744
" />
<path d="M42.6498 65.2125
L41.6498 65.2125
" />
<path d="M41.6498 65.2125
L41.6498 64.8316
" />
<path d="M41.6498 64.8316
L41.6974 64.7363
" />
<path d="M41.6974 64.7363
L41.7451 64.6887
" />
<path d="M41.7451 64.6887
L41.8403 64.6411
" />
<path d="M41.8403 64.6411
L41.9832 64.6411
" />
<path d="M41.9832 64.6411
L42.0784 64.6887
" />
<path d="M42.0784 64.6887
L42.1260 64.7363
" />
<path d="M42.1260 64.7363
L42.1736 64.8316
" />
<path d="M42.1736 64.8316
L42.1736 65.2125
" />
<path d="M41.6498 63.7840
L41.6498 63.9744
" />
<path d="M41.6498 63.9744
L41.6974 64.0697
" />
<path d="M41.6974 64.0697
L41.7451 64.1173
" />
<path d="M41.7451 64.1173
L41.8879 64.2125
" />
<path d="M41.8879 64.2125
L42.0784 64.2602
" />
<path d="M42.0784 64.2602
L42.4593 64.2602
" />
<path d="M42.4593 64.2602
L42.5546 64.2125
" />
<path d="M42.5546 64.2125
L42.6022 64.1649
" />
<path d="M42.6022 64.1649
L42.6498 64.0697
" />
<path d="M42.6498 64.0697
L42.6498 63.8792
" />
<path d="M42.6498 63.8792
L42.6022 63.7840
" />
<path d="M42.6022 63.7840
L42.5546 63.7363
" />
<path d="M42.5546 63.7363
L42.4593 63.6887
" />
<path d="M42.4593 63.6887
L42.2212 63.6887
" />
<path d="M42.2212 63.6887
L42.1260 63.7363
" />
<path d="M42.1260 63.7363
L42.0784 63.7840
" />
<path d="M42.0784 63.7840
L42.0308 63.8792
" />
<path d="M42.0308 63.8792
L42.0308 64.0697
" />
<path d="M42.0308 64.0697
L42.0784 64.1649
" />
<path d="M42.0784 64.1649
L42.1260 64.2125
" />
<path d="M42.1260 64.2125
L42.2212 64.2602
" />
<path d="M41.6498 63.0697
L41.6498 62.9744
" />
<path d="M41.6498 62.9744
L41.6974 62.8792
" />
<path d="M41.6974 62.8792
L41.7451 62.8316
" />
<path d="M41.7451 62.8316
L41.8403 62.7840
" />
<path d="M41.8403 62.7840
L42.0308 62.7363
" />
<path d="M42.0308 62.7363
L42.2689 62.7363
" />
<path d="M42.2689 62.7363
L42.4593 62.7840
" />
<path d="M42.4593 62.7840
L42.5546 62.8316
" />
<path d="M42.5546 62.8316
L42.6022 62.8792
" />
<path d="M42.6022 62.8792
L42.6498 62.9744
" />
<path d="M42.6498 62.9744
L42.6498 63.0697
" />
<path d="M42.6498 63.0697
L42.6022 63.1649
" />
<path d="M42.6022 63.1649
L42.5546 63.2125
" />
<path d="M42.5546 63.2125
L42.4593 63.2602
" />
<path d="M42.4593 63.2602
L42.2689 63.3078
" />
<path d="M42.2689 63.3078
L42.0308 63.3078
" />
<path d="M42.0308 63.3078
L41.8403 63.2602
" />
<path d="M41.8403 63.2602
L41.7451 63.2125
" />
<path d="M41.7451 63.2125
L41.6974 63.1649
" />
<path d="M41.6974 63.1649
L41.6498 63.0697
" />
<path d="M41.7451 62.3554
L41.6974 62.3078
" />
<path d="M41.6974 62.3078
L41.6498 62.2125
" />
<path d="M41.6498 62.2125
L41.6498 61.9744
" />
<path d="M41.6498 61.9744
L41.6974 61.8792
" />
<path d="M41.6974 61.8792
L41.7451 61.8316
" />
<path d="M41.7451 61.8316
L41.8403 61.7840
" />
<path d="M41.8403 61.7840
L41.9355 61.7840
" />
<path d="M41.9355 61.7840
L42.0784 61.8316
" />
<path d="M42.0784 61.8316
L42.6498 62.4030
" />
<path d="M42.6498 62.4030
L42.6498 61.7840
" />
</g><g transform="rotate(-90.000000 45.1750 63.7982)">
<text x="45.1750" y="64.2982"
textLength="4.9167" font-size="1.3333" lengthAdjust="spacingAndGlyphs"
text-anchor="middle" opacity="0" stroke-opacity="0">Knob2</text>
</g>
<g class="stroked-text"><desc>Knob2</desc>
<path d="M45.6298 65.8935
L44.6298 65.8935
" />
<path d="M45.6298 65.3221
L45.0584 65.7506
" />
<path d="M44.6298 65.3221
L45.2012 65.8935
" />
<path d="M44.9632 64.8935
L45.6298 64.8935
" />
<path d="M45.0584 64.8935
L45.0108 64.8459
" />
<path d="M45.0108 64.8459
L44.9632 64.7506
" />
<path d="M44.9632 64.7506
L44.9632 64.6078
" />
<path d="M44.9632 64.6078
L45.0108 64.5125
" />
<path d="M45.0108 64.5125
L45.1060 64.4649
" />
<path d="M45.1060 64.4649
L45.6298 64.4649
" />
<path d="M45.6298 63.8459
L45.5822 63.9411
" />
<path d="M45.5822 63.9411
L45.5346 63.9887
" />
<path d="M45.5346 63.9887
L45.4393 64.0363
" />
<path d="M45.4393 64.0363
L45.1536 64.0363
" />
<path d="M45.1536 64.0363
L45.0584 63.9887
" />
<path d="M45.0584 63.9887
L45.0108 63.9411
" />
<path d="M45.0108 63.9411
L44.9632 63.8459
" />
<path d="M44.9632 63.8459
L44.9632 63.7030
" />
<path d="M44.9632 63.7030
L45.0108 63.6078
" />
<path d="M45.0108 63.6078
L45.0584 63.5602
" />
<path d="M45.0584 63.5602
L45.1536 63.5125
" />
<path d="M45.1536 63.5125
L45.4393 63.5125
" />
<path d="M45.4393 63.5125
L45.5346 63.5602
" />
<path d="M45.5346 63.5602
L45.5822 63.6078
" />
<path d="M45.5822 63.6078
L45.6298 63.7030
" />
<path d="M45.6298 63.7030
L45.6298 63.8459
" />
<path d="M45.6298 63.0840
L44.6298 63.0840
" />
<path d="M45.0108 63.0840
L44.9632 62.9887
" />
<path d="M44.9632 62.9887
L44.9632 62.7982
" />
<path d="M44.9632 62.7982
L45.0108 62.7030
" />
<path d="M45.0108 62.7030
L45.0584 62.6554
" />
<path d="M45.0584 62.6554
L45.1536 62.6078
" />
<path d="M45.1536 62.6078
L45.4393 62.6078
" />
<path d="M45.4393 62.6078
L45.5346 62.6554
" />
<path d="M45.5346 62.6554
L45.5822 62.7030
" />
<path d="M45.5822 62.7030
L45.6298 62.7982
" />
<path d="M45.6298 62.7982
L45.6298 62.9887
" />
<path d="M45.6298 62.9887
L45.5822 63.0840
" />
<path d="M44.7251 62.2268
L44.6774 62.1792
" />
<path d="M44.6774 62.1792
L44.6298 62.0840
" />
<path d="M44.6298 62.0840
L44.6298 61.8459
" />
<path d="M44.6298 61.8459
L44.6774 61.7506
" />
<path d="M44.6774 61.7506
L44.7251 61.7030
" />
<path d="M44.7251 61.7030
L44.8203 61.6554
" />
<path d="M44.8203 61.6554
L44.9155 61.6554
" />
<path d="M44.9155 61.6554
L45.0584 61.7030
" />
<path d="M45.0584 61.7030
L45.6298 62.2744
" />
<path d="M45.6298 62.2744
L45.6298 61.6554
" />
</g><text x="3.5150" y="35.9282"
textLength="4.0119" font-size="1.3333" lengthAdjust="spacingAndGlyphs"
text-anchor="middle" opacity="0" stroke-opacity="0">OLED</text>
<g class="stroked-text"><desc>OLED</desc>
<path d="M2.0626 34.8831
L2.2531 34.8831
" />
<path d="M2.2531 34.8831
L2.3483 34.9307
" />
<path d="M2.3483 34.9307
L2.4436 35.0259
" />
<path d="M2.4436 35.0259
L2.4912 35.2164
" />
<path d="M2.4912 35.2164
L2.4912 35.5497
" />
<path d="M2.4912 35.5497
L2.4436 35.7402
" />
<path d="M2.4436 35.7402
L2.3483 35.8355
" />
<path d="M2.3483 35.8355
L2.2531 35.8831
" />
<path d="M2.2531 35.8831
L2.0626 35.8831
" />
<path d="M2.0626 35.8831
L1.9674 35.8355
" />
<path d="M1.9674 35.8355
L1.8721 35.7402
" />
<path d="M1.8721 35.7402
L1.8245 35.5497
" />
<path d="M1.8245 35.5497
L1.8245 35.2164
" />
<path d="M1.8245 35.2164
L1.8721 35.0259
" />
<path d="M1.8721 35.0259
L1.9674 34.9307
" />
<path d="M1.9674 34.9307
L2.0626 34.8831
" />
<path d="M3.3960 35.8831
L2.9198 35.8831
" />
<path d="M2.9198 35.8831
L2.9198 34.8831
" />
<path d="M3.7293 35.3593
L4.0626 35.3593
" />
<path d="M4.2055 35.8831
L3.7293 35.8831
" />
<path d="M3.7293 35.8831
L3.7293 34.8831
" />
<path d="M3.7293 34.8831
L4.2055 34.8831
" />
<path d="M4.6340 35.8831
L4.6340 34.8831
" />
<path d="M4.6340 34.8831
L4.8721 34.8831
" />
<path d="M4.8721 34.8831
L5.0150 34.9307
" />
<path d="M5.0150 34.9307
L5.1102 35.0259
" />
<path d="M5.1102 35.0259
L5.1579 35.1212
" />
<path d="M5.1579 35.1212
L5.2055 35.3116
" />
<path d="M5.2055 35.3116
L5.2055 35.4545
" />
<path d="M5.2055 35.4545
L5.1579 35.6450
" />
<path d="M5.1579 35.6450
L5.1102 35.7402
" />
<path d="M5.1102 35.7402
L5.0150 35.8355
" />
<path d="M5.0150 35.8355
L4.8721 35.8831
" />
<path d="M4.8721 35.8831
L4.6340 35.8831
" />
</g><text x="54.7250" y="23.2682"
textLength="7.2500" font-size="1.3333" lengthAdjust="spacingAndGlyphs"
text-anchor="middle" opacity="0" stroke-opacity="0">MCU1080</text>
<g class="stroked-text"><desc>MCU1080</desc>
<path d="M51.4631 23.2231
L51.4631 22.2231
" />
<path d="M51.4631 22.2231
L51.7964 22.9374
" />
<path d="M51.7964 22.9374
L52.1298 22.2231
" />
<path d="M52.1298 22.2231
L52.1298 23.2231
" />
<path d="M53.1774 23.1278
L53.1298 23.1754
" />
<path d="M53.1298 23.1754
L52.9869 23.2231
" />
<path d="M52.9869 23.2231
L52.8917 23.2231
" />
<path d="M52.8917 23.2231
L52.7488 23.1754
" />
<path d="M52.7488 23.1754
L52.6536 23.0802
" />
<path d="M52.6536 23.0802
L52.6060 22.9850
" />
<path d="M52.6060 22.9850
L52.5583 22.7945
" />
<path d="M52.5583 22.7945
L52.5583 22.6516
" />
<path d="M52.5583 22.6516
L52.6060 22.4612
" />
<path d="M52.6060 22.4612
L52.6536 22.3659
" />
<path d="M52.6536 22.3659
L52.7488 22.2707
" />
<path d="M52.7488 22.2707
L52.8917 22.2231
" />
<path d="M52.8917 22.2231
L52.9869 22.2231
" />
<path d="M52.9869 22.2231
L53.1298 22.2707
" />
<path d="M53.1298 22.2707
L53.1774 22.3183
" />
<path d="M53.6060 22.2231
L53.6060 23.0326
" />
<path d="M53.6060 23.0326
L53.6536 23.1278
" />
<path d="M53.6536 23.1278
L53.7012 23.1754
" />
<path d="M53.7012 23.1754
L53.7964 23.2231
" />
<path d="M53.7964 23.2231
L53.9869 23.2231
" />
<path d="M53.9869 23.2231
L54.0821 23.1754
" />
<path d="M54.0821 23.1754
L54.1298 23.1278
" />
<path d="M54.1298 23.1278
L54.1774 23.0326
" />
<path d="M54.1774 23.0326
L54.1774 22.2231
" />
<path d="M55.1774 23.2231
L54.6060 23.2231
" />
<path d="M54.8917 23.2231
L54.8917 22.2231
" />
<path d="M54.8917 22.2231
L54.7964 22.3659
" />
<path d="M54.7964 22.3659
L54.7012 22.4612
" />
<path d="M54.7012 22.4612
L54.6060 22.5088
" />
<path d="M55.7964 22.2231
L55.8917 22.2231
" />
<path d="M55.8917 22.2231
L55.9869 22.2707
" />
<path d="M55.9869 22.2707
L56.0345 22.3183
" />
<path d="M56.0345 22.3183
L56.0821 22.4135
" />
<path d="M56.0821 22.4135
L56.1298 22.6040
" />
<path d="M56.1298 22.6040
L56.1298 22.8421
" />
<path d="M56.1298 22.8421
L56.0821 23.0326
" />
<path d="M56.0821 23.0326
L56.0345 23.1278
" />
<path d="M56.0345 23.1278
L55.9869 23.1754
" />
<path d="M55.9869 23.1754
L55.8917 23.2231
" />
<path d="M55.8917 23.2231
L55.7964 23.2231
" />
<path d="M55.7964 23.2231
L55.7012 23.1754
" />
<path d="M55.7012 23.1754
L55.6536 23.1278
" />
<path d="M55.6536 23.1278
L55.6060 23.0326
" />
<path d="M55.6060 23.0326
L55.5583 22.8421
" />
<path d="M55.5583 22.8421
L55.5583 22.6040
" />
<path d="M55.5583 22.6040
L55.6060 22.4135
" />
<path d="M55.6060 22.4135
L55.6536 22.3183
" />
<path d="M55.6536 22.3183
L55.7012 22.2707
" />
<path d="M55.7012 22.2707
L55.7964 22.2231
" />
<path d="M56.7012 22.6516
L56.6060 22.6040
" />
<path d="M56.6060 22.6040
L56.5583 22.5564
" />
<path d="M56.5583 22.5564
L56.5107 22.4612
" />
<path d="M56.5107 22.4612
L56.5107 22.4135
" />
<path d="M56.5107 22.4135
L56.5583 22.3183
" />
<path d="M56.5583 22.3183
L56.6060 22.2707
" />
<path d="M56.6060 22.2707
L56.7012 22.2231
" />
<path d="M56.7012 22.2231
L56.8917 22.2231
" />
<path d="M56.8917 22.2231
L56.9869 22.2707
" />
<path d="M56.9869 22.2707
L57.0345 22.3183
" />
<path d="M57.0345 22.3183
L57.0821 22.4135
" />
<path d="M57.0821 22.4135
L57.0821 22.4612
" />
<path d="M57.0821 22.4612
L57.0345 22.5564
" />
<path d="M57.0345 22.5564
L56.9869 22.6040
" />
<path d="M56.9869 22.6040
L56.8917 22.6516
" />
<path d="M56.8917 22.6516
L56.7012 22.6516
" />
<path d="M56.7012 22.6516
L56.6060 22.6993
" />
<path d="M56.6060 22.6993
L56.5583 22.7469
" />
<path d="M56.5583 22.7469
L56.5107 22.8421
" />
<path d="M56.5107 22.8421
L56.5107 23.0326
" />
<path d="M56.5107 23.0326
L56.5583 23.1278
" />
<path d="M56.5583 23.1278
L56.6060 23.1754
" />
<path d="M56.6060 23.1754
L56.7012 23.2231
" />
<path d="M56.7012 23.2231
L56.8917 23.2231
" />
<path d="M56.8917 23.2231
L56.9869 23.1754
" />
<path d="M56.9869 23.1754
L57.0345 23.1278
" />
<path d="M57.0345 23.1278
L57.0821 23.0326
" />
<path d="M57.0821 23.0326
L57.0821 22.8421
" />
<path d="M57.0821 22.8421
L57.0345 22.7469
" />
<path d="M57.0345 22.7469
L56.9869 22.6993
" />
<path d="M56.9869 22.6993
L56.8917 22.6516
" />
<path d="M57.7012 22.2231
L57.7964 22.2231
" />
<path d="M57.7964 22.2231
L57.8917 22.2707
" />
<path d="M57.8917 22.2707
L57.9393 22.3183
" />
<path d="M57.9393 22.3183
L57.9869 22.4135
" />
<path d="M57.9869 22.4135
L58.0345 22.6040
" />
<path d="M58.0345 22.6040
L58.0345 22.8421
" />
<path d="M58.0345 22.8421
L57.9869 23.0326
" />
<path d="M57.9869 23.0326
L57.9393 23.1278
" />
<path d="M57.9393 23.1278
L57.8917 23.1754
" />
<path d="M57.8917 23.1754
L57.7964 23.2231
" />
<path d="M57.7964 23.2231
L57.7012 23.2231
" />
<path d="M57.7012 23.2231
L57.6060 23.1754
" />
<path d="M57.6060 23.1754
L57.5583 23.1278
" />
<path d="M57.5583 23.1278
L57.5107 23.0326
" />
<path d="M57.5107 23.0326
L57.4631 22.8421
" />
<path d="M57.4631 22.8421
L57.4631 22.6040
" />
<path d="M57.4631 22.6040
L57.5107 22.4135
" />
<path d="M57.5107 22.4135
L57.5583 22.3183
" />
<path d="M57.5583 22.3183
L57.6060 22.2707
" />
<path d="M57.6060 22.2707
L57.7012 22.2231
" />
</g><g transform="rotate(-90.000000 70.7750 40.8582)">
<text x="70.7750" y="41.3582"
textLength="4.2500" font-size="1.3333" lengthAdjust="spacingAndGlyphs"
text-anchor="middle" opacity="0" stroke-opacity="0">NANO</text>
</g>
<g class="stroked-text"><desc>NANO</desc>
<path d="M71.2298 42.6202
L70.2298 42.6202
" />
<path d="M70.2298 42.6202
L71.2298 42.0487
" />
<path d="M71.2298 42.0487
L70.2298 42.0487
" />
<path d="M70.9441 41.6202
L70.9441 41.1440
" />
<path d="M71.2298 41.7154
L70.2298 41.3821
" />
<path d="M70.2298 41.3821
L71.2298 41.0487
" />
<path d="M71.2298 40.7154
L70.2298 40.7154
" />
<path d="M70.2298 40.7154
L71.2298 40.1440
" />
<path d="M71.2298 40.1440
L70.2298 40.1440
" />
<path d="M70.2298 39.4773
L70.2298 39.2868
" />
<path d="M70.2298 39.2868
L70.2774 39.1916
" />
<path d="M70.2774 39.1916
L70.3727 39.0963
" />
<path d="M70.3727 39.0963
L70.5632 39.0487
" />
<path d="M70.5632 39.0487
L70.8965 39.0487
" />
<path d="M70.8965 39.0487
L71.0870 39.0963
" />
<path d="M71.0870 39.0963
L71.1822 39.1916
" />
<path d="M71.1822 39.1916
L71.2298 39.2868
" />
<path d="M71.2298 39.2868
L71.2298 39.4773
" />
<path d="M71.2298 39.4773
L71.1822 39.5725
" />
<path d="M71.1822 39.5725
L71.0870 39.6678
" />
<path d="M71.0870 39.6678
L70.8965 39.7154
" />
<path d="M70.8965 39.7154
L70.5632 39.7154
" />
<path d="M70.5632 39.7154
L70.3727 39.6678
" />
<path d="M70.3727 39.6678
L70.2774 39.5725
" />
<path d="M70.2774 39.5725
L70.2298 39.4773
" />
</g><g transform="rotate(-90.000000 13.2050 63.7982)">
<text x="13.2050" y="64.2982"
textLength="4.9167" font-size="1.3333" lengthAdjust="spacingAndGlyphs"
text-anchor="middle" opacity="0" stroke-opacity="0">Knob1</text>
</g>
<g class="stroked-text"><desc>Knob1</desc>
<path d="M13.6598 65.8935
L12.6598 65.8935
" />
<path d="M13.6598 65.3221
L13.0884 65.7506
" />
<path d="M12.6598 65.3221
L13.2312 65.8935
" />
<path d="M12.9932 64.8935
L13.6598 64.8935
" />
<path d="M13.0884 64.8935
L13.0408 64.8459
" />
<path d="M13.0408 64.8459
L12.9932 64.7506
" />
<path d="M12.9932 64.7506
L12.9932 64.6078
" />
<path d="M12.9932 64.6078
L13.0408 64.5125
" />
<path d="M13.0408 64.5125
L13.1360 64.4649
" />
<path d="M13.1360 64.4649
L13.6598 64.4649
" />
<path d="M13.6598 63.8459
L13.6122 63.9411
" />
<path d="M13.6122 63.9411
L13.5646 63.9887
" />
<path d="M13.5646 63.9887
L13.4693 64.0363
" />
<path d="M13.4693 64.0363
L13.1836 64.0363
" />
<path d="M13.1836 64.0363
L13.0884 63.9887
" />
<path d="M13.0884 63.9887
L13.0408 63.9411
" />
<path d="M13.0408 63.9411
L12.9932 63.8459
" />
<path d="M12.9932 63.8459
L12.9932 63.7030
" />
<path d="M12.9932 63.7030
L13.0408 63.6078
" />
<path d="M13.0408 63.6078
L13.0884 63.5602
" />
<path d="M13.0884 63.5602
L13.1836 63.5125
" />
<path d="M13.1836 63.5125
L13.4693 63.5125
" />
<path d="M13.4693 63.5125
L13.5646 63.5602
" />
<path d="M13.5646 63.5602
L13.6122 63.6078
" />
<path d="M13.6122 63.6078
L13.6598 63.7030
" />
<path d="M13.6598 63.7030
L13.6598 63.8459
" />
<path d="M13.6598 63.0840
L12.6598 63.0840
" />
<path d="M13.0408 63.0840
L12.9932 62.9887
" />
<path d="M12.9932 62.9887
L12.9932 62.7982
" />
<path d="M12.9932 62.7982
L13.0408 62.7030
" />
<path d="M13.0408 62.7030
L13.0884 62.6554
" />
<path d="M13.0884 62.6554
L13.1836 62.6078
" />
<path d="M13.1836 62.6078
L13.4693 62.6078
" />
<path d="M13.4693 62.6078
L13.5646 62.6554
" />
<path d="M13.5646 62.6554
L13.6122 62.7030
" />
<path d="M13.6122 62.7030
L13.6598 62.7982
" />
<path d="M13.6598 62.7982
L13.6598 62.9887
" />
<path d="M13.6598 62.9887
L13.6122 63.0840
" />
<path d="M13.6598 61.6554
L13.6598 62.2268
" />
<path d="M13.6598 61.9411
L12.6598 61.9411
" />
<path d="M12.6598 61.9411
L12.8027 62.0363
" />
<path d="M12.8027 62.0363
L12.8979 62.1316
" />
<path d="M12.8979 62.1316
L12.9455 62.2268
" />
</g><g transform="rotate(-90.000000 70.7750 56.0983)">
<text x="70.7750" y="56.5983"
textLength="5.0119" font-size="1.3333" lengthAdjust="spacingAndGlyphs"
text-anchor="middle" opacity="0" stroke-opacity="0">ESP32</text>
</g>
<g class="stroked-text"><desc>ESP32</desc>
<path d="M70.7060 58.2411
L70.7060 57.9078
" />
<path d="M71.2298 57.7649
L71.2298 58.2411
" />
<path d="M71.2298 58.2411
L70.2298 58.2411
" />
<path d="M70.2298 58.2411
L70.2298 57.7649
" />
<path d="M71.1822 57.3840
L71.2298 57.2411
" />
<path d="M71.2298 57.2411
L71.2298 57.0030
" />
<path d="M71.2298 57.0030
L71.1822 56.9078
" />
<path d="M71.1822 56.9078
L71.1346 56.8602
" />
<path d="M71.1346 56.8602
L71.0393 56.8125
" />
<path d="M71.0393 56.8125
L70.9441 56.8125
" />
<path d="M70.9441 56.8125
L70.8489 56.8602
" />
<path d="M70.8489 56.8602
L70.8012 56.9078
" />
<path d="M70.8012 56.9078
L70.7536 57.0030
" />
<path d="M70.7536 57.0030
L70.7060 57.1935
" />
<path d="M70.7060 57.1935
L70.6584 57.2887
" />
<path d="M70.6584 57.2887
L70.6108 57.3363
" />
<path d="M70.6108 57.3363
L70.5155 57.3840
" />
<path d="M70.5155 57.3840
L70.4203 57.3840
" />
<path d="M70.4203 57.3840
L70.3251 57.3363
" />
<path d="M70.3251 57.3363
L70.2774 57.2887
" />
<path d="M70.2774 57.2887
L70.2298 57.1935
" />
<path d="M70.2298 57.1935
L70.2298 56.9554
" />
<path d="M70.2298 56.9554
L70.2774 56.8125
" />
<path d="M71.2298 56.3840
L70.2298 56.3840
" />
<path d="M70.2298 56.3840
L70.2298 56.0030
" />
<path d="M70.2298 56.0030
L70.2774 55.9078
" />
<path d="M70.2774 55.9078
L70.3251 55.8602
" />
<path d="M70.3251 55.8602
L70.4203 55.8125
" />
<path d="M70.4203 55.8125
L70.5632 55.8125
" />
<path d="M70.5632 55.8125
L70.6584 55.8602
" />
<path d="M70.6584 55.8602
L70.7060 55.9078
" />
<path d="M70.7060 55.9078
L70.7536 56.0030
" />
<path d="M70.7536 56.0030
L70.7536 56.3840
" />
<path d="M70.2298 55.4792
L70.2298 54.8602
" />
<path d="M70.2298 54.8602
L70.6108 55.1935
" />
<path d="M70.6108 55.1935
L70.6108 55.0506
" />
<path d="M70.6108 55.0506
L70.6584 54.9554
" />
<path d="M70.6584 54.9554
L70.7060 54.9078
" />
<path d="M70.7060 54.9078
L70.8012 54.8602
" />
<path d="M70.8012 54.8602
L71.0393 54.8602
" />
<path d="M71.0393 54.8602
L71.1346 54.9078
" />
<path d="M71.1346 54.9078
L71.1822 54.9554
" />
<path d="M71.1822 54.9554
L71.2298 55.0506
" />
<path d="M71.2298 55.0506
L71.2298 55.3363
" />
<path d="M71.2298 55.3363
L71.1822 55.4316
" />
<path d="M71.1822 55.4316
L71.1346 55.4792
" />
<path d="M70.3251 54.4792
L70.2774 54.4316
" />
<path d="M70.2774 54.4316
L70.2298 54.3363
" />
<path d="M70.2298 54.3363
L70.2298 54.0982
" />
<path d="M70.2298 54.0982
L70.2774 54.0030
" />
<path d="M70.2774 54.0030
L70.3251 53.9554
" />
<path d="M70.3251 53.9554
L70.4203 53.9078
" />
<path d="M70.4203 53.9078
L70.5155 53.9078
" />
<path d="M70.5155 53.9078
L70.6584 53.9554
" />
<path d="M70.6584 53.9554
L71.2298 54.5268
" />
<path d="M71.2298 54.5268
L71.2298 53.9078
" />
</g></g>
<g style="fill:none; 
stroke:#F2EDA1; stroke-width:0.1200; stroke-opacity:1; 
stroke-linecap:round; stroke-linejoin:round;">
<path d="M33.0150 62.6683
L33.0150 65.3282
" />
<path d="M38.1550 62.6683
L33.0150 62.6683
" />
<path d="M38.1550 62.6683
L38.1550 65.3282
" />
<path d="M38.1550 65.3282
L33.0150 65.3282
" />
<path d="M40.7550 63.9982
L40.7550 65.3282
" />
<path d="M40.7550 65.3282
L39.4250 65.3282
" />
<path d="M46.6150 62.4682
L47.9450 62.4682
" />
<path d="M46.6150 63.7982
L46.6150 62.4682
" />
<path d="M49.2150 62.4682
L59.4350 62.4682
" />
<path d="M49.2150 65.1282
L49.2150 62.4682
" />
<path d="M49.2150 65.1282
L59.4350 65.1282
" />
<path d="M59.4350 65.1282
L59.4350 62.4682
" />
<path d="M2.1850 36.4282
L3.5150 36.4282
" />
<path d="M2.1850 37.7582
L2.1850 36.4282
" />
<path d="M2.1850 39.0282
L2.1850 46.7082
" />
<path d="M2.1850 39.0282
L4.8450 39.0282
" />
<path d="M2.1850 46.7082
L4.8450 46.7082
" />
<path d="M4.8450 39.0282
L4.8450 46.7082
" />
<path d="M53.3950 23.7682
L54.7250 23.7682
" />
<path d="M53.3950 25.0983
L53.3950 23.7682
" />
<path d="M53.3950 26.3682
L53.3950 34.0482
" />
<path d="M53.3950 26.3682
L56.0550 26.3682
" />
<path d="M53.3950 34.0482
L56.0550 34.0482
" />
<path d="M56.0550 26.3682
L56.0550 34.0482
" />
<path d="M31.1150 39.5282
L31.1150 42.1882
" />
<path d="M66.7350 39.5282
L31.1150 39.5282
" />
<path d="M66.7350 39.5282
L66.7350 42.1882
" />
<path d="M66.7350 42.1882
L31.1150 42.1882
" />
<path d="M69.3350 40.8582
L69.3350 42.1882
" />
<path d="M69.3350 42.1882
L68.0050 42.1882
" />
<path d="M14.6450 62.4682
L15.9750 62.4682
" />
<path d="M14.6450 63.7982
L14.6450 62.4682
" />
<path d="M17.2450 62.4682
L27.4650 62.4682
" />
<path d="M17.2450 65.1282
L17.2450 62.4682
" />
<path d="M17.2450 65.1282
L27.4650 65.1282
" />
<path d="M27.4650 65.1282
L27.4650 62.4682
" />
<path d="M31.1150 54.7682
L31.1150 57.4282
" />
<path d="M66.7350 54.7682
L31.1150 54.7682
" />
<path d="M66.7350 54.7682
L66.7350 57.4282
" />
<path d="M66.7350 57.4282
L31.1150 57.4282
" />
<path d="M69.3350 56.0983
L69.3350 57.4282
" />
<path d="M69.3350 57.4282
L68.0050 57.4282
" />
<path style="fill:none; 
stroke:#D0D2CD; stroke-width:0.0500; stroke-opacity:1; 
stroke-linecap:round; stroke-linejoin:round;fill:none"
d="M 66.0250,19.4982
74.0250,19.4982
74.0250,77.4982
66.0250,77.4982
66.0250,85.4982
8.0250,85.4982
8.0250,77.4982
0.0250,77.4982
0.0250,19.4982
8.0250,19.4982
8.0250,11.4982
66.0250,11.4982
Z" /> 
</g>
<g style="fill:none; 
stroke:#C2C2C2; stroke-width:0.1500; stroke-opacity:1; 
stroke-linecap:round; stroke-linejoin:round;">
<text x="1.7750" y="52.1482"
textLength="2.6310" font-size="1.3333" lengthAdjust="spacingAndGlyphs"
text-anchor="middle" opacity="0" stroke-opacity="0">3.5</text>
<g class="stroked-text"><desc>3.5</desc>
<path d="M0.7274 51.1031
L1.3464 51.1031
" />
<path d="M1.3464 51.1031
L1.0131 51.4840
" />
<path d="M1.0131 51.4840
L1.1560 51.4840
" />
<path d="M1.1560 51.4840
L1.2512 51.5316
" />
<path d="M1.2512 51.5316
L1.2988 51.5793
" />
<path d="M1.2988 51.5793
L1.3464 51.6745
" />
<path d="M1.3464 51.6745
L1.3464 51.9126
" />
<path d="M1.3464 51.9126
L1.2988 52.0078
" />
<path d="M1.2988 52.0078
L1.2512 52.0555
" />
<path d="M1.2512 52.0555
L1.1560 52.1031
" />
<path d="M1.1560 52.1031
L0.8702 52.1031
" />
<path d="M0.8702 52.1031
L0.7750 52.0555
" />
<path d="M0.7750 52.0555
L0.7274 52.0078
" />
<path d="M1.7750 52.0078
L1.8226 52.0555
" />
<path d="M1.8226 52.0555
L1.7750 52.1031
" />
<path d="M1.7750 52.1031
L1.7274 52.0555
" />
<path d="M1.7274 52.0555
L1.7750 52.0078
" />
<path d="M1.7750 52.0078
L1.7750 52.1031
" />
<path d="M2.7274 51.1031
L2.2512 51.1031
" />
<path d="M2.2512 51.1031
L2.2036 51.5793
" />
<path d="M2.2036 51.5793
L2.2512 51.5316
" />
<path d="M2.2512 51.5316
L2.3464 51.4840
" />
<path d="M2.3464 51.4840
L2.5845 51.4840
" />
<path d="M2.5845 51.4840
L2.6798 51.5316
" />
<path d="M2.6798 51.5316
L2.7274 51.5793
" />
<path d="M2.7274 51.5793
L2.7750 51.6745
" />
<path d="M2.7750 51.6745
L2.7750 51.9126
" />
<path d="M2.7750 51.9126
L2.7274 52.0078
" />
<path d="M2.7274 52.0078
L2.6798 52.0555
" />
<path d="M2.6798 52.0555
L2.5845 52.1031
" />
<path d="M2.5845 52.1031
L2.3464 52.1031
" />
<path d="M2.3464 52.1031
L2.2512 52.0555
" />
<path d="M2.2512 52.0555
L2.2036 52.0078
" />
</g></g>
<g style="fill:none; 
stroke:#C2C2C2; stroke-width:0.0500; stroke-opacity:1; 
stroke-linecap:round; stroke-linejoin:round;">
<path d="M0.0250 33.4982
L0.0250 53.3847
" />
<path d="M3.5250 53.3847
L3.5250 33.4982
" />
<path d="M0.0250 52.7982
L3.5250 52.7982
" />
<path d="M0.0250 52.7982
L1.1515 52.2118
" />
<path d="M0.0250 52.7982
L1.1515 53.3847
" />
<path d="M3.5250 52.7982
L2.3985 53.3847
" />
<path d="M3.5250 52.7982
L2.3985 52.2118
" />
</g>
<g style="fill:none; 
stroke:#C2C2C2; stroke-width:0.1500; stroke-opacity:1; 
stroke-linecap:round; stroke-linejoin:round;">
<text x="63.5250" y="64.3482"
textLength="2.1548" font-size="1.3333" lengthAdjust="spacingAndGlyphs"
text-anchor="middle" opacity="0" stroke-opacity="0">21</text>
<g class="stroked-text"><desc>21</desc>
<path d="M62.7631 63.3983
L62.8107 63.3507
" />
<path d="M62.8107 63.3507
L62.9060 63.3031
" />
<path d="M62.9060 63.3031
L63.1440 63.3031
" />
<path d="M63.1440 63.3031
L63.2393 63.3507
" />
<path d="M63.2393 63.3507
L63.2869 63.3983
" />
<path d="M63.2869 63.3983
L63.3345 63.4935
" />
<path d="M63.3345 63.4935
L63.3345 63.5888
" />
<path d="M63.3345 63.5888
L63.2869 63.7316
" />
<path d="M63.2869 63.7316
L62.7155 64.3031
" />
<path d="M62.7155 64.3031
L63.3345 64.3031
" />
<path d="M64.2869 64.3031
L63.7155 64.3031
" />
<path d="M64.0012 64.3031
L64.0012 63.3031
" />
<path d="M64.0012 63.3031
L63.9060 63.4459
" />
<path d="M63.9060 63.4459
L63.8107 63.5412
" />
<path d="M63.8107 63.5412
L63.7155 63.5888
" />
</g></g>
<g style="fill:none; 
stroke:#C2C2C2; stroke-width:0.0500; stroke-opacity:1; 
stroke-linecap:round; stroke-linejoin:round;">
<path d="M74.0250 64.5982
L74.0250 64.4118
" />
<path d="M53.0250 64.4118
L53.0250 64.5982
" />
<path d="M74.0250 64.9982
L53.0250 64.9982
" />
<path d="M74.0250 64.9982
L72.8985 65.5847
" />
<path d="M74.0250 64.9982
L72.8985 64.4118
" />
<path d="M53.0250 64.9982
L54.1515 64.4118
" />
<path d="M53.0250 64.9982
L54.1515 65.5847
" />
</g>
<g style="fill:none; 
stroke:#C2C2C2; stroke-width:0.1500; stroke-opacity:1; 
stroke-linecap:round; stroke-linejoin:round;">
<text x="22.5250" y="6.4482"
textLength="2.1548" font-size="1.3333" lengthAdjust="spacingAndGlyphs"
text-anchor="middle" opacity="0" stroke-opacity="0">29</text>
<g class="stroked-text"><desc>29</desc>
<path d="M21.7631 5.4983
L21.8107 5.4507
" />
<path d="M21.8107 5.4507
L21.9060 5.4031
" />
<path d="M21.9060 5.4031
L22.1440 5.4031
" />
<path d="M22.1440 5.4031
L22.2393 5.4507
" />
<path d="M22.2393 5.4507
L22.2869 5.4983
" />
<path d="M22.2869 5.4983
L22.3345 5.5935
" />
<path d="M22.3345 5.5935
L22.3345 5.6888
" />
<path d="M22.3345 5.6888
L22.2869 5.8316
" />
<path d="M22.2869 5.8316
L21.7155 6.4031
" />
<path d="M21.7155 6.4031
L22.3345 6.4031
" />
<path d="M22.8107 6.4031
L23.0012 6.4031
" />
<path d="M23.0012 6.4031
L23.0964 6.3554
" />
<path d="M23.0964 6.3554
L23.1440 6.3078
" />
<path d="M23.1440 6.3078
L23.2393 6.1650
" />
<path d="M23.2393 6.1650
L23.2869 5.9745
" />
<path d="M23.2869 5.9745
L23.2869 5.5935
" />
<path d="M23.2869 5.5935
L23.2393 5.4983
" />
<path d="M23.2393 5.4983
L23.1917 5.4507
" />
<path d="M23.1917 5.4507
L23.0964 5.4031
" />
<path d="M23.0964 5.4031
L22.9060 5.4031
" />
<path d="M22.9060 5.4031
L22.8107 5.4507
" />
<path d="M22.8107 5.4507
L22.7631 5.4983
" />
<path d="M22.7631 5.4983
L22.7155 5.5935
" />
<path d="M22.7155 5.5935
L22.7155 5.8316
" />
<path d="M22.7155 5.8316
L22.7631 5.9269
" />
<path d="M22.7631 5.9269
L22.8107 5.9745
" />
<path d="M22.8107 5.9745
L22.9060 6.0221
" />
<path d="M22.9060 6.0221
L23.0964 6.0221
" />
<path d="M23.0964 6.0221
L23.1917 5.9745
" />
<path d="M23.1917 5.9745
L23.2393 5.9269
" />
<path d="M23.2393 5.9269
L23.2869 5.8316
" />
</g></g>
<g style="fill:none; 
stroke:#C2C2C2; stroke-width:0.0500; stroke-opacity:1; 
stroke-linecap:round; stroke-linejoin:round;">
<path d="M8.0250 10.9982
L8.0250 6.5118
" />
<path d="M37.0250 6.5118
L37.0250 10.9982
" />
<path d="M8.0250 7.0982
L37.0250 7.0982
" />
<path d="M8.0250 7.0982
L9.1515 6.5118
" />
<path d="M8.0250 7.0982
L9.1515 7.6847
" />
<path d="M37.0250 7.0982
L35.8985 7.6847
" />
<path d="M37.0250 7.0982
L35.8985 6.5118
" />
</g>
<g style="fill:none; 
stroke:#C2C2C2; stroke-width:0.1500; stroke-opacity:1; 
stroke-linecap:round; stroke-linejoin:round;">
<text x="10.5250" y="64.3482"
textLength="2.1548" font-size="1.3333" lengthAdjust="spacingAndGlyphs"
text-anchor="middle" opacity="0" stroke-opacity="0">21</text>
<g class="stroked-text"><desc>21</desc>
<path d="M9.7631 63.3983
L9.8107 63.3507
" />
<path d="M9.8107 63.3507
L9.9060 63.3031
" />
<path d="M9.9060 63.3031
L10.1440 63.3031
" />
<path d="M10.1440 63.3031
L10.2393 63.3507
" />
<path d="M10.2393 63.3507
L10.2869 63.3983
" />
<path d="M10.2869 63.3983
L10.3345 63.4935
" />
<path d="M10.3345 63.4935
L10.3345 63.5888
" />
<path d="M10.3345 63.5888
L10.2869 63.7316
" />
<path d="M10.2869 63.7316
L9.7155 64.3031
" />
<path d="M9.7155 64.3031
L10.3345 64.3031
" />
<path d="M11.2869 64.3031
L10.7155 64.3031
" />
<path d="M11.0012 64.3031
L11.0012 63.3031
" />
<path d="M11.0012 63.3031
L10.9060 63.4459
" />
<path d="M10.9060 63.4459
L10.8107 63.5412
" />
<path d="M10.8107 63.5412
L10.7155 63.5888
" />
</g></g>
<g style="fill:none; 
stroke:#C2C2C2; stroke-width:0.0500; stroke-opacity:1; 
stroke-linecap:round; stroke-linejoin:round;">
<path d="M0.0250 64.7982
L0.0250 64.4118
" />
<path d="M21.0250 64.4118
L21.0250 64.7982
" />
<path d="M0.0250 64.9982
L21.0250 64.9982
" />
<path d="M0.0250 64.9982
L1.1515 64.4118
" />
<path d="M0.0250 64.9982
L1.1515 65.5847
" />
<path d="M21.0250 64.9982
L19.8985 65.5847
" />
<path d="M21.0250 64.9982
L19.8985 64.4118
" />
</g>
<g style="fill:none; 
stroke:#C2C2C2; stroke-width:0.1500; stroke-opacity:1; 
stroke-linecap:round; stroke-linejoin:round;">
<g transform="rotate(-90.000000 35.8750 38.0983)">
<text x="35.8750" y="38.5983"
textLength="3.5833" font-size="1.3333" lengthAdjust="spacingAndGlyphs"
text-anchor="middle" opacity="0" stroke-opacity="0">53.2</text>
</g>
<g class="stroked-text"><desc>53.2</desc>
<path d="M35.3298 39.0506
L35.3298 39.5268
" />
<path d="M35.3298 39.5268
L35.8060 39.5744
" />
<path d="M35.8060 39.5744
L35.7584 39.5268
" />
<path d="M35.7584 39.5268
L35.7108 39.4316
" />
<path d="M35.7108 39.4316
L35.7108 39.1935
" />
<path d="M35.7108 39.1935
L35.7584 39.0982
" />
<path d="M35.7584 39.0982
L35.8060 39.0506
" />
<path d="M35.8060 39.0506
L35.9012 39.0030
" />
<path d="M35.9012 39.0030
L36.1393 39.0030
" />
<path d="M36.1393 39.0030
L36.2346 39.0506
" />
<path d="M36.2346 39.0506
L36.2822 39.0982
" />
<path d="M36.2822 39.0982
L36.3298 39.1935
" />
<path d="M36.3298 39.1935
L36.3298 39.4316
" />
<path d="M36.3298 39.4316
L36.2822 39.5268
" />
<path d="M36.2822 39.5268
L36.2346 39.5744
" />
<path d="M35.3298 38.6697
L35.3298 38.0506
" />
<path d="M35.3298 38.0506
L35.7108 38.3840
" />
<path d="M35.7108 38.3840
L35.7108 38.2411
" />
<path d="M35.7108 38.2411
L35.7584 38.1459
" />
<path d="M35.7584 38.1459
L35.8060 38.0982
" />
<path d="M35.8060 38.0982
L35.9012 38.0506
" />
<path d="M35.9012 38.0506
L36.1393 38.0506
" />
<path d="M36.1393 38.0506
L36.2346 38.0982
" />
<path d="M36.2346 38.0982
L36.2822 38.1459
" />
<path d="M36.2822 38.1459
L36.3298 38.2411
" />
<path d="M36.3298 38.2411
L36.3298 38.5268
" />
<path d="M36.3298 38.5268
L36.2822 38.6221
" />
<path d="M36.2822 38.6221
L36.2346 38.6697
" />
<path d="M36.2346 37.6221
L36.2822 37.5744
" />
<path d="M36.2822 37.5744
L36.3298 37.6221
" />
<path d="M36.3298 37.6221
L36.2822 37.6697
" />
<path d="M36.2822 37.6697
L36.2346 37.6221
" />
<path d="M36.2346 37.6221
L36.3298 37.6221
" />
<path d="M35.4251 37.1935
L35.3774 37.1459
" />
<path d="M35.3774 37.1459
L35.3298 37.0506
" />
<path d="M35.3298 37.0506
L35.3298 36.8125
" />
<path d="M35.3298 36.8125
L35.3774 36.7173
" />
<path d="M35.3774 36.7173
L35.4251 36.6697
" />
<path d="M35.4251 36.6697
L35.5203 36.6221
" />
<path d="M35.5203 36.6221
L35.6155 36.6221
" />
<path d="M35.6155 36.6221
L35.7584 36.6697
" />
<path d="M35.7584 36.6697
L36.3298 37.2411
" />
<path d="M36.3298 37.2411
L36.3298 36.6221
" />
</g></g>
<g style="fill:#C2C2C2; fill-opacity:1.0000; stroke:none;">
<circle cx="37.0250" cy="11.4982" r="0.0250" /> 
<circle cx="37.0250" cy="64.6983" r="0.0250" /> 
</g>
<g style="fill:none; 
stroke:#C2C2C2; stroke-width:0.0500; stroke-opacity:1; 
stroke-linecap:round; stroke-linejoin:round;">
<path d="M37.0250 11.4982
L37.0250 64.6983
" />
<path d="M37.0250 11.4982
L37.6114 12.6248
" />
<path d="M37.0250 11.4982
L36.4386 12.6248
" />
<path d="M37.0250 64.6983
L36.4386 63.5717
" />
<path d="M37.0250 64.6983
L37.6114 63.5717
" />
</g>
<g style="fill:none; 
stroke:#C2C2C2; stroke-width:0.1500; stroke-opacity:1; 
stroke-linecap:round; stroke-linejoin:round;">
<g transform="rotate(-90.000000 25.4750 38.2482)">
<text x="25.4750" y="38.7482"
textLength="3.5833" font-size="1.3333" lengthAdjust="spacingAndGlyphs"
text-anchor="middle" opacity="0" stroke-opacity="0">53.5</text>
</g>
<g class="stroked-text"><desc>53.5</desc>
<path d="M24.9298 39.2006
L24.9298 39.6768
" />
<path d="M24.9298 39.6768
L25.4060 39.7244
" />
<path d="M25.4060 39.7244
L25.3584 39.6768
" />
<path d="M25.3584 39.6768
L25.3108 39.5816
" />
<path d="M25.3108 39.5816
L25.3108 39.3435
" />
<path d="M25.3108 39.3435
L25.3584 39.2482
" />
<path d="M25.3584 39.2482
L25.4060 39.2006
" />
<path d="M25.4060 39.2006
L25.5012 39.1530
" />
<path d="M25.5012 39.1530
L25.7393 39.1530
" />
<path d="M25.7393 39.1530
L25.8346 39.2006
" />
<path d="M25.8346 39.2006
L25.8822 39.2482
" />
<path d="M25.8822 39.2482
L25.9298 39.3435
" />
<path d="M25.9298 39.3435
L25.9298 39.5816
" />
<path d="M25.9298 39.5816
L25.8822 39.6768
" />
<path d="M25.8822 39.6768
L25.8346 39.7244
" />
<path d="M24.9298 38.8197
L24.9298 38.2006
" />
<path d="M24.9298 38.2006
L25.3108 38.5340
" />
<path d="M25.3108 38.5340
L25.3108 38.3911
" />
<path d="M25.3108 38.3911
L25.3584 38.2959
" />
<path d="M25.3584 38.2959
L25.4060 38.2482
" />
<path d="M25.4060 38.2482
L25.5012 38.2006
" />
<path d="M25.5012 38.2006
L25.7393 38.2006
" />
<path d="M25.7393 38.2006
L25.8346 38.2482
" />
<path d="M25.8346 38.2482
L25.8822 38.2959
" />
<path d="M25.8822 38.2959
L25.9298 38.3911
" />
<path d="M25.9298 38.3911
L25.9298 38.6768
" />
<path d="M25.9298 38.6768
L25.8822 38.7721
" />
<path d="M25.8822 38.7721
L25.8346 38.8197
" />
<path d="M25.8346 37.7721
L25.8822 37.7244
" />
<path d="M25.8822 37.7244
L25.9298 37.7721
" />
<path d="M25.9298 37.7721
L25.8822 37.8197
" />
<path d="M25.8822 37.8197
L25.8346 37.7721
" />
<path d="M25.8346 37.7721
L25.9298 37.7721
" />
<path d="M24.9298 36.8197
L24.9298 37.2959
" />
<path d="M24.9298 37.2959
L25.4060 37.3435
" />
<path d="M25.4060 37.3435
L25.3584 37.2959
" />
<path d="M25.3584 37.2959
L25.3108 37.2006
" />
<path d="M25.3108 37.2006
L25.3108 36.9625
" />
<path d="M25.3108 36.9625
L25.3584 36.8673
" />
<path d="M25.3584 36.8673
L25.4060 36.8197
" />
<path d="M25.4060 36.8197
L25.5012 36.7721
" />
<path d="M25.5012 36.7721
L25.7393 36.7721
" />
<path d="M25.7393 36.7721
L25.8346 36.8197
" />
<path d="M25.8346 36.8197
L25.8822 36.8673
" />
<path d="M25.8822 36.8673
L25.9298 36.9625
" />
<path d="M25.9298 36.9625
L25.9298 37.2006
" />
<path d="M25.9298 37.2006
L25.8822 37.2959
" />
<path d="M25.8822 37.2959
L25.8346 37.3435
" />
</g></g>
<g style="fill:none; 
stroke:#C2C2C2; stroke-width:0.0500; stroke-opacity:1; 
stroke-linecap:round; stroke-linejoin:round;">
<path d="M36.5250 11.4982
L26.0386 11.4982
" />
<path d="M26.0386 64.9982
L36.5250 64.9982
" />
<path d="M26.6250 11.4982
L26.6250 64.9982
" />
<path d="M26.6250 11.4982
L27.2114 12.6248
" />
<path d="M26.6250 11.4982
L26.0386 12.6248
" />
<path d="M26.6250 64.9982
L26.0386 63.8717
" />
<path d="M26.6250 64.9982
L27.2114 63.8717
" />
</g>
<g style="fill:none; 
stroke:#C2C2C2; stroke-width:0.1500; stroke-opacity:1; 
stroke-linecap:round; stroke-linejoin:round;">
<text x="37.0250" y="1.3482"
textLength="2.1548" font-size="1.3333" lengthAdjust="spacingAndGlyphs"
text-anchor="middle" opacity="0" stroke-opacity="0">58</text>
<g class="stroked-text"><desc>58</desc>
<path d="M36.7869 0.3031
L36.3107 0.3031
" />
<path d="M36.3107 0.3031
L36.2631 0.7793
" />
<path d="M36.2631 0.7793
L36.3107 0.7316
" />
<path d="M36.3107 0.7316
L36.4060 0.6840
" />
<path d="M36.4060 0.6840
L36.6440 0.6840
" />
<path d="M36.6440 0.6840
L36.7393 0.7316
" />
<path d="M36.7393 0.7316
L36.7869 0.7793
" />
<path d="M36.7869 0.7793
L36.8345 0.8745
" />
<path d="M36.8345 0.8745
L36.8345 1.1126
" />
<path d="M36.8345 1.1126
L36.7869 1.2078
" />
<path d="M36.7869 1.2078
L36.7393 1.2554
" />
<path d="M36.7393 1.2554
L36.6440 1.3031
" />
<path d="M36.6440 1.3031
L36.4060 1.3031
" />
<path d="M36.4060 1.3031
L36.3107 1.2554
" />
<path d="M36.3107 1.2554
L36.2631 1.2078
" />
<path d="M37.4060 0.7316
L37.3107 0.6840
" />
<path d="M37.3107 0.6840
L37.2631 0.6364
" />
<path d="M37.2631 0.6364
L37.2155 0.5412
" />
<path d="M37.2155 0.5412
L37.2155 0.4935
" />
<path d="M37.2155 0.4935
L37.2631 0.3983
" />
<path d="M37.2631 0.3983
L37.3107 0.3507
" />
<path d="M37.3107 0.3507
L37.4060 0.3031
" />
<path d="M37.4060 0.3031
L37.5964 0.3031
" />
<path d="M37.5964 0.3031
L37.6917 0.3507
" />
<path d="M37.6917 0.3507
L37.7393 0.3983
" />
<path d="M37.7393 0.3983
L37.7869 0.4935
" />
<path d="M37.7869 0.4935
L37.7869 0.5412
" />
<path d="M37.7869 0.5412
L37.7393 0.6364
" />
<path d="M37.7393 0.6364
L37.6917 0.6840
" />
<path d="M37.6917 0.6840
L37.5964 0.7316
" />
<path d="M37.5964 0.7316
L37.4060 0.7316
" />
<path d="M37.4060 0.7316
L37.3107 0.7793
" />
<path d="M37.3107 0.7793
L37.2631 0.8269
" />
<path d="M37.2631 0.8269
L37.2155 0.9221
" />
<path d="M37.2155 0.9221
L37.2155 1.1126
" />
<path d="M37.2155 1.1126
L37.2631 1.2078
" />
<path d="M37.2631 1.2078
L37.3107 1.2554
" />
<path d="M37.3107 1.2554
L37.4060 1.3031
" />
<path d="M37.4060 1.3031
L37.5964 1.3031
" />
<path d="M37.5964 1.3031
L37.6917 1.2554
" />
<path d="M37.6917 1.2554
L37.7393 1.2078
" />
<path d="M37.7393 1.2078
L37.7869 1.1126
" />
<path d="M37.7869 1.1126
L37.7869 0.9221
" />
<path d="M37.7869 0.9221
L37.7393 0.8269
" />
<path d="M37.7393 0.8269
L37.6917 0.7793
" />
<path d="M37.6917 0.7793
L37.5964 0.7316
" />
</g></g>
<g style="fill:none; 
stroke:#C2C2C2; stroke-width:0.0500; stroke-opacity:1; 
stroke-linecap:round; stroke-linejoin:round;">
<path d="M8.0250 10.9982
L8.0250 1.4118
" />
<path d="M66.0250 1.4118
L66.0250 10.9982
" />
<path d="M8.0250 1.9982
L66.0250 1.9982
" />
<path d="M8.0250 1.9982
L9.1515 1.4118
" />
<path d="M8.0250 1.9982
L9.1515 2.5847
" />
<path d="M66.0250 1.9982
L64.8985 2.5847
" />
<path d="M66.0250 1.9982
L64.8985 1.4118
" />
</g>
<g style="fill:none; 
stroke:#C2C2C2; stroke-width:0.1500; stroke-opacity:1; 
stroke-linecap:round; stroke-linejoin:round;">
<g transform="rotate(-90.000000 12.0750 30.5482)">
<text x="12.0750" y="31.0482"
textLength="3.5833" font-size="1.3333" lengthAdjust="spacingAndGlyphs"
text-anchor="middle" opacity="0" stroke-opacity="0">22.1</text>
</g>
<g class="stroked-text"><desc>22.1</desc>
<path d="M11.6251 32.0244
L11.5774 31.9768
" />
<path d="M11.5774 31.9768
L11.5298 31.8816
" />
<path d="M11.5298 31.8816
L11.5298 31.6435
" />
<path d="M11.5298 31.6435
L11.5774 31.5482
" />
<path d="M11.5774 31.5482
L11.6251 31.5006
" />
<path d="M11.6251 31.5006
L11.7203 31.4530
" />
<path d="M11.7203 31.4530
L11.8155 31.4530
" />
<path d="M11.8155 31.4530
L11.9584 31.5006
" />
<path d="M11.9584 31.5006
L12.5298 32.0721
" />
<path d="M12.5298 32.0721
L12.5298 31.4530
" />
<path d="M11.6251 31.0721
L11.5774 31.0244
" />
<path d="M11.5774 31.0244
L11.5298 30.9292
" />
<path d="M11.5298 30.9292
L11.5298 30.6911
" />
<path d="M11.5298 30.6911
L11.5774 30.5959
" />
<path d="M11.5774 30.5959
L11.6251 30.5482
" />
<path d="M11.6251 30.5482
L11.7203 30.5006
" />
<path d="M11.7203 30.5006
L11.8155 30.5006
" />
<path d="M11.8155 30.5006
L11.9584 30.5482
" />
<path d="M11.9584 30.5482
L12.5298 31.1197
" />
<path d="M12.5298 31.1197
L12.5298 30.5006
" />
<path d="M12.4346 30.0721
L12.4822 30.0244
" />
<path d="M12.4822 30.0244
L12.5298 30.0721
" />
<path d="M12.5298 30.0721
L12.4822 30.1197
" />
<path d="M12.4822 30.1197
L12.4346 30.0721
" />
<path d="M12.4346 30.0721
L12.5298 30.0721
" />
<path d="M12.5298 29.0721
L12.5298 29.6435
" />
<path d="M12.5298 29.3578
L11.5298 29.3578
" />
<path d="M11.5298 29.3578
L11.6727 29.4530
" />
<path d="M11.6727 29.4530
L11.7679 29.5482
" />
<path d="M11.7679 29.5482
L11.8155 29.6435
" />
</g></g>
<g style="fill:none; 
stroke:#C2C2C2; stroke-width:0.0500; stroke-opacity:1; 
stroke-linecap:round; stroke-linejoin:round;">
<path d="M3.9250 19.4982
L13.8114 19.4982
" />
<path d="M13.8114 41.5983
L2.7250 41.5983
" />
<path d="M13.2250 19.4982
L13.2250 41.5983
" />
<path d="M13.2250 19.4982
L13.8114 20.6248
" />
<path d="M13.2250 19.4982
L12.6386 20.6248
" />
<path d="M13.2250 41.5983
L12.6386 40.4717
" />
<path d="M13.2250 41.5983
L13.8114 40.4717
" />
</g>
<g style="fill:#FFFFFF; fill-opacity:1.0000; stroke:none;">
<circle cx="39.4250" cy="63.9982" r="0.5000" /> 
</g>
<g style="fill:#FFFFFF; fill-opacity:1.0000; stroke:none;">
<circle cx="36.8850" cy="63.9982" r="0.5000" /> 
</g>
<g style="fill:#FFFFFF; fill-opacity:1.0000; stroke:none;">
<circle cx="34.3450" cy="63.9982" r="0.5000" /> 
</g>
<g style="fill:#FFFFFF; fill-opacity:1.0000; stroke:none;">
<circle cx="47.9450" cy="63.7982" r="0.5000" /> 
</g>
<g style="fill:#FFFFFF; fill-opacity:1.0000; stroke:none;">
<circle cx="50.4850" cy="63.7982" r="0.5000" /> 
</g>
<g style="fill:#FFFFFF; fill-opacity:1.0000; stroke:none;">
<circle cx="53.0250" cy="63.7982" r="0.5000" /> 
</g>
<g style="fill:#FFFFFF; fill-opacity:1.0000; stroke:none;">
<circle cx="55.5650" cy="63.7982" r="0.5000" /> 
</g>
<g style="fill:#FFFFFF; fill-opacity:1.0000; stroke:none;">
<circle cx="58.1050" cy="63.7982" r="0.5000" /> 
</g>
<g style="fill:#FFFFFF; fill-opacity:1.0000; stroke:none;">
<circle cx="3.5150" cy="37.7582" r="0.5000" /> 
</g>
<g style="fill:#FFFFFF; fill-opacity:1.0000; stroke:none;">
<circle cx="3.5150" cy="40.2982" r="0.5000" /> 
</g>
<g style="fill:#FFFFFF; fill-opacity:1.0000; stroke:none;">
<circle cx="3.5150" cy="42.8382" r="0.5000" /> 
</g>
<g style="fill:#FFFFFF; fill-opacity:1.0000; stroke:none;">
<circle cx="3.5150" cy="45.3783" r="0.5000" /> 
</g>
<g style="fill:#FFFFFF; fill-opacity:1.0000; stroke:none;">
<circle cx="54.7250" cy="25.0983" r="0.5000" /> 
</g>
<g style="fill:#FFFFFF; fill-opacity:1.0000; stroke:none;">
<circle cx="54.7250" cy="27.6382" r="0.5000" /> 
</g>
<g style="fill:#FFFFFF; fill-opacity:1.0000; stroke:none;">
<circle cx="54.7250" cy="30.1782" r="0.5000" /> 
</g>
<g style="fill:#FFFFFF; fill-opacity:1.0000; stroke:none;">
<circle cx="54.7250" cy="32.7182" r="0.5000" /> 
</g>
<g style="fill:#FFFFFF; fill-opacity:1.0000; stroke:none;">
<circle cx="68.0050" cy="40.8582" r="0.5000" /> 
</g>
<g style="fill:#FFFFFF; fill-opacity:1.0000; stroke:none;">
<circle cx="65.4650" cy="40.8582" r="0.5000" /> 
</g>
<g style="fill:#FFFFFF; fill-opacity:1.0000; stroke:none;">
<circle cx="62.9250" cy="40.8582" r="0.5000" /> 
</g>
<g style="fill:#FFFFFF; fill-opacity:1.0000; stroke:none;">
<circle cx="60.3850" cy="40.8582" r="0.5000" /> 
</g>
<g style="fill:#FFFFFF; fill-opacity:1.0000; stroke:none;">
<circle cx="57.8450" cy="40.8582" r="0.5000" /> 
</g>
<g style="fill:#FFFFFF; fill-opacity:1.0000; stroke:none;">
<circle cx="55.3050" cy="40.8582" r="0.5000" /> 
</g>
<g style="fill:#FFFFFF; fill-opacity:1.0000; stroke:none;">
<circle cx="52.7650" cy="40.8582" r="0.5000" /> 
</g>
<g style="fill:#FFFFFF; fill-opacity:1.0000; stroke:none;">
<circle cx="50.2250" cy="40.8582" r="0.5000" /> 
</g>
<g style="fill:#FFFFFF; fill-opacity:1.0000; stroke:none;">
<circle cx="47.6850" cy="40.8582" r="0.5000" /> 
</g>
<g style="fill:#FFFFFF; fill-opacity:1.0000; stroke:none;">
<circle cx="45.1450" cy="40.8582" r="0.5000" /> 
</g>
<g style="fill:#FFFFFF; fill-opacity:1.0000; stroke:none;">
<circle cx="42.6050" cy="40.8582" r="0.5000" /> 
</g>
<g style="fill:#FFFFFF; fill-opacity:1.0000; stroke:none;">
<circle cx="40.0650" cy="40.8582" r="0.5000" /> 
</g>
<g style="fill:#FFFFFF; fill-opacity:1.0000; stroke:none;">
<circle cx="37.5250" cy="40.8582" r="0.5000" /> 
</g>
<g style="fill:#FFFFFF; fill-opacity:1.0000; stroke:none;">
<circle cx="34.9850" cy="40.8582" r="0.5000" /> 
</g>
<g style="fill:#FFFFFF; fill-opacity:1.0000; stroke:none;">
<circle cx="32.4450" cy="40.8582" r="0.5000" /> 
</g>
<g style="fill:#FFFFFF; fill-opacity:1.0000; stroke:none;">
<circle cx="15.9750" cy="63.7982" r="0.5000" /> 
</g>
<g style="fill:#FFFFFF; fill-opacity:1.0000; stroke:none;">
<circle cx="18.5150" cy="63.7982" r="0.5000" /> 
</g>
<g style="fill:#FFFFFF; fill-opacity:1.0000; stroke:none;">
<circle cx="21.0550" cy="63.7982" r="0.5000" /> 
</g>
<g style="fill:#FFFFFF; fill-opacity:1.0000; stroke:none;">
<circle cx="23.5950" cy="63.7982" r="0.5000" /> 
</g>
<g style="fill:#FFFFFF; fill-opacity:1.0000; stroke:none;">
<circle cx="26.1350" cy="63.7982" r="0.5000" /> 
</g>
<g style="fill:#FFFFFF; fill-opacity:1.0000; stroke:none;">
<circle cx="68.0050" cy="56.0983" r="0.5000" /> 
</g>
<g style="fill:#FFFFFF; fill-opacity:1.0000; stroke:none;">
<circle cx="65.4650" cy="56.0983" r="0.5000" /> 
</g>
<g style="fill:#FFFFFF; fill-opacity:1.0000; stroke:none;">
<circle cx="62.9250" cy="56.0983" r="0.5000" /> 
</g>
<g style="fill:#FFFFFF; fill-opacity:1.0000; stroke:none;">
<circle cx="60.3850" cy="56.0983" r="0.5000" /> 
</g>
<g style="fill:#FFFFFF; fill-opacity:1.0000; stroke:none;">
<circle cx="57.8450" cy="56.0983" r="0.5000" /> 
</g>
<g style="fill:#FFFFFF; fill-opacity:1.0000; stroke:none;">
<circle cx="55.3050" cy="56.0983" r="0.5000" /> 
</g>
<g style="fill:#FFFFFF; fill-opacity:1.0000; stroke:none;">
<circle cx="52.7650" cy="56.0983" r="0.5000" /> 
</g>
<g style="fill:#FFFFFF; fill-opacity:1.0000; stroke:none;">
<circle cx="50.2250" cy="56.0983" r="0.5000" /> 
</g>
<g style="fill:#FFFFFF; fill-opacity:1.0000; stroke:none;">
<circle cx="47.6850" cy="56.0983" r="0.5000" /> 
</g>
<g style="fill:#FFFFFF; fill-opacity:1.0000; stroke:none;">
<circle cx="45.1450" cy="56.0983" r="0.5000" /> 
</g>
<g style="fill:#FFFFFF; fill-opacity:1.0000; stroke:none;">
<circle cx="42.6050" cy="56.0983" r="0.5000" /> 
</g>
<g style="fill:#FFFFFF; fill-opacity:1.0000; stroke:none;">
<circle cx="40.0650" cy="56.0983" r="0.5000" /> 
</g>
<g style="fill:#FFFFFF; fill-opacity:1.0000; stroke:none;">
<circle cx="37.5250" cy="56.0983" r="0.5000" /> 
</g>
<g style="fill:#FFFFFF; fill-opacity:1.0000; stroke:none;">
<circle cx="34.9850" cy="56.0983" r="0.5000" /> 
</g>
<g style="fill:#FFFFFF; fill-opacity:1.0000; stroke:none;">
<circle cx="32.4450" cy="56.0983" r="0.5000" /> 
</g> 
</svg>
