<?xml version="1.0" standalone="no"?>
 <!DOCTYPE svg PUBLIC "-//W3C//DTD SVG 1.1//EN" 
 "http://www.w3.org/Graphics/SVG/1.1/DTD/svg11.dtd"> 
<svg
  xmlns:svg="http://www.w3.org/2000/svg"
  xmlns="http://www.w3.org/2000/svg"
  xmlns:xlink="http://www.w3.org/1999/xlink"
  version="1.1"
  width="74.0410mm" height="85.5218mm" viewBox="0.0000 0.0000 74.0410 85.5218">
<title>SVG Image created as layout-bottom-test.svg date 2026/07/10 20:13:07 </title>
  <desc>Image generated by PCBNEW </desc>
<g style="fill:#000000; fill-opacity:1.0000;stroke:#000000; stroke-opacity:1.0000;
stroke-linecap:round; stroke-linejoin:round;"
 transform="translate(0 0) scale(1 1)">
<path style="fill:#C83434; fill-opacity:1.0000; stroke:none;fill-rule:evenodd;"
d="M 35.4660,63.1482
33.7660,63.1482
33.7660,64.8482
35.4660,64.8482
Z" /> 
</g>
<g style="fill:#C83434; fill-opacity:1.0000; stroke:none;">
<circle cx="37.1560" cy="63.9982" r="0.8500" /> 
<circle cx="39.6960" cy="63.9982" r="0.8500" /> 
<path style="fill:#C83434; fill-opacity:1.0000; stroke:none;fill-rule:evenodd;"
d="M 25.2460,64.6482
26.9460,64.6482
26.9460,62.9482
25.2460,62.9482
Z" /> 
<circle cx="23.5560" cy="63.7982" r="0.8500" /> 
<circle cx="21.0160" cy="63.7982" r="0.8500" /> 
<circle cx="18.4760" cy="63.7982" r="0.8500" /> 
<circle cx="15.9360" cy="63.7982" r="0.8500" /> 
<path style="fill:#C83434; fill-opacity:1.0000; stroke:none;fill-rule:evenodd;"
d="M 71.3760,38.6082
71.3760,36.9082
69.6760,36.9082
69.6760,38.6082
Z" /> 
<circle cx="70.5260" cy="40.2982" r="0.8500" /> 
<circle cx="70.5260" cy="42.8382" r="0.8500" /> 
<circle cx="70.5260" cy="45.3783" r="0.8500" /> 
<path style="fill:#C83434; fill-opacity:1.0000; stroke:none;fill-rule:evenodd;"
d="M 20.1660,25.9482
20.1660,24.2482
18.4660,24.2482
18.4660,25.9482
Z" /> 
<circle cx="19.3160" cy="27.6382" r="0.8500" /> 
<circle cx="19.3160" cy="30.1782" r="0.8500" /> 
<circle cx="19.3160" cy="32.7182" r="0.8500" /> 
<path style="fill:#C83434; fill-opacity:1.0000; stroke:none;fill-rule:evenodd;"
d="M 6.8860,40.0082
5.1860,40.0082
5.1860,41.7082
6.8860,41.7082
Z" /> 
<circle cx="8.5760" cy="40.8582" r="0.8500" /> 
<circle cx="11.1160" cy="40.8582" r="0.8500" /> 
<circle cx="13.6560" cy="40.8582" r="0.8500" /> 
<circle cx="16.1960" cy="40.8582" r="0.8500" /> 
<circle cx="18.7360" cy="40.8582" r="0.8500" /> 
<circle cx="21.2760" cy="40.8582" r="0.8500" /> 
<circle cx="23.8160" cy="40.8582" r="0.8500" /> 
<circle cx="26.3560" cy="40.8582" r="0.8500" /> 
<circle cx="28.8960" cy="40.8582" r="0.8500" /> 
<circle cx="31.4360" cy="40.8582" r="0.8500" /> 
<circle cx="33.9760" cy="40.8582" r="0.8500" /> 
<circle cx="36.5160" cy="40.8582" r="0.8500" /> 
<circle cx="39.0560" cy="40.8582" r="0.8500" /> 
<circle cx="41.5960" cy="40.8582" r="0.8500" /> 
<path style="fill:#C83434; fill-opacity:1.0000; stroke:none;fill-rule:evenodd;"
d="M 57.2160,64.6482
58.9160,64.6482
58.9160,62.9482
57.2160,62.9482
Z" /> 
<circle cx="55.5260" cy="63.7982" r="0.8500" /> 
<circle cx="52.9860" cy="63.7982" r="0.8500" /> 
<circle cx="50.4460" cy="63.7982" r="0.8500" /> 
<circle cx="47.9060" cy="63.7982" r="0.8500" /> 
<path style="fill:#C83434; fill-opacity:1.0000; stroke:none;fill-rule:evenodd;"
d="M 6.8860,55.2482
5.1860,55.2482
5.1860,56.9482
6.8860,56.9482
Z" /> 
<circle cx="8.5760" cy="56.0983" r="0.8500" /> 
<circle cx="11.1160" cy="56.0983" r="0.8500" /> 
<circle cx="13.6560" cy="56.0983" r="0.8500" /> 
<circle cx="16.1960" cy="56.0983" r="0.8500" /> 
<circle cx="18.7360" cy="56.0983" r="0.8500" /> 
<circle cx="21.2760" cy="56.0983" r="0.8500" /> 
<circle cx="23.8160" cy="56.0983" r="0.8500" /> 
<circle cx="26.3560" cy="56.0983" r="0.8500" /> 
<circle cx="28.8960" cy="56.0983" r="0.8500" /> 
<circle cx="31.4360" cy="56.0983" r="0.8500" /> 
<circle cx="33.9760" cy="56.0983" r="0.8500" /> 
<circle cx="36.5160" cy="56.0983" r="0.8500" /> 
<circle cx="39.0560" cy="56.0983" r="0.8500" /> 
<circle cx="41.5960" cy="56.0983" r="0.8500" /> 
</g>
<g style="fill:none; 
stroke:#C83434; stroke-width:0.2000; stroke-opacity:1; 
stroke-linecap:round; stroke-linejoin:round;">
<path d="M37.1560 63.9982
L40.0560 66.8982
" />
<path d="M60.9660 33.7383
L37.3860 33.7383
" />
<path d="M33.9760 43.1683
L33.9760 40.8582
" />
<path d="M43.5560 66.8982
L45.4460 65.0083
" />
<path d="M45.4460 65.0083
L45.4460 54.6382
" />
<path d="M58.0660 44.4482
L49.4160 35.7982
" />
<path d="M3.9660 60.9782
L23.2760 60.9782
" />
<path d="M1.1160 58.1282
L3.9660 60.9782
" />
<path d="M39.0160 35.7982
L33.9760 40.8382
" />
<path d="M45.4460 54.6382
L33.9760 43.1683
" />
<path d="M37.3860 33.7383
L33.9760 37.1482
" />
<path d="M58.0660 63.7982
L58.0660 44.4482
" />
<path d="M23.2760 60.9782
L26.0960 63.7982
" />
<path d="M33.9760 40.8382
L33.9760 40.8582
" />
<path d="M29.7160 36.5983
L3.3160 36.5983
" />
<path d="M70.5260 40.2982
L67.5260 40.2982
" />
<path d="M40.0560 66.8982
L43.5560 66.8982
" />
<path d="M1.1160 38.7982
L1.1160 58.1282
" />
<path d="M49.4160 35.7982
L39.0160 35.7982
" />
<path d="M33.9760 40.8582
L29.7160 36.5983
" />
<path d="M67.5260 40.2982
L60.9660 33.7383
" />
<path d="M33.9760 37.1482
L33.9760 40.8582
" />
<path d="M3.3160 36.5983
L1.1160 38.7982
" />
<path d="M19.7360 67.5982
L15.9360 63.7982
" />
<path d="M34.6160 63.9982
L34.6160 56.7383
" />
<path d="M47.9060 63.7982
L47.9060 55.7882
" />
<path d="M47.9060 55.7882
L39.0560 46.9382
" />
<path d="M30.6160 59.4582
L33.9760 56.0983
" />
<path d="M34.6160 56.7383
L33.9760 56.0983
" />
<path d="M39.0560 46.9382
L39.0560 40.8582
" />
<path d="M30.6160 65.7982
L30.6160 59.4582
" />
<path d="M28.8160 67.5982
L19.7360 67.5982
" />
<path d="M28.8160 67.5982
L30.6160 65.7982
" />
<path d="M43.1060 53.3083
L32.1960 53.3083
" />
<path d="M44.0360 54.2383
L43.1060 53.3083
" />
<path d="M44.0360 59.6582
L44.0360 54.2383
" />
<path d="M31.4360 54.0682
L31.4360 56.0983
" />
<path d="M32.1960 53.3083
L31.4360 54.0682
" />
<path d="M39.6960 63.9982
L44.0360 59.6582
" />
<path style="fill:#4D7FC4; fill-opacity:1.0000; stroke:none;fill-rule:evenodd;"
d="M 35.4660,63.1482
33.7660,63.1482
33.7660,64.8482
35.4660,64.8482
Z" /> 
</g>
<g style="fill:#4D7FC4; fill-opacity:1.0000; stroke:none;">
<circle cx="37.1560" cy="63.9982" r="0.8500" /> 
<circle cx="39.6960" cy="63.9982" r="0.8500" /> 
<path style="fill:#4D7FC4; fill-opacity:1.0000; stroke:none;fill-rule:evenodd;"
d="M 25.2460,64.6482
26.9460,64.6482
26.9460,62.9482
25.2460,62.9482
Z" /> 
<circle cx="23.5560" cy="63.7982" r="0.8500" /> 
<circle cx="21.0160" cy="63.7982" r="0.8500" /> 
<circle cx="18.4760" cy="63.7982" r="0.8500" /> 
<circle cx="15.9360" cy="63.7982" r="0.8500" /> 
<path style="fill:#4D7FC4; fill-opacity:1.0000; stroke:none;fill-rule:evenodd;"
d="M 71.3760,38.6082
71.3760,36.9082
69.6760,36.9082
69.6760,38.6082
Z" /> 
<circle cx="70.5260" cy="40.2982" r="0.8500" /> 
<circle cx="70.5260" cy="42.8382" r="0.8500" /> 
<circle cx="70.5260" cy="45.3783" r="0.8500" /> 
<path style="fill:#4D7FC4; fill-opacity:1.0000; stroke:none;fill-rule:evenodd;"
d="M 20.1660,25.9482
20.1660,24.2482
18.4660,24.2482
18.4660,25.9482
Z" /> 
<circle cx="19.3160" cy="27.6382" r="0.8500" /> 
<circle cx="19.3160" cy="30.1782" r="0.8500" /> 
<circle cx="19.3160" cy="32.7182" r="0.8500" /> 
<path style="fill:#4D7FC4; fill-opacity:1.0000; stroke:none;fill-rule:evenodd;"
d="M 6.8860,40.0082
5.1860,40.0082
5.1860,41.7082
6.8860,41.7082
Z" /> 
<circle cx="8.5760" cy="40.8582" r="0.8500" /> 
<circle cx="11.1160" cy="40.8582" r="0.8500" /> 
<circle cx="13.6560" cy="40.8582" r="0.8500" /> 
<circle cx="16.1960" cy="40.8582" r="0.8500" /> 
<circle cx="18.7360" cy="40.8582" r="0.8500" /> 
<circle cx="21.2760" cy="40.8582" r="0.8500" /> 
<circle cx="23.8160" cy="40.8582" r="0.8500" /> 
<circle cx="26.3560" cy="40.8582" r="0.8500" /> 
<circle cx="28.8960" cy="40.8582" r="0.8500" /> 
<circle cx="31.4360" cy="40.8582" r="0.8500" /> 
<circle cx="33.9760" cy="40.8582" r="0.8500" /> 
<circle cx="36.5160" cy="40.8582" r="0.8500" /> 
<circle cx="39.0560" cy="40.8582" r="0.8500" /> 
<circle cx="41.5960" cy="40.8582" r="0.8500" /> 
<path style="fill:#4D7FC4; fill-opacity:1.0000; stroke:none;fill-rule:evenodd;"
d="M 57.2160,64.6482
58.9160,64.6482
58.9160,62.9482
57.2160,62.9482
Z" /> 
<circle cx="55.5260" cy="63.7982" r="0.8500" /> 
<circle cx="52.9860" cy="63.7982" r="0.8500" /> 
<circle cx="50.4460" cy="63.7982" r="0.8500" /> 
<circle cx="47.9060" cy="63.7982" r="0.8500" /> 
<path style="fill:#4D7FC4; fill-opacity:1.0000; stroke:none;fill-rule:evenodd;"
d="M 6.8860,55.2482
5.1860,55.2482
5.1860,56.9482
6.8860,56.9482
Z" /> 
<circle cx="8.5760" cy="56.0983" r="0.8500" /> 
<circle cx="11.1160" cy="56.0983" r="0.8500" /> 
<circle cx="13.6560" cy="56.0983" r="0.8500" /> 
<circle cx="16.1960" cy="56.0983" r="0.8500" /> 
<circle cx="18.7360" cy="56.0983" r="0.8500" /> 
<circle cx="21.2760" cy="56.0983" r="0.8500" /> 
<circle cx="23.8160" cy="56.0983" r="0.8500" /> 
<circle cx="26.3560" cy="56.0983" r="0.8500" /> 
<circle cx="28.8960" cy="56.0983" r="0.8500" /> 
<circle cx="31.4360" cy="56.0983" r="0.8500" /> 
<circle cx="33.9760" cy="56.0983" r="0.8500" /> 
<circle cx="36.5160" cy="56.0983" r="0.8500" /> 
<circle cx="39.0560" cy="56.0983" r="0.8500" /> 
<circle cx="41.5960" cy="56.0983" r="0.8500" /> 
</g>
<g style="fill:none; 
stroke:#4D7FC4; stroke-width:0.2000; stroke-opacity:1; 
stroke-linecap:round; stroke-linejoin:round;">
<path d="M19.3160 32.7182
L25.8360 32.7182
" />
<path d="M25.8360 32.7182
L33.9760 40.8582
" />
<path d="M31.5860 61.4682
L33.9760 59.0782
" />
<path d="M31.5860 68.6782
L31.5860 61.4682
" />
<path d="M23.2960 25.0983
L39.0560 40.8582
" />
<path d="M34.6360 71.7283
L31.5860 68.6782
" />
<path d="M73.0260 40.2582
L73.0260 60.4883
" />
<path d="M61.7860 71.7283
L34.6360 71.7283
" />
<path d="M73.0260 60.4883
L61.7860 71.7283
" />
<path d="M70.5260 37.7582
L73.0260 40.2582
" />
<path d="M19.3160 25.0983
L23.2960 25.0983
" />
<path d="M33.9760 59.0782
L33.9760 56.0983
" />
<path d="M16.2160 15.5983
L17.7160 14.0983
" />
<path d="M16.2160 24.5382
L16.2160 15.5983
" />
<path d="M29.3960 43.8982
L26.3560 40.8582
" />
<path d="M26.3560 40.8582
L26.3560 42.9883
" />
<path d="M43.2160 43.8982
L29.3960 43.8982
" />
<path d="M28.9860 45.6182
L67.7460 45.6182
" />
<path d="M43.7160 14.0983
L45.9160 16.2982
" />
<path d="M26.3560 42.9883
L28.9860 45.6182
" />
<path d="M17.7160 14.0983
L43.7160 14.0983
" />
<path d="M19.3160 27.6382
L16.2160 24.5382
" />
<path d="M45.9160 16.2982
L45.9160 41.1983
" />
<path d="M67.7460 45.6182
L70.5260 42.8382
" />
<path d="M45.9160 41.1983
L43.2160 43.8982
" />
<path d="M68.0660 47.8382
L27.3160 47.8382
" />
<path d="M16.0860 36.0682
L17.6260 37.6082
" />
<path d="M70.5260 45.3783
L68.0660 47.8382
" />
<path d="M27.3160 47.8382
L23.8160 44.3382
" />
<path d="M20.5660 37.6082
L23.8160 40.8582
" />
<path d="M19.3160 30.1782
L17.3960 30.1782
" />
<path d="M17.3960 30.1782
L16.0860 31.4882
" />
<path d="M16.0860 31.4882
L16.0860 36.0682
" />
<path d="M23.8160 44.3382
L23.8160 40.8582
" />
<path d="M17.6260 37.6082
L20.5660 37.6082
" />
<path d="M55.5260 57.0082
L47.9160 49.3982
" />
<path d="M12.7360 49.3982
L6.0360 56.0983
" />
<path d="M47.9160 49.3982
L12.7360 49.3982
" />
<path d="M55.5260 63.7982
L55.5260 57.0082
" />
<path d="M46.6160 50.8982
L13.7760 50.8982
" />
<path d="M13.7760 50.8982
L8.5760 56.0983
" />
<path d="M52.9860 63.7982
L52.9860 57.2682
" />
<path d="M52.9860 57.2682
L46.6160 50.8982
" />
<path d="M50.4460 63.7982
L50.4460 57.2282
" />
<path d="M15.2160 51.9982
L11.1160 56.0983
" />
<path d="M50.4460 57.2282
L45.2160 51.9982
" />
<path d="M45.2160 51.9982
L15.2160 51.9982
" />
<path d="M13.6560 58.9782
L13.6560 56.0983
" />
<path d="M18.4760 63.7982
L13.6560 58.9782
" />
<path d="M16.1960 58.9782
L16.1960 56.0983
" />
<path d="M21.0160 63.7982
L16.1960 58.9782
" />
<path d="M18.7360 58.9782
L18.7360 56.0983
" />
<path d="M23.5560 63.7982
L18.7360 58.9782
" />
<path style="fill:none; 
stroke:#D0D2CD; stroke-width:0.0500; stroke-opacity:1; 
stroke-linecap:round; stroke-linejoin:round;fill:none"
d="M 8.0160,19.4982
0.0160,19.4982
0.0160,77.4982
8.0160,77.4982
8.0160,85.4982
66.0160,85.4982
66.0160,77.4982
74.0160,77.4982
74.0160,19.4982
66.0160,19.4982
66.0160,11.4982
8.0160,11.4982
Z" /> 
</g>
<g style="fill:#FFFFFF; fill-opacity:1.0000; stroke:none;">
<circle cx="34.6160" cy="63.9982" r="0.5000" /> 
</g>
<g style="fill:#FFFFFF; fill-opacity:1.0000; stroke:none;">
<circle cx="37.1560" cy="63.9982" r="0.5000" /> 
</g>
<g style="fill:#FFFFFF; fill-opacity:1.0000; stroke:none;">
<circle cx="39.6960" cy="63.9982" r="0.5000" /> 
</g>
<g style="fill:#FFFFFF; fill-opacity:1.0000; stroke:none;">
<circle cx="26.0960" cy="63.7982" r="0.5000" /> 
</g>
<g style="fill:#FFFFFF; fill-opacity:1.0000; stroke:none;">
<circle cx="23.5560" cy="63.7982" r="0.5000" /> 
</g>
<g style="fill:#FFFFFF; fill-opacity:1.0000; stroke:none;">
<circle cx="21.0160" cy="63.7982" r="0.5000" /> 
</g>
<g style="fill:#FFFFFF; fill-opacity:1.0000; stroke:none;">
<circle cx="18.4760" cy="63.7982" r="0.5000" /> 
</g>
<g style="fill:#FFFFFF; fill-opacity:1.0000; stroke:none;">
<circle cx="15.9360" cy="63.7982" r="0.5000" /> 
</g>
<g style="fill:#FFFFFF; fill-opacity:1.0000; stroke:none;">
<circle cx="70.5260" cy="37.7582" r="0.5000" /> 
</g>
<g style="fill:#FFFFFF; fill-opacity:1.0000; stroke:none;">
<circle cx="70.5260" cy="40.2982" r="0.5000" /> 
</g>
<g style="fill:#FFFFFF; fill-opacity:1.0000; stroke:none;">
<circle cx="70.5260" cy="42.8382" r="0.5000" /> 
</g>
<g style="fill:#FFFFFF; fill-opacity:1.0000; stroke:none;">
<circle cx="70.5260" cy="45.3783" r="0.5000" /> 
</g>
<g style="fill:#FFFFFF; fill-opacity:1.0000; stroke:none;">
<circle cx="19.3160" cy="25.0983" r="0.5000" /> 
</g>
<g style="fill:#FFFFFF; fill-opacity:1.0000; stroke:none;">
<circle cx="19.3160" cy="27.6382" r="0.5000" /> 
</g>
<g style="fill:#FFFFFF; fill-opacity:1.0000; stroke:none;">
<circle cx="19.3160" cy="30.1782" r="0.5000" /> 
</g>
<g style="fill:#FFFFFF; fill-opacity:1.0000; stroke:none;">
<circle cx="19.3160" cy="32.7182" r="0.5000" /> 
</g>
<g style="fill:#FFFFFF; fill-opacity:1.0000; stroke:none;">
<circle cx="6.0360" cy="40.8582" r="0.5000" /> 
</g>
<g style="fill:#FFFFFF; fill-opacity:1.0000; stroke:none;">
<circle cx="8.5760" cy="40.8582" r="0.5000" /> 
</g>
<g style="fill:#FFFFFF; fill-opacity:1.0000; stroke:none;">
<circle cx="11.1160" cy="40.8582" r="0.5000" /> 
</g>
<g style="fill:#FFFFFF; fill-opacity:1.0000; stroke:none;">
<circle cx="13.6560" cy="40.8582" r="0.5000" /> 
</g>
<g style="fill:#FFFFFF; fill-opacity:1.0000; stroke:none;">
<circle cx="16.1960" cy="40.8582" r="0.5000" /> 
</g>
<g style="fill:#FFFFFF; fill-opacity:1.0000; stroke:none;">
<circle cx="18.7360" cy="40.8582" r="0.5000" /> 
</g>
<g style="fill:#FFFFFF; fill-opacity:1.0000; stroke:none;">
<circle cx="21.2760" cy="40.8582" r="0.5000" /> 
</g>
<g style="fill:#FFFFFF; fill-opacity:1.0000; stroke:none;">
<circle cx="23.8160" cy="40.8582" r="0.5000" /> 
</g>
<g style="fill:#FFFFFF; fill-opacity:1.0000; stroke:none;">
<circle cx="26.3560" cy="40.8582" r="0.5000" /> 
</g>
<g style="fill:#FFFFFF; fill-opacity:1.0000; stroke:none;">
<circle cx="28.8960" cy="40.8582" r="0.5000" /> 
</g>
<g style="fill:#FFFFFF; fill-opacity:1.0000; stroke:none;">
<circle cx="31.4360" cy="40.8582" r="0.5000" /> 
</g>
<g style="fill:#FFFFFF; fill-opacity:1.0000; stroke:none;">
<circle cx="33.9760" cy="40.8582" r="0.5000" /> 
</g>
<g style="fill:#FFFFFF; fill-opacity:1.0000; stroke:none;">
<circle cx="36.5160" cy="40.8582" r="0.5000" /> 
</g>
<g style="fill:#FFFFFF; fill-opacity:1.0000; stroke:none;">
<circle cx="39.0560" cy="40.8582" r="0.5000" /> 
</g>
<g style="fill:#FFFFFF; fill-opacity:1.0000; stroke:none;">
<circle cx="41.5960" cy="40.8582" r="0.5000" /> 
</g>
<g style="fill:#FFFFFF; fill-opacity:1.0000; stroke:none;">
<circle cx="58.0660" cy="63.7982" r="0.5000" /> 
</g>
<g style="fill:#FFFFFF; fill-opacity:1.0000; stroke:none;">
<circle cx="55.5260" cy="63.7982" r="0.5000" /> 
</g>
<g style="fill:#FFFFFF; fill-opacity:1.0000; stroke:none;">
<circle cx="52.9860" cy="63.7982" r="0.5000" /> 
</g>
<g style="fill:#FFFFFF; fill-opacity:1.0000; stroke:none;">
<circle cx="50.4460" cy="63.7982" r="0.5000" /> 
</g>
<g style="fill:#FFFFFF; fill-opacity:1.0000; stroke:none;">
<circle cx="47.9060" cy="63.7982" r="0.5000" /> 
</g>
<g style="fill:#FFFFFF; fill-opacity:1.0000; stroke:none;">
<circle cx="6.0360" cy="56.0983" r="0.5000" /> 
</g>
<g style="fill:#FFFFFF; fill-opacity:1.0000; stroke:none;">
<circle cx="8.5760" cy="56.0983" r="0.5000" /> 
</g>
<g style="fill:#FFFFFF; fill-opacity:1.0000; stroke:none;">
<circle cx="11.1160" cy="56.0983" r="0.5000" /> 
</g>
<g style="fill:#FFFFFF; fill-opacity:1.0000; stroke:none;">
<circle cx="13.6560" cy="56.0983" r="0.5000" /> 
</g>
<g style="fill:#FFFFFF; fill-opacity:1.0000; stroke:none;">
<circle cx="16.1960" cy="56.0983" r="0.5000" /> 
</g>
<g style="fill:#FFFFFF; fill-opacity:1.0000; stroke:none;">
<circle cx="18.7360" cy="56.0983" r="0.5000" /> 
</g>
<g style="fill:#FFFFFF; fill-opacity:1.0000; stroke:none;">
<circle cx="21.2760" cy="56.0983" r="0.5000" /> 
</g>
<g style="fill:#FFFFFF; fill-opacity:1.0000; stroke:none;">
<circle cx="23.8160" cy="56.0983" r="0.5000" /> 
</g>
<g style="fill:#FFFFFF; fill-opacity:1.0000; stroke:none;">
<circle cx="26.3560" cy="56.0983" r="0.5000" /> 
</g>
<g style="fill:#FFFFFF; fill-opacity:1.0000; stroke:none;">
<circle cx="28.8960" cy="56.0983" r="0.5000" /> 
</g>
<g style="fill:#FFFFFF; fill-opacity:1.0000; stroke:none;">
<circle cx="31.4360" cy="56.0983" r="0.5000" /> 
</g>
<g style="fill:#FFFFFF; fill-opacity:1.0000; stroke:none;">
<circle cx="33.9760" cy="56.0983" r="0.5000" /> 
</g>
<g style="fill:#FFFFFF; fill-opacity:1.0000; stroke:none;">
<circle cx="36.5160" cy="56.0983" r="0.5000" /> 
</g>
<g style="fill:#FFFFFF; fill-opacity:1.0000; stroke:none;">
<circle cx="39.0560" cy="56.0983" r="0.5000" /> 
</g>
<g style="fill:#FFFFFF; fill-opacity:1.0000; stroke:none;">
<circle cx="41.5960" cy="56.0983" r="0.5000" /> 
</g> 
</svg>
