<?xml version="1.0" standalone="no"?>
 <!DOCTYPE svg PUBLIC "-//W3C//DTD SVG 1.1//EN" 
 "http://www.w3.org/Graphics/SVG/1.1/DTD/svg11.dtd"> 
<svg
  xmlns:svg="http://www.w3.org/2000/svg"
  xmlns="http://www.w3.org/2000/svg"
  xmlns:xlink="http://www.w3.org/1999/xlink"
  version="1.1"
  width="124.9934mm" height="74.8030mm" viewBox="0.0000 0.0000 124.9934 74.8030">
<title>SVG Image created as buggy-pcb-bottom.svg date 2026/07/10 22:36:19 </title>
  <desc>Image generated by PCBNEW </desc>
<g style="fill:#000000; fill-opacity:1.0000;stroke:#000000; stroke-opacity:1.0000;
stroke-linecap:round; stroke-linejoin:round;"
 transform="translate(0 0) scale(1 1)">
</g>
<g style="fill:#C83434; fill-opacity:1.0000; stroke:none;">
<circle cx="50.8705" cy="28.5750" r="0.7620" /> 
</g>
<g style="fill:#C83434; fill-opacity:1.0000; stroke:none;">
<circle cx="40.5703" cy="28.5750" r="0.7620" /> 
<path style="fill:#C83434; fill-opacity:1.0000; stroke:none;fill-rule:evenodd;"
d="M 14.2624,52.1080
14.2624,50.5080
12.6624,50.5080
12.6624,52.1080
Z" /> 
</g>
<g style="fill:#C83434; fill-opacity:1.0000; stroke:none;">
<circle cx="10.9224" cy="51.3080" r="0.8000" /> 
</g>
<g style="fill:#C83434; fill-opacity:1.0000; stroke:none;">
<circle cx="76.3073" cy="23.3680" r="0.7000" /> 
</g>
<g style="fill:#C83434; fill-opacity:1.0000; stroke:none;">
<circle cx="86.5075" cy="23.3680" r="0.7000" /> 
</g>
<g style="fill:#C83434; fill-opacity:1.0000; stroke:none;">
<circle cx="107.0274" cy="11.6490" r="0.7000" /> 
</g>
<g style="fill:#C83434; fill-opacity:1.0000; stroke:none;">
<circle cx="96.8272" cy="11.6490" r="0.7000" /> 
</g>
<g style="fill:#C83434; fill-opacity:1.0000; stroke:none;">
<circle cx="87.3766" cy="37.1541" r="0.7620" /> 
</g>
<g style="fill:#C83434; fill-opacity:1.0000; stroke:none;">
<circle cx="87.3762" cy="26.8539" r="0.7620" /> 
</g>
<g style="fill:#C83434; fill-opacity:1.0000; stroke:none;">
<circle cx="116.7134" cy="66.8020" r="1.0000" /> 
</g>
<g style="fill:#C83434; fill-opacity:1.0000; stroke:none;">
<circle cx="13.2653" cy="23.4950" r="0.7620" /> 
</g>
<g style="fill:#C83434; fill-opacity:1.0000; stroke:none;">
<circle cx="23.5655" cy="23.4950" r="0.7620" /> 
</g>
<g style="fill:#C83434; fill-opacity:1.0000; stroke:none;">
<circle cx="34.7986" cy="45.9171" r="0.7620" /> 
</g>
<g style="fill:#C83434; fill-opacity:1.0000; stroke:none;">
<circle cx="34.7982" cy="35.6169" r="0.7620" /> 
<path style="fill:#C83434; fill-opacity:1.0000; stroke:none;fill-rule:evenodd;"
d="M 100.1144,51.6000
100.1144,50.0000
98.5144,50.0000
98.5144,51.6000
Z" /> 
</g>
<g style="fill:#C83434; fill-opacity:1.0000; stroke:none;">
<circle cx="96.7744" cy="50.8000" r="0.8000" /> 
</g>
<g style="fill:#C83434; fill-opacity:1.0000; stroke:none;">
<circle cx="41.9305" cy="21.3360" r="0.7000" /> 
</g>
<g style="fill:#C83434; fill-opacity:1.0000; stroke:none;">
<circle cx="31.7303" cy="21.3360" r="0.7000" /> 
</g>
<g style="fill:#C83434; fill-opacity:1.0000; stroke:none;">
<circle cx="26.6955" cy="12.2459" r="0.7620" /> 
</g>
<g style="fill:#C83434; fill-opacity:1.0000; stroke:none;">
<circle cx="16.3953" cy="12.2459" r="0.7620" /> 
</g>
<g style="fill:#C83434; fill-opacity:1.0000; stroke:none;">
<circle cx="16.3633" cy="16.1290" r="0.7000" /> 
</g>
<g style="fill:#C83434; fill-opacity:1.0000; stroke:none;">
<circle cx="26.5635" cy="16.1290" r="0.7000" /> 
</g>
<g style="fill:#C83434; fill-opacity:1.0000; stroke:none;">
<circle cx="86.4902" cy="18.2530" r="0.7620" /> 
</g>
<g style="fill:#C83434; fill-opacity:1.0000; stroke:none;">
<circle cx="96.7904" cy="18.2530" r="0.7620" /> 
</g>
<g style="fill:#C83434; fill-opacity:1.0000; stroke:none;">
<circle cx="107.0274" cy="8.0930" r="0.7000" /> 
</g>
<g style="fill:#C83434; fill-opacity:1.0000; stroke:none;">
<circle cx="96.8272" cy="8.0930" r="0.7000" /> 
</g>
<g style="fill:#C83434; fill-opacity:1.0000; stroke:none;">
<circle cx="30.3536" cy="45.9171" r="0.7620" /> 
</g>
<g style="fill:#C83434; fill-opacity:1.0000; stroke:none;">
<circle cx="30.3532" cy="35.6169" r="0.7620" /> 
</g>
<g style="fill:#C83434; fill-opacity:1.0000; stroke:none;">
<circle cx="116.0215" cy="35.8140" r="0.7620" /> 
</g>
<g style="fill:#C83434; fill-opacity:1.0000; stroke:none;">
<circle cx="105.7213" cy="35.8140" r="0.7620" /> 
</g>
<g style="fill:#C83434; fill-opacity:1.0000; stroke:none;">
<circle cx="96.6476" cy="39.3131" r="0.7620" /> 
</g>
<g style="fill:#C83434; fill-opacity:1.0000; stroke:none;">
<circle cx="96.6472" cy="29.0129" r="0.7620" /> 
</g>
<g style="fill:#C83434; fill-opacity:1.0000; stroke:none;">
<circle cx="12.8843" cy="30.4800" r="0.7620" /> 
</g>
<g style="fill:#C83434; fill-opacity:1.0000; stroke:none;">
<circle cx="23.1845" cy="30.4800" r="0.7620" /> 
</g>
<g style="fill:#C83434; fill-opacity:1.0000; stroke:none;">
<circle cx="13.5193" cy="38.2270" r="0.7620" /> 
</g>
<g style="fill:#C83434; fill-opacity:1.0000; stroke:none;">
<circle cx="23.8195" cy="38.2270" r="0.7620" /> 
</g>
<g style="fill:#C83434; fill-opacity:1.0000; stroke:none;">
<circle cx="26.5838" cy="8.2550" r="0.7000" /> 
</g>
<g style="fill:#C83434; fill-opacity:1.0000; stroke:none;">
<circle cx="16.3837" cy="8.2550" r="0.7000" /> 
</g>
<g style="fill:#C83434; fill-opacity:1.0000; stroke:none;">
<circle cx="11.3034" cy="66.8020" r="1.0000" /> 
</g>
<g style="fill:#C83434; fill-opacity:1.0000; stroke:none;">
<circle cx="107.0774" cy="24.6030" r="0.7620" /> 
</g>
<g style="fill:#C83434; fill-opacity:1.0000; stroke:none;">
<circle cx="96.7772" cy="24.6030" r="0.7620" /> 
<path style="fill:#C83434; fill-opacity:1.0000; stroke:none;fill-rule:evenodd;"
d="M 118.8563,52.4540
118.8563,50.8540
117.2563,50.8540
117.2563,52.4540
Z" /> 
</g>
<g style="fill:#C83434; fill-opacity:1.0000; stroke:none;">
<circle cx="115.5163" cy="51.6540" r="0.8000" /> 
<path style="fill:#C83434; fill-opacity:1.0000; stroke:none;fill-rule:evenodd;"
d="M 33.6934,52.3620
33.6934,50.7620
32.0934,50.7620
32.0934,52.3620
Z" /> 
</g>
<g style="fill:#C83434; fill-opacity:1.0000; stroke:none;">
<circle cx="30.3534" cy="51.5620" r="0.8000" /> 
</g>
<g style="fill:#C83434; fill-opacity:1.0000; stroke:none;">
<circle cx="69.6533" cy="28.7020" r="0.7620" /> 
</g>
<g style="fill:#C83434; fill-opacity:1.0000; stroke:none;">
<circle cx="79.9535" cy="28.7020" r="0.7620" /> 
</g>
<g style="fill:#C83434; fill-opacity:1.0000; stroke:none;">
<circle cx="116.0215" cy="31.4960" r="0.7620" /> 
</g>
<g style="fill:#C83434; fill-opacity:1.0000; stroke:none;">
<circle cx="105.7213" cy="31.4960" r="0.7620" /> 
<path style="fill:#C83434; fill-opacity:1.0000; stroke:none;fill-rule:evenodd;"
d="M 70.0924,61.8370
70.0924,60.3370
68.5924,60.3370
68.5924,61.8370
Z" /> 
</g>
<g style="fill:#C83434; fill-opacity:1.0000; stroke:none;">
<circle cx="66.8024" cy="61.0870" r="0.7500" /> 
</g>
<g style="fill:#C83434; fill-opacity:1.0000; stroke:none;">
<circle cx="64.2624" cy="61.0870" r="0.7500" /> 
</g>
<g style="fill:#C83434; fill-opacity:1.0000; stroke:none;">
<circle cx="61.7224" cy="61.0870" r="0.7500" /> 
</g>
<g style="fill:#C83434; fill-opacity:1.0000; stroke:none;">
<circle cx="59.1824" cy="61.0870" r="0.7500" /> 
</g>
<g style="fill:#C83434; fill-opacity:1.0000; stroke:none;">
<circle cx="56.6424" cy="61.0870" r="0.7500" /> 
</g>
<g style="fill:#C83434; fill-opacity:1.0000; stroke:none;">
<circle cx="54.1024" cy="61.0870" r="0.7500" /> 
</g>
<g style="fill:#C83434; fill-opacity:1.0000; stroke:none;">
<circle cx="51.5624" cy="61.0870" r="0.7500" /> 
<path style="fill:#C83434; fill-opacity:1.0000; stroke:none;fill-rule:evenodd;"
d="M 50.0733,13.5176
50.0733,15.1176
51.6733,15.1176
51.6733,13.5176
Z" /> 
</g>
<g style="fill:#C83434; fill-opacity:1.0000; stroke:none;">
<circle cx="50.8733" cy="16.8560" r="0.8000" /> 
</g>
<g style="fill:#C83434; fill-opacity:1.0000; stroke:none;">
<circle cx="50.8733" cy="19.3960" r="0.8000" /> 
</g>
<g style="fill:#C83434; fill-opacity:1.0000; stroke:none;">
<circle cx="50.8733" cy="21.9360" r="0.8000" /> 
</g>
<g style="fill:#C83434; fill-opacity:1.0000; stroke:none;">
<circle cx="58.4933" cy="21.9360" r="0.8000" /> 
</g>
<g style="fill:#C83434; fill-opacity:1.0000; stroke:none;">
<circle cx="58.4933" cy="19.3960" r="0.8000" /> 
</g>
<g style="fill:#C83434; fill-opacity:1.0000; stroke:none;">
<circle cx="58.4933" cy="16.8560" r="0.8000" /> 
</g>
<g style="fill:#C83434; fill-opacity:1.0000; stroke:none;">
<circle cx="58.4933" cy="14.3160" r="0.8000" /> 
<path style="fill:#C83434; fill-opacity:1.0000; stroke:none;fill-rule:evenodd;"
d="M 65.4524,50.5340
65.4524,49.0340
63.4524,49.0340
63.4524,50.5340
Z" /> 
</g>
<g style="fill:none; 
stroke:#C83434; stroke-width:1.5000; stroke-opacity:1; 
stroke-linecap:round; stroke-linejoin:round;">
<path d="M64.7024 47.2440
L64.2024 47.2440
" />
<path d="M64.7024 44.7040
L64.2024 44.7040
" />
<path d="M64.7024 42.1640
L64.2024 42.1640
" />
<path d="M64.7024 39.6240
L64.2024 39.6240
" />
<path d="M64.7024 37.0840
L64.2024 37.0840
" />
<path d="M64.7024 34.5440
L64.2024 34.5440
" />
<path d="M56.7024 34.5440
L56.2024 34.5440
" />
<path d="M56.7024 37.0840
L56.2024 37.0840
" />
<path d="M56.7024 39.6240
L56.2024 39.6240
" />
<path d="M56.7024 42.1640
L56.2024 42.1640
" />
<path d="M56.7024 44.7040
L56.2024 44.7040
" />
<path d="M56.7024 47.2440
L56.2024 47.2440
" />
<path d="M56.7024 49.7840
L56.2024 49.7840
" />
</g>
<g style="fill:#C83434; fill-opacity:1.0000; stroke:none;">
<circle cx="22.6061" cy="53.2130" r="0.7620" /> 
</g>
<g style="fill:#C83434; fill-opacity:1.0000; stroke:none;">
<circle cx="22.6061" cy="50.6730" r="0.7620" /> 
</g>
<g style="fill:#C83434; fill-opacity:1.0000; stroke:none;">
<circle cx="22.6061" cy="48.1330" r="0.7620" /> 
<path style="fill:#C83434; fill-opacity:1.0000; stroke:none;fill-rule:evenodd;"
d="M 4.9883,6.4056
4.9883,8.0056
6.5883,8.0056
6.5883,6.4056
Z" /> 
</g>
<g style="fill:#C83434; fill-opacity:1.0000; stroke:none;">
<circle cx="5.7883" cy="9.7440" r="0.8000" /> 
</g>
<g style="fill:#C83434; fill-opacity:1.0000; stroke:none;">
<circle cx="5.7883" cy="12.2840" r="0.8000" /> 
</g>
<g style="fill:#C83434; fill-opacity:1.0000; stroke:none;">
<circle cx="5.7883" cy="14.8240" r="0.8000" /> 
</g>
<g style="fill:#C83434; fill-opacity:1.0000; stroke:none;">
<circle cx="13.4083" cy="14.8240" r="0.8000" /> 
</g>
<g style="fill:#C83434; fill-opacity:1.0000; stroke:none;">
<circle cx="13.4083" cy="12.2840" r="0.8000" /> 
</g>
<g style="fill:#C83434; fill-opacity:1.0000; stroke:none;">
<circle cx="13.4083" cy="9.7440" r="0.8000" /> 
</g>
<g style="fill:#C83434; fill-opacity:1.0000; stroke:none;">
<circle cx="13.4083" cy="7.2040" r="0.8000" /> 
<path style="fill:#C83434; fill-opacity:1.0000; stroke:none;fill-rule:evenodd;"
d="M 30.0073,6.4056
30.0073,8.0056
31.6073,8.0056
31.6073,6.4056
Z" /> 
</g>
<g style="fill:#C83434; fill-opacity:1.0000; stroke:none;">
<circle cx="30.8073" cy="9.7440" r="0.8000" /> 
</g>
<g style="fill:#C83434; fill-opacity:1.0000; stroke:none;">
<circle cx="30.8073" cy="12.2840" r="0.8000" /> 
</g>
<g style="fill:#C83434; fill-opacity:1.0000; stroke:none;">
<circle cx="30.8073" cy="14.8240" r="0.8000" /> 
</g>
<g style="fill:#C83434; fill-opacity:1.0000; stroke:none;">
<circle cx="38.4273" cy="14.8240" r="0.8000" /> 
</g>
<g style="fill:#C83434; fill-opacity:1.0000; stroke:none;">
<circle cx="38.4273" cy="12.2840" r="0.8000" /> 
</g>
<g style="fill:#C83434; fill-opacity:1.0000; stroke:none;">
<circle cx="38.4273" cy="9.7440" r="0.8000" /> 
</g>
<g style="fill:#C83434; fill-opacity:1.0000; stroke:none;">
<circle cx="38.4273" cy="7.2040" r="0.8000" /> 
</g>
<g style="fill:#C83434; fill-opacity:1.0000; stroke:none;">
<circle cx="107.8231" cy="54.2290" r="0.7620" /> 
</g>
<g style="fill:#C83434; fill-opacity:1.0000; stroke:none;">
<circle cx="107.8231" cy="51.6890" r="0.7620" /> 
</g>
<g style="fill:#C83434; fill-opacity:1.0000; stroke:none;">
<circle cx="107.8231" cy="49.1490" r="0.7620" /> 
</g>
<g style="fill:#C83434; fill-opacity:1.0000; stroke:none;">
<circle cx="42.2841" cy="53.2130" r="0.7620" /> 
</g>
<g style="fill:#C83434; fill-opacity:1.0000; stroke:none;">
<circle cx="42.2841" cy="50.6730" r="0.7620" /> 
</g>
<g style="fill:#C83434; fill-opacity:1.0000; stroke:none;">
<circle cx="42.2841" cy="48.1330" r="0.7620" /> 
</g>
<g style="fill:#C83434; fill-opacity:1.0000; stroke:none;">
<circle cx="86.4871" cy="53.3400" r="0.7620" /> 
</g>
<g style="fill:#C83434; fill-opacity:1.0000; stroke:none;">
<circle cx="86.4871" cy="50.8000" r="0.7620" /> 
</g>
<g style="fill:#C83434; fill-opacity:1.0000; stroke:none;">
<circle cx="86.4871" cy="48.2600" r="0.7620" /> 
<path style="fill:#C83434; fill-opacity:1.0000; stroke:none;fill-rule:evenodd;"
d="M 84.6173,6.2786
84.6173,7.8786
86.2173,7.8786
86.2173,6.2786
Z" /> 
</g>
<g style="fill:#C83434; fill-opacity:1.0000; stroke:none;">
<circle cx="85.4173" cy="9.6170" r="0.8000" /> 
</g>
<g style="fill:#C83434; fill-opacity:1.0000; stroke:none;">
<circle cx="85.4173" cy="12.1570" r="0.8000" /> 
</g>
<g style="fill:#C83434; fill-opacity:1.0000; stroke:none;">
<circle cx="85.4173" cy="14.6970" r="0.8000" /> 
</g>
<g style="fill:#C83434; fill-opacity:1.0000; stroke:none;">
<circle cx="93.0373" cy="14.6970" r="0.8000" /> 
</g>
<g style="fill:#C83434; fill-opacity:1.0000; stroke:none;">
<circle cx="93.0373" cy="12.1570" r="0.8000" /> 
</g>
<g style="fill:#C83434; fill-opacity:1.0000; stroke:none;">
<circle cx="93.0373" cy="9.6170" r="0.8000" /> 
</g>
<g style="fill:#C83434; fill-opacity:1.0000; stroke:none;">
<circle cx="93.0373" cy="7.0770" r="0.8000" /> 
<path style="fill:#C83434; fill-opacity:1.0000; stroke:none;fill-rule:evenodd;"
d="M 64.5513,13.5176
64.5513,15.1176
66.1513,15.1176
66.1513,13.5176
Z" /> 
</g>
<g style="fill:#C83434; fill-opacity:1.0000; stroke:none;">
<circle cx="65.3513" cy="16.8560" r="0.8000" /> 
</g>
<g style="fill:#C83434; fill-opacity:1.0000; stroke:none;">
<circle cx="65.3513" cy="19.3960" r="0.8000" /> 
</g>
<g style="fill:#C83434; fill-opacity:1.0000; stroke:none;">
<circle cx="65.3513" cy="21.9360" r="0.8000" /> 
</g>
<g style="fill:#C83434; fill-opacity:1.0000; stroke:none;">
<circle cx="72.9713" cy="21.9360" r="0.8000" /> 
</g>
<g style="fill:#C83434; fill-opacity:1.0000; stroke:none;">
<circle cx="72.9713" cy="19.3960" r="0.8000" /> 
</g>
<g style="fill:#C83434; fill-opacity:1.0000; stroke:none;">
<circle cx="72.9713" cy="16.8560" r="0.8000" /> 
</g>
<g style="fill:#C83434; fill-opacity:1.0000; stroke:none;">
<circle cx="72.9713" cy="14.3160" r="0.8000" /> 
<path style="fill:#C83434; fill-opacity:1.0000; stroke:none;fill-rule:evenodd;"
d="M 109.5634,6.9485
109.5634,8.5485
111.1634,8.5485
111.1634,6.9485
Z" /> 
</g>
<g style="fill:#C83434; fill-opacity:1.0000; stroke:none;">
<circle cx="110.3634" cy="10.2870" r="0.8000" /> 
</g>
<g style="fill:#C83434; fill-opacity:1.0000; stroke:none;">
<circle cx="110.3634" cy="12.8270" r="0.8000" /> 
</g>
<g style="fill:#C83434; fill-opacity:1.0000; stroke:none;">
<circle cx="110.3634" cy="15.3670" r="0.8000" /> 
</g>
<g style="fill:#C83434; fill-opacity:1.0000; stroke:none;">
<circle cx="117.9834" cy="15.3670" r="0.8000" /> 
</g>
<g style="fill:#C83434; fill-opacity:1.0000; stroke:none;">
<circle cx="117.9834" cy="12.8270" r="0.8000" /> 
</g>
<g style="fill:#C83434; fill-opacity:1.0000; stroke:none;">
<circle cx="117.9834" cy="10.2870" r="0.8000" /> 
</g>
<g style="fill:#C83434; fill-opacity:1.0000; stroke:none;">
<circle cx="117.9834" cy="7.7470" r="0.8000" /> 
</g>
<g style="fill:#C83434; fill-opacity:1.0000; stroke:none;">
<circle cx="81.1534" cy="58.4200" r="0.3050" /> 
</g>
<g style="fill:#C83434; fill-opacity:1.0000; stroke:none;">
<circle cx="49.1494" cy="63.2460" r="0.3050" /> 
</g>
<g style="fill:#C83434; fill-opacity:1.0000; stroke:none;">
<circle cx="47.3714" cy="59.4360" r="0.3050" /> 
</g>
<g style="fill:#C83434; fill-opacity:1.0000; stroke:none;">
<circle cx="40.1321" cy="39.3703" r="0.3050" /> 
</g>
<g style="fill:#C83434; fill-opacity:1.0000; stroke:none;">
<circle cx="44.5774" cy="57.7850" r="0.3050" /> 
</g>
<g style="fill:none; 
stroke:#C83434; stroke-width:0.4000; stroke-opacity:1; 
stroke-linecap:round; stroke-linejoin:round;">
<path d="M99.3144 48.2600
L96.6475 45.5931
" />
<path d="M99.3144 50.8000
L99.3144 48.2600
" />
<path d="M96.6475 45.5931
L96.6475 39.3131
" />
<path d="M81.1534 58.4200
L72.5174 49.7840
" />
<path d="M72.5174 49.7840
L64.4524 49.7840
" />
<path d="M94.4884 26.8539
L87.3764 26.8539
" />
<path d="M23.1845 30.4800
L23.0575 30.3530
" />
<path d="M40.1321 45.8467
L40.1321 39.3703
" />
<path d="M96.6473 29.0129
L94.4883 26.8539
" />
<path d="M24.8924 22.1680
L24.8924 17.7998
" />
<path d="M87.3764 26.8539
L87.3764 24.2369
" />
<path d="M34.7983 35.6169
L34.7983 32.7661
" />
<path d="M105.7213 31.4960
L102.2354 31.4960
" />
<path d="M99.7523 29.0129
L96.6473 29.0129
" />
<path d="M81.6614 44.8310
L79.9535 43.1231
" />
<path d="M16.3834 12.2341
L16.3834 8.2550
" />
<path d="M105.7213 43.6880
L105.7213 38.9890
" />
<path d="M40.5702 28.5750
L38.9894 28.5750
" />
<path d="M87.3764 26.8539
L81.8016 26.8539
" />
<path d="M20.2784 16.1290
L16.3953 12.2459
" />
<path d="M47.3714 61.4680
L47.3714 59.4360
" />
<path d="M96.8272 11.6490
L96.8272 11.6122
" />
<path d="M86.4873 48.2600
L86.4873 46.8629
" />
<path d="M63.1194 44.7040
L61.7224 46.1010
" />
<path d="M34.7983 35.6169
L30.3533 35.6169
" />
<path d="M86.4873 46.8629
L84.4554 44.8310
" />
<path d="M26.5632 16.1290
L24.8924 17.7998
" />
<path d="M102.2354 31.4960
L99.7523 29.0129
" />
<path d="M96.8272 11.6122
L96.8272 8.0930
" />
<path d="M105.7213 35.8140
L105.7213 31.4960
" />
<path d="M38.9894 28.5750
L34.7983 32.7661
" />
<path d="M87.3764 24.2369
L86.5075 23.3680
" />
<path d="M31.7303 21.4630
L31.7303 21.2962
" />
<path d="M105.7213 38.9890
L105.7213 35.8140
" />
<path d="M84.4554 44.8310
L81.6614 44.8310
" />
<path d="M23.8063 35.6169
L23.1844 34.9950
" />
<path d="M23.8194 46.9199
L23.8194 38.2270
" />
<path d="M61.7224 61.0870
L61.7224 46.1010
" />
<path d="M96.8272 11.6122
L96.8270 11.6490
" />
<path d="M79.9535 43.1231
L79.9535 28.7020
" />
<path d="M30.3532 35.6169
L23.8063 35.6169
" />
</g>
<g style="fill:none; 
stroke:#C83434; stroke-width:0.4064; stroke-opacity:1; 
stroke-linecap:round; stroke-linejoin:round;">
<path d="M23.8194 46.9199
L22.6063 48.1330
" />
</g>
<g style="fill:none; 
stroke:#C83434; stroke-width:0.4000; stroke-opacity:1; 
stroke-linecap:round; stroke-linejoin:round;">
<path d="M42.4184 48.1330
L40.1321 45.8467
" />
<path d="M96.8123 24.5300
L96.8123 18.2749
" />
<path d="M107.8234 49.1490
L105.7213 47.0469
" />
<path d="M24.8924 22.1680
L23.5654 23.4950
" />
<path d="M105.7213 47.0469
L105.7213 43.6880
" />
<path d="M23.1844 34.9950
L23.1844 30.4800
" />
<path d="M64.4524 44.7040
L63.1194 44.7040
" />
<path d="M23.8194 38.2270
L23.8194 35.6300
" />
<path d="M96.8123 24.5300
L94.5519 26.7904
" />
<path d="M49.1494 63.2460
L47.3714 61.4680
" />
<path d="M26.5635 16.1290
L20.2784 16.1290
" />
<path d="M81.8016 26.8539
L79.9535 28.7020
" />
<path d="M96.8123 18.2749
L96.7904 18.2530
" />
<path d="M31.7303 21.2962
L26.5632 16.1290
" />
<path d="M96.8270 11.6490
L96.7904 18.2530
" />
<path d="M50.8004 57.7850
L44.5774 57.7850
" />
<path d="M54.1024 61.0870
L50.8004 57.7850
" />
<path d="M32.8934 51.5620
L32.8934 47.8221
" />
<path d="M34.7984 45.9171
L32.8934 47.8221
" />
<path d="M56.4524 44.7040
L50.7933 44.7040
" />
<path d="M35.3064 53.2130
L33.1474 55.3720
" />
<path d="M59.1824 43.4340
L59.1824 24.9111
" />
<path d="M50.7933 44.7040
L42.2843 53.2130
" />
<path d="M13.4083 9.7441
L13.4083 7.2041
" />
<path d="M86.4874 53.3400
L83.6934 56.1340
" />
<path d="M65.3513 14.3176
L61.0374 14.3176
" />
<path d="M38.4273 12.2841
L38.4273 9.7441
" />
<path d="M59.1824 24.9111
L58.4933 24.2220
" />
<path d="M107.8233 54.2290
L102.7434 54.2290
" />
<path d="M58.4933 16.8560
L55.9533 16.8560
" />
<path d="M83.6934 61.7599
L83.6934 56.1340
" />
<path d="M83.6934 61.7599
L82.1785 63.2748
" />
<path d="M59.1824 61.0870
L59.1824 46.1010
" />
<path d="M112.9748 9.6171
L110.4363 7.0786
" />
</g>
<g style="fill:none; 
stroke:#C83434; stroke-width:0.4064; stroke-opacity:1; 
stroke-linecap:round; stroke-linejoin:round;">
<path d="M58.4989 16.8561
L58.4933 16.8561
" />
</g>
<g style="fill:none; 
stroke:#C83434; stroke-width:0.4000; stroke-opacity:1; 
stroke-linecap:round; stroke-linejoin:round;">
<path d="M38.4273 9.7441
L35.8888 7.2056
" />
<path d="M95.1963 7.0771
L93.0373 7.0771
" />
<path d="M58.4933 21.9361
L58.4933 19.3961
" />
<path d="M59.1824 43.4340
L57.9124 44.7040
" />
<path d="M33.1474 55.3720
L30.0994 55.3720
" />
<path d="M96.3393 5.9340
L95.1963 7.0771
" />
<path d="M110.4347 7.0770
L108.6583 7.0770
" />
<path d="M35.8888 7.2056
L30.8073 7.2056
" />
<path d="M118.0563 12.1571
L118.0563 10.2870
" />
<path d="M111.8333 61.9219
L111.8333 58.2389
" />
<path d="M57.7854 44.7040
L56.4524 44.7040
" />
<path d="M55.9533 16.8560
L53.4148 14.3176
" />
</g>
<g style="fill:none; 
stroke:#C83434; stroke-width:0.4064; stroke-opacity:1; 
stroke-linecap:round; stroke-linejoin:round;">
<path d="M61.0374 14.3176
L58.4989 16.8561
" />
</g>
<g style="fill:none; 
stroke:#C83434; stroke-width:0.4000; stroke-opacity:1; 
stroke-linecap:round; stroke-linejoin:round;">
<path d="M116.7134 66.8020
L111.8333 61.9219
" />
<path d="M58.4933 19.3961
L58.4933 16.8561
" />
<path d="M82.1785 63.2748
L61.3702 63.2748
" />
<path d="M13.2084 64.6063
L13.2084 62.6110
" />
<path d="M85.4173 7.0786
L80.2087 7.0786
" />
<path d="M61.3702 63.2748
L59.1824 61.0870
" />
<path d="M27.9404 53.2130
L22.6064 53.2130
" />
<path d="M108.6583 7.0770
L107.5153 5.9340
" />
<path d="M13.2084 64.6063
L11.0308 66.7839
" />
<path d="M102.7434 54.2290
L101.6004 55.3720
" />
<path d="M93.3454 53.3400
L86.4873 53.3400
" />
<path d="M92.4008 7.0786
L85.4173 7.0786
" />
<path d="M30.8073 7.2056
L28.6498 7.2056
" />
<path d="M72.9713 16.8561
L72.9713 14.3161
" />
<path d="M14.9323 5.6800
L13.4083 7.2041
" />
<path d="M80.2087 7.0786
L72.9713 14.3161
" />
<path d="M59.1824 46.1010
L57.7854 44.7040
" />
<path d="M72.9713 19.3961
L72.9713 16.8561
" />
<path d="M22.6064 53.2130
L13.2084 62.6110
" />
<path d="M107.5153 5.9340
L96.3393 5.9340
" />
<path d="M27.1243 5.6800
L14.9323 5.6800
" />
<path d="M111.8333 58.2389
L107.8234 54.2290
" />
<path d="M53.4148 14.3176
L50.8733 14.3176
" />
<path d="M118.0563 10.2870
L118.0563 9.6171
" />
<path d="M28.6498 7.2056
L27.1243 5.6800
" />
<path d="M95.3774 55.3720
L93.3454 53.3400
" />
<path d="M118.0563 9.6171
L112.9748 9.6171
" />
<path d="M13.4083 12.2841
L13.4083 9.7441
" />
</g>
<g style="fill:none; 
stroke:#C83434; stroke-width:0.4064; stroke-opacity:1; 
stroke-linecap:round; stroke-linejoin:round;">
<path d="M40.4608 14.3176
L38.4273 12.2841
" />
</g>
<g style="fill:none; 
stroke:#C83434; stroke-width:0.4000; stroke-opacity:1; 
stroke-linecap:round; stroke-linejoin:round;">
<path d="M42.2843 53.2130
L35.3064 53.2130
" />
<path d="M72.9713 14.3161
L65.3528 14.3161
" />
<path d="M58.4933 24.2220
L58.4933 21.9361
" />
<path d="M50.8733 14.3176
L40.4608 14.3176
" />
<path d="M101.6004 55.3720
L95.3774 55.3720
" />
<path d="M93.0373 9.6171
L93.0373 7.0771
" />
<path d="M30.0994 55.3720
L27.9404 53.2130
" />
<path d="M93.0373 12.1571
L93.0373 9.6171
" />
</g>
<g style="fill:#C83434; fill-opacity:1.0000; stroke:none;">
<circle cx="116.7134" cy="66.8020" r="0.2000" /> 
</g>
<g style="fill:none; 
stroke:#C83434; stroke-width:0.4000; stroke-opacity:1; 
stroke-linecap:round; stroke-linejoin:round;">
<path d="M56.4524 34.5440
L38.7354 34.5440
" />
<path d="M38.7354 34.5440
L22.6064 50.6730
" />
<path d="M30.3535 51.5619
L30.3535 45.9171
" />
<path d="M53.4674 39.6240
L42.4184 50.6730
" />
<path d="M56.4524 39.6240
L53.4674 39.6240
" />
<path d="M87.3764 43.1800
L87.3764 37.1541
" />
<path d="M96.7744 50.8000
L94.9964 50.8000
" />
<path d="M94.9964 50.8000
L87.3764 43.1800
" />
<path d="M110.4363 9.6171
L108.5705 9.6171
" />
<path d="M108.5705 9.6171
L107.0815 8.1280
" />
<path d="M92.4023 14.6971
L90.5029 14.6971
" />
<path d="M85.4229 9.6171
L85.4173 9.6171
" />
<path d="M90.5029 14.6971
L85.4229 9.6171
" />
<path d="M50.8733 16.8561
L46.4107 16.8561
" />
<path d="M46.4107 16.8561
L41.9307 21.3360
" />
</g>
<g style="fill:none; 
stroke:#C83434; stroke-width:0.4064; stroke-opacity:1; 
stroke-linecap:round; stroke-linejoin:round;">
<path d="M13.5194 51.3080
L13.5194 38.2270
" />
<path d="M118.0563 33.5307
L116.0216 31.4960
" />
<path d="M118.0563 51.6540
L118.0563 33.5307
" />
</g>
<g style="fill:none; 
stroke:#C83434; stroke-width:0.4000; stroke-opacity:1; 
stroke-linecap:round; stroke-linejoin:round;">
<path d="M10.9224 51.3080
L10.9224 32.4419
" />
<path d="M12.8843 30.4800
L10.9224 32.4419
" />
<path d="M73.0254 37.0840
L64.4524 37.0840
" />
</g>
<g style="fill:none; 
stroke:#C83434; stroke-width:0.4064; stroke-opacity:1; 
stroke-linecap:round; stroke-linejoin:round;">
<path d="M74.0414 46.2280
L74.0414 38.1000
" />
<path d="M78.6134 50.8000
L74.0414 46.2280
" />
<path d="M74.0414 38.1000
L73.0254 37.0840
" />
<path d="M86.4873 50.8000
L78.6134 50.8000
" />
</g>
<g style="fill:#4D7FC4; fill-opacity:1.0000; stroke:none;">
<circle cx="50.8705" cy="28.5750" r="0.7620" /> 
</g>
<g style="fill:#4D7FC4; fill-opacity:1.0000; stroke:none;">
<circle cx="40.5703" cy="28.5750" r="0.7620" /> 
<path style="fill:#4D7FC4; fill-opacity:1.0000; stroke:none;fill-rule:evenodd;"
d="M 14.2624,52.1080
14.2624,50.5080
12.6624,50.5080
12.6624,52.1080
Z" /> 
</g>
<g style="fill:#4D7FC4; fill-opacity:1.0000; stroke:none;">
<circle cx="10.9224" cy="51.3080" r="0.8000" /> 
</g>
<g style="fill:#4D7FC4; fill-opacity:1.0000; stroke:none;">
<circle cx="76.3073" cy="23.3680" r="0.7000" /> 
</g>
<g style="fill:#4D7FC4; fill-opacity:1.0000; stroke:none;">
<circle cx="86.5075" cy="23.3680" r="0.7000" /> 
</g>
<g style="fill:#4D7FC4; fill-opacity:1.0000; stroke:none;">
<circle cx="107.0274" cy="11.6490" r="0.7000" /> 
</g>
<g style="fill:#4D7FC4; fill-opacity:1.0000; stroke:none;">
<circle cx="96.8272" cy="11.6490" r="0.7000" /> 
</g>
<g style="fill:#4D7FC4; fill-opacity:1.0000; stroke:none;">
<circle cx="87.3766" cy="37.1541" r="0.7620" /> 
</g>
<g style="fill:#4D7FC4; fill-opacity:1.0000; stroke:none;">
<circle cx="87.3762" cy="26.8539" r="0.7620" /> 
</g>
<g style="fill:#4D7FC4; fill-opacity:1.0000; stroke:none;">
<circle cx="116.7134" cy="66.8020" r="1.0000" /> 
</g>
<g style="fill:#4D7FC4; fill-opacity:1.0000; stroke:none;">
<circle cx="13.2653" cy="23.4950" r="0.7620" /> 
</g>
<g style="fill:#4D7FC4; fill-opacity:1.0000; stroke:none;">
<circle cx="23.5655" cy="23.4950" r="0.7620" /> 
</g>
<g style="fill:#4D7FC4; fill-opacity:1.0000; stroke:none;">
<circle cx="34.7986" cy="45.9171" r="0.7620" /> 
</g>
<g style="fill:#4D7FC4; fill-opacity:1.0000; stroke:none;">
<circle cx="34.7982" cy="35.6169" r="0.7620" /> 
<path style="fill:#4D7FC4; fill-opacity:1.0000; stroke:none;fill-rule:evenodd;"
d="M 100.1144,51.6000
100.1144,50.0000
98.5144,50.0000
98.5144,51.6000
Z" /> 
</g>
<g style="fill:#4D7FC4; fill-opacity:1.0000; stroke:none;">
<circle cx="96.7744" cy="50.8000" r="0.8000" /> 
</g>
<g style="fill:#4D7FC4; fill-opacity:1.0000; stroke:none;">
<circle cx="41.9305" cy="21.3360" r="0.7000" /> 
</g>
<g style="fill:#4D7FC4; fill-opacity:1.0000; stroke:none;">
<circle cx="31.7303" cy="21.3360" r="0.7000" /> 
</g>
<g style="fill:#4D7FC4; fill-opacity:1.0000; stroke:none;">
<circle cx="26.6955" cy="12.2459" r="0.7620" /> 
</g>
<g style="fill:#4D7FC4; fill-opacity:1.0000; stroke:none;">
<circle cx="16.3953" cy="12.2459" r="0.7620" /> 
</g>
<g style="fill:#4D7FC4; fill-opacity:1.0000; stroke:none;">
<circle cx="16.3633" cy="16.1290" r="0.7000" /> 
</g>
<g style="fill:#4D7FC4; fill-opacity:1.0000; stroke:none;">
<circle cx="26.5635" cy="16.1290" r="0.7000" /> 
</g>
<g style="fill:#4D7FC4; fill-opacity:1.0000; stroke:none;">
<circle cx="86.4902" cy="18.2530" r="0.7620" /> 
</g>
<g style="fill:#4D7FC4; fill-opacity:1.0000; stroke:none;">
<circle cx="96.7904" cy="18.2530" r="0.7620" /> 
</g>
<g style="fill:#4D7FC4; fill-opacity:1.0000; stroke:none;">
<circle cx="107.0274" cy="8.0930" r="0.7000" /> 
</g>
<g style="fill:#4D7FC4; fill-opacity:1.0000; stroke:none;">
<circle cx="96.8272" cy="8.0930" r="0.7000" /> 
</g>
<g style="fill:#4D7FC4; fill-opacity:1.0000; stroke:none;">
<circle cx="30.3536" cy="45.9171" r="0.7620" /> 
</g>
<g style="fill:#4D7FC4; fill-opacity:1.0000; stroke:none;">
<circle cx="30.3532" cy="35.6169" r="0.7620" /> 
</g>
<g style="fill:#4D7FC4; fill-opacity:1.0000; stroke:none;">
<circle cx="116.0215" cy="35.8140" r="0.7620" /> 
</g>
<g style="fill:#4D7FC4; fill-opacity:1.0000; stroke:none;">
<circle cx="105.7213" cy="35.8140" r="0.7620" /> 
</g>
<g style="fill:#4D7FC4; fill-opacity:1.0000; stroke:none;">
<circle cx="96.6476" cy="39.3131" r="0.7620" /> 
</g>
<g style="fill:#4D7FC4; fill-opacity:1.0000; stroke:none;">
<circle cx="96.6472" cy="29.0129" r="0.7620" /> 
</g>
<g style="fill:#4D7FC4; fill-opacity:1.0000; stroke:none;">
<circle cx="12.8843" cy="30.4800" r="0.7620" /> 
</g>
<g style="fill:#4D7FC4; fill-opacity:1.0000; stroke:none;">
<circle cx="23.1845" cy="30.4800" r="0.7620" /> 
</g>
<g style="fill:#4D7FC4; fill-opacity:1.0000; stroke:none;">
<circle cx="13.5193" cy="38.2270" r="0.7620" /> 
</g>
<g style="fill:#4D7FC4; fill-opacity:1.0000; stroke:none;">
<circle cx="23.8195" cy="38.2270" r="0.7620" /> 
</g>
<g style="fill:#4D7FC4; fill-opacity:1.0000; stroke:none;">
<circle cx="26.5838" cy="8.2550" r="0.7000" /> 
</g>
<g style="fill:#4D7FC4; fill-opacity:1.0000; stroke:none;">
<circle cx="16.3837" cy="8.2550" r="0.7000" /> 
</g>
<g style="fill:#4D7FC4; fill-opacity:1.0000; stroke:none;">
<circle cx="11.3034" cy="66.8020" r="1.0000" /> 
</g>
<g style="fill:#4D7FC4; fill-opacity:1.0000; stroke:none;">
<circle cx="107.0774" cy="24.6030" r="0.7620" /> 
</g>
<g style="fill:#4D7FC4; fill-opacity:1.0000; stroke:none;">
<circle cx="96.7772" cy="24.6030" r="0.7620" /> 
<path style="fill:#4D7FC4; fill-opacity:1.0000; stroke:none;fill-rule:evenodd;"
d="M 118.8563,52.4540
118.8563,50.8540
117.2563,50.8540
117.2563,52.4540
Z" /> 
</g>
<g style="fill:#4D7FC4; fill-opacity:1.0000; stroke:none;">
<circle cx="115.5163" cy="51.6540" r="0.8000" /> 
<path style="fill:#4D7FC4; fill-opacity:1.0000; stroke:none;fill-rule:evenodd;"
d="M 33.6934,52.3620
33.6934,50.7620
32.0934,50.7620
32.0934,52.3620
Z" /> 
</g>
<g style="fill:#4D7FC4; fill-opacity:1.0000; stroke:none;">
<circle cx="30.3534" cy="51.5620" r="0.8000" /> 
</g>
<g style="fill:#4D7FC4; fill-opacity:1.0000; stroke:none;">
<circle cx="69.6533" cy="28.7020" r="0.7620" /> 
</g>
<g style="fill:#4D7FC4; fill-opacity:1.0000; stroke:none;">
<circle cx="79.9535" cy="28.7020" r="0.7620" /> 
</g>
<g style="fill:#4D7FC4; fill-opacity:1.0000; stroke:none;">
<circle cx="116.0215" cy="31.4960" r="0.7620" /> 
</g>
<g style="fill:#4D7FC4; fill-opacity:1.0000; stroke:none;">
<circle cx="105.7213" cy="31.4960" r="0.7620" /> 
<path style="fill:#4D7FC4; fill-opacity:1.0000; stroke:none;fill-rule:evenodd;"
d="M 70.0924,61.8370
70.0924,60.3370
68.5924,60.3370
68.5924,61.8370
Z" /> 
</g>
<g style="fill:#4D7FC4; fill-opacity:1.0000; stroke:none;">
<circle cx="66.8024" cy="61.0870" r="0.7500" /> 
</g>
<g style="fill:#4D7FC4; fill-opacity:1.0000; stroke:none;">
<circle cx="64.2624" cy="61.0870" r="0.7500" /> 
</g>
<g style="fill:#4D7FC4; fill-opacity:1.0000; stroke:none;">
<circle cx="61.7224" cy="61.0870" r="0.7500" /> 
</g>
<g style="fill:#4D7FC4; fill-opacity:1.0000; stroke:none;">
<circle cx="59.1824" cy="61.0870" r="0.7500" /> 
</g>
<g style="fill:#4D7FC4; fill-opacity:1.0000; stroke:none;">
<circle cx="56.6424" cy="61.0870" r="0.7500" /> 
</g>
<g style="fill:#4D7FC4; fill-opacity:1.0000; stroke:none;">
<circle cx="54.1024" cy="61.0870" r="0.7500" /> 
</g>
<g style="fill:#4D7FC4; fill-opacity:1.0000; stroke:none;">
<circle cx="51.5624" cy="61.0870" r="0.7500" /> 
<path style="fill:#4D7FC4; fill-opacity:1.0000; stroke:none;fill-rule:evenodd;"
d="M 50.0733,13.5176
50.0733,15.1176
51.6733,15.1176
51.6733,13.5176
Z" /> 
</g>
<g style="fill:#4D7FC4; fill-opacity:1.0000; stroke:none;">
<circle cx="50.8733" cy="16.8560" r="0.8000" /> 
</g>
<g style="fill:#4D7FC4; fill-opacity:1.0000; stroke:none;">
<circle cx="50.8733" cy="19.3960" r="0.8000" /> 
</g>
<g style="fill:#4D7FC4; fill-opacity:1.0000; stroke:none;">
<circle cx="50.8733" cy="21.9360" r="0.8000" /> 
</g>
<g style="fill:#4D7FC4; fill-opacity:1.0000; stroke:none;">
<circle cx="58.4933" cy="21.9360" r="0.8000" /> 
</g>
<g style="fill:#4D7FC4; fill-opacity:1.0000; stroke:none;">
<circle cx="58.4933" cy="19.3960" r="0.8000" /> 
</g>
<g style="fill:#4D7FC4; fill-opacity:1.0000; stroke:none;">
<circle cx="58.4933" cy="16.8560" r="0.8000" /> 
</g>
<g style="fill:#4D7FC4; fill-opacity:1.0000; stroke:none;">
<circle cx="58.4933" cy="14.3160" r="0.8000" /> 
<path style="fill:#4D7FC4; fill-opacity:1.0000; stroke:none;fill-rule:evenodd;"
d="M 65.4524,50.5340
65.4524,49.0340
63.4524,49.0340
63.4524,50.5340
Z" /> 
</g>
<g style="fill:none; 
stroke:#4D7FC4; stroke-width:1.5000; stroke-opacity:1; 
stroke-linecap:round; stroke-linejoin:round;">
<path d="M64.7024 47.2440
L64.2024 47.2440
" />
<path d="M64.7024 44.7040
L64.2024 44.7040
" />
<path d="M64.7024 42.1640
L64.2024 42.1640
" />
<path d="M64.7024 39.6240
L64.2024 39.6240
" />
<path d="M64.7024 37.0840
L64.2024 37.0840
" />
<path d="M64.7024 34.5440
L64.2024 34.5440
" />
<path d="M56.7024 34.5440
L56.2024 34.5440
" />
<path d="M56.7024 37.0840
L56.2024 37.0840
" />
<path d="M56.7024 39.6240
L56.2024 39.6240
" />
<path d="M56.7024 42.1640
L56.2024 42.1640
" />
<path d="M56.7024 44.7040
L56.2024 44.7040
" />
<path d="M56.7024 47.2440
L56.2024 47.2440
" />
<path d="M56.7024 49.7840
L56.2024 49.7840
" />
</g>
<g style="fill:#4D7FC4; fill-opacity:1.0000; stroke:none;">
<circle cx="22.6061" cy="53.2130" r="0.7620" /> 
</g>
<g style="fill:#4D7FC4; fill-opacity:1.0000; stroke:none;">
<circle cx="22.6061" cy="50.6730" r="0.7620" /> 
</g>
<g style="fill:#4D7FC4; fill-opacity:1.0000; stroke:none;">
<circle cx="22.6061" cy="48.1330" r="0.7620" /> 
<path style="fill:#4D7FC4; fill-opacity:1.0000; stroke:none;fill-rule:evenodd;"
d="M 4.9883,6.4056
4.9883,8.0056
6.5883,8.0056
6.5883,6.4056
Z" /> 
</g>
<g style="fill:#4D7FC4; fill-opacity:1.0000; stroke:none;">
<circle cx="5.7883" cy="9.7440" r="0.8000" /> 
</g>
<g style="fill:#4D7FC4; fill-opacity:1.0000; stroke:none;">
<circle cx="5.7883" cy="12.2840" r="0.8000" /> 
</g>
<g style="fill:#4D7FC4; fill-opacity:1.0000; stroke:none;">
<circle cx="5.7883" cy="14.8240" r="0.8000" /> 
</g>
<g style="fill:#4D7FC4; fill-opacity:1.0000; stroke:none;">
<circle cx="13.4083" cy="14.8240" r="0.8000" /> 
</g>
<g style="fill:#4D7FC4; fill-opacity:1.0000; stroke:none;">
<circle cx="13.4083" cy="12.2840" r="0.8000" /> 
</g>
<g style="fill:#4D7FC4; fill-opacity:1.0000; stroke:none;">
<circle cx="13.4083" cy="9.7440" r="0.8000" /> 
</g>
<g style="fill:#4D7FC4; fill-opacity:1.0000; stroke:none;">
<circle cx="13.4083" cy="7.2040" r="0.8000" /> 
<path style="fill:#4D7FC4; fill-opacity:1.0000; stroke:none;fill-rule:evenodd;"
d="M 30.0073,6.4056
30.0073,8.0056
31.6073,8.0056
31.6073,6.4056
Z" /> 
</g>
<g style="fill:#4D7FC4; fill-opacity:1.0000; stroke:none;">
<circle cx="30.8073" cy="9.7440" r="0.8000" /> 
</g>
<g style="fill:#4D7FC4; fill-opacity:1.0000; stroke:none;">
<circle cx="30.8073" cy="12.2840" r="0.8000" /> 
</g>
<g style="fill:#4D7FC4; fill-opacity:1.0000; stroke:none;">
<circle cx="30.8073" cy="14.8240" r="0.8000" /> 
</g>
<g style="fill:#4D7FC4; fill-opacity:1.0000; stroke:none;">
<circle cx="38.4273" cy="14.8240" r="0.8000" /> 
</g>
<g style="fill:#4D7FC4; fill-opacity:1.0000; stroke:none;">
<circle cx="38.4273" cy="12.2840" r="0.8000" /> 
</g>
<g style="fill:#4D7FC4; fill-opacity:1.0000; stroke:none;">
<circle cx="38.4273" cy="9.7440" r="0.8000" /> 
</g>
<g style="fill:#4D7FC4; fill-opacity:1.0000; stroke:none;">
<circle cx="38.4273" cy="7.2040" r="0.8000" /> 
</g>
<g style="fill:#4D7FC4; fill-opacity:1.0000; stroke:none;">
<circle cx="107.8231" cy="54.2290" r="0.7620" /> 
</g>
<g style="fill:#4D7FC4; fill-opacity:1.0000; stroke:none;">
<circle cx="107.8231" cy="51.6890" r="0.7620" /> 
</g>
<g style="fill:#4D7FC4; fill-opacity:1.0000; stroke:none;">
<circle cx="107.8231" cy="49.1490" r="0.7620" /> 
</g>
<g style="fill:#4D7FC4; fill-opacity:1.0000; stroke:none;">
<circle cx="42.2841" cy="53.2130" r="0.7620" /> 
</g>
<g style="fill:#4D7FC4; fill-opacity:1.0000; stroke:none;">
<circle cx="42.2841" cy="50.6730" r="0.7620" /> 
</g>
<g style="fill:#4D7FC4; fill-opacity:1.0000; stroke:none;">
<circle cx="42.2841" cy="48.1330" r="0.7620" /> 
</g>
<g style="fill:#4D7FC4; fill-opacity:1.0000; stroke:none;">
<circle cx="86.4871" cy="53.3400" r="0.7620" /> 
</g>
<g style="fill:#4D7FC4; fill-opacity:1.0000; stroke:none;">
<circle cx="86.4871" cy="50.8000" r="0.7620" /> 
</g>
<g style="fill:#4D7FC4; fill-opacity:1.0000; stroke:none;">
<circle cx="86.4871" cy="48.2600" r="0.7620" /> 
<path style="fill:#4D7FC4; fill-opacity:1.0000; stroke:none;fill-rule:evenodd;"
d="M 84.6173,6.2786
84.6173,7.8786
86.2173,7.8786
86.2173,6.2786
Z" /> 
</g>
<g style="fill:#4D7FC4; fill-opacity:1.0000; stroke:none;">
<circle cx="85.4173" cy="9.6170" r="0.8000" /> 
</g>
<g style="fill:#4D7FC4; fill-opacity:1.0000; stroke:none;">
<circle cx="85.4173" cy="12.1570" r="0.8000" /> 
</g>
<g style="fill:#4D7FC4; fill-opacity:1.0000; stroke:none;">
<circle cx="85.4173" cy="14.6970" r="0.8000" /> 
</g>
<g style="fill:#4D7FC4; fill-opacity:1.0000; stroke:none;">
<circle cx="93.0373" cy="14.6970" r="0.8000" /> 
</g>
<g style="fill:#4D7FC4; fill-opacity:1.0000; stroke:none;">
<circle cx="93.0373" cy="12.1570" r="0.8000" /> 
</g>
<g style="fill:#4D7FC4; fill-opacity:1.0000; stroke:none;">
<circle cx="93.0373" cy="9.6170" r="0.8000" /> 
</g>
<g style="fill:#4D7FC4; fill-opacity:1.0000; stroke:none;">
<circle cx="93.0373" cy="7.0770" r="0.8000" /> 
<path style="fill:#4D7FC4; fill-opacity:1.0000; stroke:none;fill-rule:evenodd;"
d="M 64.5513,13.5176
64.5513,15.1176
66.1513,15.1176
66.1513,13.5176
Z" /> 
</g>
<g style="fill:#4D7FC4; fill-opacity:1.0000; stroke:none;">
<circle cx="65.3513" cy="16.8560" r="0.8000" /> 
</g>
<g style="fill:#4D7FC4; fill-opacity:1.0000; stroke:none;">
<circle cx="65.3513" cy="19.3960" r="0.8000" /> 
</g>
<g style="fill:#4D7FC4; fill-opacity:1.0000; stroke:none;">
<circle cx="65.3513" cy="21.9360" r="0.8000" /> 
</g>
<g style="fill:#4D7FC4; fill-opacity:1.0000; stroke:none;">
<circle cx="72.9713" cy="21.9360" r="0.8000" /> 
</g>
<g style="fill:#4D7FC4; fill-opacity:1.0000; stroke:none;">
<circle cx="72.9713" cy="19.3960" r="0.8000" /> 
</g>
<g style="fill:#4D7FC4; fill-opacity:1.0000; stroke:none;">
<circle cx="72.9713" cy="16.8560" r="0.8000" /> 
</g>
<g style="fill:#4D7FC4; fill-opacity:1.0000; stroke:none;">
<circle cx="72.9713" cy="14.3160" r="0.8000" /> 
<path style="fill:#4D7FC4; fill-opacity:1.0000; stroke:none;fill-rule:evenodd;"
d="M 109.5634,6.9485
109.5634,8.5485
111.1634,8.5485
111.1634,6.9485
Z" /> 
</g>
<g style="fill:#4D7FC4; fill-opacity:1.0000; stroke:none;">
<circle cx="110.3634" cy="10.2870" r="0.8000" /> 
</g>
<g style="fill:#4D7FC4; fill-opacity:1.0000; stroke:none;">
<circle cx="110.3634" cy="12.8270" r="0.8000" /> 
</g>
<g style="fill:#4D7FC4; fill-opacity:1.0000; stroke:none;">
<circle cx="110.3634" cy="15.3670" r="0.8000" /> 
</g>
<g style="fill:#4D7FC4; fill-opacity:1.0000; stroke:none;">
<circle cx="117.9834" cy="15.3670" r="0.8000" /> 
</g>
<g style="fill:#4D7FC4; fill-opacity:1.0000; stroke:none;">
<circle cx="117.9834" cy="12.8270" r="0.8000" /> 
</g>
<g style="fill:#4D7FC4; fill-opacity:1.0000; stroke:none;">
<circle cx="117.9834" cy="10.2870" r="0.8000" /> 
</g>
<g style="fill:#4D7FC4; fill-opacity:1.0000; stroke:none;">
<circle cx="117.9834" cy="7.7470" r="0.8000" /> 
</g>
<g style="fill:#4D7FC4; fill-opacity:1.0000; stroke:none;">
<circle cx="81.1534" cy="58.4200" r="0.3050" /> 
</g>
<g style="fill:#4D7FC4; fill-opacity:1.0000; stroke:none;">
<circle cx="49.1494" cy="63.2460" r="0.3050" /> 
</g>
<g style="fill:#4D7FC4; fill-opacity:1.0000; stroke:none;">
<circle cx="47.3714" cy="59.4360" r="0.3050" /> 
</g>
<g style="fill:#4D7FC4; fill-opacity:1.0000; stroke:none;">
<circle cx="40.1321" cy="39.3703" r="0.3050" /> 
</g>
<g style="fill:#4D7FC4; fill-opacity:1.0000; stroke:none;">
<circle cx="44.5774" cy="57.7850" r="0.3050" /> 
</g>
<g style="fill:none; 
stroke:#4D7FC4; stroke-width:0.4000; stroke-opacity:1; 
stroke-linecap:round; stroke-linejoin:round;">
<path d="M99.3144 56.7690
L97.6634 58.4200
" />
<path d="M64.4524 58.7370
L64.4524 49.7840
" />
<path d="M99.3144 56.7690
L99.3144 50.8000
" />
<path d="M66.8024 61.0870
L64.4524 58.7370
" />
<path d="M97.6634 58.4200
L81.1534 58.4200
" />
<path d="M40.1321 39.3703
L36.3786 35.6169
" />
<path d="M86.4873 48.2600
L81.2804 48.2600
" />
<path d="M59.5634 63.2460
L49.1494 63.2460
" />
</g>
<g style="fill:none; 
stroke:#4D7FC4; stroke-width:0.4064; stroke-opacity:1; 
stroke-linecap:round; stroke-linejoin:round;">
<path d="M23.5654 27.3620
L23.1844 27.7430
" />
</g>
<g style="fill:none; 
stroke:#4D7FC4; stroke-width:0.4000; stroke-opacity:1; 
stroke-linecap:round; stroke-linejoin:round;">
<path d="M47.3714 59.4360
L47.3714 53.0860
" />
</g>
<g style="fill:none; 
stroke:#4D7FC4; stroke-width:0.4064; stroke-opacity:1; 
stroke-linecap:round; stroke-linejoin:round;">
<path d="M23.5654 27.3620
L23.5654 23.4950
" />
</g>
<g style="fill:none; 
stroke:#4D7FC4; stroke-width:0.4000; stroke-opacity:1; 
stroke-linecap:round; stroke-linejoin:round;">
<path d="M36.3786 35.6169
L34.7984 35.6169
" />
<path d="M61.7224 61.0870
L59.5634 63.2460
" />
</g>
<g style="fill:none; 
stroke:#4D7FC4; stroke-width:0.4064; stroke-opacity:1; 
stroke-linecap:round; stroke-linejoin:round;">
<path d="M23.1844 30.4800
L23.1844 27.7430
" />
</g>
<g style="fill:none; 
stroke:#4D7FC4; stroke-width:0.4000; stroke-opacity:1; 
stroke-linecap:round; stroke-linejoin:round;">
<path d="M81.2804 48.2600
L77.7244 44.7040
" />
<path d="M47.3714 53.0860
L42.4184 48.1330
" />
<path d="M77.7244 44.7040
L64.4524 44.7040
" />
<path d="M56.4524 58.7370
L56.4524 49.7840
" />
<path d="M56.4524 58.7370
L54.1024 61.0870
" />
<path d="M37.3384 55.6260
L37.3384 48.4571
" />
<path d="M39.4974 57.7850
L37.3384 55.6260
" />
<path d="M37.3384 48.4571
L34.7984 45.9171
" />
<path d="M44.5774 57.7850
L39.4974 57.7850
" />
<path d="M58.4536 59.2139
L58.4536 28.2463
" />
<path d="M52.1433 21.9360
L50.8733 21.9360
" />
<path d="M50.8733 21.9360
L50.8733 19.1421
" />
<path d="M50.8706 28.5750
L50.8706 21.9388
" />
<path d="M58.4536 59.2139
L56.6424 61.0251
" />
<path d="M58.4536 28.2463
L52.1433 21.9360
" />
<path d="M98.2984 42.1640
L64.4524 42.1640
" />
<path d="M107.8234 51.6890
L98.2984 42.1640
" />
<path d="M99.8051 30.9530
L99.2603 31.4978
" />
<path d="M89.2273 40.0970
L88.7543 39.6240
" />
<path d="M95.3555 36.2870
L94.4711 36.2870
" />
<path d="M98.7845 32.8580
L97.8633 32.8580
" />
<path d="M90.2433 40.0970
L89.2273 40.0970
" />
<path d="M94.1055 37.5370
L93.5229 38.1196
" />
<path d="M107.0395 24.6030
L100.6895 30.9530
" />
<path d="M107.0774 24.6030
L107.0395 24.6030
" />
<path d="M110.4363 21.2442
L110.4363 14.6971
" />
<path d="M110.4363 21.2442
L107.0775 24.6030
" />
<path d="M99.2603 32.3822
L98.7845 32.8580
" />
<path d="M93.5229 38.1196
L92.2208 38.1196
" />
<path d="M110.4363 14.6971
L110.4363 12.1571
" />
<path d="M94.4711 36.2870
L94.1055 36.6525
" />
<path d="M97.1335 34.5090
L96.2313 34.5090
" />
<path d="M99.2603 32.3822
L99.2603 31.4978
" />
<path d="M97.8633 32.8580
L97.4823 33.2390
" />
<path d="M88.7543 39.6240
L64.4524 39.6240
" />
<path d="M95.8313 35.8112
L95.8313 34.9090
" />
<path d="M96.2313 34.5090
L95.8313 34.9090
" />
<path d="M95.8313 35.8112
L95.3555 36.2870
" />
<path d="M92.2208 38.1196
L90.2433 40.0970
" />
<path d="M97.4823 34.1602
L97.4823 33.2390
" />
<path d="M94.1055 37.5370
L94.1055 36.6525
" />
<path d="M97.4823 34.1602
L97.1335 34.5090
" />
<path d="M100.6895 30.9530
L99.8051 30.9530
" />
<path d="M56.4524 42.1640
L31.9343 42.1640
" />
<path d="M31.9343 42.1640
L13.2653 23.4950
" />
<path d="M5.7883 16.0180
L5.7883 14.8241
" />
<path d="M5.7883 14.8241
L5.7883 12.2841
" />
<path d="M13.2653 23.4950
L5.7883 16.0180
" />
<path d="M28.1436 9.7441
L26.6455 8.2459
" />
<path d="M30.8073 9.7441
L28.1436 9.7441
" />
<path d="M30.8073 14.8241
L30.8073 12.2841
" />
<path d="M26.7337 12.2841
L26.6955 12.2459
" />
<path d="M56.4524 37.0840
L53.0672 37.0840
" />
<path d="M53.0672 37.0840
L30.8073 14.8241
" />
<path d="M30.8073 12.2841
L26.7337 12.2841
" />
<path d="M107.0274 11.6490
L103.9793 14.6971
" />
<path d="M103.9793 14.6971
L92.4023 14.6971
" />
<path d="M16.3633 16.1290
L14.7132 16.1290
" />
<path d="M14.7132 16.1290
L13.4083 14.8241
" />
<path d="M10.8683 14.8241
L5.7883 9.7441
" />
<path d="M13.4083 14.8241
L10.8683 14.8241
" />
</g>
<g style="fill:none; 
stroke:#4D7FC4; stroke-width:0.4064; stroke-opacity:1; 
stroke-linecap:round; stroke-linejoin:round;">
<path d="M116.0216 41.0778
L115.5163 41.5831
" />
<path d="M115.5163 51.6540
L115.5163 41.5831
" />
<path d="M116.0216 41.0778
L116.0216 35.8140
" />
</g>
<g style="fill:none; 
stroke:#4D7FC4; stroke-width:0.4000; stroke-opacity:1; 
stroke-linecap:round; stroke-linejoin:round;">
<path d="M51.5624 61.0870
L21.5904 61.0870
" />
<path d="M13.5194 38.2270
L13.4624 38.2840
" />
<path d="M56.4524 47.2440
L55.1563 47.2440
" />
<path d="M55.1563 47.2440
L54.1753 48.2250
" />
<path d="M54.1753 56.8610
L54.1753 48.2250
" />
<path d="M21.5904 61.0870
L13.4624 52.9590
" />
</g>
<g style="fill:none; 
stroke:#4D7FC4; stroke-width:0.4064; stroke-opacity:1; 
stroke-linecap:round; stroke-linejoin:round;">
<path d="M13.4624 52.9590
L13.4624 51.3080
" />
</g>
<g style="fill:none; 
stroke:#4D7FC4; stroke-width:0.4000; stroke-opacity:1; 
stroke-linecap:round; stroke-linejoin:round;">
<path d="M54.1753 56.8610
L51.5624 59.4739
" />
<path d="M51.5624 61.0870
L51.5624 59.4739
" />
<path d="M114.3004 61.0870
L69.3424 61.0870
" />
<path d="M69.3424 59.3281
L66.9604 56.9461
" />
<path d="M66.9604 56.9461
L66.9604 48.4371
" />
<path d="M65.7673 47.2440
L64.4524 47.2440
" />
<path d="M118.0563 57.3311
L114.3004 61.0870
" />
<path d="M66.9604 48.4371
L65.7673 47.2440
" />
<path d="M118.0563 57.3311
L118.0563 51.6540
" />
<path d="M69.3424 61.0870
L69.3424 59.3281
" />
<path d="M62.0493 33.2330
L62.0493 32.7310
" />
<path d="M62.4524 42.6844
L62.0493 42.2813
" />
<path d="M62.0493 39.7500
L62.0493 38.8654
" />
<path d="M62.4330 32.3473
L62.0493 32.7310
" />
<path d="M62.4524 30.2959
L62.4524 29.0259
" />
<path d="M62.4524 59.2770
L62.4524 44.8876
" />
<path d="M67.8913 21.9361
L65.3513 21.9361
" />
<path d="M62.4524 33.6361
L62.0493 33.2330
" />
<path d="M69.6533 23.6981
L67.8913 21.9361
" />
<path d="M62.4330 31.7816
L62.0493 31.3979
" />
<path d="M62.4524 35.5464
L62.0493 35.1433
" />
<path d="M62.4524 30.2959
L62.0493 30.6990
" />
<path d="M69.6533 28.7020
L69.6533 23.6981
" />
<path d="M65.3513 26.7620
L64.0355 28.0779
" />
<path d="M62.0493 42.2813
L62.0493 41.3999
" />
<path d="M62.0493 31.3979
L62.0493 30.6990
" />
<path d="M62.4524 36.2198
L62.0493 36.6229
" />
<path d="M62.4524 40.9968
L62.4524 40.1531
" />
<path d="M62.4524 43.4188
L62.4524 42.6844
" />
<path d="M62.4524 38.4623
L62.0493 38.8654
" />
<path d="M62.4524 43.4188
L62.0493 43.8219
" />
<path d="M62.4524 38.4623
L62.4524 37.7148
" />
<path d="M62.4524 40.9968
L62.0493 41.3999
" />
<path d="M62.4524 37.7148
L62.0493 37.3117
" />
<path d="M62.4524 44.8876
L62.0493 44.4845
" />
<path d="M64.0355 28.0779
L63.4005 28.0779
" />
<path d="M62.4524 40.1531
L62.0493 39.7500
" />
<path d="M62.0493 35.1433
L62.0493 34.6025
" />
<path d="M62.4330 32.3473
L62.4330 31.7816
" />
<path d="M62.0493 37.3117
L62.0493 36.6229
" />
<path d="M62.4524 34.1994
L62.0493 34.6025
" />
<path d="M62.4524 34.1994
L62.4524 33.6361
" />
<path d="M62.0493 44.4845
L62.0493 43.8219
" />
<path d="M64.2624 61.0870
L62.4524 59.2770
" />
<path d="M62.4524 36.2198
L62.4524 35.5464
" />
<path d="M63.4005 28.0779
L62.4524 29.0259
" />
<path d="M65.3513 26.7620
L65.3513 19.3961
" />
</g>
<g style="fill:none; 
stroke:#4D7FC4; stroke-width:0.4064; stroke-opacity:1; 
stroke-linecap:round; stroke-linejoin:round;">
<path d="M70.4313 21.9361
L65.3513 16.8561
" />
</g>
<g style="fill:none; 
stroke:#4D7FC4; stroke-width:0.4000; stroke-opacity:1; 
stroke-linecap:round; stroke-linejoin:round;">
<path d="M74.4032 23.3680
L72.9713 21.9361
" />
<path d="M72.9713 21.9361
L70.4313 21.9361
" />
<path d="M76.3073 23.3680
L74.4032 23.3680
" />
<path d="M78.8133 25.1110
L78.0513 25.1110
" />
<path d="M74.0334 29.7640
L74.0334 29.1290
" />
<path d="M85.4173 14.6971
L85.4173 12.1571
" />
<path d="M78.0513 25.1110
L77.5433 25.6190
" />
<path d="M81.0993 22.9397
L81.0993 22.0820
" />
<path d="M72.3164 31.3539
L72.3164 30.8459
" />
<path d="M82.1153 21.0660
L81.0993 22.0820
" />
<path d="M83.0043 14.6971
L82.1153 15.5860
" />
<path d="M76.2923 26.8890
L75.8923 27.2890
" />
<path d="M77.0353 26.8890
L76.2923 26.8890
" />
<path d="M75.2573 28.6670
L74.4953 28.6670
" />
<path d="M77.5433 26.3810
L77.0353 26.8890
" />
<path d="M74.0334 29.7640
L73.4793 30.3180
" />
<path d="M85.4173 14.6971
L83.0043 14.6971
" />
<path d="M74.4953 28.6670
L74.0334 29.1290
" />
<path d="M77.5433 26.3810
L77.5433 25.6190
" />
<path d="M79.3213 24.6030
L78.8133 25.1110
" />
<path d="M75.8923 28.0320
L75.8923 27.2890
" />
<path d="M68.6183 34.5440
L64.4524 34.5440
" />
<path d="M71.3203 31.8420
L68.6183 34.5440
" />
<path d="M72.8443 30.3180
L72.3164 30.8459
" />
<path d="M75.8923 28.0320
L75.2573 28.6670
" />
<path d="M85.4173 17.1801
L85.4173 14.6971
" />
<path d="M80.6294 23.4096
L79.7718 23.4096
" />
<path d="M81.0993 22.9397
L80.6294 23.4096
" />
<path d="M79.7718 23.4096
L79.3213 23.8600
" />
<path d="M73.4793 30.3180
L72.8443 30.3180
" />
<path d="M82.1153 21.0660
L82.1153 15.5860
" />
<path d="M86.4902 18.2530
L85.4173 17.1801
" />
<path d="M71.8283 31.8420
L71.3203 31.8420
" />
<path d="M79.3213 24.6030
L79.3213 23.8600
" />
<path d="M72.3164 31.3539
L71.8283 31.8420
" />
</g>
<g style="fill:none; 
stroke:#E8B2A7; stroke-width:0.1524; stroke-opacity:1; 
stroke-linecap:round; stroke-linejoin:round;">
<g transform="rotate(90.000000 59.8773 12.9190)">
<text x="59.8773" y="12.9190"
textLength="3.5487" font-size="1.5240" lengthAdjust="spacingAndGlyphs"
text-anchor="start" opacity="0" stroke-opacity="0">SK2</text>
</g>
<g class="stroked-text"><desc>SK2</desc>
<path d="M60.0795 13.2370
L60.0251 13.4003
" />
<path d="M60.0251 13.4003
L60.0251 13.6724
" />
<path d="M60.0251 13.6724
L60.0795 13.7813
" />
<path d="M60.0795 13.7813
L60.1339 13.8357
" />
<path d="M60.1339 13.8357
L60.2428 13.8902
" />
<path d="M60.2428 13.8902
L60.3517 13.8902
" />
<path d="M60.3517 13.8902
L60.4605 13.8357
" />
<path d="M60.4605 13.8357
L60.5149 13.7813
" />
<path d="M60.5149 13.7813
L60.5694 13.6724
" />
<path d="M60.5694 13.6724
L60.6238 13.4547
" />
<path d="M60.6238 13.4547
L60.6782 13.3459
" />
<path d="M60.6782 13.3459
L60.7327 13.2914
" />
<path d="M60.7327 13.2914
L60.8415 13.2370
" />
<path d="M60.8415 13.2370
L60.9504 13.2370
" />
<path d="M60.9504 13.2370
L61.0592 13.2914
" />
<path d="M61.0592 13.2914
L61.1137 13.3459
" />
<path d="M61.1137 13.3459
L61.1681 13.4547
" />
<path d="M61.1681 13.4547
L61.1681 13.7269
" />
<path d="M61.1681 13.7269
L61.1137 13.8902
" />
<path d="M60.0251 14.3800
L61.1681 14.3800
" />
<path d="M60.0251 15.0331
L60.6782 14.5433
" />
<path d="M61.1681 15.0331
L60.5149 14.3800
" />
<path d="M61.0592 15.4686
L61.1137 15.5230
" />
<path d="M61.1137 15.5230
L61.1681 15.6319
" />
<path d="M61.1681 15.6319
L61.1681 15.9040
" />
<path d="M61.1681 15.9040
L61.1137 16.0129
" />
<path d="M61.1137 16.0129
L61.0592 16.0673
" />
<path d="M61.0592 16.0673
L60.9504 16.1217
" />
<path d="M60.9504 16.1217
L60.8415 16.1217
" />
<path d="M60.8415 16.1217
L60.6782 16.0673
" />
<path d="M60.6782 16.0673
L60.0251 15.4141
" />
<path d="M60.0251 15.4141
L60.0251 16.1217
" />
</g><g transform="rotate(270.000000 55.4654 52.0765)">
<text x="55.4654" y="52.0765"
textLength="3.6032" font-size="1.5240" lengthAdjust="spacingAndGlyphs"
text-anchor="start" opacity="0" stroke-opacity="0">U28</text>
</g>
<g class="stroked-text"><desc>U28</desc>
<path d="M54.1746 51.7041
L55.0999 51.7041
" />
<path d="M55.0999 51.7041
L55.2088 51.6497
" />
<path d="M55.2088 51.6497
L55.2632 51.5952
" />
<path d="M55.2632 51.5952
L55.3176 51.4864
" />
<path d="M55.3176 51.4864
L55.3176 51.2687
" />
<path d="M55.3176 51.2687
L55.2632 51.1598
" />
<path d="M55.2632 51.1598
L55.2088 51.1054
" />
<path d="M55.2088 51.1054
L55.0999 51.0510
" />
<path d="M55.0999 51.0510
L54.1746 51.0510
" />
<path d="M54.2835 50.5611
L54.2291 50.5067
" />
<path d="M54.2291 50.5067
L54.1746 50.3978
" />
<path d="M54.1746 50.3978
L54.1746 50.1257
" />
<path d="M54.1746 50.1257
L54.2291 50.0168
" />
<path d="M54.2291 50.0168
L54.2835 49.9624
" />
<path d="M54.2835 49.9624
L54.3923 49.9079
" />
<path d="M54.3923 49.9079
L54.5012 49.9079
" />
<path d="M54.5012 49.9079
L54.6645 49.9624
" />
<path d="M54.6645 49.9624
L55.3176 50.6155
" />
<path d="M55.3176 50.6155
L55.3176 49.9079
" />
<path d="M54.6645 49.2548
L54.6101 49.3637
" />
<path d="M54.6101 49.3637
L54.5556 49.4181
" />
<path d="M54.5556 49.4181
L54.4468 49.4725
" />
<path d="M54.4468 49.4725
L54.3923 49.4725
" />
<path d="M54.3923 49.4725
L54.2835 49.4181
" />
<path d="M54.2835 49.4181
L54.2291 49.3637
" />
<path d="M54.2291 49.3637
L54.1746 49.2548
" />
<path d="M54.1746 49.2548
L54.1746 49.0371
" />
<path d="M54.1746 49.0371
L54.2291 48.9282
" />
<path d="M54.2291 48.9282
L54.2835 48.8738
" />
<path d="M54.2835 48.8738
L54.3923 48.8194
" />
<path d="M54.3923 48.8194
L54.4468 48.8194
" />
<path d="M54.4468 48.8194
L54.5556 48.8738
" />
<path d="M54.5556 48.8738
L54.6101 48.9282
" />
<path d="M54.6101 48.9282
L54.6645 49.0371
" />
<path d="M54.6645 49.0371
L54.6645 49.2548
" />
<path d="M54.6645 49.2548
L54.7189 49.3637
" />
<path d="M54.7189 49.3637
L54.7733 49.4181
" />
<path d="M54.7733 49.4181
L54.8822 49.4725
" />
<path d="M54.8822 49.4725
L55.0999 49.4725
" />
<path d="M55.0999 49.4725
L55.2088 49.4181
" />
<path d="M55.2088 49.4181
L55.2632 49.3637
" />
<path d="M55.2632 49.3637
L55.3176 49.2548
" />
<path d="M55.3176 49.2548
L55.3176 49.0371
" />
<path d="M55.3176 49.0371
L55.2632 48.9282
" />
<path d="M55.2632 48.9282
L55.2088 48.8738
" />
<path d="M55.2088 48.8738
L55.0999 48.8194
" />
<path d="M55.0999 48.8194
L54.8822 48.8194
" />
<path d="M54.8822 48.8194
L54.7733 48.8738
" />
<path d="M54.7733 48.8738
L54.7189 48.9282
" />
<path d="M54.7189 48.9282
L54.6645 49.0371
" />
</g><g transform="rotate(180.000000 25.4674 55.6130)">
<text x="25.4674" y="55.6130"
textLength="3.5487" font-size="1.5240" lengthAdjust="spacingAndGlyphs"
text-anchor="start" opacity="0" stroke-opacity="0">R35</text>
</g>
<g class="stroked-text"><desc>R35</desc>
<path d="M24.4419 55.7608
L24.8229 56.3051
" />
<path d="M25.0950 55.7608
L25.0950 56.9038
" />
<path d="M25.0950 56.9038
L24.6596 56.9038
" />
<path d="M24.6596 56.9038
L24.5507 56.8494
" />
<path d="M24.5507 56.8494
L24.4963 56.7949
" />
<path d="M24.4963 56.7949
L24.4419 56.6861
" />
<path d="M24.4419 56.6861
L24.4419 56.5228
" />
<path d="M24.4419 56.5228
L24.4963 56.4139
" />
<path d="M24.4963 56.4139
L24.5507 56.3595
" />
<path d="M24.5507 56.3595
L24.6596 56.3051
" />
<path d="M24.6596 56.3051
L25.0950 56.3051
" />
<path d="M24.0609 56.9038
L23.3533 56.9038
" />
<path d="M23.3533 56.9038
L23.7343 56.4684
" />
<path d="M23.7343 56.4684
L23.5710 56.4684
" />
<path d="M23.5710 56.4684
L23.4621 56.4139
" />
<path d="M23.4621 56.4139
L23.4077 56.3595
" />
<path d="M23.4077 56.3595
L23.3533 56.2506
" />
<path d="M23.3533 56.2506
L23.3533 55.9785
" />
<path d="M23.3533 55.9785
L23.4077 55.8696
" />
<path d="M23.4077 55.8696
L23.4621 55.8152
" />
<path d="M23.4621 55.8152
L23.5710 55.7608
" />
<path d="M23.5710 55.7608
L23.8976 55.7608
" />
<path d="M23.8976 55.7608
L24.0064 55.8152
" />
<path d="M24.0064 55.8152
L24.0609 55.8696
" />
<path d="M22.3191 56.9038
L22.8634 56.9038
" />
<path d="M22.8634 56.9038
L22.9179 56.3595
" />
<path d="M22.9179 56.3595
L22.8634 56.4139
" />
<path d="M22.8634 56.4139
L22.7546 56.4684
" />
<path d="M22.7546 56.4684
L22.4824 56.4684
" />
<path d="M22.4824 56.4684
L22.3736 56.4139
" />
<path d="M22.3736 56.4139
L22.3191 56.3595
" />
<path d="M22.3191 56.3595
L22.2647 56.2506
" />
<path d="M22.2647 56.2506
L22.2647 55.9785
" />
<path d="M22.2647 55.9785
L22.3191 55.8696
" />
<path d="M22.3191 55.8696
L22.3736 55.8152
" />
<path d="M22.3736 55.8152
L22.4824 55.7608
" />
<path d="M22.4824 55.7608
L22.7546 55.7608
" />
<path d="M22.7546 55.7608
L22.8634 55.8152
" />
<path d="M22.8634 55.8152
L22.9179 55.8696
" />
</g><g transform="rotate(90.000000 14.7923 5.8070)">
<text x="14.7923" y="5.8070"
textLength="3.5487" font-size="1.5240" lengthAdjust="spacingAndGlyphs"
text-anchor="start" opacity="0" stroke-opacity="0">SK3</text>
</g>
<g class="stroked-text"><desc>SK3</desc>
<path d="M14.9945 6.1250
L14.9401 6.2883
" />
<path d="M14.9401 6.2883
L14.9401 6.5604
" />
<path d="M14.9401 6.5604
L14.9945 6.6693
" />
<path d="M14.9945 6.6693
L15.0489 6.7237
" />
<path d="M15.0489 6.7237
L15.1578 6.7782
" />
<path d="M15.1578 6.7782
L15.2667 6.7782
" />
<path d="M15.2667 6.7782
L15.3755 6.7237
" />
<path d="M15.3755 6.7237
L15.4299 6.6693
" />
<path d="M15.4299 6.6693
L15.4844 6.5604
" />
<path d="M15.4844 6.5604
L15.5388 6.3427
" />
<path d="M15.5388 6.3427
L15.5932 6.2339
" />
<path d="M15.5932 6.2339
L15.6477 6.1794
" />
<path d="M15.6477 6.1794
L15.7565 6.1250
" />
<path d="M15.7565 6.1250
L15.8654 6.1250
" />
<path d="M15.8654 6.1250
L15.9742 6.1794
" />
<path d="M15.9742 6.1794
L16.0287 6.2339
" />
<path d="M16.0287 6.2339
L16.0831 6.3427
" />
<path d="M16.0831 6.3427
L16.0831 6.6149
" />
<path d="M16.0831 6.6149
L16.0287 6.7782
" />
<path d="M14.9401 7.2680
L16.0831 7.2680
" />
<path d="M14.9401 7.9211
L15.5932 7.4313
" />
<path d="M16.0831 7.9211
L15.4299 7.2680
" />
<path d="M16.0831 8.3021
L16.0831 9.0097
" />
<path d="M16.0831 9.0097
L15.6477 8.6287
" />
<path d="M15.6477 8.6287
L15.6477 8.7920
" />
<path d="M15.6477 8.7920
L15.5932 8.9009
" />
<path d="M15.5932 8.9009
L15.5388 8.9553
" />
<path d="M15.5388 8.9553
L15.4299 9.0097
" />
<path d="M15.4299 9.0097
L15.1578 9.0097
" />
<path d="M15.1578 9.0097
L15.0489 8.9553
" />
<path d="M15.0489 8.9553
L14.9945 8.9009
" />
<path d="M14.9945 8.9009
L14.9401 8.7920
" />
<path d="M14.9401 8.7920
L14.9401 8.4654
" />
<path d="M14.9401 8.4654
L14.9945 8.3566
" />
<path d="M14.9945 8.3566
L15.0489 8.3021
" />
</g><g transform="rotate(90.000000 39.8113 5.8070)">
<text x="39.8113" y="5.8070"
textLength="3.5487" font-size="1.5240" lengthAdjust="spacingAndGlyphs"
text-anchor="start" opacity="0" stroke-opacity="0">SK4</text>
</g>
<g class="stroked-text"><desc>SK4</desc>
<path d="M40.0135 6.1250
L39.9591 6.2883
" />
<path d="M39.9591 6.2883
L39.9591 6.5604
" />
<path d="M39.9591 6.5604
L40.0135 6.6693
" />
<path d="M40.0135 6.6693
L40.0679 6.7237
" />
<path d="M40.0679 6.7237
L40.1768 6.7782
" />
<path d="M40.1768 6.7782
L40.2857 6.7782
" />
<path d="M40.2857 6.7782
L40.3945 6.7237
" />
<path d="M40.3945 6.7237
L40.4489 6.6693
" />
<path d="M40.4489 6.6693
L40.5034 6.5604
" />
<path d="M40.5034 6.5604
L40.5578 6.3427
" />
<path d="M40.5578 6.3427
L40.6122 6.2339
" />
<path d="M40.6122 6.2339
L40.6667 6.1794
" />
<path d="M40.6667 6.1794
L40.7755 6.1250
" />
<path d="M40.7755 6.1250
L40.8844 6.1250
" />
<path d="M40.8844 6.1250
L40.9932 6.1794
" />
<path d="M40.9932 6.1794
L41.0477 6.2339
" />
<path d="M41.0477 6.2339
L41.1021 6.3427
" />
<path d="M41.1021 6.3427
L41.1021 6.6149
" />
<path d="M41.1021 6.6149
L41.0477 6.7782
" />
<path d="M39.9591 7.2680
L41.1021 7.2680
" />
<path d="M39.9591 7.9211
L40.6122 7.4313
" />
<path d="M41.1021 7.9211
L40.4489 7.2680
" />
<path d="M40.7211 8.9009
L39.9591 8.9009
" />
<path d="M41.1565 8.6287
L40.3401 8.3566
" />
<path d="M40.3401 8.3566
L40.3401 9.0641
" />
</g><g transform="rotate(180.000000 110.6844 56.6290)">
<text x="110.6844" y="56.6290"
textLength="3.5487" font-size="1.5240" lengthAdjust="spacingAndGlyphs"
text-anchor="start" opacity="0" stroke-opacity="0">R34</text>
</g>
<g class="stroked-text"><desc>R34</desc>
<path d="M109.6589 56.7768
L110.0399 57.3211
" />
<path d="M110.3120 56.7768
L110.3120 57.9198
" />
<path d="M110.3120 57.9198
L109.8766 57.9198
" />
<path d="M109.8766 57.9198
L109.7677 57.8654
" />
<path d="M109.7677 57.8654
L109.7133 57.8109
" />
<path d="M109.7133 57.8109
L109.6589 57.7021
" />
<path d="M109.6589 57.7021
L109.6589 57.5388
" />
<path d="M109.6589 57.5388
L109.7133 57.4299
" />
<path d="M109.7133 57.4299
L109.7677 57.3755
" />
<path d="M109.7677 57.3755
L109.8766 57.3211
" />
<path d="M109.8766 57.3211
L110.3120 57.3211
" />
<path d="M109.2779 57.9198
L108.5703 57.9198
" />
<path d="M108.5703 57.9198
L108.9513 57.4844
" />
<path d="M108.9513 57.4844
L108.7880 57.4844
" />
<path d="M108.7880 57.4844
L108.6791 57.4299
" />
<path d="M108.6791 57.4299
L108.6247 57.3755
" />
<path d="M108.6247 57.3755
L108.5703 57.2666
" />
<path d="M108.5703 57.2666
L108.5703 56.9945
" />
<path d="M108.5703 56.9945
L108.6247 56.8856
" />
<path d="M108.6247 56.8856
L108.6791 56.8312
" />
<path d="M108.6791 56.8312
L108.7880 56.7768
" />
<path d="M108.7880 56.7768
L109.1146 56.7768
" />
<path d="M109.1146 56.7768
L109.2234 56.8312
" />
<path d="M109.2234 56.8312
L109.2779 56.8856
" />
<path d="M107.5906 57.5388
L107.5906 56.7768
" />
<path d="M107.8627 57.9742
L108.1349 57.1578
" />
<path d="M108.1349 57.1578
L107.4273 57.1578
" />
</g><g transform="rotate(180.000000 45.1454 55.6130)">
<text x="45.1454" y="55.6130"
textLength="3.5487" font-size="1.5240" lengthAdjust="spacingAndGlyphs"
text-anchor="start" opacity="0" stroke-opacity="0">R36</text>
</g>
<g class="stroked-text"><desc>R36</desc>
<path d="M44.1198 55.7608
L44.5008 56.3051
" />
<path d="M44.7730 55.7608
L44.7730 56.9038
" />
<path d="M44.7730 56.9038
L44.3376 56.9038
" />
<path d="M44.3376 56.9038
L44.2287 56.8494
" />
<path d="M44.2287 56.8494
L44.1743 56.7949
" />
<path d="M44.1743 56.7949
L44.1198 56.6861
" />
<path d="M44.1198 56.6861
L44.1198 56.5228
" />
<path d="M44.1198 56.5228
L44.1743 56.4139
" />
<path d="M44.1743 56.4139
L44.2287 56.3595
" />
<path d="M44.2287 56.3595
L44.3376 56.3051
" />
<path d="M44.3376 56.3051
L44.7730 56.3051
" />
<path d="M43.7388 56.9038
L43.0313 56.9038
" />
<path d="M43.0313 56.9038
L43.4123 56.4684
" />
<path d="M43.4123 56.4684
L43.2490 56.4684
" />
<path d="M43.2490 56.4684
L43.1401 56.4139
" />
<path d="M43.1401 56.4139
L43.0857 56.3595
" />
<path d="M43.0857 56.3595
L43.0313 56.2506
" />
<path d="M43.0313 56.2506
L43.0313 55.9785
" />
<path d="M43.0313 55.9785
L43.0857 55.8696
" />
<path d="M43.0857 55.8696
L43.1401 55.8152
" />
<path d="M43.1401 55.8152
L43.2490 55.7608
" />
<path d="M43.2490 55.7608
L43.5756 55.7608
" />
<path d="M43.5756 55.7608
L43.6844 55.8152
" />
<path d="M43.6844 55.8152
L43.7388 55.8696
" />
<path d="M42.0516 56.9038
L42.2693 56.9038
" />
<path d="M42.2693 56.9038
L42.3781 56.8494
" />
<path d="M42.3781 56.8494
L42.4326 56.7949
" />
<path d="M42.4326 56.7949
L42.5414 56.6316
" />
<path d="M42.5414 56.6316
L42.5958 56.4139
" />
<path d="M42.5958 56.4139
L42.5958 55.9785
" />
<path d="M42.5958 55.9785
L42.5414 55.8696
" />
<path d="M42.5414 55.8696
L42.4870 55.8152
" />
<path d="M42.4870 55.8152
L42.3781 55.7608
" />
<path d="M42.3781 55.7608
L42.1604 55.7608
" />
<path d="M42.1604 55.7608
L42.0516 55.8152
" />
<path d="M42.0516 55.8152
L41.9971 55.8696
" />
<path d="M41.9971 55.8696
L41.9427 55.9785
" />
<path d="M41.9427 55.9785
L41.9427 56.2506
" />
<path d="M41.9427 56.2506
L41.9971 56.3595
" />
<path d="M41.9971 56.3595
L42.0516 56.4139
" />
<path d="M42.0516 56.4139
L42.1604 56.4684
" />
<path d="M42.1604 56.4684
L42.3781 56.4684
" />
<path d="M42.3781 56.4684
L42.4870 56.4139
" />
<path d="M42.4870 56.4139
L42.5414 56.3595
" />
<path d="M42.5414 56.3595
L42.5958 56.2506
" />
</g><g transform="rotate(180.000000 89.3484 55.7400)">
<text x="89.3484" y="55.7400"
textLength="3.5487" font-size="1.5240" lengthAdjust="spacingAndGlyphs"
text-anchor="start" opacity="0" stroke-opacity="0">R33</text>
</g>
<g class="stroked-text"><desc>R33</desc>
<path d="M88.3229 55.8878
L88.7039 56.4321
" />
<path d="M88.9760 55.8878
L88.9760 57.0308
" />
<path d="M88.9760 57.0308
L88.5406 57.0308
" />
<path d="M88.5406 57.0308
L88.4317 56.9764
" />
<path d="M88.4317 56.9764
L88.3773 56.9219
" />
<path d="M88.3773 56.9219
L88.3229 56.8131
" />
<path d="M88.3229 56.8131
L88.3229 56.6498
" />
<path d="M88.3229 56.6498
L88.3773 56.5409
" />
<path d="M88.3773 56.5409
L88.4317 56.4865
" />
<path d="M88.4317 56.4865
L88.5406 56.4321
" />
<path d="M88.5406 56.4321
L88.9760 56.4321
" />
<path d="M87.9419 57.0308
L87.2343 57.0308
" />
<path d="M87.2343 57.0308
L87.6153 56.5954
" />
<path d="M87.6153 56.5954
L87.4520 56.5954
" />
<path d="M87.4520 56.5954
L87.3431 56.5409
" />
<path d="M87.3431 56.5409
L87.2887 56.4865
" />
<path d="M87.2887 56.4865
L87.2343 56.3776
" />
<path d="M87.2343 56.3776
L87.2343 56.1055
" />
<path d="M87.2343 56.1055
L87.2887 55.9966
" />
<path d="M87.2887 55.9966
L87.3431 55.9422
" />
<path d="M87.3431 55.9422
L87.4520 55.8878
" />
<path d="M87.4520 55.8878
L87.7786 55.8878
" />
<path d="M87.7786 55.8878
L87.8874 55.9422
" />
<path d="M87.8874 55.9422
L87.9419 55.9966
" />
<path d="M86.8533 57.0308
L86.1457 57.0308
" />
<path d="M86.1457 57.0308
L86.5267 56.5954
" />
<path d="M86.5267 56.5954
L86.3634 56.5954
" />
<path d="M86.3634 56.5954
L86.2546 56.5409
" />
<path d="M86.2546 56.5409
L86.2001 56.4865
" />
<path d="M86.2001 56.4865
L86.1457 56.3776
" />
<path d="M86.1457 56.3776
L86.1457 56.1055
" />
<path d="M86.1457 56.1055
L86.2001 55.9966
" />
<path d="M86.2001 55.9966
L86.2546 55.9422
" />
<path d="M86.2546 55.9422
L86.3634 55.8878
" />
<path d="M86.3634 55.8878
L86.6900 55.8878
" />
<path d="M86.6900 55.8878
L86.7989 55.9422
" />
<path d="M86.7989 55.9422
L86.8533 55.9966
" />
</g><g transform="rotate(90.000000 94.4213 5.6800)">
<text x="94.4213" y="5.6800"
textLength="3.5487" font-size="1.5240" lengthAdjust="spacingAndGlyphs"
text-anchor="start" opacity="0" stroke-opacity="0">SK5</text>
</g>
<g class="stroked-text"><desc>SK5</desc>
<path d="M94.6235 5.9980
L94.5691 6.1613
" />
<path d="M94.5691 6.1613
L94.5691 6.4334
" />
<path d="M94.5691 6.4334
L94.6235 6.5423
" />
<path d="M94.6235 6.5423
L94.6779 6.5967
" />
<path d="M94.6779 6.5967
L94.7868 6.6511
" />
<path d="M94.7868 6.6511
L94.8957 6.6511
" />
<path d="M94.8957 6.6511
L95.0045 6.5967
" />
<path d="M95.0045 6.5967
L95.0589 6.5423
" />
<path d="M95.0589 6.5423
L95.1134 6.4334
" />
<path d="M95.1134 6.4334
L95.1678 6.2157
" />
<path d="M95.1678 6.2157
L95.2222 6.1069
" />
<path d="M95.2222 6.1069
L95.2767 6.0524
" />
<path d="M95.2767 6.0524
L95.3855 5.9980
" />
<path d="M95.3855 5.9980
L95.4944 5.9980
" />
<path d="M95.4944 5.9980
L95.6032 6.0524
" />
<path d="M95.6032 6.0524
L95.6577 6.1069
" />
<path d="M95.6577 6.1069
L95.7121 6.2157
" />
<path d="M95.7121 6.2157
L95.7121 6.4879
" />
<path d="M95.7121 6.4879
L95.6577 6.6511
" />
<path d="M94.5691 7.1410
L95.7121 7.1410
" />
<path d="M94.5691 7.7941
L95.2222 7.3043
" />
<path d="M95.7121 7.7941
L95.0589 7.1410
" />
<path d="M95.7121 8.8283
L95.7121 8.2840
" />
<path d="M95.7121 8.2840
L95.1678 8.2296
" />
<path d="M95.1678 8.2296
L95.2222 8.2840
" />
<path d="M95.2222 8.2840
L95.2767 8.3929
" />
<path d="M95.2767 8.3929
L95.2767 8.6650
" />
<path d="M95.2767 8.6650
L95.2222 8.7739
" />
<path d="M95.2222 8.7739
L95.1678 8.8283
" />
<path d="M95.1678 8.8283
L95.0589 8.8827
" />
<path d="M95.0589 8.8827
L94.7868 8.8827
" />
<path d="M94.7868 8.8827
L94.6779 8.8283
" />
<path d="M94.6779 8.8283
L94.6235 8.7739
" />
<path d="M94.6235 8.7739
L94.5691 8.6650
" />
<path d="M94.5691 8.6650
L94.5691 8.3929
" />
<path d="M94.5691 8.3929
L94.6235 8.2840
" />
<path d="M94.6235 8.2840
L94.6779 8.2296
" />
</g><g transform="rotate(90.000000 74.3553 12.9190)">
<text x="74.3553" y="12.9190"
textLength="3.5487" font-size="1.5240" lengthAdjust="spacingAndGlyphs"
text-anchor="start" opacity="0" stroke-opacity="0">SK1</text>
</g>
<g class="stroked-text"><desc>SK1</desc>
<path d="M74.5575 13.2370
L74.5031 13.4003
" />
<path d="M74.5031 13.4003
L74.5031 13.6724
" />
<path d="M74.5031 13.6724
L74.5575 13.7813
" />
<path d="M74.5575 13.7813
L74.6119 13.8357
" />
<path d="M74.6119 13.8357
L74.7208 13.8902
" />
<path d="M74.7208 13.8902
L74.8297 13.8902
" />
<path d="M74.8297 13.8902
L74.9385 13.8357
" />
<path d="M74.9385 13.8357
L74.9929 13.7813
" />
<path d="M74.9929 13.7813
L75.0474 13.6724
" />
<path d="M75.0474 13.6724
L75.1018 13.4547
" />
<path d="M75.1018 13.4547
L75.1562 13.3459
" />
<path d="M75.1562 13.3459
L75.2107 13.2914
" />
<path d="M75.2107 13.2914
L75.3195 13.2370
" />
<path d="M75.3195 13.2370
L75.4284 13.2370
" />
<path d="M75.4284 13.2370
L75.5372 13.2914
" />
<path d="M75.5372 13.2914
L75.5917 13.3459
" />
<path d="M75.5917 13.3459
L75.6461 13.4547
" />
<path d="M75.6461 13.4547
L75.6461 13.7269
" />
<path d="M75.6461 13.7269
L75.5917 13.8902
" />
<path d="M74.5031 14.3800
L75.6461 14.3800
" />
<path d="M74.5031 15.0331
L75.1562 14.5433
" />
<path d="M75.6461 15.0331
L74.9929 14.3800
" />
<path d="M74.5031 16.1217
L74.5031 15.4686
" />
<path d="M74.5031 15.7951
L75.6461 15.7951
" />
<path d="M75.6461 15.7951
L75.4828 15.6863
" />
<path d="M75.4828 15.6863
L75.3739 15.5774
" />
<path d="M75.3739 15.5774
L75.3195 15.4686
" />
</g><g transform="rotate(90.000000 119.3674 6.3500)">
<text x="119.3674" y="6.3500"
textLength="3.5487" font-size="1.5240" lengthAdjust="spacingAndGlyphs"
text-anchor="start" opacity="0" stroke-opacity="0">SK6</text>
</g>
<g class="stroked-text"><desc>SK6</desc>
<path d="M119.5696 6.6680
L119.5152 6.8313
" />
<path d="M119.5152 6.8313
L119.5152 7.1034
" />
<path d="M119.5152 7.1034
L119.5696 7.2123
" />
<path d="M119.5696 7.2123
L119.6240 7.2667
" />
<path d="M119.6240 7.2667
L119.7329 7.3211
" />
<path d="M119.7329 7.3211
L119.8418 7.3211
" />
<path d="M119.8418 7.3211
L119.9506 7.2667
" />
<path d="M119.9506 7.2667
L120.0050 7.2123
" />
<path d="M120.0050 7.2123
L120.0595 7.1034
" />
<path d="M120.0595 7.1034
L120.1139 6.8857
" />
<path d="M120.1139 6.8857
L120.1683 6.7768
" />
<path d="M120.1683 6.7768
L120.2228 6.7224
" />
<path d="M120.2228 6.7224
L120.3316 6.6680
" />
<path d="M120.3316 6.6680
L120.4405 6.6680
" />
<path d="M120.4405 6.6680
L120.5493 6.7224
" />
<path d="M120.5493 6.7224
L120.6038 6.7768
" />
<path d="M120.6038 6.7768
L120.6582 6.8857
" />
<path d="M120.6582 6.8857
L120.6582 7.1578
" />
<path d="M120.6582 7.1578
L120.6038 7.3211
" />
<path d="M119.5152 7.8110
L120.6582 7.8110
" />
<path d="M119.5152 8.4641
L120.1683 7.9743
" />
<path d="M120.6582 8.4641
L120.0050 7.8110
" />
<path d="M120.6582 9.4438
L120.6582 9.2261
" />
<path d="M120.6582 9.2261
L120.6038 9.1173
" />
<path d="M120.6038 9.1173
L120.5493 9.0628
" />
<path d="M120.5493 9.0628
L120.3860 8.9540
" />
<path d="M120.3860 8.9540
L120.1683 8.8995
" />
<path d="M120.1683 8.8995
L119.7329 8.8995
" />
<path d="M119.7329 8.8995
L119.6240 8.9540
" />
<path d="M119.6240 8.9540
L119.5696 9.0084
" />
<path d="M119.5696 9.0084
L119.5152 9.1173
" />
<path d="M119.5152 9.1173
L119.5152 9.3350
" />
<path d="M119.5152 9.3350
L119.5696 9.4438
" />
<path d="M119.5696 9.4438
L119.6240 9.4983
" />
<path d="M119.6240 9.4983
L119.7329 9.5527
" />
<path d="M119.7329 9.5527
L120.0050 9.5527
" />
<path d="M120.0050 9.5527
L120.1139 9.4983
" />
<path d="M120.1139 9.4983
L120.1683 9.4438
" />
<path d="M120.1683 9.4438
L120.2228 9.3350
" />
<path d="M120.2228 9.3350
L120.2228 9.1173
" />
<path d="M120.2228 9.1173
L120.1683 9.0084
" />
<path d="M120.1683 9.0084
L120.1139 8.9540
" />
<path d="M120.1139 8.9540
L120.0050 8.8995
" />
</g></g>
<g style="fill:none; 
stroke:#E8B2A7; stroke-width:0.2540; stroke-opacity:1; 
stroke-linecap:round; stroke-linejoin:round;">
<path d="M59.7633 13.0461
L49.6033 13.0461
" />
<path d="M59.7633 23.2061
L59.7633 13.0461
" />
<path d="M59.7633 23.2061
L49.6033 23.2061
" />
<path d="M49.6033 23.2061
L49.6033 13.0461
" />
<path d="M53.4133 13.0460 A1.2700 1.2700 0.0 0 0 55.9533 13.0460" />
<path d="M63.6274 32.2580
L57.2774 32.2580
" />
<path d="M63.6274 33.7496
L63.6274 32.2580
" />
<path d="M63.6274 36.2896
L63.6274 35.3384
" />
<path d="M63.6274 38.8296
L63.6274 37.8784
" />
<path d="M63.6274 41.3696
L63.6274 40.4184
" />
<path d="M63.6274 43.9096
L63.6274 42.9584
" />
<path d="M63.6274 46.4496
L63.6274 45.4984
" />
<path d="M63.6274 48.8028
L63.6274 48.0384
" />
<path d="M63.6274 51.9430
L63.6274 50.7651
" />
<path d="M63.6274 51.9430
L61.4684 51.9430
" />
<path d="M59.4364 51.9430
L57.2774 51.9430
" />
<path d="M57.2774 33.7496
L57.2774 32.2580
" />
<path d="M57.2774 36.2896
L57.2774 35.3384
" />
<path d="M57.2774 38.8296
L57.2774 37.8784
" />
<path d="M57.2774 41.3696
L57.2774 40.4184
" />
<path d="M57.2774 43.9096
L57.2774 42.9584
" />
<path d="M57.2774 46.4496
L57.2774 45.4984
" />
<path d="M57.2774 48.9896
L57.2774 48.0384
" />
<path d="M57.2774 51.9430
L57.2774 50.5784
" />
<path d="M61.4684 51.9430 A1.0160 1.0160 0.0 0 0 59.4364 51.9430" />
<circle cx="64.7704" cy="51.3080" r="0.4016" /> 
<path d="M25.3404 45.8470
L20.0064 45.8470
" />
<path d="M25.3404 55.4990
L25.3404 45.8470
" />
<path d="M25.3404 55.4990
L20.0064 55.4990
" />
<path d="M25.1865 45.9232
L24.9866 45.9232
" />
<path d="M25.1865 46.6852
L25.1865 45.9232
" />
<path d="M25.1865 46.6852
L24.9866 46.6852
" />
<path d="M25.1865 54.6610
L24.9866 54.6610
" />
<path d="M25.1865 55.4230
L25.1865 54.6610
" />
<path d="M25.1865 55.4230
L24.9866 55.4230
" />
<path d="M24.9866 46.6852
L24.9866 45.9232
" />
<path d="M24.9866 55.4230
L24.9866 54.6610
" />
<path d="M21.2764 53.4772
L20.8954 53.4772
" />
<path d="M20.8954 53.4772
L20.5144 53.4772
" />
<path d="M20.8954 53.4772
L20.5144 53.4772
" />
<path d="M20.0064 55.4990
L20.0064 45.8470
" />
<path d="M20.3557 53.4772 A0.5400 0.5400 0.0 1 0 20.3557 53.4670" />
<path d="M14.6783 5.9341
L4.5183 5.9341
" />
<path d="M14.6783 16.0941
L14.6783 5.9341
" />
<path d="M14.6783 16.0941
L4.5183 16.0941
" />
<path d="M4.5183 16.0941
L4.5183 5.9341
" />
<path d="M8.3283 5.9340 A1.2700 1.2700 0.0 0 0 10.8683 5.9340" />
<path d="M39.6973 5.9341
L29.5373 5.9341
" />
<path d="M39.6973 16.0941
L39.6973 5.9341
" />
<path d="M39.6973 16.0941
L29.5373 16.0941
" />
<path d="M29.5373 16.0941
L29.5373 5.9341
" />
<path d="M33.3473 5.9340 A1.2700 1.2700 0.0 0 0 35.8873 5.9340" />
<path d="M110.5574 46.8630
L105.2234 46.8630
" />
<path d="M110.5574 56.5150
L110.5574 46.8630
" />
<path d="M110.5574 56.5150
L105.2234 56.5150
" />
<path d="M110.4035 46.9392
L110.2036 46.9392
" />
<path d="M110.4035 47.7012
L110.4035 46.9392
" />
<path d="M110.4035 47.7012
L110.2036 47.7012
" />
<path d="M110.4035 55.6770
L110.2036 55.6770
" />
<path d="M110.4035 56.4390
L110.4035 55.6770
" />
<path d="M110.4035 56.4390
L110.2036 56.4390
" />
<path d="M110.2036 47.7012
L110.2036 46.9392
" />
<path d="M110.2036 56.4390
L110.2036 55.6770
" />
<path d="M106.4934 54.4932
L106.1124 54.4932
" />
<path d="M106.1124 54.4932
L105.7314 54.4932
" />
<path d="M106.1124 54.4932
L105.7314 54.4932
" />
<path d="M105.2234 56.5150
L105.2234 46.8630
" />
<path d="M105.5727 54.4932 A0.5400 0.5400 0.0 1 0 105.5727 54.4830" />
<path d="M45.0184 45.8470
L39.6844 45.8470
" />
<path d="M45.0184 55.4990
L45.0184 45.8470
" />
<path d="M45.0184 55.4990
L39.6844 55.4990
" />
<path d="M44.8645 45.9232
L44.6646 45.9232
" />
<path d="M44.8645 46.6852
L44.8645 45.9232
" />
<path d="M44.8645 46.6852
L44.6646 46.6852
" />
<path d="M44.8645 54.6610
L44.6646 54.6610
" />
<path d="M44.8645 55.4230
L44.8645 54.6610
" />
<path d="M44.8645 55.4230
L44.6646 55.4230
" />
<path d="M44.6646 46.6852
L44.6646 45.9232
" />
<path d="M44.6646 55.4230
L44.6646 54.6610
" />
<path d="M40.9544 53.4772
L40.5734 53.4772
" />
<path d="M40.5734 53.4772
L40.1924 53.4772
" />
<path d="M40.5734 53.4772
L40.1924 53.4772
" />
<path d="M39.6844 55.4990
L39.6844 45.8470
" />
<path d="M40.0337 53.4772 A0.5400 0.5400 0.0 1 0 40.0337 53.4670" />
<path d="M89.2214 45.9740
L83.8874 45.9740
" />
<path d="M89.2214 55.6260
L89.2214 45.9740
" />
<path d="M89.2214 55.6260
L83.8874 55.6260
" />
<path d="M89.0675 46.0502
L88.8676 46.0502
" />
<path d="M89.0675 46.8122
L89.0675 46.0502
" />
<path d="M89.0675 46.8122
L88.8676 46.8122
" />
<path d="M89.0675 54.7880
L88.8676 54.7880
" />
<path d="M89.0675 55.5500
L89.0675 54.7880
" />
<path d="M89.0675 55.5500
L88.8676 55.5500
" />
<path d="M88.8676 46.8122
L88.8676 46.0502
" />
<path d="M88.8676 55.5500
L88.8676 54.7880
" />
<path d="M85.1574 53.6042
L84.7764 53.6042
" />
<path d="M84.7764 53.6042
L84.3954 53.6042
" />
<path d="M84.7764 53.6042
L84.3954 53.6042
" />
<path d="M83.8874 55.6260
L83.8874 45.9740
" />
<path d="M84.2367 53.6042 A0.5400 0.5400 0.0 1 0 84.2367 53.5940" />
<path d="M94.3073 5.8071
L84.1473 5.8071
" />
<path d="M94.3073 15.9671
L94.3073 5.8071
" />
<path d="M94.3073 15.9671
L84.1473 15.9671
" />
<path d="M84.1473 15.9671
L84.1473 5.8071
" />
<path d="M87.9573 5.8070 A1.2700 1.2700 0.0 0 0 90.4973 5.8070" />
<path d="M74.2413 13.0461
L64.0813 13.0461
" />
<path d="M74.2413 23.2061
L74.2413 13.0461
" />
<path d="M74.2413 23.2061
L64.0813 23.2061
" />
<path d="M64.0813 23.2061
L64.0813 13.0461
" />
<path d="M67.8913 13.0460 A1.2700 1.2700 0.0 0 0 70.4313 13.0460" />
<path d="M119.2534 6.4770
L109.0934 6.4770
" />
<path d="M119.2534 16.6370
L119.2534 6.4770
" />
<path d="M119.2534 16.6370
L109.0934 16.6370
" />
<path d="M109.0934 16.6370
L109.0934 6.4770
" />
<path d="M112.9034 6.4770 A1.2700 1.2700 0.0 0 0 115.4434 6.4770" />
</g>
<g style="fill:none; 
stroke:#D0D2CD; stroke-width:0.0500; stroke-opacity:1; 
stroke-linecap:round; stroke-linejoin:round;">
<path d="M0.0004 74.8030
L0.0004 0.1270
" />
<path d="M0.0004 0.1270
L124.9684 0.1270
" />
<path d="M124.9684 74.8030
L0.0004 74.8030
" />
<path d="M124.9684 0.1270
L124.9684 74.8030
" />
</g>
<g style="fill:#FFFFFF; fill-opacity:1.0000; stroke:none;">
<circle cx="81.1534" cy="58.4200" r="0.1525" /> 
</g>
<g style="fill:#FFFFFF; fill-opacity:1.0000; stroke:none;">
<circle cx="49.1494" cy="63.2460" r="0.1525" /> 
</g>
<g style="fill:#FFFFFF; fill-opacity:1.0000; stroke:none;">
<circle cx="47.3714" cy="59.4360" r="0.1525" /> 
</g>
<g style="fill:#FFFFFF; fill-opacity:1.0000; stroke:none;">
<circle cx="40.1321" cy="39.3703" r="0.1525" /> 
</g>
<g style="fill:#FFFFFF; fill-opacity:1.0000; stroke:none;">
<circle cx="44.5774" cy="57.7850" r="0.1525" /> 
</g>
<g style="fill:#FFFFFF; fill-opacity:1.0000; stroke:none;">
<circle cx="50.8706" cy="28.5750" r="0.5000" /> 
</g>
<g style="fill:#FFFFFF; fill-opacity:1.0000; stroke:none;">
<circle cx="40.5702" cy="28.5750" r="0.5000" /> 
</g>
<g style="fill:#FFFFFF; fill-opacity:1.0000; stroke:none;">
<circle cx="13.4624" cy="51.3080" r="0.5000" /> 
</g>
<g style="fill:#FFFFFF; fill-opacity:1.0000; stroke:none;">
<circle cx="10.9224" cy="51.3080" r="0.5000" /> 
</g>
<g style="fill:#FFFFFF; fill-opacity:1.0000; stroke:none;">
<circle cx="76.3076" cy="23.3680" r="0.4000" /> 
</g>
<g style="fill:#FFFFFF; fill-opacity:1.0000; stroke:none;">
<circle cx="86.5072" cy="23.3680" r="0.4000" /> 
</g>
<g style="fill:#FFFFFF; fill-opacity:1.0000; stroke:none;">
<circle cx="107.0276" cy="11.6490" r="0.4000" /> 
</g>
<g style="fill:#FFFFFF; fill-opacity:1.0000; stroke:none;">
<circle cx="96.8269" cy="11.6490" r="0.4000" /> 
</g>
<g style="fill:#FFFFFF; fill-opacity:1.0000; stroke:none;">
<circle cx="87.3765" cy="37.1541" r="0.5000" /> 
</g>
<g style="fill:#FFFFFF; fill-opacity:1.0000; stroke:none;">
<circle cx="87.3763" cy="26.8539" r="0.5000" /> 
</g>
<g style="fill:#FFFFFF; fill-opacity:1.0000; stroke:none;">
<circle cx="116.7134" cy="66.8020" r="1.0000" /> 
</g>
<g style="fill:#FFFFFF; fill-opacity:1.0000; stroke:none;">
<circle cx="13.2654" cy="23.4950" r="0.5000" /> 
</g>
<g style="fill:#FFFFFF; fill-opacity:1.0000; stroke:none;">
<circle cx="23.5654" cy="23.4950" r="0.5000" /> 
</g>
<g style="fill:#FFFFFF; fill-opacity:1.0000; stroke:none;">
<circle cx="34.7985" cy="45.9171" r="0.5000" /> 
</g>
<g style="fill:#FFFFFF; fill-opacity:1.0000; stroke:none;">
<circle cx="34.7983" cy="35.6169" r="0.5000" /> 
</g>
<g style="fill:#FFFFFF; fill-opacity:1.0000; stroke:none;">
<circle cx="99.3144" cy="50.8000" r="0.5000" /> 
</g>
<g style="fill:#FFFFFF; fill-opacity:1.0000; stroke:none;">
<circle cx="96.7744" cy="50.8000" r="0.5000" /> 
</g>
<g style="fill:#FFFFFF; fill-opacity:1.0000; stroke:none;">
<circle cx="41.9307" cy="21.3360" r="0.4000" /> 
</g>
<g style="fill:#FFFFFF; fill-opacity:1.0000; stroke:none;">
<circle cx="31.7300" cy="21.3360" r="0.4000" /> 
</g>
<g style="fill:#FFFFFF; fill-opacity:1.0000; stroke:none;">
<circle cx="26.6956" cy="12.2459" r="0.5000" /> 
</g>
<g style="fill:#FFFFFF; fill-opacity:1.0000; stroke:none;">
<circle cx="16.3952" cy="12.2459" r="0.5000" /> 
</g>
<g style="fill:#FFFFFF; fill-opacity:1.0000; stroke:none;">
<circle cx="16.3636" cy="16.1290" r="0.4000" /> 
</g>
<g style="fill:#FFFFFF; fill-opacity:1.0000; stroke:none;">
<circle cx="26.5632" cy="16.1290" r="0.4000" /> 
</g>
<g style="fill:#FFFFFF; fill-opacity:1.0000; stroke:none;">
<circle cx="86.4903" cy="18.2530" r="0.5000" /> 
</g>
<g style="fill:#FFFFFF; fill-opacity:1.0000; stroke:none;">
<circle cx="96.7903" cy="18.2530" r="0.5000" /> 
</g>
<g style="fill:#FFFFFF; fill-opacity:1.0000; stroke:none;">
<circle cx="107.0276" cy="8.0930" r="0.4000" /> 
</g>
<g style="fill:#FFFFFF; fill-opacity:1.0000; stroke:none;">
<circle cx="96.8269" cy="8.0930" r="0.4000" /> 
</g>
<g style="fill:#FFFFFF; fill-opacity:1.0000; stroke:none;">
<circle cx="30.3535" cy="45.9171" r="0.5000" /> 
</g>
<g style="fill:#FFFFFF; fill-opacity:1.0000; stroke:none;">
<circle cx="30.3533" cy="35.6169" r="0.5000" /> 
</g>
<g style="fill:#FFFFFF; fill-opacity:1.0000; stroke:none;">
<circle cx="116.0216" cy="35.8140" r="0.5000" /> 
</g>
<g style="fill:#FFFFFF; fill-opacity:1.0000; stroke:none;">
<circle cx="105.7212" cy="35.8140" r="0.5000" /> 
</g>
<g style="fill:#FFFFFF; fill-opacity:1.0000; stroke:none;">
<circle cx="96.6475" cy="39.3131" r="0.5000" /> 
</g>
<g style="fill:#FFFFFF; fill-opacity:1.0000; stroke:none;">
<circle cx="96.6473" cy="29.0129" r="0.5000" /> 
</g>
<g style="fill:#FFFFFF; fill-opacity:1.0000; stroke:none;">
<circle cx="12.8844" cy="30.4800" r="0.5000" /> 
</g>
<g style="fill:#FFFFFF; fill-opacity:1.0000; stroke:none;">
<circle cx="23.1844" cy="30.4800" r="0.5000" /> 
</g>
<g style="fill:#FFFFFF; fill-opacity:1.0000; stroke:none;">
<circle cx="13.5194" cy="38.2270" r="0.5000" /> 
</g>
<g style="fill:#FFFFFF; fill-opacity:1.0000; stroke:none;">
<circle cx="23.8194" cy="38.2270" r="0.5000" /> 
</g>
<g style="fill:#FFFFFF; fill-opacity:1.0000; stroke:none;">
<circle cx="26.5841" cy="8.2550" r="0.4000" /> 
</g>
<g style="fill:#FFFFFF; fill-opacity:1.0000; stroke:none;">
<circle cx="16.3834" cy="8.2550" r="0.4000" /> 
</g>
<g style="fill:#FFFFFF; fill-opacity:1.0000; stroke:none;">
<circle cx="11.3034" cy="66.8020" r="1.0000" /> 
</g>
<g style="fill:#FFFFFF; fill-opacity:1.0000; stroke:none;">
<circle cx="107.0775" cy="24.6030" r="0.5000" /> 
</g>
<g style="fill:#FFFFFF; fill-opacity:1.0000; stroke:none;">
<circle cx="96.7771" cy="24.6030" r="0.5000" /> 
</g>
<g style="fill:#FFFFFF; fill-opacity:1.0000; stroke:none;">
<circle cx="118.0563" cy="51.6540" r="0.5000" /> 
</g>
<g style="fill:#FFFFFF; fill-opacity:1.0000; stroke:none;">
<circle cx="115.5163" cy="51.6540" r="0.5000" /> 
</g>
<g style="fill:#FFFFFF; fill-opacity:1.0000; stroke:none;">
<circle cx="32.8934" cy="51.5620" r="0.5000" /> 
</g>
<g style="fill:#FFFFFF; fill-opacity:1.0000; stroke:none;">
<circle cx="30.3534" cy="51.5620" r="0.5000" /> 
</g>
<g style="fill:#FFFFFF; fill-opacity:1.0000; stroke:none;">
<circle cx="69.6534" cy="28.7020" r="0.5000" /> 
</g>
<g style="fill:#FFFFFF; fill-opacity:1.0000; stroke:none;">
<circle cx="79.9534" cy="28.7020" r="0.5000" /> 
</g>
<g style="fill:#FFFFFF; fill-opacity:1.0000; stroke:none;">
<circle cx="116.0216" cy="31.4960" r="0.5000" /> 
</g>
<g style="fill:#FFFFFF; fill-opacity:1.0000; stroke:none;">
<circle cx="105.7212" cy="31.4960" r="0.5000" /> 
</g>
<g style="fill:#FFFFFF; fill-opacity:1.0000; stroke:none;">
<circle cx="69.3424" cy="61.0870" r="0.5000" /> 
</g>
<g style="fill:#FFFFFF; fill-opacity:1.0000; stroke:none;">
<circle cx="66.8024" cy="61.0870" r="0.5000" /> 
</g>
<g style="fill:#FFFFFF; fill-opacity:1.0000; stroke:none;">
<circle cx="64.2624" cy="61.0870" r="0.5000" /> 
</g>
<g style="fill:#FFFFFF; fill-opacity:1.0000; stroke:none;">
<circle cx="61.7224" cy="61.0870" r="0.5000" /> 
</g>
<g style="fill:#FFFFFF; fill-opacity:1.0000; stroke:none;">
<circle cx="59.1824" cy="61.0870" r="0.5000" /> 
</g>
<g style="fill:#FFFFFF; fill-opacity:1.0000; stroke:none;">
<circle cx="56.6424" cy="61.0870" r="0.5000" /> 
</g>
<g style="fill:#FFFFFF; fill-opacity:1.0000; stroke:none;">
<circle cx="54.1024" cy="61.0870" r="0.5000" /> 
</g>
<g style="fill:#FFFFFF; fill-opacity:1.0000; stroke:none;">
<circle cx="51.5624" cy="61.0870" r="0.5000" /> 
</g>
<g style="fill:#FFFFFF; fill-opacity:1.0000; stroke:none;">
<circle cx="50.8733" cy="14.3176" r="0.5000" /> 
</g>
<g style="fill:#FFFFFF; fill-opacity:1.0000; stroke:none;">
<circle cx="50.8733" cy="16.8561" r="0.5000" /> 
</g>
<g style="fill:#FFFFFF; fill-opacity:1.0000; stroke:none;">
<circle cx="50.8733" cy="19.3961" r="0.5000" /> 
</g>
<g style="fill:#FFFFFF; fill-opacity:1.0000; stroke:none;">
<circle cx="50.8733" cy="21.9361" r="0.5000" /> 
</g>
<g style="fill:#FFFFFF; fill-opacity:1.0000; stroke:none;">
<circle cx="58.4933" cy="21.9361" r="0.5000" /> 
</g>
<g style="fill:#FFFFFF; fill-opacity:1.0000; stroke:none;">
<circle cx="58.4933" cy="19.3961" r="0.5000" /> 
</g>
<g style="fill:#FFFFFF; fill-opacity:1.0000; stroke:none;">
<circle cx="58.4933" cy="16.8561" r="0.5000" /> 
</g>
<g style="fill:#FFFFFF; fill-opacity:1.0000; stroke:none;">
<circle cx="58.4933" cy="14.3161" r="0.5000" /> 
</g>
<g style="fill:#FFFFFF; fill-opacity:1.0000; stroke:none;">
<circle cx="64.4524" cy="49.7840" r="0.5000" /> 
</g>
<g style="fill:#FFFFFF; fill-opacity:1.0000; stroke:none;">
<circle cx="64.4524" cy="47.2440" r="0.5000" /> 
</g>
<g style="fill:#FFFFFF; fill-opacity:1.0000; stroke:none;">
<circle cx="64.4524" cy="44.7040" r="0.5000" /> 
</g>
<g style="fill:#FFFFFF; fill-opacity:1.0000; stroke:none;">
<circle cx="64.4524" cy="42.1640" r="0.5000" /> 
</g>
<g style="fill:#FFFFFF; fill-opacity:1.0000; stroke:none;">
<circle cx="64.4524" cy="39.6240" r="0.5000" /> 
</g>
<g style="fill:#FFFFFF; fill-opacity:1.0000; stroke:none;">
<circle cx="64.4524" cy="37.0840" r="0.5000" /> 
</g>
<g style="fill:#FFFFFF; fill-opacity:1.0000; stroke:none;">
<circle cx="64.4524" cy="34.5440" r="0.5000" /> 
</g>
<g style="fill:#FFFFFF; fill-opacity:1.0000; stroke:none;">
<circle cx="56.4524" cy="34.5440" r="0.5000" /> 
</g>
<g style="fill:#FFFFFF; fill-opacity:1.0000; stroke:none;">
<circle cx="56.4524" cy="37.0840" r="0.5000" /> 
</g>
<g style="fill:#FFFFFF; fill-opacity:1.0000; stroke:none;">
<circle cx="56.4524" cy="39.6240" r="0.5000" /> 
</g>
<g style="fill:#FFFFFF; fill-opacity:1.0000; stroke:none;">
<circle cx="56.4524" cy="42.1640" r="0.5000" /> 
</g>
<g style="fill:#FFFFFF; fill-opacity:1.0000; stroke:none;">
<circle cx="56.4524" cy="44.7040" r="0.5000" /> 
</g>
<g style="fill:#FFFFFF; fill-opacity:1.0000; stroke:none;">
<circle cx="56.4524" cy="47.2440" r="0.5000" /> 
</g>
<g style="fill:#FFFFFF; fill-opacity:1.0000; stroke:none;">
<circle cx="56.4524" cy="49.7840" r="0.5000" /> 
</g>
<g style="fill:#FFFFFF; fill-opacity:1.0000; stroke:none;">
<circle cx="22.6063" cy="53.2130" r="0.3810" /> 
</g>
<g style="fill:#FFFFFF; fill-opacity:1.0000; stroke:none;">
<circle cx="22.6063" cy="50.6730" r="0.3810" /> 
</g>
<g style="fill:#FFFFFF; fill-opacity:1.0000; stroke:none;">
<circle cx="22.6063" cy="48.1330" r="0.3810" /> 
</g>
<g style="fill:#FFFFFF; fill-opacity:1.0000; stroke:none;">
<circle cx="5.7883" cy="7.2056" r="0.5000" /> 
</g>
<g style="fill:#FFFFFF; fill-opacity:1.0000; stroke:none;">
<circle cx="5.7883" cy="9.7441" r="0.5000" /> 
</g>
<g style="fill:#FFFFFF; fill-opacity:1.0000; stroke:none;">
<circle cx="5.7883" cy="12.2841" r="0.5000" /> 
</g>
<g style="fill:#FFFFFF; fill-opacity:1.0000; stroke:none;">
<circle cx="5.7883" cy="14.8241" r="0.5000" /> 
</g>
<g style="fill:#FFFFFF; fill-opacity:1.0000; stroke:none;">
<circle cx="13.4083" cy="14.8241" r="0.5000" /> 
</g>
<g style="fill:#FFFFFF; fill-opacity:1.0000; stroke:none;">
<circle cx="13.4083" cy="12.2841" r="0.5000" /> 
</g>
<g style="fill:#FFFFFF; fill-opacity:1.0000; stroke:none;">
<circle cx="13.4083" cy="9.7441" r="0.5000" /> 
</g>
<g style="fill:#FFFFFF; fill-opacity:1.0000; stroke:none;">
<circle cx="13.4083" cy="7.2041" r="0.5000" /> 
</g>
<g style="fill:#FFFFFF; fill-opacity:1.0000; stroke:none;">
<circle cx="30.8073" cy="7.2056" r="0.5000" /> 
</g>
<g style="fill:#FFFFFF; fill-opacity:1.0000; stroke:none;">
<circle cx="30.8073" cy="9.7441" r="0.5000" /> 
</g>
<g style="fill:#FFFFFF; fill-opacity:1.0000; stroke:none;">
<circle cx="30.8073" cy="12.2841" r="0.5000" /> 
</g>
<g style="fill:#FFFFFF; fill-opacity:1.0000; stroke:none;">
<circle cx="30.8073" cy="14.8241" r="0.5000" /> 
</g>
<g style="fill:#FFFFFF; fill-opacity:1.0000; stroke:none;">
<circle cx="38.4273" cy="14.8241" r="0.5000" /> 
</g>
<g style="fill:#FFFFFF; fill-opacity:1.0000; stroke:none;">
<circle cx="38.4273" cy="12.2841" r="0.5000" /> 
</g>
<g style="fill:#FFFFFF; fill-opacity:1.0000; stroke:none;">
<circle cx="38.4273" cy="9.7441" r="0.5000" /> 
</g>
<g style="fill:#FFFFFF; fill-opacity:1.0000; stroke:none;">
<circle cx="38.4273" cy="7.2041" r="0.5000" /> 
</g>
<g style="fill:#FFFFFF; fill-opacity:1.0000; stroke:none;">
<circle cx="107.8233" cy="54.2290" r="0.3810" /> 
</g>
<g style="fill:#FFFFFF; fill-opacity:1.0000; stroke:none;">
<circle cx="107.8233" cy="51.6890" r="0.3810" /> 
</g>
<g style="fill:#FFFFFF; fill-opacity:1.0000; stroke:none;">
<circle cx="107.8233" cy="49.1490" r="0.3810" /> 
</g>
<g style="fill:#FFFFFF; fill-opacity:1.0000; stroke:none;">
<circle cx="42.2843" cy="53.2130" r="0.3810" /> 
</g>
<g style="fill:#FFFFFF; fill-opacity:1.0000; stroke:none;">
<circle cx="42.2843" cy="50.6730" r="0.3810" /> 
</g>
<g style="fill:#FFFFFF; fill-opacity:1.0000; stroke:none;">
<circle cx="42.2843" cy="48.1330" r="0.3810" /> 
</g>
<g style="fill:#FFFFFF; fill-opacity:1.0000; stroke:none;">
<circle cx="86.4873" cy="53.3400" r="0.3810" /> 
</g>
<g style="fill:#FFFFFF; fill-opacity:1.0000; stroke:none;">
<circle cx="86.4873" cy="50.8000" r="0.3810" /> 
</g>
<g style="fill:#FFFFFF; fill-opacity:1.0000; stroke:none;">
<circle cx="86.4873" cy="48.2600" r="0.3810" /> 
</g>
<g style="fill:#FFFFFF; fill-opacity:1.0000; stroke:none;">
<circle cx="85.4173" cy="7.0786" r="0.5000" /> 
</g>
<g style="fill:#FFFFFF; fill-opacity:1.0000; stroke:none;">
<circle cx="85.4173" cy="9.6171" r="0.5000" /> 
</g>
<g style="fill:#FFFFFF; fill-opacity:1.0000; stroke:none;">
<circle cx="85.4173" cy="12.1571" r="0.5000" /> 
</g>
<g style="fill:#FFFFFF; fill-opacity:1.0000; stroke:none;">
<circle cx="85.4173" cy="14.6971" r="0.5000" /> 
</g>
<g style="fill:#FFFFFF; fill-opacity:1.0000; stroke:none;">
<circle cx="93.0373" cy="14.6971" r="0.5000" /> 
</g>
<g style="fill:#FFFFFF; fill-opacity:1.0000; stroke:none;">
<circle cx="93.0373" cy="12.1571" r="0.5000" /> 
</g>
<g style="fill:#FFFFFF; fill-opacity:1.0000; stroke:none;">
<circle cx="93.0373" cy="9.6171" r="0.5000" /> 
</g>
<g style="fill:#FFFFFF; fill-opacity:1.0000; stroke:none;">
<circle cx="93.0373" cy="7.0771" r="0.5000" /> 
</g>
<g style="fill:#FFFFFF; fill-opacity:1.0000; stroke:none;">
<circle cx="65.3513" cy="14.3176" r="0.5000" /> 
</g>
<g style="fill:#FFFFFF; fill-opacity:1.0000; stroke:none;">
<circle cx="65.3513" cy="16.8561" r="0.5000" /> 
</g>
<g style="fill:#FFFFFF; fill-opacity:1.0000; stroke:none;">
<circle cx="65.3513" cy="19.3961" r="0.5000" /> 
</g>
<g style="fill:#FFFFFF; fill-opacity:1.0000; stroke:none;">
<circle cx="65.3513" cy="21.9361" r="0.5000" /> 
</g>
<g style="fill:#FFFFFF; fill-opacity:1.0000; stroke:none;">
<circle cx="72.9713" cy="21.9361" r="0.5000" /> 
</g>
<g style="fill:#FFFFFF; fill-opacity:1.0000; stroke:none;">
<circle cx="72.9713" cy="19.3961" r="0.5000" /> 
</g>
<g style="fill:#FFFFFF; fill-opacity:1.0000; stroke:none;">
<circle cx="72.9713" cy="16.8561" r="0.5000" /> 
</g>
<g style="fill:#FFFFFF; fill-opacity:1.0000; stroke:none;">
<circle cx="72.9713" cy="14.3161" r="0.5000" /> 
</g>
<g style="fill:#FFFFFF; fill-opacity:1.0000; stroke:none;">
<circle cx="110.3634" cy="7.7486" r="0.5000" /> 
</g>
<g style="fill:#FFFFFF; fill-opacity:1.0000; stroke:none;">
<circle cx="110.3634" cy="10.2870" r="0.5000" /> 
</g>
<g style="fill:#FFFFFF; fill-opacity:1.0000; stroke:none;">
<circle cx="110.3634" cy="12.8270" r="0.5000" /> 
</g>
<g style="fill:#FFFFFF; fill-opacity:1.0000; stroke:none;">
<circle cx="110.3634" cy="15.3670" r="0.5000" /> 
</g>
<g style="fill:#FFFFFF; fill-opacity:1.0000; stroke:none;">
<circle cx="117.9834" cy="15.3670" r="0.5000" /> 
</g>
<g style="fill:#FFFFFF; fill-opacity:1.0000; stroke:none;">
<circle cx="117.9834" cy="12.8270" r="0.5000" /> 
</g>
<g style="fill:#FFFFFF; fill-opacity:1.0000; stroke:none;">
<circle cx="117.9834" cy="10.2870" r="0.5000" /> 
</g>
<g style="fill:#FFFFFF; fill-opacity:1.0000; stroke:none;">
<circle cx="117.9834" cy="7.7470" r="0.5000" /> 
</g> 
</svg>
