<?xml version="1.0" standalone="no"?>
 <!DOCTYPE svg PUBLIC "-//W3C//DTD SVG 1.1//EN" 
 "http://www.w3.org/Graphics/SVG/1.1/DTD/svg11.dtd"> 
<svg
  xmlns:svg="http://www.w3.org/2000/svg"
  xmlns="http://www.w3.org/2000/svg"
  xmlns:xlink="http://www.w3.org/1999/xlink"
  version="1.1"
  width="76.2762mm" height="96.3676mm" viewBox="0.0000 0.0000 76.2762 96.3676">
<title>SVG Image created as hxkeysair-pcb-top.svg date 2026/07/10 21:52:51 </title>
  <desc>Image generated by PCBNEW </desc>
<g style="fill:#000000; fill-opacity:1.0000;stroke:#000000; stroke-opacity:1.0000;
stroke-linecap:round; stroke-linejoin:round;"
 transform="translate(0 0) scale(1 1)">
<path style="fill:#4D7FC4; fill-opacity:1.0000; stroke:none;fill-rule:evenodd;"
d="M 58.3650,61.2700
58.3840,61.1743
58.4382,61.0932
58.5193,61.0390
58.6150,61.0200
60.6650,61.0200
60.7607,61.0390
60.8418,61.0932
60.8960,61.1743
60.9150,61.2700
60.9150,63.2700
60.8960,63.3657
60.8418,63.4468
60.7607,63.5010
60.6650,63.5200
58.6150,63.5200
58.5193,63.5010
58.4382,63.4468
58.3840,63.3657
58.3650,63.2700
Z" /> 
<path style="fill:#4D7FC4; fill-opacity:1.0000; stroke:none;fill-rule:evenodd;"
d="M 71.2920,58.7300
71.3110,58.6343
71.3652,58.5532
71.4463,58.4990
71.5420,58.4800
73.5920,58.4800
73.6877,58.4990
73.7688,58.5532
73.8230,58.6343
73.8420,58.7300
73.8420,60.7300
73.8230,60.8257
73.7688,60.9068
73.6877,60.9610
73.5920,60.9800
71.5420,60.9800
71.4463,60.9610
71.3652,60.9068
71.3110,60.8257
71.2920,60.7300
Z" /> 
<path style="fill:#4D7FC4; fill-opacity:1.0000; stroke:none;fill-rule:evenodd;"
d="M 20.2650,61.2700
20.2840,61.1743
20.3382,61.0932
20.4193,61.0390
20.5150,61.0200
22.5650,61.0200
22.6607,61.0390
22.7418,61.0932
22.7960,61.1743
22.8150,61.2700
22.8150,63.2700
22.7960,63.3657
22.7418,63.4468
22.6607,63.5010
22.5650,63.5200
20.5150,63.5200
20.4193,63.5010
20.3382,63.4468
20.2840,63.3657
20.2650,63.2700
Z" /> 
<path style="fill:#4D7FC4; fill-opacity:1.0000; stroke:none;fill-rule:evenodd;"
d="M 33.1920,58.7300
33.2110,58.6343
33.2652,58.5532
33.3463,58.4990
33.4420,58.4800
35.4920,58.4800
35.5877,58.4990
35.6688,58.5532
35.7230,58.6343
35.7420,58.7300
35.7420,60.7300
35.7230,60.8257
35.6688,60.9068
35.5877,60.9610
35.4920,60.9800
33.4420,60.9800
33.3463,60.9610
33.2652,60.9068
33.2110,60.8257
33.1920,60.7300
Z" /> 
<path style="fill:#4D7FC4; fill-opacity:1.0000; stroke:none;fill-rule:evenodd;"
d="M 39.3150,42.2200
39.3340,42.1243
39.3882,42.0432
39.4693,41.9890
39.5650,41.9700
41.6150,41.9700
41.7107,41.9890
41.7918,42.0432
41.8460,42.1243
41.8650,42.2200
41.8650,44.2200
41.8460,44.3157
41.7918,44.3968
41.7107,44.4510
41.6150,44.4700
39.5650,44.4700
39.4693,44.4510
39.3882,44.3968
39.3340,44.3157
39.3150,44.2200
Z" /> 
<path style="fill:#4D7FC4; fill-opacity:1.0000; stroke:none;fill-rule:evenodd;"
d="M 52.2420,39.6800
52.2610,39.5843
52.3152,39.5032
52.3963,39.4490
52.4920,39.4300
54.5420,39.4300
54.6377,39.4490
54.7188,39.5032
54.7730,39.5843
54.7920,39.6800
54.7920,41.6800
54.7730,41.7757
54.7188,41.8568
54.6377,41.9110
54.5420,41.9300
52.4920,41.9300
52.3963,41.9110
52.3152,41.8568
52.2610,41.7757
52.2420,41.6800
Z" /> 
<path style="fill:#4D7FC4; fill-opacity:1.0000; stroke:none;fill-rule:evenodd;"
d="M 10.7400,80.3200
10.7590,80.2243
10.8132,80.1432
10.8943,80.0890
10.9900,80.0700
13.0400,80.0700
13.1357,80.0890
13.2168,80.1432
13.2710,80.2243
13.2900,80.3200
13.2900,82.3200
13.2710,82.4157
13.2168,82.4968
13.1357,82.5510
13.0400,82.5700
10.9900,82.5700
10.8943,82.5510
10.8132,82.4968
10.7590,82.4157
10.7400,82.3200
Z" /> 
<path style="fill:#4D7FC4; fill-opacity:1.0000; stroke:none;fill-rule:evenodd;"
d="M 23.6670,77.7800
23.6860,77.6843
23.7402,77.6032
23.8213,77.5490
23.9170,77.5300
25.9670,77.5300
26.0627,77.5490
26.1438,77.6032
26.1980,77.6843
26.2170,77.7800
26.2170,79.7800
26.1980,79.8757
26.1438,79.9568
26.0627,80.0110
25.9670,80.0300
23.9170,80.0300
23.8213,80.0110
23.7402,79.9568
23.6860,79.8757
23.6670,79.7800
Z" /> 
<path style="fill:#4D7FC4; fill-opacity:1.0000; stroke:none;fill-rule:evenodd;"
d="M 5.8500,17.4350
5.8500,15.4350
7.8500,15.4350
7.8500,17.4350
Z" /> 
</g>
<g style="fill:#4D7FC4; fill-opacity:1.0000; stroke:none;">
<circle cx="6.8500" cy="21.4350" r="1.0000" /> 
</g>
<g style="fill:#4D7FC4; fill-opacity:1.0000; stroke:none;">
<circle cx="6.8500" cy="18.9350" r="1.0000" /> 
<path style="fill:#4D7FC4; fill-opacity:1.0000; stroke:none;fill-rule:evenodd;"
d="M 12.7500,14.3350
12.7500,12.3350
15.9500,12.3350
15.9500,14.3350
Z" /> 
<path style="fill:#4D7FC4; fill-opacity:1.0000; stroke:none;fill-rule:evenodd;"
d="M 12.7500,25.5350
12.7500,23.5350
15.9500,23.5350
15.9500,25.5350
Z" /> 
</g>
<g style="fill:#4D7FC4; fill-opacity:1.0000; stroke:none;">
<circle cx="21.3500" cy="21.4350" r="1.0000" /> 
</g>
<g style="fill:#4D7FC4; fill-opacity:1.0000; stroke:none;">
<circle cx="21.3500" cy="16.4350" r="1.0000" /> 
<path style="fill:#4D7FC4; fill-opacity:1.0000; stroke:none;fill-rule:evenodd;"
d="M 48.8400,80.3200
48.8590,80.2243
48.9132,80.1432
48.9943,80.0890
49.0900,80.0700
51.1400,80.0700
51.2357,80.0890
51.3168,80.1432
51.3710,80.2243
51.3900,80.3200
51.3900,82.3200
51.3710,82.4157
51.3168,82.4968
51.2357,82.5510
51.1400,82.5700
49.0900,82.5700
48.9943,82.5510
48.9132,82.4968
48.8590,82.4157
48.8400,82.3200
Z" /> 
<path style="fill:#4D7FC4; fill-opacity:1.0000; stroke:none;fill-rule:evenodd;"
d="M 61.7670,77.7800
61.7860,77.6843
61.8402,77.6032
61.9213,77.5490
62.0170,77.5300
64.0670,77.5300
64.1627,77.5490
64.2438,77.6032
64.2980,77.6843
64.3170,77.7800
64.3170,79.7800
64.2980,79.8757
64.2438,79.9568
64.1627,80.0110
64.0670,80.0300
62.0170,80.0300
61.9213,80.0110
61.8402,79.9568
61.7860,79.8757
61.7670,79.7800
Z" /> 
<path style="fill:#4D7FC4; fill-opacity:1.0000; stroke:none;fill-rule:evenodd;"
d="M 58.3650,42.2200
58.3840,42.1243
58.4382,42.0432
58.5193,41.9890
58.6150,41.9700
60.6650,41.9700
60.7607,41.9890
60.8418,42.0432
60.8960,42.1243
60.9150,42.2200
60.9150,44.2200
60.8960,44.3157
60.8418,44.3968
60.7607,44.4510
60.6650,44.4700
58.6150,44.4700
58.5193,44.4510
58.4382,44.3968
58.3840,44.3157
58.3650,44.2200
Z" /> 
<path style="fill:#4D7FC4; fill-opacity:1.0000; stroke:none;fill-rule:evenodd;"
d="M 71.2920,39.6800
71.3110,39.5843
71.3652,39.5032
71.4463,39.4490
71.5420,39.4300
73.5920,39.4300
73.6877,39.4490
73.7688,39.5032
73.8230,39.5843
73.8420,39.6800
73.8420,41.6800
73.8230,41.7757
73.7688,41.8568
73.6877,41.9110
73.5920,41.9300
71.5420,41.9300
71.4463,41.9110
71.3652,41.8568
71.3110,41.7757
71.2920,41.6800
Z" /> 
<path style="fill:#4D7FC4; fill-opacity:1.0000; stroke:none;fill-rule:evenodd;"
d="M 31.3300,5.1400
29.7300,5.1400
29.7300,3.5400
31.3300,3.5400
Z" /> 
</g>
<g style="fill:#4D7FC4; fill-opacity:1.0000; stroke:none;">
<circle cx="30.5300" cy="6.8800" r="0.8000" /> 
</g>
<g style="fill:#4D7FC4; fill-opacity:1.0000; stroke:none;">
<circle cx="30.5300" cy="9.4200" r="0.8000" /> 
</g>
<g style="fill:#4D7FC4; fill-opacity:1.0000; stroke:none;">
<circle cx="30.5300" cy="11.9600" r="0.8000" /> 
</g>
<g style="fill:#4D7FC4; fill-opacity:1.0000; stroke:none;">
<circle cx="30.5300" cy="14.5000" r="0.8000" /> 
</g>
<g style="fill:#4D7FC4; fill-opacity:1.0000; stroke:none;">
<circle cx="30.5300" cy="17.0400" r="0.8000" /> 
</g>
<g style="fill:#4D7FC4; fill-opacity:1.0000; stroke:none;">
<circle cx="30.5300" cy="19.5800" r="0.8000" /> 
</g>
<g style="fill:#4D7FC4; fill-opacity:1.0000; stroke:none;">
<circle cx="45.7700" cy="19.5800" r="0.8000" /> 
</g>
<g style="fill:#4D7FC4; fill-opacity:1.0000; stroke:none;">
<circle cx="45.7700" cy="17.0400" r="0.8000" /> 
</g>
<g style="fill:#4D7FC4; fill-opacity:1.0000; stroke:none;">
<circle cx="45.7700" cy="14.5000" r="0.8000" /> 
</g>
<g style="fill:#4D7FC4; fill-opacity:1.0000; stroke:none;">
<circle cx="45.7700" cy="11.9600" r="0.8000" /> 
</g>
<g style="fill:#4D7FC4; fill-opacity:1.0000; stroke:none;">
<circle cx="45.7700" cy="9.4200" r="0.8000" /> 
</g>
<g style="fill:#4D7FC4; fill-opacity:1.0000; stroke:none;">
<circle cx="45.7700" cy="6.8800" r="0.8000" /> 
</g>
<g style="fill:#4D7FC4; fill-opacity:1.0000; stroke:none;">
<circle cx="45.7700" cy="4.3400" r="0.8000" /> 
<path style="fill:#4D7FC4; fill-opacity:1.0000; stroke:none;fill-rule:evenodd;"
d="M 39.3150,61.2700
39.3340,61.1743
39.3882,61.0932
39.4693,61.0390
39.5650,61.0200
41.6150,61.0200
41.7107,61.0390
41.7918,61.0932
41.8460,61.1743
41.8650,61.2700
41.8650,63.2700
41.8460,63.3657
41.7918,63.4468
41.7107,63.5010
41.6150,63.5200
39.5650,63.5200
39.4693,63.5010
39.3882,63.4468
39.3340,63.3657
39.3150,63.2700
Z" /> 
<path style="fill:#4D7FC4; fill-opacity:1.0000; stroke:none;fill-rule:evenodd;"
d="M 52.2420,58.7300
52.2610,58.6343
52.3152,58.5532
52.3963,58.4990
52.4920,58.4800
54.5420,58.4800
54.6377,58.4990
54.7188,58.5532
54.7730,58.6343
54.7920,58.7300
54.7920,60.7300
54.7730,60.8257
54.7188,60.9068
54.6377,60.9610
54.5420,60.9800
52.4920,60.9800
52.3963,60.9610
52.3152,60.9068
52.2610,60.8257
52.2420,60.7300
Z" /> 
<path style="fill:#4D7FC4; fill-opacity:1.0000; stroke:none;fill-rule:evenodd;"
d="M 1.2150,61.2700
1.2340,61.1743
1.2882,61.0932
1.3693,61.0390
1.4650,61.0200
3.5150,61.0200
3.6107,61.0390
3.6918,61.0932
3.7460,61.1743
3.7650,61.2700
3.7650,63.2700
3.7460,63.3657
3.6918,63.4468
3.6107,63.5010
3.5150,63.5200
1.4650,63.5200
1.3693,63.5010
1.2882,63.4468
1.2340,63.3657
1.2150,63.2700
Z" /> 
<path style="fill:#4D7FC4; fill-opacity:1.0000; stroke:none;fill-rule:evenodd;"
d="M 14.1420,58.7300
14.1610,58.6343
14.2152,58.5532
14.2963,58.4990
14.3920,58.4800
16.4420,58.4800
16.5377,58.4990
16.6188,58.5532
16.6730,58.6343
16.6920,58.7300
16.6920,60.7300
16.6730,60.8257
16.6188,60.9068
16.5377,60.9610
16.4420,60.9800
14.3920,60.9800
14.2963,60.9610
14.2152,60.9068
14.1610,60.8257
14.1420,60.7300
Z" /> 
<path style="fill:#4D7FC4; fill-opacity:1.0000; stroke:none;fill-rule:evenodd;"
d="M 1.2150,42.2200
1.2340,42.1243
1.2882,42.0432
1.3693,41.9890
1.4650,41.9700
3.5150,41.9700
3.6107,41.9890
3.6918,42.0432
3.7460,42.1243
3.7650,42.2200
3.7650,44.2200
3.7460,44.3157
3.6918,44.3968
3.6107,44.4510
3.5150,44.4700
1.4650,44.4700
1.3693,44.4510
1.2882,44.3968
1.2340,44.3157
1.2150,44.2200
Z" /> 
<path style="fill:#4D7FC4; fill-opacity:1.0000; stroke:none;fill-rule:evenodd;"
d="M 14.1420,39.6800
14.1610,39.5843
14.2152,39.5032
14.2963,39.4490
14.3920,39.4300
16.4420,39.4300
16.5377,39.4490
16.6188,39.5032
16.6730,39.5843
16.6920,39.6800
16.6920,41.6800
16.6730,41.7757
16.6188,41.8568
16.5377,41.9110
16.4420,41.9300
14.3920,41.9300
14.2963,41.9110
14.2152,41.8568
14.1610,41.7757
14.1420,41.6800
Z" /> 
<path style="fill:#4D7FC4; fill-opacity:1.0000; stroke:none;fill-rule:evenodd;"
d="M 20.2650,42.2200
20.2840,42.1243
20.3382,42.0432
20.4193,41.9890
20.5150,41.9700
22.5650,41.9700
22.6607,41.9890
22.7418,42.0432
22.7960,42.1243
22.8150,42.2200
22.8150,44.2200
22.7960,44.3157
22.7418,44.3968
22.6607,44.4510
22.5650,44.4700
20.5150,44.4700
20.4193,44.4510
20.3382,44.3968
20.2840,44.3157
20.2650,44.2200
Z" /> 
<path style="fill:#4D7FC4; fill-opacity:1.0000; stroke:none;fill-rule:evenodd;"
d="M 33.1920,39.6800
33.2110,39.5843
33.2652,39.5032
33.3463,39.4490
33.4420,39.4300
35.4920,39.4300
35.5877,39.4490
35.6688,39.5032
35.7230,39.5843
35.7420,39.6800
35.7420,41.6800
35.7230,41.7757
35.6688,41.8568
35.5877,41.9110
35.4920,41.9300
33.4420,41.9300
33.3463,41.9110
33.2652,41.8568
33.2110,41.7757
33.1920,41.6800
Z" /> 
<path style="fill:#4D7FC4; fill-opacity:1.0000; stroke:none;fill-rule:evenodd;"
d="M 26.5250,54.9100
26.5421,54.8239
26.5909,54.7509
26.6639,54.7021
26.7500,54.6850
27.2000,54.6850
27.2861,54.7021
27.3591,54.7509
27.4079,54.8239
27.4250,54.9100
27.4250,55.6600
27.4079,55.7461
27.3591,55.8191
27.2861,55.8679
27.2000,55.8850
26.7500,55.8850
26.6639,55.8679
26.5909,55.8191
26.5421,55.7461
26.5250,55.6600
Z" /> 
<path style="fill:#4D7FC4; fill-opacity:1.0000; stroke:none;fill-rule:evenodd;"
d="M 29.8250,54.9100
29.8421,54.8239
29.8909,54.7509
29.9639,54.7021
30.0500,54.6850
30.5000,54.6850
30.5861,54.7021
30.6591,54.7509
30.7079,54.8239
30.7250,54.9100
30.7250,55.6600
30.7079,55.7461
30.6591,55.8191
30.5861,55.8679
30.5000,55.8850
30.0500,55.8850
29.9639,55.8679
29.8909,55.8191
29.8421,55.7461
29.8250,55.6600
Z" /> 
<path style="fill:#4D7FC4; fill-opacity:1.0000; stroke:none;fill-rule:evenodd;"
d="M 17.0000,93.1600
17.0171,93.0739
17.0659,93.0009
17.1389,92.9521
17.2250,92.9350
17.6750,92.9350
17.7611,92.9521
17.8341,93.0009
17.8829,93.0739
17.9000,93.1600
17.9000,93.9100
17.8829,93.9961
17.8341,94.0691
17.7611,94.1179
17.6750,94.1350
17.2250,94.1350
17.1389,94.1179
17.0659,94.0691
17.0171,93.9961
17.0000,93.9100
Z" /> 
<path style="fill:#4D7FC4; fill-opacity:1.0000; stroke:none;fill-rule:evenodd;"
d="M 20.3000,93.1600
20.3171,93.0739
20.3659,93.0009
20.4389,92.9521
20.5250,92.9350
20.9750,92.9350
21.0611,92.9521
21.1341,93.0009
21.1829,93.0739
21.2000,93.1600
21.2000,93.9100
21.1829,93.9961
21.1341,94.0691
21.0611,94.1179
20.9750,94.1350
20.5250,94.1350
20.4389,94.1179
20.3659,94.0691
20.3171,93.9961
20.3000,93.9100
Z" /> 
<path style="fill:#4D7FC4; fill-opacity:1.0000; stroke:none;fill-rule:evenodd;"
d="M 36.7250,24.1100
36.7440,24.0143
36.7982,23.9332
36.8793,23.8790
36.9750,23.8600
37.5000,23.8600
37.5957,23.8790
37.6768,23.9332
37.7310,24.0143
37.7500,24.1100
37.7500,25.0100
37.7310,25.1057
37.6768,25.1868
37.5957,25.2410
37.5000,25.2600
36.9750,25.2600
36.8793,25.2410
36.7982,25.1868
36.7440,25.1057
36.7250,25.0100
Z" /> 
<path style="fill:#4D7FC4; fill-opacity:1.0000; stroke:none;fill-rule:evenodd;"
d="M 38.5500,24.1100
38.5690,24.0143
38.6232,23.9332
38.7043,23.8790
38.8000,23.8600
39.3250,23.8600
39.4207,23.8790
39.5018,23.9332
39.5560,24.0143
39.5750,24.1100
39.5750,25.0100
39.5560,25.1057
39.5018,25.1868
39.4207,25.2410
39.3250,25.2600
38.8000,25.2600
38.7043,25.2410
38.6232,25.1868
38.5690,25.1057
38.5500,25.0100
Z" /> 
<path style="fill:#4D7FC4; fill-opacity:1.0000; stroke:none;fill-rule:evenodd;"
d="M 30.4500,32.0100
30.4329,32.0961
30.3841,32.1691
30.3111,32.2179
30.2250,32.2350
29.7750,32.2350
29.6889,32.2179
29.6159,32.1691
29.5671,32.0961
29.5500,32.0100
29.5500,31.5100
29.5671,31.4239
29.6159,31.3509
29.6889,31.3021
29.7750,31.2850
30.2250,31.2850
30.3111,31.3021
30.3841,31.3509
30.4329,31.4239
30.4500,31.5100
Z" /> 
<path style="fill:#4D7FC4; fill-opacity:1.0000; stroke:none;fill-rule:evenodd;"
d="M 28.9000,32.0100
28.8829,32.0961
28.8341,32.1691
28.7611,32.2179
28.6750,32.2350
28.2250,32.2350
28.1389,32.2179
28.0659,32.1691
28.0171,32.0961
28.0000,32.0100
28.0000,31.5100
28.0171,31.4239
28.0659,31.3509
28.1389,31.3021
28.2250,31.2850
28.6750,31.2850
28.7611,31.3021
28.8341,31.3509
28.8829,31.4239
28.9000,31.5100
Z" /> 
<path style="fill:#4D7FC4; fill-opacity:1.0000; stroke:none;fill-rule:evenodd;"
d="M 64.6250,73.9600
64.6421,73.8739
64.6909,73.8009
64.7639,73.7521
64.8500,73.7350
65.3000,73.7350
65.3861,73.7521
65.4591,73.8009
65.5079,73.8739
65.5250,73.9600
65.5250,74.7100
65.5079,74.7961
65.4591,74.8691
65.3861,74.9179
65.3000,74.9350
64.8500,74.9350
64.7639,74.9179
64.6909,74.8691
64.6421,74.7961
64.6250,74.7100
Z" /> 
<path style="fill:#4D7FC4; fill-opacity:1.0000; stroke:none;fill-rule:evenodd;"
d="M 67.9250,73.9600
67.9421,73.8739
67.9909,73.8009
68.0639,73.7521
68.1500,73.7350
68.6000,73.7350
68.6861,73.7521
68.7591,73.8009
68.8079,73.8739
68.8250,73.9600
68.8250,74.7100
68.8079,74.7961
68.7591,74.8691
68.6861,74.9179
68.6000,74.9350
68.1500,74.9350
68.0639,74.9179
67.9909,74.8691
67.9421,74.7961
67.9250,74.7100
Z" /> 
<path style="fill:#4D7FC4; fill-opacity:1.0000; stroke:none;fill-rule:evenodd;"
d="M 50.2750,24.9700
50.2681,25.0044
50.2486,25.0336
50.2194,25.0531
50.1850,25.0600
48.8650,25.0600
48.8306,25.0531
48.8014,25.0336
48.7819,25.0044
48.7750,24.9700
48.7750,24.2500
48.7819,24.2156
48.8014,24.1864
48.8306,24.1669
48.8650,24.1600
50.1850,24.1600
50.2194,24.1669
50.2486,24.1864
50.2681,24.2156
50.2750,24.2500
Z" /> 
<path style="fill:#4D7FC4; fill-opacity:1.0000; stroke:none;fill-rule:evenodd;"
d="M 50.2750,28.2700
50.2681,28.3044
50.2486,28.3336
50.2194,28.3531
50.1850,28.3600
48.8650,28.3600
48.8306,28.3531
48.8014,28.3336
48.7819,28.3044
48.7750,28.2700
48.7750,27.5500
48.7819,27.5156
48.8014,27.4864
48.8306,27.4669
48.8650,27.4600
50.1850,27.4600
50.2194,27.4669
50.2486,27.4864
50.2681,27.5156
50.2750,27.5500
Z" /> 
<path style="fill:#4D7FC4; fill-opacity:1.0000; stroke:none;fill-rule:evenodd;"
d="M 45.3750,28.2700
45.3681,28.3044
45.3486,28.3336
45.3194,28.3531
45.2850,28.3600
43.9650,28.3600
43.9306,28.3531
43.9014,28.3336
43.8819,28.3044
43.8750,28.2700
43.8750,27.5500
43.8819,27.5156
43.9014,27.4864
43.9306,27.4669
43.9650,27.4600
45.2850,27.4600
45.3194,27.4669
45.3486,27.4864
45.3681,27.5156
45.3750,27.5500
Z" /> 
<path style="fill:#4D7FC4; fill-opacity:1.0000; stroke:none;fill-rule:evenodd;"
d="M 45.3750,24.9700
45.3681,25.0044
45.3486,25.0336
45.3194,25.0531
45.2850,25.0600
43.9650,25.0600
43.9306,25.0531
43.9014,25.0336
43.8819,25.0044
43.8750,24.9700
43.8750,24.2500
43.8819,24.2156
43.9014,24.1864
43.9306,24.1669
43.9650,24.1600
45.2850,24.1600
45.3194,24.1669
45.3486,24.1864
45.3681,24.2156
45.3750,24.2500
Z" /> 
<path style="fill:#4D7FC4; fill-opacity:1.0000; stroke:none;fill-rule:evenodd;"
d="M 45.5750,54.9100
45.5921,54.8239
45.6409,54.7509
45.7139,54.7021
45.8000,54.6850
46.2500,54.6850
46.3361,54.7021
46.4091,54.7509
46.4579,54.8239
46.4750,54.9100
46.4750,55.6600
46.4579,55.7461
46.4091,55.8191
46.3361,55.8679
46.2500,55.8850
45.8000,55.8850
45.7139,55.8679
45.6409,55.8191
45.5921,55.7461
45.5750,55.6600
Z" /> 
<path style="fill:#4D7FC4; fill-opacity:1.0000; stroke:none;fill-rule:evenodd;"
d="M 48.8750,54.9100
48.8921,54.8239
48.9409,54.7509
49.0139,54.7021
49.1000,54.6850
49.5500,54.6850
49.6361,54.7021
49.7091,54.7509
49.7579,54.8239
49.7750,54.9100
49.7750,55.6600
49.7579,55.7461
49.7091,55.8191
49.6361,55.8679
49.5500,55.8850
49.1000,55.8850
49.0139,55.8679
48.9409,55.8191
48.8921,55.7461
48.8750,55.6600
Z" /> 
<path style="fill:#4D7FC4; fill-opacity:1.0000; stroke:none;fill-rule:evenodd;"
d="M 55.1000,93.1600
55.1171,93.0739
55.1659,93.0009
55.2389,92.9521
55.3250,92.9350
55.7750,92.9350
55.8611,92.9521
55.9341,93.0009
55.9829,93.0739
56.0000,93.1600
56.0000,93.9100
55.9829,93.9961
55.9341,94.0691
55.8611,94.1179
55.7750,94.1350
55.3250,94.1350
55.2389,94.1179
55.1659,94.0691
55.1171,93.9961
55.1000,93.9100
Z" /> 
<path style="fill:#4D7FC4; fill-opacity:1.0000; stroke:none;fill-rule:evenodd;"
d="M 58.4000,93.1600
58.4171,93.0739
58.4659,93.0009
58.5389,92.9521
58.6250,92.9350
59.0750,92.9350
59.1611,92.9521
59.2341,93.0009
59.2829,93.0739
59.3000,93.1600
59.3000,93.9100
59.2829,93.9961
59.2341,94.0691
59.1611,94.1179
59.0750,94.1350
58.6250,94.1350
58.5389,94.1179
58.4659,94.0691
58.4171,93.9961
58.4000,93.9100
Z" /> 
<path style="fill:#4D7FC4; fill-opacity:1.0000; stroke:none;fill-rule:evenodd;"
d="M 7.4750,54.9100
7.4921,54.8239
7.5409,54.7509
7.6139,54.7021
7.7000,54.6850
8.1500,54.6850
8.2361,54.7021
8.3091,54.7509
8.3579,54.8239
8.3750,54.9100
8.3750,55.6600
8.3579,55.7461
8.3091,55.8191
8.2361,55.8679
8.1500,55.8850
7.7000,55.8850
7.6139,55.8679
7.5409,55.8191
7.4921,55.7461
7.4750,55.6600
Z" /> 
<path style="fill:#4D7FC4; fill-opacity:1.0000; stroke:none;fill-rule:evenodd;"
d="M 10.7750,54.9100
10.7921,54.8239
10.8409,54.7509
10.9139,54.7021
11.0000,54.6850
11.4500,54.6850
11.5361,54.7021
11.6091,54.7509
11.6579,54.8239
11.6750,54.9100
11.6750,55.6600
11.6579,55.7461
11.6091,55.8191
11.5361,55.8679
11.4500,55.8850
11.0000,55.8850
10.9139,55.8679
10.8409,55.8191
10.7921,55.7461
10.7750,55.6600
Z" /> 
<path style="fill:#4D7FC4; fill-opacity:1.0000; stroke:none;fill-rule:evenodd;"
d="M 26.5250,73.9600
26.5421,73.8739
26.5909,73.8009
26.6639,73.7521
26.7500,73.7350
27.2000,73.7350
27.2861,73.7521
27.3591,73.8009
27.4079,73.8739
27.4250,73.9600
27.4250,74.7100
27.4079,74.7961
27.3591,74.8691
27.2861,74.9179
27.2000,74.9350
26.7500,74.9350
26.6639,74.9179
26.5909,74.8691
26.5421,74.7961
26.5250,74.7100
Z" /> 
<path style="fill:#4D7FC4; fill-opacity:1.0000; stroke:none;fill-rule:evenodd;"
d="M 29.8250,73.9600
29.8421,73.8739
29.8909,73.8009
29.9639,73.7521
30.0500,73.7350
30.5000,73.7350
30.5861,73.7521
30.6591,73.8009
30.7079,73.8739
30.7250,73.9600
30.7250,74.7100
30.7079,74.7961
30.6591,74.8691
30.5861,74.9179
30.5000,74.9350
30.0500,74.9350
29.9639,74.9179
29.8909,74.8691
29.8421,74.7961
29.8250,74.7100
Z" /> 
<path style="fill:#4D7FC4; fill-opacity:1.0000; stroke:none;fill-rule:evenodd;"
d="M 32.4250,24.9700
32.4181,25.0044
32.3986,25.0336
32.3694,25.0531
32.3350,25.0600
31.0150,25.0600
30.9806,25.0531
30.9514,25.0336
30.9319,25.0044
30.9250,24.9700
30.9250,24.2500
30.9319,24.2156
30.9514,24.1864
30.9806,24.1669
31.0150,24.1600
32.3350,24.1600
32.3694,24.1669
32.3986,24.1864
32.4181,24.2156
32.4250,24.2500
Z" /> 
<path style="fill:#4D7FC4; fill-opacity:1.0000; stroke:none;fill-rule:evenodd;"
d="M 32.4250,28.2700
32.4181,28.3044
32.3986,28.3336
32.3694,28.3531
32.3350,28.3600
31.0150,28.3600
30.9806,28.3531
30.9514,28.3336
30.9319,28.3044
30.9250,28.2700
30.9250,27.5500
30.9319,27.5156
30.9514,27.4864
30.9806,27.4669
31.0150,27.4600
32.3350,27.4600
32.3694,27.4669
32.3986,27.4864
32.4181,27.5156
32.4250,27.5500
Z" /> 
<path style="fill:#4D7FC4; fill-opacity:1.0000; stroke:none;fill-rule:evenodd;"
d="M 27.5250,28.2700
27.5181,28.3044
27.4986,28.3336
27.4694,28.3531
27.4350,28.3600
26.1150,28.3600
26.0806,28.3531
26.0514,28.3336
26.0319,28.3044
26.0250,28.2700
26.0250,27.5500
26.0319,27.5156
26.0514,27.4864
26.0806,27.4669
26.1150,27.4600
27.4350,27.4600
27.4694,27.4669
27.4986,27.4864
27.5181,27.5156
27.5250,27.5500
Z" /> 
<path style="fill:#4D7FC4; fill-opacity:1.0000; stroke:none;fill-rule:evenodd;"
d="M 27.5250,24.9700
27.5181,25.0044
27.4986,25.0336
27.4694,25.0531
27.4350,25.0600
26.1150,25.0600
26.0806,25.0531
26.0514,25.0336
26.0319,25.0044
26.0250,24.9700
26.0250,24.2500
26.0319,24.2156
26.0514,24.1864
26.0806,24.1669
26.1150,24.1600
27.4350,24.1600
27.4694,24.1669
27.4986,24.1864
27.5181,24.2156
27.5250,24.2500
Z" /> 
<path style="fill:#4D7FC4; fill-opacity:1.0000; stroke:none;fill-rule:evenodd;"
d="M 45.5750,73.9600
45.5921,73.8739
45.6409,73.8009
45.7139,73.7521
45.8000,73.7350
46.2500,73.7350
46.3361,73.7521
46.4091,73.8009
46.4579,73.8739
46.4750,73.9600
46.4750,74.7100
46.4579,74.7961
46.4091,74.8691
46.3361,74.9179
46.2500,74.9350
45.8000,74.9350
45.7139,74.9179
45.6409,74.8691
45.5921,74.7961
45.5750,74.7100
Z" /> 
<path style="fill:#4D7FC4; fill-opacity:1.0000; stroke:none;fill-rule:evenodd;"
d="M 48.8750,73.9600
48.8921,73.8739
48.9409,73.8009
49.0139,73.7521
49.1000,73.7350
49.5500,73.7350
49.6361,73.7521
49.7091,73.8009
49.7579,73.8739
49.7750,73.9600
49.7750,74.7100
49.7579,74.7961
49.7091,74.8691
49.6361,74.9179
49.5500,74.9350
49.1000,74.9350
49.0139,74.9179
48.9409,74.8691
48.8921,74.7961
48.8750,74.7100
Z" /> 
<path style="fill:#4D7FC4; fill-opacity:1.0000; stroke:none;fill-rule:evenodd;"
d="M 48.3000,32.0100
48.2829,32.0961
48.2341,32.1691
48.1611,32.2179
48.0750,32.2350
47.6250,32.2350
47.5389,32.2179
47.4659,32.1691
47.4171,32.0961
47.4000,32.0100
47.4000,31.5100
47.4171,31.4239
47.4659,31.3509
47.5389,31.3021
47.6250,31.2850
48.0750,31.2850
48.1611,31.3021
48.2341,31.3509
48.2829,31.4239
48.3000,31.5100
Z" /> 
<path style="fill:#4D7FC4; fill-opacity:1.0000; stroke:none;fill-rule:evenodd;"
d="M 46.7500,32.0100
46.7329,32.0961
46.6841,32.1691
46.6111,32.2179
46.5250,32.2350
46.0750,32.2350
45.9889,32.2179
45.9159,32.1691
45.8671,32.0961
45.8500,32.0100
45.8500,31.5100
45.8671,31.4239
45.9159,31.3509
45.9889,31.3021
46.0750,31.2850
46.5250,31.2850
46.6111,31.3021
46.6841,31.3509
46.7329,31.4239
46.7500,31.5100
Z" /> 
<path style="fill:#4D7FC4; fill-opacity:1.0000; stroke:none;fill-rule:evenodd;"
d="M 7.4750,73.9600
7.4921,73.8739
7.5409,73.8009
7.6139,73.7521
7.7000,73.7350
8.1500,73.7350
8.2361,73.7521
8.3091,73.8009
8.3579,73.8739
8.3750,73.9600
8.3750,74.7100
8.3579,74.7961
8.3091,74.8691
8.2361,74.9179
8.1500,74.9350
7.7000,74.9350
7.6139,74.9179
7.5409,74.8691
7.4921,74.7961
7.4750,74.7100
Z" /> 
<path style="fill:#4D7FC4; fill-opacity:1.0000; stroke:none;fill-rule:evenodd;"
d="M 10.7750,73.9600
10.7921,73.8739
10.8409,73.8009
10.9139,73.7521
11.0000,73.7350
11.4500,73.7350
11.5361,73.7521
11.6091,73.8009
11.6579,73.8739
11.6750,73.9600
11.6750,74.7100
11.6579,74.7961
11.6091,74.8691
11.5361,74.9179
11.4500,74.9350
11.0000,74.9350
10.9139,74.9179
10.8409,74.8691
10.7921,74.7961
10.7750,74.7100
Z" /> 
<path style="fill:#4D7FC4; fill-opacity:1.0000; stroke:none;fill-rule:evenodd;"
d="M 64.6250,54.9100
64.6421,54.8239
64.6909,54.7509
64.7639,54.7021
64.8500,54.6850
65.3000,54.6850
65.3861,54.7021
65.4591,54.7509
65.5079,54.8239
65.5250,54.9100
65.5250,55.6600
65.5079,55.7461
65.4591,55.8191
65.3861,55.8679
65.3000,55.8850
64.8500,55.8850
64.7639,55.8679
64.6909,55.8191
64.6421,55.7461
64.6250,55.6600
Z" /> 
<path style="fill:#4D7FC4; fill-opacity:1.0000; stroke:none;fill-rule:evenodd;"
d="M 67.9250,54.9100
67.9421,54.8239
67.9909,54.7509
68.0639,54.7021
68.1500,54.6850
68.6000,54.6850
68.6861,54.7021
68.7591,54.7509
68.8079,54.8239
68.8250,54.9100
68.8250,55.6600
68.8079,55.7461
68.7591,55.8191
68.6861,55.8679
68.6000,55.8850
68.1500,55.8850
68.0639,55.8679
67.9909,55.8191
67.9421,55.7461
67.9250,55.6600
Z" /> 
</g>
<g style="fill:#4D7FC4; fill-opacity:1.0000; stroke:none;">
<circle cx="51.7750" cy="20.2600" r="0.3000" /> 
</g>
<g style="fill:#4D7FC4; fill-opacity:1.0000; stroke:none;">
<circle cx="64.0750" cy="52.0600" r="0.3000" /> 
</g>
<g style="fill:#4D7FC4; fill-opacity:1.0000; stroke:none;">
<circle cx="56.4750" cy="51.0600" r="0.3000" /> 
</g>
<g style="fill:#4D7FC4; fill-opacity:1.0000; stroke:none;">
<circle cx="38.4750" cy="20.7600" r="0.3000" /> 
</g>
<g style="fill:none; 
stroke:#4D7FC4; stroke-width:0.2000; stroke-opacity:1; 
stroke-linecap:round; stroke-linejoin:round;">
<path d="M49.5250 24.6100
L47.8500 26.2850
" />
<path d="M30.0000 29.4105
L25.7240 25.1345
" />
<path d="M49.6250 24.6100
L51.7750 22.4600
" />
<path d="M49.5250 24.6100
L49.6250 24.6100
" />
<path d="M25.7240 23.6110
L26.4750 22.8600
" />
<path d="M33.4750 22.8100
L33.4750 16.6350
" />
<path d="M26.4750 22.8600
L29.9250 22.8600
" />
<path d="M47.8500 26.2850
L47.8500 31.7600
" />
<path d="M29.9250 22.8600
L31.6750 24.6100
" />
<path d="M25.7240 25.1345
L25.7240 23.6110
" />
<path d="M31.6750 24.6100
L33.4750 22.8100
" />
<path d="M33.4750 16.6350
L45.7700 4.3400
" />
<path d="M30.0000 31.7600
L30.0000 29.4105
" />
<path d="M51.7750 22.4600
L51.7750 20.2600
" />
<path d="M43.9995 23.6600
L43.2750 24.3845
" />
<path d="M46.3000 24.7095
L45.2505 23.6600
" />
<path d="M41.9750 10.6750
L45.7700 6.8800
" />
<path d="M43.0250 27.9100
L41.9750 26.8600
" />
<path d="M45.2505 23.6600
L43.9995 23.6600
" />
<path d="M43.2750 24.3845
L43.2750 26.5600
" />
<path d="M44.6250 27.9100
L43.0250 27.9100
" />
<path d="M46.3000 31.7600
L46.3000 24.7095
" />
<path d="M28.4500 31.7600
L29.2260 32.5360
" />
<path d="M43.2750 26.5600
L44.6250 27.9100
" />
<path d="M29.2260 32.5360
L45.5240 32.5360
" />
<path d="M26.7750 27.9100
L28.4500 29.5850
" />
<path d="M28.4500 29.5850
L28.4500 31.7600
" />
<path d="M41.9750 26.8600
L41.9750 10.6750
" />
<path d="M45.5240 32.5360
L46.3000 31.7600
" />
<path d="M15.8810 41.1440
L15.8810 50.6290
" />
<path d="M15.4170 40.6800
L15.8810 41.1440
" />
<path d="M15.8810 50.6290
L11.2250 55.2850
" />
<path d="M65.9760 56.1860
L70.2490 56.1860
" />
<path d="M74.1430 52.2920
L74.1430 37.5280
" />
<path d="M65.0750 55.2850
L65.9760 56.1860
" />
<path d="M74.1430 37.5280
L72.0750 35.4600
" />
<path d="M58.7750 35.4600
L53.5750 30.2600
" />
<path d="M47.4760 56.7360
L50.7990 56.7360
" />
<path d="M43.1028 66.0360
L46.0250 63.1138
" />
<path d="M72.0750 35.4600
L58.7750 35.4600
" />
<path d="M7.9250 55.2850
L9.6000 56.9600
" />
<path d="M35.4022 57.8540
L39.0140 61.4658
" />
<path d="M24.0528 66.0360
L26.9750 63.1138
" />
<path d="M26.9750 63.1138
L26.9750 55.2850
" />
<path d="M65.0750 53.0600
L65.0750 55.2850
" />
<path d="M41.5448 66.0360
L43.1028 66.0360
" />
<path d="M26.9750 55.2850
L29.5440 57.8540
" />
<path d="M53.5750 19.4600
L51.1550 17.0400
" />
<path d="M70.2490 56.1860
L74.1430 52.2920
" />
<path d="M29.5440 57.8540
L35.4022 57.8540
" />
<path d="M64.0750 52.0600
L65.0750 53.0600
" />
<path d="M19.9640 63.5052
L22.4948 66.0360
" />
<path d="M9.6000 56.9600
L15.8892 56.9600
" />
<path d="M22.4948 66.0360
L24.0528 66.0360
" />
<path d="M53.5750 30.2600
L53.5750 19.4600
" />
<path d="M39.0140 63.5052
L41.5448 66.0360
" />
<path d="M19.9640 61.0348
L19.9640 63.5052
" />
<path d="M39.0140 61.4658
L39.0140 63.5052
" />
<path d="M51.1550 17.0400
L45.7700 17.0400
" />
<path d="M15.8892 56.9600
L19.9640 61.0348
" />
<path d="M46.0250 55.2850
L47.4760 56.7360
" />
<path d="M50.7990 56.7360
L56.4750 51.0600
" />
<path d="M46.0250 63.1138
L46.0250 55.2850
" />
<path d="M34.9310 41.1440
L34.9310 50.6290
" />
<path d="M34.9310 50.6290
L30.2750 55.2850
" />
<path d="M34.4670 40.6800
L34.9310 41.1440
" />
<path d="M53.5170 40.6800
L53.9810 41.1440
" />
<path d="M53.9810 50.6290
L49.3250 55.2850
" />
<path d="M53.9810 41.1440
L53.9810 50.6290
" />
<path d="M72.5670 40.6800
L73.0310 41.1440
" />
<path d="M73.0310 41.1440
L73.0310 50.6290
" />
<path d="M73.0310 50.6290
L68.3750 55.2850
" />
<path d="M15.8810 60.1940
L15.8810 69.6790
" />
<path d="M15.8810 69.6790
L11.2250 74.3350
" />
<path d="M15.4170 59.7300
L15.8810 60.1940
" />
<path d="M54.6750 30.0600
L54.6750 19.1600
" />
<path d="M68.3614 78.7500
L69.9146 78.7500
" />
<path d="M65.0750 75.4637
L68.3614 78.7500
" />
<path d="M52.6492 85.0860
L57.0792 80.6560
" />
<path d="M50.0150 14.5000
L45.7700 14.5000
" />
<path d="M40.7353 78.7500
L45.1503 74.3350
" />
<path d="M72.0750 34.1600
L58.7750 34.1600
" />
<path d="M74.9750 37.0600
L72.0750 34.1600
" />
<path d="M57.0792 80.6560
L57.0792 78.7878
" />
<path d="M69.9146 78.7500
L74.9750 73.6897
" />
<path d="M48.5390 76.8490
L48.5390 82.5552
" />
<path d="M74.9750 73.6897
L74.9750 37.0600
" />
<path d="M61.5319 74.3350
L65.0750 74.3350
" />
<path d="M10.4500 76.8600
L24.4500 76.8600
" />
<path d="M30.2614 78.7500
L40.7353 78.7500
" />
<path d="M65.0750 74.3350
L65.0750 75.4637
" />
<path d="M46.0250 74.3350
L48.5390 76.8490
" />
<path d="M24.4500 76.8600
L26.9750 74.3350
" />
<path d="M54.6750 19.1600
L50.0150 14.5000
" />
<path d="M26.9750 74.3350
L26.9750 75.4637
" />
<path d="M51.0698 85.0860
L52.6492 85.0860
" />
<path d="M57.0792 78.7878
L61.5319 74.3350
" />
<path d="M48.5390 82.5552
L51.0698 85.0860
" />
<path d="M7.9250 74.3350
L10.4500 76.8600
" />
<path d="M58.7750 34.1600
L54.6750 30.0600
" />
<path d="M26.9750 75.4637
L30.2614 78.7500
" />
<path d="M45.1503 74.3350
L46.0250 74.3350
" />
<path d="M34.4670 59.7300
L34.9310 60.1940
" />
<path d="M34.9310 69.6790
L30.2750 74.3350
" />
<path d="M34.9310 60.1940
L34.9310 69.6790
" />
<path d="M53.5170 59.7300
L53.9810 60.1940
" />
<path d="M53.9810 60.1940
L53.9810 69.6790
" />
<path d="M53.9810 69.6790
L49.3250 74.3350
" />
<path d="M73.0310 69.6790
L68.3750 74.3350
" />
<path d="M73.0310 60.1940
L73.0310 69.6790
" />
<path d="M72.5670 59.7300
L73.0310 60.1940
" />
<path d="M25.4060 88.8790
L20.7500 93.5350
" />
<path d="M24.9420 78.7800
L25.4060 79.2440
" />
<path d="M25.4060 79.2440
L25.4060 88.8790
" />
<path d="M18.6988 94.7838
L54.3012 94.7838
" />
<path d="M17.4500 93.5350
L18.6988 94.7838
" />
<path d="M55.5500 93.5350
L56.4510 94.4360
" />
<path d="M72.0750 32.7600
L58.9750 32.7600
" />
<path d="M73.7990 94.4360
L75.6492 92.5858
" />
<path d="M75.6492 92.5858
L75.6492 36.3342
" />
<path d="M55.9750 17.9600
L49.9750 11.9600
" />
<path d="M58.9750 32.7600
L55.9750 29.7600
" />
<path d="M54.3012 94.7838
L55.5500 93.5350
" />
<path d="M56.4510 94.4360
L73.7990 94.4360
" />
<path d="M55.9750 29.7600
L55.9750 17.9600
" />
<path d="M49.9750 11.9600
L45.7700 11.9600
" />
<path d="M75.6492 36.3342
L72.0750 32.7600
" />
<path d="M63.0420 78.7800
L63.5060 79.2440
" />
<path d="M63.5060 79.2440
L63.5060 88.8790
" />
<path d="M63.5060 88.8790
L58.8500 93.5350
" />
<path d="M31.6750 27.9100
L32.4260 28.6610
" />
<path d="M45.6760 28.4345
L45.6760 25.6610
" />
<path d="M45.6760 25.6610
L44.6250 24.6100
" />
<path d="M32.4260 28.6610
L45.4495 28.6610
" />
<path d="M45.4495 28.6610
L45.6760 28.4345
" />
<path d="M27.7260 25.5610
L38.0615 25.5610
" />
<path d="M26.7750 24.6100
L27.7260 25.5610
" />
<path d="M38.0615 25.5610
L39.0625 24.5600
" />
<path d="M37.2375 24.5600
L37.2375 21.9975
" />
<path d="M37.2375 21.9975
L38.4750 20.7600
" />
<path d="M5.9350 81.3200
L12.0150 81.3200
" />
<path d="M2.4900 43.2200
L0.9750 41.7050
" />
<path d="M2.4900 43.2200
L2.4900 62.2700
" />
<path d="M2.4900 62.2700
L2.4900 77.8750
" />
<path d="M2.4900 77.8750
L5.9350 81.3200
" />
<path d="M0.9750 41.7050
L0.9750 7.6600
" />
<path d="M4.2950 4.3400
L30.5300 4.3400
" />
<path d="M0.9750 7.6600
L4.2950 4.3400
" />
<path d="M2.0750 32.1600
L5.6750 35.7600
" />
<path d="M4.2550 6.8800
L2.0750 9.0600
" />
<path d="M2.0750 9.0600
L2.0750 32.1600
" />
<path d="M21.5400 43.2200
L22.1750 43.8550
" />
<path d="M21.5400 37.0250
L21.5400 43.2200
" />
<path d="M20.2750 35.7600
L21.5400 37.0250
" />
<path d="M22.1750 61.6350
L21.5400 62.2700
" />
<path d="M22.1750 43.8550
L22.1750 61.6350
" />
<path d="M30.5300 6.8800
L4.2550 6.8800
" />
<path d="M5.6750 35.7600
L20.2750 35.7600
" />
<path d="M30.5300 9.4200
L4.9150 9.4200
" />
<path d="M41.1750 43.8050
L41.1750 61.6850
" />
<path d="M4.9150 9.4200
L3.4750 10.8600
" />
<path d="M38.8750 34.3600
L40.5900 36.0750
" />
<path d="M3.4750 10.8600
L3.4750 31.2600
" />
<path d="M3.4750 31.2600
L6.5750 34.3600
" />
<path d="M41.1750 61.6850
L40.5900 62.2700
" />
<path d="M6.5750 34.3600
L38.8750 34.3600
" />
<path d="M40.5900 43.2200
L41.1750 43.8050
" />
<path d="M40.5900 36.0750
L40.5900 43.2200
" />
<path d="M4.5750 14.8600
L4.5750 30.1600
" />
<path d="M30.5300 11.9600
L29.3300 10.7600
" />
<path d="M59.6400 62.2700
L59.6400 66.9950
" />
<path d="M29.3300 10.7600
L8.6750 10.7600
" />
<path d="M4.5750 30.1600
L7.7750 33.3600
" />
<path d="M59.6400 66.9950
L50.1150 76.5200
" />
<path d="M59.6400 37.8250
L59.6400 43.2200
" />
<path d="M8.6750 10.7600
L4.5750 14.8600
" />
<path d="M7.7750 33.3600
L55.1750 33.3600
" />
<path d="M59.6400 43.2200
L60.2750 43.8550
" />
<path d="M55.1750 33.3600
L59.6400 37.8250
" />
<path d="M60.2750 61.6350
L59.6400 62.2700
" />
<path d="M50.1150 76.5200
L50.1150 81.3200
" />
<path d="M60.2750 43.8550
L60.2750 61.6350
" />
<path style="fill:#C83434; fill-opacity:1.0000; stroke:none;fill-rule:evenodd;"
d="M 5.8500,17.4350
5.8500,15.4350
7.8500,15.4350
7.8500,17.4350
Z" /> 
</g>
<g style="fill:#C83434; fill-opacity:1.0000; stroke:none;">
<circle cx="6.8500" cy="21.4350" r="1.0000" /> 
</g>
<g style="fill:#C83434; fill-opacity:1.0000; stroke:none;">
<circle cx="6.8500" cy="18.9350" r="1.0000" /> 
<path style="fill:#C83434; fill-opacity:1.0000; stroke:none;fill-rule:evenodd;"
d="M 12.7500,14.3350
12.7500,12.3350
15.9500,12.3350
15.9500,14.3350
Z" /> 
<path style="fill:#C83434; fill-opacity:1.0000; stroke:none;fill-rule:evenodd;"
d="M 12.7500,25.5350
12.7500,23.5350
15.9500,23.5350
15.9500,25.5350
Z" /> 
</g>
<g style="fill:#C83434; fill-opacity:1.0000; stroke:none;">
<circle cx="21.3500" cy="21.4350" r="1.0000" /> 
</g>
<g style="fill:#C83434; fill-opacity:1.0000; stroke:none;">
<circle cx="21.3500" cy="16.4350" r="1.0000" /> 
<path style="fill:#C83434; fill-opacity:1.0000; stroke:none;fill-rule:evenodd;"
d="M 28.7100,3.8400
28.7214,3.7337
28.7712,3.6004
28.8564,3.4864
28.9704,3.4012
29.1037,3.3514
29.2100,3.3400
30.9600,3.3400
31.0663,3.3514
31.1996,3.4012
31.3136,3.4864
31.3988,3.6004
31.4486,3.7337
31.4600,3.8400
31.4600,4.8400
31.4486,4.9463
31.3988,5.0796
31.3136,5.1936
31.1996,5.2788
31.0663,5.3286
30.9600,5.3400
29.2100,5.3400
29.1037,5.3286
28.9704,5.2788
28.8564,5.1936
28.7712,5.0796
28.7214,4.9463
28.7100,4.8400
Z" /> 
<path style="fill:#C83434; fill-opacity:1.0000; stroke:none;fill-rule:evenodd;"
d="M 31.3300,5.1400
29.7300,5.1400
29.7300,3.5400
31.3300,3.5400
Z" /> 
<path style="fill:#C83434; fill-opacity:1.0000; stroke:none;fill-rule:evenodd;"
d="M 28.7100,6.3800
28.7214,6.2737
28.7712,6.1404
28.8564,6.0264
28.9704,5.9412
29.1037,5.8914
29.2100,5.8800
30.9600,5.8800
31.0663,5.8914
31.1996,5.9412
31.3136,6.0264
31.3988,6.1404
31.4486,6.2737
31.4600,6.3800
31.4600,7.3800
31.4486,7.4863
31.3988,7.6196
31.3136,7.7336
31.1996,7.8188
31.0663,7.8686
30.9600,7.8800
29.2100,7.8800
29.1037,7.8686
28.9704,7.8188
28.8564,7.7336
28.7712,7.6196
28.7214,7.4863
28.7100,7.3800
Z" /> 
</g>
<g style="fill:#C83434; fill-opacity:1.0000; stroke:none;">
<circle cx="30.5300" cy="6.8800" r="0.8000" /> 
<path style="fill:#C83434; fill-opacity:1.0000; stroke:none;fill-rule:evenodd;"
d="M 28.7100,8.9200
28.7214,8.8137
28.7712,8.6804
28.8564,8.5664
28.9704,8.4812
29.1037,8.4314
29.2100,8.4200
30.9600,8.4200
31.0663,8.4314
31.1996,8.4812
31.3136,8.5664
31.3988,8.6804
31.4486,8.8137
31.4600,8.9200
31.4600,9.9200
31.4486,10.0263
31.3988,10.1596
31.3136,10.2736
31.1996,10.3588
31.0663,10.4086
30.9600,10.4200
29.2100,10.4200
29.1037,10.4086
28.9704,10.3588
28.8564,10.2736
28.7712,10.1596
28.7214,10.0263
28.7100,9.9200
Z" /> 
</g>
<g style="fill:#C83434; fill-opacity:1.0000; stroke:none;">
<circle cx="30.5300" cy="9.4200" r="0.8000" /> 
<path style="fill:#C83434; fill-opacity:1.0000; stroke:none;fill-rule:evenodd;"
d="M 28.7100,11.4600
28.7214,11.3537
28.7712,11.2204
28.8564,11.1064
28.9704,11.0212
29.1037,10.9714
29.2100,10.9600
30.9600,10.9600
31.0663,10.9714
31.1996,11.0212
31.3136,11.1064
31.3988,11.2204
31.4486,11.3537
31.4600,11.4600
31.4600,12.4600
31.4486,12.5663
31.3988,12.6996
31.3136,12.8136
31.1996,12.8988
31.0663,12.9486
30.9600,12.9600
29.2100,12.9600
29.1037,12.9486
28.9704,12.8988
28.8564,12.8136
28.7712,12.6996
28.7214,12.5663
28.7100,12.4600
Z" /> 
</g>
<g style="fill:#C83434; fill-opacity:1.0000; stroke:none;">
<circle cx="30.5300" cy="11.9600" r="0.8000" /> 
<path style="fill:#C83434; fill-opacity:1.0000; stroke:none;fill-rule:evenodd;"
d="M 28.7100,14.0000
28.7214,13.8937
28.7712,13.7604
28.8564,13.6464
28.9704,13.5612
29.1037,13.5114
29.2100,13.5000
30.9600,13.5000
31.0663,13.5114
31.1996,13.5612
31.3136,13.6464
31.3988,13.7604
31.4486,13.8937
31.4600,14.0000
31.4600,15.0000
31.4486,15.1063
31.3988,15.2396
31.3136,15.3536
31.1996,15.4388
31.0663,15.4886
30.9600,15.5000
29.2100,15.5000
29.1037,15.4886
28.9704,15.4388
28.8564,15.3536
28.7712,15.2396
28.7214,15.1063
28.7100,15.0000
Z" /> 
</g>
<g style="fill:#C83434; fill-opacity:1.0000; stroke:none;">
<circle cx="30.5300" cy="14.5000" r="0.8000" /> 
<path style="fill:#C83434; fill-opacity:1.0000; stroke:none;fill-rule:evenodd;"
d="M 28.7100,16.5400
28.7214,16.4337
28.7712,16.3004
28.8564,16.1864
28.9704,16.1012
29.1037,16.0514
29.2100,16.0400
30.9600,16.0400
31.0663,16.0514
31.1996,16.1012
31.3136,16.1864
31.3988,16.3004
31.4486,16.4337
31.4600,16.5400
31.4600,17.5400
31.4486,17.6463
31.3988,17.7796
31.3136,17.8936
31.1996,17.9788
31.0663,18.0286
30.9600,18.0400
29.2100,18.0400
29.1037,18.0286
28.9704,17.9788
28.8564,17.8936
28.7712,17.7796
28.7214,17.6463
28.7100,17.5400
Z" /> 
</g>
<g style="fill:#C83434; fill-opacity:1.0000; stroke:none;">
<circle cx="30.5300" cy="17.0400" r="0.8000" /> 
<path style="fill:#C83434; fill-opacity:1.0000; stroke:none;fill-rule:evenodd;"
d="M 28.7100,19.0800
28.7214,18.9737
28.7712,18.8404
28.8564,18.7264
28.9704,18.6412
29.1037,18.5914
29.2100,18.5800
30.9600,18.5800
31.0663,18.5914
31.1996,18.6412
31.3136,18.7264
31.3988,18.8404
31.4486,18.9737
31.4600,19.0800
31.4600,20.0800
31.4486,20.1863
31.3988,20.3196
31.3136,20.4336
31.1996,20.5188
31.0663,20.5686
30.9600,20.5800
29.2100,20.5800
29.1037,20.5686
28.9704,20.5188
28.8564,20.4336
28.7712,20.3196
28.7214,20.1863
28.7100,20.0800
Z" /> 
</g>
<g style="fill:#C83434; fill-opacity:1.0000; stroke:none;">
<circle cx="30.5300" cy="19.5800" r="0.8000" /> 
</g>
<g style="fill:#C83434; fill-opacity:1.0000; stroke:none;">
<circle cx="45.7700" cy="19.5800" r="0.8000" /> 
<path style="fill:#C83434; fill-opacity:1.0000; stroke:none;fill-rule:evenodd;"
d="M 44.8750,19.0800
44.8864,18.9737
44.9362,18.8404
45.0214,18.7264
45.1354,18.6412
45.2687,18.5914
45.3750,18.5800
47.1250,18.5800
47.2313,18.5914
47.3646,18.6412
47.4786,18.7264
47.5638,18.8404
47.6136,18.9737
47.6250,19.0800
47.6250,20.0800
47.6136,20.1863
47.5638,20.3196
47.4786,20.4336
47.3646,20.5188
47.2313,20.5686
47.1250,20.5800
45.3750,20.5800
45.2687,20.5686
45.1354,20.5188
45.0214,20.4336
44.9362,20.3196
44.8864,20.1863
44.8750,20.0800
Z" /> 
</g>
<g style="fill:#C83434; fill-opacity:1.0000; stroke:none;">
<circle cx="45.7700" cy="17.0400" r="0.8000" /> 
<path style="fill:#C83434; fill-opacity:1.0000; stroke:none;fill-rule:evenodd;"
d="M 44.8750,16.5400
44.8864,16.4337
44.9362,16.3004
45.0214,16.1864
45.1354,16.1012
45.2687,16.0514
45.3750,16.0400
47.1250,16.0400
47.2313,16.0514
47.3646,16.1012
47.4786,16.1864
47.5638,16.3004
47.6136,16.4337
47.6250,16.5400
47.6250,17.5400
47.6136,17.6463
47.5638,17.7796
47.4786,17.8936
47.3646,17.9788
47.2313,18.0286
47.1250,18.0400
45.3750,18.0400
45.2687,18.0286
45.1354,17.9788
45.0214,17.8936
44.9362,17.7796
44.8864,17.6463
44.8750,17.5400
Z" /> 
</g>
<g style="fill:#C83434; fill-opacity:1.0000; stroke:none;">
<circle cx="45.7700" cy="14.5000" r="0.8000" /> 
<path style="fill:#C83434; fill-opacity:1.0000; stroke:none;fill-rule:evenodd;"
d="M 44.8750,14.0000
44.8864,13.8937
44.9362,13.7604
45.0214,13.6464
45.1354,13.5612
45.2687,13.5114
45.3750,13.5000
47.1250,13.5000
47.2313,13.5114
47.3646,13.5612
47.4786,13.6464
47.5638,13.7604
47.6136,13.8937
47.6250,14.0000
47.6250,15.0000
47.6136,15.1063
47.5638,15.2396
47.4786,15.3536
47.3646,15.4388
47.2313,15.4886
47.1250,15.5000
45.3750,15.5000
45.2687,15.4886
45.1354,15.4388
45.0214,15.3536
44.9362,15.2396
44.8864,15.1063
44.8750,15.0000
Z" /> 
</g>
<g style="fill:#C83434; fill-opacity:1.0000; stroke:none;">
<circle cx="45.7700" cy="11.9600" r="0.8000" /> 
<path style="fill:#C83434; fill-opacity:1.0000; stroke:none;fill-rule:evenodd;"
d="M 44.8750,11.4600
44.8864,11.3537
44.9362,11.2204
45.0214,11.1064
45.1354,11.0212
45.2687,10.9714
45.3750,10.9600
47.1250,10.9600
47.2313,10.9714
47.3646,11.0212
47.4786,11.1064
47.5638,11.2204
47.6136,11.3537
47.6250,11.4600
47.6250,12.4600
47.6136,12.5663
47.5638,12.6996
47.4786,12.8136
47.3646,12.8988
47.2313,12.9486
47.1250,12.9600
45.3750,12.9600
45.2687,12.9486
45.1354,12.8988
45.0214,12.8136
44.9362,12.6996
44.8864,12.5663
44.8750,12.4600
Z" /> 
</g>
<g style="fill:#C83434; fill-opacity:1.0000; stroke:none;">
<circle cx="45.7700" cy="9.4200" r="0.8000" /> 
<path style="fill:#C83434; fill-opacity:1.0000; stroke:none;fill-rule:evenodd;"
d="M 44.8750,8.9200
44.8864,8.8137
44.9362,8.6804
45.0214,8.5664
45.1354,8.4812
45.2687,8.4314
45.3750,8.4200
47.1250,8.4200
47.2313,8.4314
47.3646,8.4812
47.4786,8.5664
47.5638,8.6804
47.6136,8.8137
47.6250,8.9200
47.6250,9.9200
47.6136,10.0263
47.5638,10.1596
47.4786,10.2736
47.3646,10.3588
47.2313,10.4086
47.1250,10.4200
45.3750,10.4200
45.2687,10.4086
45.1354,10.3588
45.0214,10.2736
44.9362,10.1596
44.8864,10.0263
44.8750,9.9200
Z" /> 
</g>
<g style="fill:#C83434; fill-opacity:1.0000; stroke:none;">
<circle cx="45.7700" cy="6.8800" r="0.8000" /> 
<path style="fill:#C83434; fill-opacity:1.0000; stroke:none;fill-rule:evenodd;"
d="M 44.8750,6.3800
44.8864,6.2737
44.9362,6.1404
45.0214,6.0264
45.1354,5.9412
45.2687,5.8914
45.3750,5.8800
47.1250,5.8800
47.2313,5.8914
47.3646,5.9412
47.4786,6.0264
47.5638,6.1404
47.6136,6.2737
47.6250,6.3800
47.6250,7.3800
47.6136,7.4863
47.5638,7.6196
47.4786,7.7336
47.3646,7.8188
47.2313,7.8686
47.1250,7.8800
45.3750,7.8800
45.2687,7.8686
45.1354,7.8188
45.0214,7.7336
44.9362,7.6196
44.8864,7.4863
44.8750,7.3800
Z" /> 
</g>
<g style="fill:#C83434; fill-opacity:1.0000; stroke:none;">
<circle cx="45.7700" cy="4.3400" r="0.8000" /> 
<path style="fill:#C83434; fill-opacity:1.0000; stroke:none;fill-rule:evenodd;"
d="M 44.8750,3.8400
44.8864,3.7337
44.9362,3.6004
45.0214,3.4864
45.1354,3.4012
45.2687,3.3514
45.3750,3.3400
47.1250,3.3400
47.2313,3.3514
47.3646,3.4012
47.4786,3.4864
47.5638,3.6004
47.6136,3.7337
47.6250,3.8400
47.6250,4.8400
47.6136,4.9463
47.5638,5.0796
47.4786,5.1936
47.3646,5.2788
47.2313,5.3286
47.1250,5.3400
45.3750,5.3400
45.2687,5.3286
45.1354,5.2788
45.0214,5.1936
44.9362,5.0796
44.8864,4.9463
44.8750,4.8400
Z" /> 
</g>
<g style="fill:#C83434; fill-opacity:1.0000; stroke:none;">
<circle cx="51.7750" cy="20.2600" r="0.3000" /> 
</g>
<g style="fill:#C83434; fill-opacity:1.0000; stroke:none;">
<circle cx="64.0750" cy="52.0600" r="0.3000" /> 
</g>
<g style="fill:#C83434; fill-opacity:1.0000; stroke:none;">
<circle cx="56.4750" cy="51.0600" r="0.3000" /> 
</g>
<g style="fill:#C83434; fill-opacity:1.0000; stroke:none;">
<circle cx="38.4750" cy="20.7600" r="0.3000" /> 
</g>
<g style="fill:none; 
stroke:#C83434; stroke-width:0.2000; stroke-opacity:1; 
stroke-linecap:round; stroke-linejoin:round;">
<path d="M49.5550 4.3400
L46.2500 4.3400
" />
<path d="M51.7750 6.5600
L49.5550 4.3400
" />
<path d="M51.7750 20.2600
L51.7750 6.5600
" />
<path d="M5.5490 15.1340
L17.6440 3.0390
" />
<path d="M5.5490 17.6340
L5.5490 15.1340
" />
<path d="M17.6440 3.0390
L42.4090 3.0390
" />
<path d="M6.8500 18.9350
L10.6250 15.1600
" />
<path d="M42.4090 3.0390
L46.2500 6.8800
" />
<path d="M6.8500 18.9350
L5.5490 17.6340
" />
<path d="M10.6250 15.1600
L20.0750 15.1600
" />
<path d="M20.0750 15.1600
L21.3500 16.4350
" />
<path d="M56.4750 51.0600
L63.0750 51.0600
" />
<path d="M63.0750 51.0600
L64.0750 52.0600
" />
<path d="M39.6550 19.5800
L45.7700 19.5800
" />
<path d="M38.4750 20.7600
L39.6550 19.5800
" />
<path d="M23.2050 19.5800
L30.0850 19.5800
" />
<path d="M21.3500 21.4350
L23.2050 19.5800
" />
<path d="M17.5652 22.7600
L23.2852 17.0400
" />
<path d="M23.2852 17.0400
L30.0850 17.0400
" />
<path d="M6.8500 21.4350
L8.1750 22.7600
" />
<path d="M8.1750 22.7600
L17.5652 22.7600
" />
<path d="M11.5250 11.7600
L27.3450 11.7600
" />
<path d="M27.3450 11.7600
L30.0850 14.5000
" />
<path d="M6.8500 16.4350
L11.5250 11.7600
" />
</g>
<g style="fill:none; 
stroke:#F2EDA1; stroke-width:0.1500; stroke-opacity:1; 
stroke-linecap:round; stroke-linejoin:round;">
<text x="66.7250" y="57.3100"
textLength="2.1548" font-size="1.3333" lengthAdjust="spacingAndGlyphs"
text-anchor="middle" opacity="0" stroke-opacity="0">S8</text>
<g class="stroked-text"><desc>S8</desc>
<path d="M65.9631 57.2172
L66.1060 57.2648
" />
<path d="M66.1060 57.2648
L66.3440 57.2648
" />
<path d="M66.3440 57.2648
L66.4393 57.2172
" />
<path d="M66.4393 57.2172
L66.4869 57.1696
" />
<path d="M66.4869 57.1696
L66.5345 57.0743
" />
<path d="M66.5345 57.0743
L66.5345 56.9791
" />
<path d="M66.5345 56.9791
L66.4869 56.8839
" />
<path d="M66.4869 56.8839
L66.4393 56.8362
" />
<path d="M66.4393 56.8362
L66.3440 56.7886
" />
<path d="M66.3440 56.7886
L66.1536 56.7410
" />
<path d="M66.1536 56.7410
L66.0583 56.6934
" />
<path d="M66.0583 56.6934
L66.0107 56.6458
" />
<path d="M66.0107 56.6458
L65.9631 56.5505
" />
<path d="M65.9631 56.5505
L65.9631 56.4553
" />
<path d="M65.9631 56.4553
L66.0107 56.3601
" />
<path d="M66.0107 56.3601
L66.0583 56.3124
" />
<path d="M66.0583 56.3124
L66.1536 56.2648
" />
<path d="M66.1536 56.2648
L66.3917 56.2648
" />
<path d="M66.3917 56.2648
L66.5345 56.3124
" />
<path d="M67.1060 56.6934
L67.0107 56.6458
" />
<path d="M67.0107 56.6458
L66.9631 56.5982
" />
<path d="M66.9631 56.5982
L66.9155 56.5029
" />
<path d="M66.9155 56.5029
L66.9155 56.4553
" />
<path d="M66.9155 56.4553
L66.9631 56.3601
" />
<path d="M66.9631 56.3601
L67.0107 56.3124
" />
<path d="M67.0107 56.3124
L67.1060 56.2648
" />
<path d="M67.1060 56.2648
L67.2964 56.2648
" />
<path d="M67.2964 56.2648
L67.3917 56.3124
" />
<path d="M67.3917 56.3124
L67.4393 56.3601
" />
<path d="M67.4393 56.3601
L67.4869 56.4553
" />
<path d="M67.4869 56.4553
L67.4869 56.5029
" />
<path d="M67.4869 56.5029
L67.4393 56.5982
" />
<path d="M67.4393 56.5982
L67.3917 56.6458
" />
<path d="M67.3917 56.6458
L67.2964 56.6934
" />
<path d="M67.2964 56.6934
L67.1060 56.6934
" />
<path d="M67.1060 56.6934
L67.0107 56.7410
" />
<path d="M67.0107 56.7410
L66.9631 56.7886
" />
<path d="M66.9631 56.7886
L66.9155 56.8839
" />
<path d="M66.9155 56.8839
L66.9155 57.0743
" />
<path d="M66.9155 57.0743
L66.9631 57.1696
" />
<path d="M66.9631 57.1696
L67.0107 57.2172
" />
<path d="M67.0107 57.2172
L67.1060 57.2648
" />
<path d="M67.1060 57.2648
L67.2964 57.2648
" />
<path d="M67.2964 57.2648
L67.3917 57.2172
" />
<path d="M67.3917 57.2172
L67.4393 57.1696
" />
<path d="M67.4393 57.1696
L67.4869 57.0743
" />
<path d="M67.4869 57.0743
L67.4869 56.8839
" />
<path d="M67.4869 56.8839
L67.4393 56.7886
" />
<path d="M67.4393 56.7886
L67.3917 56.7410
" />
<path d="M67.3917 56.7410
L67.2964 56.6934
" />
</g><text x="28.6250" y="57.3100"
textLength="2.1548" font-size="1.3333" lengthAdjust="spacingAndGlyphs"
text-anchor="middle" opacity="0" stroke-opacity="0">S6</text>
<g class="stroked-text"><desc>S6</desc>
<path d="M27.8631 57.2172
L28.0060 57.2648
" />
<path d="M28.0060 57.2648
L28.2440 57.2648
" />
<path d="M28.2440 57.2648
L28.3393 57.2172
" />
<path d="M28.3393 57.2172
L28.3869 57.1696
" />
<path d="M28.3869 57.1696
L28.4345 57.0743
" />
<path d="M28.4345 57.0743
L28.4345 56.9791
" />
<path d="M28.4345 56.9791
L28.3869 56.8839
" />
<path d="M28.3869 56.8839
L28.3393 56.8362
" />
<path d="M28.3393 56.8362
L28.2440 56.7886
" />
<path d="M28.2440 56.7886
L28.0536 56.7410
" />
<path d="M28.0536 56.7410
L27.9583 56.6934
" />
<path d="M27.9583 56.6934
L27.9107 56.6458
" />
<path d="M27.9107 56.6458
L27.8631 56.5505
" />
<path d="M27.8631 56.5505
L27.8631 56.4553
" />
<path d="M27.8631 56.4553
L27.9107 56.3601
" />
<path d="M27.9107 56.3601
L27.9583 56.3124
" />
<path d="M27.9583 56.3124
L28.0536 56.2648
" />
<path d="M28.0536 56.2648
L28.2917 56.2648
" />
<path d="M28.2917 56.2648
L28.4345 56.3124
" />
<path d="M29.2917 56.2648
L29.1012 56.2648
" />
<path d="M29.1012 56.2648
L29.0060 56.3124
" />
<path d="M29.0060 56.3124
L28.9583 56.3601
" />
<path d="M28.9583 56.3601
L28.8631 56.5029
" />
<path d="M28.8631 56.5029
L28.8155 56.6934
" />
<path d="M28.8155 56.6934
L28.8155 57.0743
" />
<path d="M28.8155 57.0743
L28.8631 57.1696
" />
<path d="M28.8631 57.1696
L28.9107 57.2172
" />
<path d="M28.9107 57.2172
L29.0060 57.2648
" />
<path d="M29.0060 57.2648
L29.1964 57.2648
" />
<path d="M29.1964 57.2648
L29.2917 57.2172
" />
<path d="M29.2917 57.2172
L29.3393 57.1696
" />
<path d="M29.3393 57.1696
L29.3869 57.0743
" />
<path d="M29.3869 57.0743
L29.3869 56.8362
" />
<path d="M29.3869 56.8362
L29.3393 56.7410
" />
<path d="M29.3393 56.7410
L29.2917 56.6934
" />
<path d="M29.2917 56.6934
L29.1964 56.6458
" />
<path d="M29.1964 56.6458
L29.0060 56.6458
" />
<path d="M29.0060 56.6458
L28.9107 56.6934
" />
<path d="M28.9107 56.6934
L28.8631 56.7410
" />
<path d="M28.8631 56.7410
L28.8155 56.8362
" />
</g><text x="47.6750" y="38.2600"
textLength="2.1548" font-size="1.3333" lengthAdjust="spacingAndGlyphs"
text-anchor="middle" opacity="0" stroke-opacity="0">S3</text>
<g class="stroked-text"><desc>S3</desc>
<path d="M46.9131 38.1672
L47.0560 38.2148
" />
<path d="M47.0560 38.2148
L47.2940 38.2148
" />
<path d="M47.2940 38.2148
L47.3893 38.1672
" />
<path d="M47.3893 38.1672
L47.4369 38.1196
" />
<path d="M47.4369 38.1196
L47.4845 38.0243
" />
<path d="M47.4845 38.0243
L47.4845 37.9291
" />
<path d="M47.4845 37.9291
L47.4369 37.8339
" />
<path d="M47.4369 37.8339
L47.3893 37.7862
" />
<path d="M47.3893 37.7862
L47.2940 37.7386
" />
<path d="M47.2940 37.7386
L47.1036 37.6910
" />
<path d="M47.1036 37.6910
L47.0083 37.6434
" />
<path d="M47.0083 37.6434
L46.9607 37.5958
" />
<path d="M46.9607 37.5958
L46.9131 37.5005
" />
<path d="M46.9131 37.5005
L46.9131 37.4053
" />
<path d="M46.9131 37.4053
L46.9607 37.3101
" />
<path d="M46.9607 37.3101
L47.0083 37.2624
" />
<path d="M47.0083 37.2624
L47.1036 37.2148
" />
<path d="M47.1036 37.2148
L47.3417 37.2148
" />
<path d="M47.3417 37.2148
L47.4845 37.2624
" />
<path d="M47.8179 37.2148
L48.4369 37.2148
" />
<path d="M48.4369 37.2148
L48.1036 37.5958
" />
<path d="M48.1036 37.5958
L48.2464 37.5958
" />
<path d="M48.2464 37.5958
L48.3417 37.6434
" />
<path d="M48.3417 37.6434
L48.3893 37.6910
" />
<path d="M48.3893 37.6910
L48.4369 37.7862
" />
<path d="M48.4369 37.7862
L48.4369 38.0243
" />
<path d="M48.4369 38.0243
L48.3893 38.1196
" />
<path d="M48.3893 38.1196
L48.3417 38.1672
" />
<path d="M48.3417 38.1672
L48.2464 38.2148
" />
<path d="M48.2464 38.2148
L47.9607 38.2148
" />
<path d="M47.9607 38.2148
L47.8655 38.1672
" />
<path d="M47.8655 38.1672
L47.8179 38.1196
" />
</g><text x="19.1000" y="52.5850"
textLength="4.5357" font-size="1.3333" lengthAdjust="spacingAndGlyphs"
text-anchor="middle" opacity="0" stroke-opacity="0">REF**</text>
<g class="stroked-text"><desc>REF**</desc>
<path d="M17.7667 52.5398
L17.4333 52.0636
" />
<path d="M17.1952 52.5398
L17.1952 51.5398
" />
<path d="M17.1952 51.5398
L17.5762 51.5398
" />
<path d="M17.5762 51.5398
L17.6714 51.5874
" />
<path d="M17.6714 51.5874
L17.7190 51.6351
" />
<path d="M17.7190 51.6351
L17.7667 51.7303
" />
<path d="M17.7667 51.7303
L17.7667 51.8732
" />
<path d="M17.7667 51.8732
L17.7190 51.9684
" />
<path d="M17.7190 51.9684
L17.6714 52.0160
" />
<path d="M17.6714 52.0160
L17.5762 52.0636
" />
<path d="M17.5762 52.0636
L17.1952 52.0636
" />
<path d="M18.1952 52.0160
L18.5286 52.0160
" />
<path d="M18.6714 52.5398
L18.1952 52.5398
" />
<path d="M18.1952 52.5398
L18.1952 51.5398
" />
<path d="M18.1952 51.5398
L18.6714 51.5398
" />
<path d="M19.4333 52.0160
L19.1000 52.0160
" />
<path d="M19.1000 52.5398
L19.1000 51.5398
" />
<path d="M19.1000 51.5398
L19.5762 51.5398
" />
<path d="M20.1000 51.5398
L20.1000 51.7779
" />
<path d="M19.8619 51.6827
L20.1000 51.7779
" />
<path d="M20.1000 51.7779
L20.3381 51.6827
" />
<path d="M19.9571 51.9684
L20.1000 51.7779
" />
<path d="M20.1000 51.7779
L20.2429 51.9684
" />
<path d="M20.8619 51.5398
L20.8619 51.7779
" />
<path d="M20.6238 51.6827
L20.8619 51.7779
" />
<path d="M20.8619 51.7779
L21.1000 51.6827
" />
<path d="M20.7190 51.9684
L20.8619 51.7779
" />
<path d="M20.8619 51.7779
L21.0048 51.9684
" />
</g><text x="19.1000" y="76.3600"
textLength="2.1548" font-size="1.3333" lengthAdjust="spacingAndGlyphs"
text-anchor="middle" opacity="0" stroke-opacity="0">S9</text>
<g class="stroked-text"><desc>S9</desc>
<path d="M18.3381 76.2672
L18.4810 76.3148
" />
<path d="M18.4810 76.3148
L18.7190 76.3148
" />
<path d="M18.7190 76.3148
L18.8143 76.2672
" />
<path d="M18.8143 76.2672
L18.8619 76.2196
" />
<path d="M18.8619 76.2196
L18.9095 76.1243
" />
<path d="M18.9095 76.1243
L18.9095 76.0291
" />
<path d="M18.9095 76.0291
L18.8619 75.9339
" />
<path d="M18.8619 75.9339
L18.8143 75.8862
" />
<path d="M18.8143 75.8862
L18.7190 75.8386
" />
<path d="M18.7190 75.8386
L18.5286 75.7910
" />
<path d="M18.5286 75.7910
L18.4333 75.7434
" />
<path d="M18.4333 75.7434
L18.3857 75.6958
" />
<path d="M18.3857 75.6958
L18.3381 75.6005
" />
<path d="M18.3381 75.6005
L18.3381 75.5053
" />
<path d="M18.3381 75.5053
L18.3857 75.4101
" />
<path d="M18.3857 75.4101
L18.4333 75.3624
" />
<path d="M18.4333 75.3624
L18.5286 75.3148
" />
<path d="M18.5286 75.3148
L18.7667 75.3148
" />
<path d="M18.7667 75.3148
L18.9095 75.3624
" />
<path d="M19.3857 76.3148
L19.5762 76.3148
" />
<path d="M19.5762 76.3148
L19.6714 76.2672
" />
<path d="M19.6714 76.2672
L19.7190 76.2196
" />
<path d="M19.7190 76.2196
L19.8143 76.0767
" />
<path d="M19.8143 76.0767
L19.8619 75.8862
" />
<path d="M19.8619 75.8862
L19.8619 75.5053
" />
<path d="M19.8619 75.5053
L19.8143 75.4101
" />
<path d="M19.8143 75.4101
L19.7667 75.3624
" />
<path d="M19.7667 75.3624
L19.6714 75.3148
" />
<path d="M19.6714 75.3148
L19.4810 75.3148
" />
<path d="M19.4810 75.3148
L19.3857 75.3624
" />
<path d="M19.3857 75.3624
L19.3381 75.4101
" />
<path d="M19.3381 75.4101
L19.2905 75.5053
" />
<path d="M19.2905 75.5053
L19.2905 75.7434
" />
<path d="M19.2905 75.7434
L19.3381 75.8386
" />
<path d="M19.3381 75.8386
L19.3857 75.8862
" />
<path d="M19.3857 75.8862
L19.4810 75.9339
" />
<path d="M19.4810 75.9339
L19.6714 75.9339
" />
<path d="M19.6714 75.9339
L19.7667 75.8862
" />
<path d="M19.7667 75.8862
L19.8143 75.8386
" />
<path d="M19.8143 75.8386
L19.8619 75.7434
" />
</g><text x="57.2000" y="71.6350"
textLength="4.5357" font-size="1.3333" lengthAdjust="spacingAndGlyphs"
text-anchor="middle" opacity="0" stroke-opacity="0">REF**</text>
<g class="stroked-text"><desc>REF**</desc>
<path d="M55.8667 71.5898
L55.5333 71.1136
" />
<path d="M55.2952 71.5898
L55.2952 70.5898
" />
<path d="M55.2952 70.5898
L55.6762 70.5898
" />
<path d="M55.6762 70.5898
L55.7714 70.6374
" />
<path d="M55.7714 70.6374
L55.8190 70.6851
" />
<path d="M55.8190 70.6851
L55.8667 70.7803
" />
<path d="M55.8667 70.7803
L55.8667 70.9232
" />
<path d="M55.8667 70.9232
L55.8190 71.0184
" />
<path d="M55.8190 71.0184
L55.7714 71.0660
" />
<path d="M55.7714 71.0660
L55.6762 71.1136
" />
<path d="M55.6762 71.1136
L55.2952 71.1136
" />
<path d="M56.2952 71.0660
L56.6286 71.0660
" />
<path d="M56.7714 71.5898
L56.2952 71.5898
" />
<path d="M56.2952 71.5898
L56.2952 70.5898
" />
<path d="M56.2952 70.5898
L56.7714 70.5898
" />
<path d="M57.5333 71.0660
L57.2000 71.0660
" />
<path d="M57.2000 71.5898
L57.2000 70.5898
" />
<path d="M57.2000 70.5898
L57.6762 70.5898
" />
<path d="M58.2000 70.5898
L58.2000 70.8279
" />
<path d="M57.9619 70.7327
L58.2000 70.8279
" />
<path d="M58.2000 70.8279
L58.4381 70.7327
" />
<path d="M58.0571 71.0184
L58.2000 70.8279
" />
<path d="M58.2000 70.8279
L58.3429 71.0184
" />
<path d="M58.9619 70.5898
L58.9619 70.8279
" />
<path d="M58.7238 70.7327
L58.9619 70.8279
" />
<path d="M58.9619 70.8279
L59.2000 70.7327
" />
<path d="M58.8190 71.0184
L58.9619 70.8279
" />
<path d="M58.9619 70.8279
L59.1048 71.0184
" />
</g><text x="57.2000" y="76.3600"
textLength="3.1071" font-size="1.3333" lengthAdjust="spacingAndGlyphs"
text-anchor="middle" opacity="0" stroke-opacity="0">S10</text>
<g class="stroked-text"><desc>S10</desc>
<path d="M55.9619 76.2672
L56.1048 76.3148
" />
<path d="M56.1048 76.3148
L56.3429 76.3148
" />
<path d="M56.3429 76.3148
L56.4381 76.2672
" />
<path d="M56.4381 76.2672
L56.4857 76.2196
" />
<path d="M56.4857 76.2196
L56.5333 76.1243
" />
<path d="M56.5333 76.1243
L56.5333 76.0291
" />
<path d="M56.5333 76.0291
L56.4857 75.9339
" />
<path d="M56.4857 75.9339
L56.4381 75.8862
" />
<path d="M56.4381 75.8862
L56.3429 75.8386
" />
<path d="M56.3429 75.8386
L56.1524 75.7910
" />
<path d="M56.1524 75.7910
L56.0571 75.7434
" />
<path d="M56.0571 75.7434
L56.0095 75.6958
" />
<path d="M56.0095 75.6958
L55.9619 75.6005
" />
<path d="M55.9619 75.6005
L55.9619 75.5053
" />
<path d="M55.9619 75.5053
L56.0095 75.4101
" />
<path d="M56.0095 75.4101
L56.0571 75.3624
" />
<path d="M56.0571 75.3624
L56.1524 75.3148
" />
<path d="M56.1524 75.3148
L56.3905 75.3148
" />
<path d="M56.3905 75.3148
L56.5333 75.3624
" />
<path d="M57.4857 76.3148
L56.9143 76.3148
" />
<path d="M57.2000 76.3148
L57.2000 75.3148
" />
<path d="M57.2000 75.3148
L57.1048 75.4577
" />
<path d="M57.1048 75.4577
L57.0095 75.5529
" />
<path d="M57.0095 75.5529
L56.9143 75.6005
" />
<path d="M58.1048 75.3148
L58.2000 75.3148
" />
<path d="M58.2000 75.3148
L58.2952 75.3624
" />
<path d="M58.2952 75.3624
L58.3429 75.4101
" />
<path d="M58.3429 75.4101
L58.3905 75.5053
" />
<path d="M58.3905 75.5053
L58.4381 75.6958
" />
<path d="M58.4381 75.6958
L58.4381 75.9339
" />
<path d="M58.4381 75.9339
L58.3905 76.1243
" />
<path d="M58.3905 76.1243
L58.3429 76.2196
" />
<path d="M58.3429 76.2196
L58.2952 76.2672
" />
<path d="M58.2952 76.2672
L58.2000 76.3148
" />
<path d="M58.2000 76.3148
L58.1048 76.3148
" />
<path d="M58.1048 76.3148
L58.0095 76.2672
" />
<path d="M58.0095 76.2672
L57.9619 76.2196
" />
<path d="M57.9619 76.2196
L57.9143 76.1243
" />
<path d="M57.9143 76.1243
L57.8667 75.9339
" />
<path d="M57.8667 75.9339
L57.8667 75.6958
" />
<path d="M57.8667 75.6958
L57.9143 75.5053
" />
<path d="M57.9143 75.5053
L57.9619 75.4101
" />
<path d="M57.9619 75.4101
L58.0095 75.3624
" />
<path d="M58.0095 75.3624
L58.1048 75.3148
" />
</g><text x="66.7250" y="38.2600"
textLength="2.1548" font-size="1.3333" lengthAdjust="spacingAndGlyphs"
text-anchor="middle" opacity="0" stroke-opacity="0">S4</text>
<g class="stroked-text"><desc>S4</desc>
<path d="M65.9631 38.1672
L66.1060 38.2148
" />
<path d="M66.1060 38.2148
L66.3440 38.2148
" />
<path d="M66.3440 38.2148
L66.4393 38.1672
" />
<path d="M66.4393 38.1672
L66.4869 38.1196
" />
<path d="M66.4869 38.1196
L66.5345 38.0243
" />
<path d="M66.5345 38.0243
L66.5345 37.9291
" />
<path d="M66.5345 37.9291
L66.4869 37.8339
" />
<path d="M66.4869 37.8339
L66.4393 37.7862
" />
<path d="M66.4393 37.7862
L66.3440 37.7386
" />
<path d="M66.3440 37.7386
L66.1536 37.6910
" />
<path d="M66.1536 37.6910
L66.0583 37.6434
" />
<path d="M66.0583 37.6434
L66.0107 37.5958
" />
<path d="M66.0107 37.5958
L65.9631 37.5005
" />
<path d="M65.9631 37.5005
L65.9631 37.4053
" />
<path d="M65.9631 37.4053
L66.0107 37.3101
" />
<path d="M66.0107 37.3101
L66.0583 37.2624
" />
<path d="M66.0583 37.2624
L66.1536 37.2148
" />
<path d="M66.1536 37.2148
L66.3917 37.2148
" />
<path d="M66.3917 37.2148
L66.5345 37.2624
" />
<path d="M67.3917 37.5482
L67.3917 38.2148
" />
<path d="M67.1536 37.1672
L66.9155 37.8815
" />
<path d="M66.9155 37.8815
L67.5345 37.8815
" />
</g><text x="38.1500" y="52.5850"
textLength="4.5357" font-size="1.3333" lengthAdjust="spacingAndGlyphs"
text-anchor="middle" opacity="0" stroke-opacity="0">REF**</text>
<g class="stroked-text"><desc>REF**</desc>
<path d="M36.8167 52.5398
L36.4833 52.0636
" />
<path d="M36.2452 52.5398
L36.2452 51.5398
" />
<path d="M36.2452 51.5398
L36.6262 51.5398
" />
<path d="M36.6262 51.5398
L36.7214 51.5874
" />
<path d="M36.7214 51.5874
L36.7690 51.6351
" />
<path d="M36.7690 51.6351
L36.8167 51.7303
" />
<path d="M36.8167 51.7303
L36.8167 51.8732
" />
<path d="M36.8167 51.8732
L36.7690 51.9684
" />
<path d="M36.7690 51.9684
L36.7214 52.0160
" />
<path d="M36.7214 52.0160
L36.6262 52.0636
" />
<path d="M36.6262 52.0636
L36.2452 52.0636
" />
<path d="M37.2452 52.0160
L37.5786 52.0160
" />
<path d="M37.7214 52.5398
L37.2452 52.5398
" />
<path d="M37.2452 52.5398
L37.2452 51.5398
" />
<path d="M37.2452 51.5398
L37.7214 51.5398
" />
<path d="M38.4833 52.0160
L38.1500 52.0160
" />
<path d="M38.1500 52.5398
L38.1500 51.5398
" />
<path d="M38.1500 51.5398
L38.6262 51.5398
" />
<path d="M39.1500 51.5398
L39.1500 51.7779
" />
<path d="M38.9119 51.6827
L39.1500 51.7779
" />
<path d="M39.1500 51.7779
L39.3881 51.6827
" />
<path d="M39.0071 51.9684
L39.1500 51.7779
" />
<path d="M39.1500 51.7779
L39.2929 51.9684
" />
<path d="M39.9119 51.5398
L39.9119 51.7779
" />
<path d="M39.6738 51.6827
L39.9119 51.7779
" />
<path d="M39.9119 51.7779
L40.1500 51.6827
" />
<path d="M39.7690 51.9684
L39.9119 51.7779
" />
<path d="M39.9119 51.7779
L40.0548 51.9684
" />
</g><text x="19.1000" y="71.6350"
textLength="4.5357" font-size="1.3333" lengthAdjust="spacingAndGlyphs"
text-anchor="middle" opacity="0" stroke-opacity="0">REF**</text>
<g class="stroked-text"><desc>REF**</desc>
<path d="M17.7667 71.5898
L17.4333 71.1136
" />
<path d="M17.1952 71.5898
L17.1952 70.5898
" />
<path d="M17.1952 70.5898
L17.5762 70.5898
" />
<path d="M17.5762 70.5898
L17.6714 70.6374
" />
<path d="M17.6714 70.6374
L17.7190 70.6851
" />
<path d="M17.7190 70.6851
L17.7667 70.7803
" />
<path d="M17.7667 70.7803
L17.7667 70.9232
" />
<path d="M17.7667 70.9232
L17.7190 71.0184
" />
<path d="M17.7190 71.0184
L17.6714 71.0660
" />
<path d="M17.6714 71.0660
L17.5762 71.1136
" />
<path d="M17.5762 71.1136
L17.1952 71.1136
" />
<path d="M18.1952 71.0660
L18.5286 71.0660
" />
<path d="M18.6714 71.5898
L18.1952 71.5898
" />
<path d="M18.1952 71.5898
L18.1952 70.5898
" />
<path d="M18.1952 70.5898
L18.6714 70.5898
" />
<path d="M19.4333 71.0660
L19.1000 71.0660
" />
<path d="M19.1000 71.5898
L19.1000 70.5898
" />
<path d="M19.1000 70.5898
L19.5762 70.5898
" />
<path d="M20.1000 70.5898
L20.1000 70.8279
" />
<path d="M19.8619 70.7327
L20.1000 70.8279
" />
<path d="M20.1000 70.8279
L20.3381 70.7327
" />
<path d="M19.9571 71.0184
L20.1000 70.8279
" />
<path d="M20.1000 70.8279
L20.2429 71.0184
" />
<path d="M20.8619 70.5898
L20.8619 70.8279
" />
<path d="M20.6238 70.7327
L20.8619 70.8279
" />
<path d="M20.8619 70.8279
L21.1000 70.7327
" />
<path d="M20.7190 71.0184
L20.8619 70.8279
" />
<path d="M20.8619 70.8279
L21.0048 71.0184
" />
</g><text x="19.1000" y="82.3600"
textLength="4.5357" font-size="1.3333" lengthAdjust="spacingAndGlyphs"
text-anchor="middle" opacity="0" stroke-opacity="0">REF**</text>
<g class="stroked-text"><desc>REF**</desc>
<path d="M17.7667 82.3148
L17.4333 81.8386
" />
<path d="M17.1952 82.3148
L17.1952 81.3148
" />
<path d="M17.1952 81.3148
L17.5762 81.3148
" />
<path d="M17.5762 81.3148
L17.6714 81.3624
" />
<path d="M17.6714 81.3624
L17.7190 81.4101
" />
<path d="M17.7190 81.4101
L17.7667 81.5053
" />
<path d="M17.7667 81.5053
L17.7667 81.6482
" />
<path d="M17.7667 81.6482
L17.7190 81.7434
" />
<path d="M17.7190 81.7434
L17.6714 81.7910
" />
<path d="M17.6714 81.7910
L17.5762 81.8386
" />
<path d="M17.5762 81.8386
L17.1952 81.8386
" />
<path d="M18.1952 81.7910
L18.5286 81.7910
" />
<path d="M18.6714 82.3148
L18.1952 82.3148
" />
<path d="M18.1952 82.3148
L18.1952 81.3148
" />
<path d="M18.1952 81.3148
L18.6714 81.3148
" />
<path d="M19.4333 81.7910
L19.1000 81.7910
" />
<path d="M19.1000 82.3148
L19.1000 81.3148
" />
<path d="M19.1000 81.3148
L19.5762 81.3148
" />
<path d="M20.1000 81.3148
L20.1000 81.5529
" />
<path d="M19.8619 81.4577
L20.1000 81.5529
" />
<path d="M20.1000 81.5529
L20.3381 81.4577
" />
<path d="M19.9571 81.7434
L20.1000 81.5529
" />
<path d="M20.1000 81.5529
L20.2429 81.7434
" />
<path d="M20.8619 81.3148
L20.8619 81.5529
" />
<path d="M20.6238 81.4577
L20.8619 81.5529
" />
<path d="M20.8619 81.5529
L21.1000 81.4577
" />
<path d="M20.7190 81.7434
L20.8619 81.5529
" />
<path d="M20.8619 81.5529
L21.0048 81.7434
" />
</g><text x="47.6750" y="57.3100"
textLength="2.1548" font-size="1.3333" lengthAdjust="spacingAndGlyphs"
text-anchor="middle" opacity="0" stroke-opacity="0">S7</text>
<g class="stroked-text"><desc>S7</desc>
<path d="M46.9131 57.2172
L47.0560 57.2648
" />
<path d="M47.0560 57.2648
L47.2940 57.2648
" />
<path d="M47.2940 57.2648
L47.3893 57.2172
" />
<path d="M47.3893 57.2172
L47.4369 57.1696
" />
<path d="M47.4369 57.1696
L47.4845 57.0743
" />
<path d="M47.4845 57.0743
L47.4845 56.9791
" />
<path d="M47.4845 56.9791
L47.4369 56.8839
" />
<path d="M47.4369 56.8839
L47.3893 56.8362
" />
<path d="M47.3893 56.8362
L47.2940 56.7886
" />
<path d="M47.2940 56.7886
L47.1036 56.7410
" />
<path d="M47.1036 56.7410
L47.0083 56.6934
" />
<path d="M47.0083 56.6934
L46.9607 56.6458
" />
<path d="M46.9607 56.6458
L46.9131 56.5505
" />
<path d="M46.9131 56.5505
L46.9131 56.4553
" />
<path d="M46.9131 56.4553
L46.9607 56.3601
" />
<path d="M46.9607 56.3601
L47.0083 56.3124
" />
<path d="M47.0083 56.3124
L47.1036 56.2648
" />
<path d="M47.1036 56.2648
L47.3417 56.2648
" />
<path d="M47.3417 56.2648
L47.4845 56.3124
" />
<path d="M47.8179 56.2648
L48.4845 56.2648
" />
<path d="M48.4845 56.2648
L48.0560 57.2648
" />
</g><text x="57.2500" y="52.5850"
textLength="4.5357" font-size="1.3333" lengthAdjust="spacingAndGlyphs"
text-anchor="middle" opacity="0" stroke-opacity="0">REF**</text>
<g class="stroked-text"><desc>REF**</desc>
<path d="M55.9167 52.5398
L55.5833 52.0636
" />
<path d="M55.3452 52.5398
L55.3452 51.5398
" />
<path d="M55.3452 51.5398
L55.7262 51.5398
" />
<path d="M55.7262 51.5398
L55.8214 51.5874
" />
<path d="M55.8214 51.5874
L55.8690 51.6351
" />
<path d="M55.8690 51.6351
L55.9167 51.7303
" />
<path d="M55.9167 51.7303
L55.9167 51.8732
" />
<path d="M55.9167 51.8732
L55.8690 51.9684
" />
<path d="M55.8690 51.9684
L55.8214 52.0160
" />
<path d="M55.8214 52.0160
L55.7262 52.0636
" />
<path d="M55.7262 52.0636
L55.3452 52.0636
" />
<path d="M56.3452 52.0160
L56.6786 52.0160
" />
<path d="M56.8214 52.5398
L56.3452 52.5398
" />
<path d="M56.3452 52.5398
L56.3452 51.5398
" />
<path d="M56.3452 51.5398
L56.8214 51.5398
" />
<path d="M57.5833 52.0160
L57.2500 52.0160
" />
<path d="M57.2500 52.5398
L57.2500 51.5398
" />
<path d="M57.2500 51.5398
L57.7262 51.5398
" />
<path d="M58.2500 51.5398
L58.2500 51.7779
" />
<path d="M58.0119 51.6827
L58.2500 51.7779
" />
<path d="M58.2500 51.7779
L58.4881 51.6827
" />
<path d="M58.1071 51.9684
L58.2500 51.7779
" />
<path d="M58.2500 51.7779
L58.3929 51.9684
" />
<path d="M59.0119 51.5398
L59.0119 51.7779
" />
<path d="M58.7738 51.6827
L59.0119 51.7779
" />
<path d="M59.0119 51.7779
L59.2500 51.6827
" />
<path d="M58.8690 51.9684
L59.0119 51.7779
" />
<path d="M59.0119 51.7779
L59.1548 51.9684
" />
</g><text x="9.5750" y="57.3100"
textLength="2.1548" font-size="1.3333" lengthAdjust="spacingAndGlyphs"
text-anchor="middle" opacity="0" stroke-opacity="0">S5</text>
<g class="stroked-text"><desc>S5</desc>
<path d="M8.8131 57.2172
L8.9560 57.2648
" />
<path d="M8.9560 57.2648
L9.1940 57.2648
" />
<path d="M9.1940 57.2648
L9.2893 57.2172
" />
<path d="M9.2893 57.2172
L9.3369 57.1696
" />
<path d="M9.3369 57.1696
L9.3845 57.0743
" />
<path d="M9.3845 57.0743
L9.3845 56.9791
" />
<path d="M9.3845 56.9791
L9.3369 56.8839
" />
<path d="M9.3369 56.8839
L9.2893 56.8362
" />
<path d="M9.2893 56.8362
L9.1940 56.7886
" />
<path d="M9.1940 56.7886
L9.0036 56.7410
" />
<path d="M9.0036 56.7410
L8.9083 56.6934
" />
<path d="M8.9083 56.6934
L8.8607 56.6458
" />
<path d="M8.8607 56.6458
L8.8131 56.5505
" />
<path d="M8.8131 56.5505
L8.8131 56.4553
" />
<path d="M8.8131 56.4553
L8.8607 56.3601
" />
<path d="M8.8607 56.3601
L8.9083 56.3124
" />
<path d="M8.9083 56.3124
L9.0036 56.2648
" />
<path d="M9.0036 56.2648
L9.2417 56.2648
" />
<path d="M9.2417 56.2648
L9.3845 56.3124
" />
<path d="M10.2893 56.2648
L9.8131 56.2648
" />
<path d="M9.8131 56.2648
L9.7655 56.7410
" />
<path d="M9.7655 56.7410
L9.8131 56.6934
" />
<path d="M9.8131 56.6934
L9.9083 56.6458
" />
<path d="M9.9083 56.6458
L10.1464 56.6458
" />
<path d="M10.1464 56.6458
L10.2417 56.6934
" />
<path d="M10.2417 56.6934
L10.2893 56.7410
" />
<path d="M10.2893 56.7410
L10.3369 56.8362
" />
<path d="M10.3369 56.8362
L10.3369 57.0743
" />
<path d="M10.3369 57.0743
L10.2893 57.1696
" />
<path d="M10.2893 57.1696
L10.2417 57.2172
" />
<path d="M10.2417 57.2172
L10.1464 57.2648
" />
<path d="M10.1464 57.2648
L9.9083 57.2648
" />
<path d="M9.9083 57.2648
L9.8131 57.2172
" />
<path d="M9.8131 57.2172
L9.7655 57.1696
" />
</g><text x="57.2000" y="82.3600"
textLength="4.5357" font-size="1.3333" lengthAdjust="spacingAndGlyphs"
text-anchor="middle" opacity="0" stroke-opacity="0">REF**</text>
<g class="stroked-text"><desc>REF**</desc>
<path d="M55.8667 82.3148
L55.5333 81.8386
" />
<path d="M55.2952 82.3148
L55.2952 81.3148
" />
<path d="M55.2952 81.3148
L55.6762 81.3148
" />
<path d="M55.6762 81.3148
L55.7714 81.3624
" />
<path d="M55.7714 81.3624
L55.8190 81.4101
" />
<path d="M55.8190 81.4101
L55.8667 81.5053
" />
<path d="M55.8667 81.5053
L55.8667 81.6482
" />
<path d="M55.8667 81.6482
L55.8190 81.7434
" />
<path d="M55.8190 81.7434
L55.7714 81.7910
" />
<path d="M55.7714 81.7910
L55.6762 81.8386
" />
<path d="M55.6762 81.8386
L55.2952 81.8386
" />
<path d="M56.2952 81.7910
L56.6286 81.7910
" />
<path d="M56.7714 82.3148
L56.2952 82.3148
" />
<path d="M56.2952 82.3148
L56.2952 81.3148
" />
<path d="M56.2952 81.3148
L56.7714 81.3148
" />
<path d="M57.5333 81.7910
L57.2000 81.7910
" />
<path d="M57.2000 82.3148
L57.2000 81.3148
" />
<path d="M57.2000 81.3148
L57.6762 81.3148
" />
<path d="M58.2000 81.3148
L58.2000 81.5529
" />
<path d="M57.9619 81.4577
L58.2000 81.5529
" />
<path d="M58.2000 81.5529
L58.4381 81.4577
" />
<path d="M58.0571 81.7434
L58.2000 81.5529
" />
<path d="M58.2000 81.5529
L58.3429 81.7434
" />
<path d="M58.9619 81.3148
L58.9619 81.5529
" />
<path d="M58.7238 81.4577
L58.9619 81.5529
" />
<path d="M58.9619 81.5529
L59.2000 81.4577
" />
<path d="M58.8190 81.7434
L58.9619 81.5529
" />
<path d="M58.9619 81.5529
L59.1048 81.7434
" />
</g><text x="9.5750" y="38.2600"
textLength="2.1548" font-size="1.3333" lengthAdjust="spacingAndGlyphs"
text-anchor="middle" opacity="0" stroke-opacity="0">S1</text>
<g class="stroked-text"><desc>S1</desc>
<path d="M8.8131 38.1672
L8.9560 38.2148
" />
<path d="M8.9560 38.2148
L9.1940 38.2148
" />
<path d="M9.1940 38.2148
L9.2893 38.1672
" />
<path d="M9.2893 38.1672
L9.3369 38.1196
" />
<path d="M9.3369 38.1196
L9.3845 38.0243
" />
<path d="M9.3845 38.0243
L9.3845 37.9291
" />
<path d="M9.3845 37.9291
L9.3369 37.8339
" />
<path d="M9.3369 37.8339
L9.2893 37.7862
" />
<path d="M9.2893 37.7862
L9.1940 37.7386
" />
<path d="M9.1940 37.7386
L9.0036 37.6910
" />
<path d="M9.0036 37.6910
L8.9083 37.6434
" />
<path d="M8.9083 37.6434
L8.8607 37.5958
" />
<path d="M8.8607 37.5958
L8.8131 37.5005
" />
<path d="M8.8131 37.5005
L8.8131 37.4053
" />
<path d="M8.8131 37.4053
L8.8607 37.3101
" />
<path d="M8.8607 37.3101
L8.9083 37.2624
" />
<path d="M8.9083 37.2624
L9.0036 37.2148
" />
<path d="M9.0036 37.2148
L9.2417 37.2148
" />
<path d="M9.2417 37.2148
L9.3845 37.2624
" />
<path d="M10.3369 38.2148
L9.7655 38.2148
" />
<path d="M10.0512 38.2148
L10.0512 37.2148
" />
<path d="M10.0512 37.2148
L9.9560 37.3577
" />
<path d="M9.9560 37.3577
L9.8607 37.4529
" />
<path d="M9.8607 37.4529
L9.7655 37.5005
" />
</g><text x="28.6250" y="38.2600"
textLength="2.1548" font-size="1.3333" lengthAdjust="spacingAndGlyphs"
text-anchor="middle" opacity="0" stroke-opacity="0">S2</text>
<g class="stroked-text"><desc>S2</desc>
<path d="M27.8631 38.1672
L28.0060 38.2148
" />
<path d="M28.0060 38.2148
L28.2440 38.2148
" />
<path d="M28.2440 38.2148
L28.3393 38.1672
" />
<path d="M28.3393 38.1672
L28.3869 38.1196
" />
<path d="M28.3869 38.1196
L28.4345 38.0243
" />
<path d="M28.4345 38.0243
L28.4345 37.9291
" />
<path d="M28.4345 37.9291
L28.3869 37.8339
" />
<path d="M28.3869 37.8339
L28.3393 37.7862
" />
<path d="M28.3393 37.7862
L28.2440 37.7386
" />
<path d="M28.2440 37.7386
L28.0536 37.6910
" />
<path d="M28.0536 37.6910
L27.9583 37.6434
" />
<path d="M27.9583 37.6434
L27.9107 37.5958
" />
<path d="M27.9107 37.5958
L27.8631 37.5005
" />
<path d="M27.8631 37.5005
L27.8631 37.4053
" />
<path d="M27.8631 37.4053
L27.9107 37.3101
" />
<path d="M27.9107 37.3101
L27.9583 37.2624
" />
<path d="M27.9583 37.2624
L28.0536 37.2148
" />
<path d="M28.0536 37.2148
L28.2917 37.2148
" />
<path d="M28.2917 37.2148
L28.4345 37.2624
" />
<path d="M28.8155 37.3101
L28.8631 37.2624
" />
<path d="M28.8631 37.2624
L28.9583 37.2148
" />
<path d="M28.9583 37.2148
L29.1964 37.2148
" />
<path d="M29.1964 37.2148
L29.2917 37.2624
" />
<path d="M29.2917 37.2624
L29.3393 37.3101
" />
<path d="M29.3393 37.3101
L29.3869 37.4053
" />
<path d="M29.3869 37.4053
L29.3869 37.5005
" />
<path d="M29.3869 37.5005
L29.3393 37.6434
" />
<path d="M29.3393 37.6434
L28.7679 38.2148
" />
<path d="M28.7679 38.2148
L29.3869 38.2148
" />
</g></g>
<g style="fill:none; 
stroke:#F2EDA1; stroke-width:0.1200; stroke-opacity:1; 
stroke-linecap:round; stroke-linejoin:round;">
<path d="M59.6250 57.7100
L59.6250 71.9100
" />
<path d="M59.6250 71.9100
L73.8250 71.9100
" />
<path d="M73.8250 57.7100
L59.6250 57.7100
" />
<path d="M73.8250 71.9100
L73.8250 57.7100
" />
<path d="M21.5250 57.7100
L21.5250 71.9100
" />
<path d="M21.5250 71.9100
L35.7250 71.9100
" />
<path d="M35.7250 57.7100
L21.5250 57.7100
" />
<path d="M35.7250 71.9100
L35.7250 57.7100
" />
<path d="M40.5750 38.6600
L40.5750 52.8600
" />
<path d="M40.5750 52.8600
L54.7750 52.8600
" />
<path d="M54.7750 38.6600
L40.5750 38.6600
" />
<path d="M54.7750 52.8600
L54.7750 38.6600
" />
<path d="M12.0000 76.7600
L12.0000 90.9600
" />
<path d="M12.0000 90.9600
L26.2000 90.9600
" />
<path d="M26.2000 76.7600
L12.0000 76.7600
" />
<path d="M26.2000 90.9600
L26.2000 76.7600
" />
<path d="M50.1000 76.7600
L50.1000 90.9600
" />
<path d="M50.1000 90.9600
L64.3000 90.9600
" />
<path d="M64.3000 76.7600
L50.1000 76.7600
" />
<path d="M64.3000 90.9600
L64.3000 76.7600
" />
<path d="M59.6250 38.6600
L59.6250 52.8600
" />
<path d="M59.6250 52.8600
L73.8250 52.8600
" />
<path d="M73.8250 38.6600
L59.6250 38.6600
" />
<path d="M73.8250 52.8600
L73.8250 38.6600
" />
<path d="M40.5750 57.7100
L40.5750 71.9100
" />
<path d="M40.5750 71.9100
L54.7750 71.9100
" />
<path d="M54.7750 57.7100
L40.5750 57.7100
" />
<path d="M54.7750 71.9100
L54.7750 57.7100
" />
<path d="M2.4750 57.7100
L2.4750 71.9100
" />
<path d="M2.4750 71.9100
L16.6750 71.9100
" />
<path d="M16.6750 57.7100
L2.4750 57.7100
" />
<path d="M16.6750 71.9100
L16.6750 57.7100
" />
<path d="M2.4750 38.6600
L2.4750 52.8600
" />
<path d="M2.4750 52.8600
L16.6750 52.8600
" />
<path d="M16.6750 38.6600
L2.4750 38.6600
" />
<path d="M16.6750 52.8600
L16.6750 38.6600
" />
<path d="M21.5250 38.6600
L21.5250 52.8600
" />
<path d="M21.5250 52.8600
L35.7250 52.8600
" />
<path d="M35.7250 38.6600
L21.5250 38.6600
" />
<path d="M35.7250 52.8600
L35.7250 38.6600
" />
<path style="fill:none; 
stroke:#D0D2CD; stroke-width:0.0500; stroke-opacity:1; 
stroke-linecap:round; stroke-linejoin:round;fill:none"
d="M 0.0500,1.3848
76.2502,1.3848
76.2502,95.3848
0.0500,95.3848
Z" /> 
</g>
<g style="fill:none; 
stroke:#C2C2C2; stroke-width:0.1000; stroke-opacity:1; 
stroke-linecap:round; stroke-linejoin:round;">
<path d="M57.2000 55.2850
L57.2000 74.3350
" />
<path d="M57.2000 74.3350
L76.2500 74.3350
" />
<path d="M76.2500 55.2850
L57.2000 55.2850
" />
<path d="M76.2500 74.3350
L76.2500 55.2850
" />
<path d="M19.1000 55.2850
L19.1000 74.3350
" />
<path d="M19.1000 74.3350
L38.1500 74.3350
" />
<path d="M38.1500 55.2850
L19.1000 55.2850
" />
<path d="M38.1500 74.3350
L38.1500 55.2850
" />
<path d="M38.1500 36.2350
L38.1500 55.2850
" />
<path d="M38.1500 55.2850
L57.2000 55.2850
" />
<path d="M57.2000 36.2350
L38.1500 36.2350
" />
<path d="M57.2000 55.2850
L57.2000 36.2350
" />
<path d="M0.0500 74.3350
L0.0500 93.3850
" />
<path d="M0.0500 93.3850
L38.1500 93.3850
" />
<path d="M38.1500 74.3350
L0.0500 74.3350
" />
<path d="M38.1500 93.3850
L38.1500 74.3350
" />
<path d="M4.8250 9.4100
L4.8250 28.4600
" />
<path d="M4.8250 28.4600
L23.8750 28.4600
" />
<path d="M23.8750 9.4100
L4.8250 9.4100
" />
<path d="M23.8750 28.4600
L23.8750 9.4100
" />
<path d="M38.1500 74.3350
L38.1500 93.3850
" />
<path d="M38.1500 93.3850
L76.2500 93.3850
" />
<path d="M76.2500 74.3350
L38.1500 74.3350
" />
<path d="M76.2500 93.3850
L76.2500 74.3350
" />
<path d="M57.2000 36.2350
L57.2000 55.2850
" />
<path d="M57.2000 55.2850
L76.2500 55.2850
" />
<path d="M76.2500 36.2350
L57.2000 36.2350
" />
<path d="M76.2500 55.2850
L76.2500 36.2350
" />
<path style="fill:none; 
stroke:#C2C2C2; stroke-width:0.1200; stroke-opacity:1; 
stroke-linecap:round; stroke-linejoin:round;fill:none"
d="M 29.2600,1.4600
47.0400,1.4600
47.0400,22.4600
29.2600,22.4600
Z" /> 
<path style="fill:none; 
stroke:#C2C2C2; stroke-width:0.1200; stroke-opacity:1; 
stroke-linecap:round; stroke-linejoin:round;fill:none"
d="M 33.6500,0.0600
42.6500,0.0600
42.6500,7.3900
33.6500,7.3900
Z" /> 
</g>
<g style="fill:none; 
stroke:#C2C2C2; stroke-width:0.1000; stroke-opacity:1; 
stroke-linecap:round; stroke-linejoin:round;">
<path d="M17.1000 83.8600
L21.1000 83.8600
" />
<path d="M19.1000 85.8600
L19.1000 81.8600
" />
<path d="M38.1500 55.2850
L38.1500 74.3350
" />
<path d="M38.1500 74.3350
L57.2000 74.3350
" />
<path d="M57.2000 55.2850
L38.1500 55.2850
" />
<path d="M57.2000 74.3350
L57.2000 55.2850
" />
<path d="M0.0500 55.2850
L0.0500 74.3350
" />
<path d="M0.0500 74.3350
L19.1000 74.3350
" />
<path d="M19.1000 55.2850
L0.0500 55.2850
" />
<path d="M19.1000 74.3350
L19.1000 55.2850
" />
<path d="M55.2000 83.8600
L59.2000 83.8600
" />
<path d="M57.2000 85.8600
L57.2000 81.8600
" />
<path d="M0.0500 36.2350
L0.0500 55.2850
" />
<path d="M0.0500 55.2850
L19.1000 55.2850
" />
<path d="M19.1000 36.2350
L0.0500 36.2350
" />
<path d="M19.1000 55.2850
L19.1000 36.2350
" />
<path d="M19.1000 36.2350
L19.1000 55.2850
" />
<path d="M19.1000 55.2850
L38.1500 55.2850
" />
<path d="M38.1500 36.2350
L19.1000 36.2350
" />
<path d="M38.1500 55.2850
L38.1500 36.2350
" />
</g>
<g style="fill:#FFFFFF; fill-opacity:1.0000; stroke:none;">
<circle cx="51.7750" cy="20.2600" r="0.1500" /> 
</g>
<g style="fill:#FFFFFF; fill-opacity:1.0000; stroke:none;">
<circle cx="64.0750" cy="52.0600" r="0.1500" /> 
</g>
<g style="fill:#FFFFFF; fill-opacity:1.0000; stroke:none;">
<circle cx="56.4750" cy="51.0600" r="0.1500" /> 
</g>
<g style="fill:#FFFFFF; fill-opacity:1.0000; stroke:none;">
<circle cx="38.4750" cy="20.7600" r="0.1500" /> 
</g>
<g style="fill:#FFFFFF; fill-opacity:1.0000; stroke:none;">
<circle cx="61.6450" cy="64.8100" r="0.8750" /> 
</g>
<g style="fill:#FFFFFF; fill-opacity:1.0000; stroke:none;">
<circle cx="62.9150" cy="62.2700" r="1.5250" /> 
</g>
<g style="fill:#FFFFFF; fill-opacity:1.0000; stroke:none;">
<circle cx="66.7250" cy="64.8100" r="2.0000" /> 
</g>
<g style="fill:#FFFFFF; fill-opacity:1.0000; stroke:none;">
<circle cx="69.2650" cy="59.7300" r="1.5250" /> 
</g>
<g style="fill:#FFFFFF; fill-opacity:1.0000; stroke:none;">
<circle cx="71.8050" cy="64.8100" r="0.8750" /> 
</g>
<g style="fill:#FFFFFF; fill-opacity:1.0000; stroke:none;">
<circle cx="23.5450" cy="64.8100" r="0.8750" /> 
</g>
<g style="fill:#FFFFFF; fill-opacity:1.0000; stroke:none;">
<circle cx="24.8150" cy="62.2700" r="1.5250" /> 
</g>
<g style="fill:#FFFFFF; fill-opacity:1.0000; stroke:none;">
<circle cx="28.6250" cy="64.8100" r="2.0000" /> 
</g>
<g style="fill:#FFFFFF; fill-opacity:1.0000; stroke:none;">
<circle cx="31.1650" cy="59.7300" r="1.5250" /> 
</g>
<g style="fill:#FFFFFF; fill-opacity:1.0000; stroke:none;">
<circle cx="33.7050" cy="64.8100" r="0.8750" /> 
</g>
<g style="fill:#FFFFFF; fill-opacity:1.0000; stroke:none;">
<circle cx="42.5950" cy="45.7600" r="0.8750" /> 
</g>
<g style="fill:#FFFFFF; fill-opacity:1.0000; stroke:none;">
<circle cx="43.8650" cy="43.2200" r="1.5250" /> 
</g>
<g style="fill:#FFFFFF; fill-opacity:1.0000; stroke:none;">
<circle cx="47.6750" cy="45.7600" r="2.0000" /> 
</g>
<g style="fill:#FFFFFF; fill-opacity:1.0000; stroke:none;">
<circle cx="50.2150" cy="40.6800" r="1.5250" /> 
</g>
<g style="fill:#FFFFFF; fill-opacity:1.0000; stroke:none;">
<circle cx="52.7550" cy="45.7600" r="0.8750" /> 
</g>
<g style="fill:#FFFFFF; fill-opacity:1.0000; stroke:none;">
<circle cx="19.1000" cy="55.2850" r="1.1000" /> 
</g>
<g style="fill:#FFFFFF; fill-opacity:1.0000; stroke:none;">
<circle cx="14.0200" cy="83.8600" r="0.8750" /> 
</g>
<g style="fill:#FFFFFF; fill-opacity:1.0000; stroke:none;">
<circle cx="15.2900" cy="81.3200" r="1.5250" /> 
</g>
<g style="fill:#FFFFFF; fill-opacity:1.0000; stroke:none;">
<circle cx="19.1000" cy="83.8600" r="2.0000" /> 
</g>
<g style="fill:#FFFFFF; fill-opacity:1.0000; stroke:none;">
<circle cx="21.6400" cy="78.7800" r="1.5250" /> 
</g>
<g style="fill:#FFFFFF; fill-opacity:1.0000; stroke:none;">
<circle cx="24.1800" cy="83.8600" r="0.8750" /> 
</g>
<g style="fill:#FFFFFF; fill-opacity:1.0000; stroke:none;">
<circle cx="57.2000" cy="74.3350" r="1.1000" /> 
</g>
<g style="fill:#FFFFFF; fill-opacity:1.0000; stroke:none;">
<circle cx="6.8500" cy="16.4350" r="0.5000" /> 
</g>
<g style="fill:#FFFFFF; fill-opacity:1.0000; stroke:none;">
<circle cx="6.8500" cy="21.4350" r="0.5000" /> 
</g>
<g style="fill:#FFFFFF; fill-opacity:1.0000; stroke:none;">
<circle cx="6.8500" cy="18.9350" r="0.5000" /> 
</g>
<g style="fill:none; 
stroke:#FFFFFF; stroke-width:1.5000; stroke-opacity:1; 
stroke-linecap:round; stroke-linejoin:round;">
<path d="M13.7000 13.3350
L15.0000 13.3350
" />
<path d="M13.7000 24.5350
L15.0000 24.5350
" />
</g>
<g style="fill:#FFFFFF; fill-opacity:1.0000; stroke:none;">
<circle cx="21.3500" cy="21.4350" r="0.5000" /> 
</g>
<g style="fill:#FFFFFF; fill-opacity:1.0000; stroke:none;">
<circle cx="21.3500" cy="16.4350" r="0.5000" /> 
</g>
<g style="fill:#FFFFFF; fill-opacity:1.0000; stroke:none;">
<circle cx="52.1200" cy="83.8600" r="0.8750" /> 
</g>
<g style="fill:#FFFFFF; fill-opacity:1.0000; stroke:none;">
<circle cx="53.3900" cy="81.3200" r="1.5250" /> 
</g>
<g style="fill:#FFFFFF; fill-opacity:1.0000; stroke:none;">
<circle cx="57.2000" cy="83.8600" r="2.0000" /> 
</g>
<g style="fill:#FFFFFF; fill-opacity:1.0000; stroke:none;">
<circle cx="59.7400" cy="78.7800" r="1.5250" /> 
</g>
<g style="fill:#FFFFFF; fill-opacity:1.0000; stroke:none;">
<circle cx="62.2800" cy="83.8600" r="0.8750" /> 
</g>
<g style="fill:#FFFFFF; fill-opacity:1.0000; stroke:none;">
<circle cx="61.6450" cy="45.7600" r="0.8750" /> 
</g>
<g style="fill:#FFFFFF; fill-opacity:1.0000; stroke:none;">
<circle cx="62.9150" cy="43.2200" r="1.5250" /> 
</g>
<g style="fill:#FFFFFF; fill-opacity:1.0000; stroke:none;">
<circle cx="66.7250" cy="45.7600" r="2.0000" /> 
</g>
<g style="fill:#FFFFFF; fill-opacity:1.0000; stroke:none;">
<circle cx="69.2650" cy="40.6800" r="1.5250" /> 
</g>
<g style="fill:#FFFFFF; fill-opacity:1.0000; stroke:none;">
<circle cx="71.8050" cy="45.7600" r="0.8750" /> 
</g>
<g style="fill:#FFFFFF; fill-opacity:1.0000; stroke:none;">
<circle cx="38.1500" cy="55.2850" r="1.1000" /> 
</g>
<g style="fill:#FFFFFF; fill-opacity:1.0000; stroke:none;">
<circle cx="19.1000" cy="74.3350" r="1.1000" /> 
</g>
<g style="fill:#FFFFFF; fill-opacity:1.0000; stroke:none;">
<circle cx="30.5300" cy="4.3400" r="0.5000" /> 
</g>
<g style="fill:#FFFFFF; fill-opacity:1.0000; stroke:none;">
<circle cx="30.5300" cy="6.8800" r="0.5000" /> 
</g>
<g style="fill:#FFFFFF; fill-opacity:1.0000; stroke:none;">
<circle cx="30.5300" cy="9.4200" r="0.5000" /> 
</g>
<g style="fill:#FFFFFF; fill-opacity:1.0000; stroke:none;">
<circle cx="30.5300" cy="11.9600" r="0.5000" /> 
</g>
<g style="fill:#FFFFFF; fill-opacity:1.0000; stroke:none;">
<circle cx="30.5300" cy="14.5000" r="0.5000" /> 
</g>
<g style="fill:#FFFFFF; fill-opacity:1.0000; stroke:none;">
<circle cx="30.5300" cy="17.0400" r="0.5000" /> 
</g>
<g style="fill:#FFFFFF; fill-opacity:1.0000; stroke:none;">
<circle cx="30.5300" cy="19.5800" r="0.5000" /> 
</g>
<g style="fill:#FFFFFF; fill-opacity:1.0000; stroke:none;">
<circle cx="45.7700" cy="19.5800" r="0.5000" /> 
</g>
<g style="fill:#FFFFFF; fill-opacity:1.0000; stroke:none;">
<circle cx="45.7700" cy="17.0400" r="0.5000" /> 
</g>
<g style="fill:#FFFFFF; fill-opacity:1.0000; stroke:none;">
<circle cx="45.7700" cy="14.5000" r="0.5000" /> 
</g>
<g style="fill:#FFFFFF; fill-opacity:1.0000; stroke:none;">
<circle cx="45.7700" cy="11.9600" r="0.5000" /> 
</g>
<g style="fill:#FFFFFF; fill-opacity:1.0000; stroke:none;">
<circle cx="45.7700" cy="9.4200" r="0.5000" /> 
</g>
<g style="fill:#FFFFFF; fill-opacity:1.0000; stroke:none;">
<circle cx="45.7700" cy="6.8800" r="0.5000" /> 
</g>
<g style="fill:#FFFFFF; fill-opacity:1.0000; stroke:none;">
<circle cx="45.7700" cy="4.3400" r="0.5000" /> 
</g>
<g style="fill:#FFFFFF; fill-opacity:1.0000; stroke:none;">
<circle cx="7.1620" cy="76.8750" r="1.5240" /> 
</g>
<g style="fill:#FFFFFF; fill-opacity:1.0000; stroke:none;">
<circle cx="7.1620" cy="92.0850" r="1.9939" /> 
</g>
<g style="fill:#FFFFFF; fill-opacity:1.0000; stroke:none;">
<circle cx="31.0380" cy="76.8750" r="1.5240" /> 
</g>
<g style="fill:#FFFFFF; fill-opacity:1.0000; stroke:none;">
<circle cx="31.0380" cy="92.0850" r="1.9939" /> 
</g>
<g style="fill:#FFFFFF; fill-opacity:1.0000; stroke:none;">
<circle cx="42.5950" cy="64.8100" r="0.8750" /> 
</g>
<g style="fill:#FFFFFF; fill-opacity:1.0000; stroke:none;">
<circle cx="43.8650" cy="62.2700" r="1.5250" /> 
</g>
<g style="fill:#FFFFFF; fill-opacity:1.0000; stroke:none;">
<circle cx="47.6750" cy="64.8100" r="2.0000" /> 
</g>
<g style="fill:#FFFFFF; fill-opacity:1.0000; stroke:none;">
<circle cx="50.2150" cy="59.7300" r="1.5250" /> 
</g>
<g style="fill:#FFFFFF; fill-opacity:1.0000; stroke:none;">
<circle cx="52.7550" cy="64.8100" r="0.8750" /> 
</g>
<g style="fill:#FFFFFF; fill-opacity:1.0000; stroke:none;">
<circle cx="57.2500" cy="55.2850" r="1.1000" /> 
</g>
<g style="fill:#FFFFFF; fill-opacity:1.0000; stroke:none;">
<circle cx="4.4950" cy="64.8100" r="0.8750" /> 
</g>
<g style="fill:#FFFFFF; fill-opacity:1.0000; stroke:none;">
<circle cx="5.7650" cy="62.2700" r="1.5250" /> 
</g>
<g style="fill:#FFFFFF; fill-opacity:1.0000; stroke:none;">
<circle cx="9.5750" cy="64.8100" r="2.0000" /> 
</g>
<g style="fill:#FFFFFF; fill-opacity:1.0000; stroke:none;">
<circle cx="12.1150" cy="59.7300" r="1.5250" /> 
</g>
<g style="fill:#FFFFFF; fill-opacity:1.0000; stroke:none;">
<circle cx="14.6550" cy="64.8100" r="0.8750" /> 
</g>
<g style="fill:#FFFFFF; fill-opacity:1.0000; stroke:none;">
<circle cx="45.2620" cy="76.8750" r="1.5240" /> 
</g>
<g style="fill:#FFFFFF; fill-opacity:1.0000; stroke:none;">
<circle cx="45.2620" cy="92.0850" r="1.9939" /> 
</g>
<g style="fill:#FFFFFF; fill-opacity:1.0000; stroke:none;">
<circle cx="69.1380" cy="76.8750" r="1.5240" /> 
</g>
<g style="fill:#FFFFFF; fill-opacity:1.0000; stroke:none;">
<circle cx="69.1380" cy="92.0850" r="1.9939" /> 
</g>
<g style="fill:#FFFFFF; fill-opacity:1.0000; stroke:none;">
<circle cx="4.4950" cy="45.7600" r="0.8750" /> 
</g>
<g style="fill:#FFFFFF; fill-opacity:1.0000; stroke:none;">
<circle cx="5.7650" cy="43.2200" r="1.5250" /> 
</g>
<g style="fill:#FFFFFF; fill-opacity:1.0000; stroke:none;">
<circle cx="9.5750" cy="45.7600" r="2.0000" /> 
</g>
<g style="fill:#FFFFFF; fill-opacity:1.0000; stroke:none;">
<circle cx="12.1150" cy="40.6800" r="1.5250" /> 
</g>
<g style="fill:#FFFFFF; fill-opacity:1.0000; stroke:none;">
<circle cx="14.6550" cy="45.7600" r="0.8750" /> 
</g>
<g style="fill:#FFFFFF; fill-opacity:1.0000; stroke:none;">
<circle cx="23.5450" cy="45.7600" r="0.8750" /> 
</g>
<g style="fill:#FFFFFF; fill-opacity:1.0000; stroke:none;">
<circle cx="24.8150" cy="43.2200" r="1.5250" /> 
</g>
<g style="fill:#FFFFFF; fill-opacity:1.0000; stroke:none;">
<circle cx="28.6250" cy="45.7600" r="2.0000" /> 
</g>
<g style="fill:#FFFFFF; fill-opacity:1.0000; stroke:none;">
<circle cx="31.1650" cy="40.6800" r="1.5250" /> 
</g>
<g style="fill:#FFFFFF; fill-opacity:1.0000; stroke:none;">
<circle cx="33.7050" cy="45.7600" r="0.8750" /> 
</g> 
</svg>
