<?xml version="1.0" standalone="no"?>
 <!DOCTYPE svg PUBLIC "-//W3C//DTD SVG 1.1//EN" 
 "http://www.w3.org/Graphics/SVG/1.1/DTD/svg11.dtd"> 
<svg
  xmlns:svg="http://www.w3.org/2000/svg"
  xmlns="http://www.w3.org/2000/svg"
  xmlns:xlink="http://www.w3.org/1999/xlink"
  version="1.1"
  width="76.2762mm" height="96.3676mm" viewBox="0.0000 0.0000 76.2762 96.3676">
<title>SVG Image created as hxkeysair-pcb.svg date 2026/07/10 18:38:27 </title>
  <desc>Image generated by PCBNEW </desc>
<g style="fill:#8E8E93; fill-opacity:1.0000;stroke:#8E8E93; stroke-opacity:1.0000;
stroke-linecap:round; stroke-linejoin:round;"
 transform="translate(0 0) scale(1 1)">
<path style="fill:#C83434; fill-opacity:1.0000; stroke:none;fill-rule:evenodd;"
d="M 5.8500,17.4350
5.8500,15.4350
7.8500,15.4350
7.8500,17.4350
Z" /> 
</g>
<g style="fill:#C83434; fill-opacity:1.0000; stroke:none;">
<circle cx="6.8500" cy="21.4350" r="1.0000" /> 
</g>
<g style="fill:#C83434; fill-opacity:1.0000; stroke:none;">
<circle cx="6.8500" cy="18.9350" r="1.0000" /> 
<path style="fill:#C83434; fill-opacity:1.0000; stroke:none;fill-rule:evenodd;"
d="M 12.7500,14.3350
12.7500,12.3350
15.9500,12.3350
15.9500,14.3350
Z" /> 
<path style="fill:#C83434; fill-opacity:1.0000; stroke:none;fill-rule:evenodd;"
d="M 12.7500,25.5350
12.7500,23.5350
15.9500,23.5350
15.9500,25.5350
Z" /> 
</g>
<g style="fill:#C83434; fill-opacity:1.0000; stroke:none;">
<circle cx="21.3500" cy="21.4350" r="1.0000" /> 
</g>
<g style="fill:#C83434; fill-opacity:1.0000; stroke:none;">
<circle cx="21.3500" cy="16.4350" r="1.0000" /> 
<path style="fill:#C83434; fill-opacity:1.0000; stroke:none;fill-rule:evenodd;"
d="M 28.7100,3.8400
28.7214,3.7337
28.7712,3.6004
28.8564,3.4864
28.9704,3.4012
29.1037,3.3514
29.2100,3.3400
30.9600,3.3400
31.0663,3.3514
31.1996,3.4012
31.3136,3.4864
31.3988,3.6004
31.4486,3.7337
31.4600,3.8400
31.4600,4.8400
31.4486,4.9463
31.3988,5.0796
31.3136,5.1936
31.1996,5.2788
31.0663,5.3286
30.9600,5.3400
29.2100,5.3400
29.1037,5.3286
28.9704,5.2788
28.8564,5.1936
28.7712,5.0796
28.7214,4.9463
28.7100,4.8400
Z" /> 
<path style="fill:#C83434; fill-opacity:1.0000; stroke:none;fill-rule:evenodd;"
d="M 31.3300,5.1400
29.7300,5.1400
29.7300,3.5400
31.3300,3.5400
Z" /> 
<path style="fill:#C83434; fill-opacity:1.0000; stroke:none;fill-rule:evenodd;"
d="M 28.7100,6.3800
28.7214,6.2737
28.7712,6.1404
28.8564,6.0264
28.9704,5.9412
29.1037,5.8914
29.2100,5.8800
30.9600,5.8800
31.0663,5.8914
31.1996,5.9412
31.3136,6.0264
31.3988,6.1404
31.4486,6.2737
31.4600,6.3800
31.4600,7.3800
31.4486,7.4863
31.3988,7.6196
31.3136,7.7336
31.1996,7.8188
31.0663,7.8686
30.9600,7.8800
29.2100,7.8800
29.1037,7.8686
28.9704,7.8188
28.8564,7.7336
28.7712,7.6196
28.7214,7.4863
28.7100,7.3800
Z" /> 
</g>
<g style="fill:#C83434; fill-opacity:1.0000; stroke:none;">
<circle cx="30.5300" cy="6.8800" r="0.8000" /> 
<path style="fill:#C83434; fill-opacity:1.0000; stroke:none;fill-rule:evenodd;"
d="M 28.7100,8.9200
28.7214,8.8137
28.7712,8.6804
28.8564,8.5664
28.9704,8.4812
29.1037,8.4314
29.2100,8.4200
30.9600,8.4200
31.0663,8.4314
31.1996,8.4812
31.3136,8.5664
31.3988,8.6804
31.4486,8.8137
31.4600,8.9200
31.4600,9.9200
31.4486,10.0263
31.3988,10.1596
31.3136,10.2736
31.1996,10.3588
31.0663,10.4086
30.9600,10.4200
29.2100,10.4200
29.1037,10.4086
28.9704,10.3588
28.8564,10.2736
28.7712,10.1596
28.7214,10.0263
28.7100,9.9200
Z" /> 
</g>
<g style="fill:#C83434; fill-opacity:1.0000; stroke:none;">
<circle cx="30.5300" cy="9.4200" r="0.8000" /> 
<path style="fill:#C83434; fill-opacity:1.0000; stroke:none;fill-rule:evenodd;"
d="M 28.7100,11.4600
28.7214,11.3537
28.7712,11.2204
28.8564,11.1064
28.9704,11.0212
29.1037,10.9714
29.2100,10.9600
30.9600,10.9600
31.0663,10.9714
31.1996,11.0212
31.3136,11.1064
31.3988,11.2204
31.4486,11.3537
31.4600,11.4600
31.4600,12.4600
31.4486,12.5663
31.3988,12.6996
31.3136,12.8136
31.1996,12.8988
31.0663,12.9486
30.9600,12.9600
29.2100,12.9600
29.1037,12.9486
28.9704,12.8988
28.8564,12.8136
28.7712,12.6996
28.7214,12.5663
28.7100,12.4600
Z" /> 
</g>
<g style="fill:#C83434; fill-opacity:1.0000; stroke:none;">
<circle cx="30.5300" cy="11.9600" r="0.8000" /> 
<path style="fill:#C83434; fill-opacity:1.0000; stroke:none;fill-rule:evenodd;"
d="M 28.7100,14.0000
28.7214,13.8937
28.7712,13.7604
28.8564,13.6464
28.9704,13.5612
29.1037,13.5114
29.2100,13.5000
30.9600,13.5000
31.0663,13.5114
31.1996,13.5612
31.3136,13.6464
31.3988,13.7604
31.4486,13.8937
31.4600,14.0000
31.4600,15.0000
31.4486,15.1063
31.3988,15.2396
31.3136,15.3536
31.1996,15.4388
31.0663,15.4886
30.9600,15.5000
29.2100,15.5000
29.1037,15.4886
28.9704,15.4388
28.8564,15.3536
28.7712,15.2396
28.7214,15.1063
28.7100,15.0000
Z" /> 
</g>
<g style="fill:#C83434; fill-opacity:1.0000; stroke:none;">
<circle cx="30.5300" cy="14.5000" r="0.8000" /> 
<path style="fill:#C83434; fill-opacity:1.0000; stroke:none;fill-rule:evenodd;"
d="M 28.7100,16.5400
28.7214,16.4337
28.7712,16.3004
28.8564,16.1864
28.9704,16.1012
29.1037,16.0514
29.2100,16.0400
30.9600,16.0400
31.0663,16.0514
31.1996,16.1012
31.3136,16.1864
31.3988,16.3004
31.4486,16.4337
31.4600,16.5400
31.4600,17.5400
31.4486,17.6463
31.3988,17.7796
31.3136,17.8936
31.1996,17.9788
31.0663,18.0286
30.9600,18.0400
29.2100,18.0400
29.1037,18.0286
28.9704,17.9788
28.8564,17.8936
28.7712,17.7796
28.7214,17.6463
28.7100,17.5400
Z" /> 
</g>
<g style="fill:#C83434; fill-opacity:1.0000; stroke:none;">
<circle cx="30.5300" cy="17.0400" r="0.8000" /> 
<path style="fill:#C83434; fill-opacity:1.0000; stroke:none;fill-rule:evenodd;"
d="M 28.7100,19.0800
28.7214,18.9737
28.7712,18.8404
28.8564,18.7264
28.9704,18.6412
29.1037,18.5914
29.2100,18.5800
30.9600,18.5800
31.0663,18.5914
31.1996,18.6412
31.3136,18.7264
31.3988,18.8404
31.4486,18.9737
31.4600,19.0800
31.4600,20.0800
31.4486,20.1863
31.3988,20.3196
31.3136,20.4336
31.1996,20.5188
31.0663,20.5686
30.9600,20.5800
29.2100,20.5800
29.1037,20.5686
28.9704,20.5188
28.8564,20.4336
28.7712,20.3196
28.7214,20.1863
28.7100,20.0800
Z" /> 
</g>
<g style="fill:#C83434; fill-opacity:1.0000; stroke:none;">
<circle cx="30.5300" cy="19.5800" r="0.8000" /> 
</g>
<g style="fill:#C83434; fill-opacity:1.0000; stroke:none;">
<circle cx="45.7700" cy="19.5800" r="0.8000" /> 
<path style="fill:#C83434; fill-opacity:1.0000; stroke:none;fill-rule:evenodd;"
d="M 44.8750,19.0800
44.8864,18.9737
44.9362,18.8404
45.0214,18.7264
45.1354,18.6412
45.2687,18.5914
45.3750,18.5800
47.1250,18.5800
47.2313,18.5914
47.3646,18.6412
47.4786,18.7264
47.5638,18.8404
47.6136,18.9737
47.6250,19.0800
47.6250,20.0800
47.6136,20.1863
47.5638,20.3196
47.4786,20.4336
47.3646,20.5188
47.2313,20.5686
47.1250,20.5800
45.3750,20.5800
45.2687,20.5686
45.1354,20.5188
45.0214,20.4336
44.9362,20.3196
44.8864,20.1863
44.8750,20.0800
Z" /> 
</g>
<g style="fill:#C83434; fill-opacity:1.0000; stroke:none;">
<circle cx="45.7700" cy="17.0400" r="0.8000" /> 
<path style="fill:#C83434; fill-opacity:1.0000; stroke:none;fill-rule:evenodd;"
d="M 44.8750,16.5400
44.8864,16.4337
44.9362,16.3004
45.0214,16.1864
45.1354,16.1012
45.2687,16.0514
45.3750,16.0400
47.1250,16.0400
47.2313,16.0514
47.3646,16.1012
47.4786,16.1864
47.5638,16.3004
47.6136,16.4337
47.6250,16.5400
47.6250,17.5400
47.6136,17.6463
47.5638,17.7796
47.4786,17.8936
47.3646,17.9788
47.2313,18.0286
47.1250,18.0400
45.3750,18.0400
45.2687,18.0286
45.1354,17.9788
45.0214,17.8936
44.9362,17.7796
44.8864,17.6463
44.8750,17.5400
Z" /> 
</g>
<g style="fill:#C83434; fill-opacity:1.0000; stroke:none;">
<circle cx="45.7700" cy="14.5000" r="0.8000" /> 
<path style="fill:#C83434; fill-opacity:1.0000; stroke:none;fill-rule:evenodd;"
d="M 44.8750,14.0000
44.8864,13.8937
44.9362,13.7604
45.0214,13.6464
45.1354,13.5612
45.2687,13.5114
45.3750,13.5000
47.1250,13.5000
47.2313,13.5114
47.3646,13.5612
47.4786,13.6464
47.5638,13.7604
47.6136,13.8937
47.6250,14.0000
47.6250,15.0000
47.6136,15.1063
47.5638,15.2396
47.4786,15.3536
47.3646,15.4388
47.2313,15.4886
47.1250,15.5000
45.3750,15.5000
45.2687,15.4886
45.1354,15.4388
45.0214,15.3536
44.9362,15.2396
44.8864,15.1063
44.8750,15.0000
Z" /> 
</g>
<g style="fill:#C83434; fill-opacity:1.0000; stroke:none;">
<circle cx="45.7700" cy="11.9600" r="0.8000" /> 
<path style="fill:#C83434; fill-opacity:1.0000; stroke:none;fill-rule:evenodd;"
d="M 44.8750,11.4600
44.8864,11.3537
44.9362,11.2204
45.0214,11.1064
45.1354,11.0212
45.2687,10.9714
45.3750,10.9600
47.1250,10.9600
47.2313,10.9714
47.3646,11.0212
47.4786,11.1064
47.5638,11.2204
47.6136,11.3537
47.6250,11.4600
47.6250,12.4600
47.6136,12.5663
47.5638,12.6996
47.4786,12.8136
47.3646,12.8988
47.2313,12.9486
47.1250,12.9600
45.3750,12.9600
45.2687,12.9486
45.1354,12.8988
45.0214,12.8136
44.9362,12.6996
44.8864,12.5663
44.8750,12.4600
Z" /> 
</g>
<g style="fill:#C83434; fill-opacity:1.0000; stroke:none;">
<circle cx="45.7700" cy="9.4200" r="0.8000" /> 
<path style="fill:#C83434; fill-opacity:1.0000; stroke:none;fill-rule:evenodd;"
d="M 44.8750,8.9200
44.8864,8.8137
44.9362,8.6804
45.0214,8.5664
45.1354,8.4812
45.2687,8.4314
45.3750,8.4200
47.1250,8.4200
47.2313,8.4314
47.3646,8.4812
47.4786,8.5664
47.5638,8.6804
47.6136,8.8137
47.6250,8.9200
47.6250,9.9200
47.6136,10.0263
47.5638,10.1596
47.4786,10.2736
47.3646,10.3588
47.2313,10.4086
47.1250,10.4200
45.3750,10.4200
45.2687,10.4086
45.1354,10.3588
45.0214,10.2736
44.9362,10.1596
44.8864,10.0263
44.8750,9.9200
Z" /> 
</g>
<g style="fill:#C83434; fill-opacity:1.0000; stroke:none;">
<circle cx="45.7700" cy="6.8800" r="0.8000" /> 
<path style="fill:#C83434; fill-opacity:1.0000; stroke:none;fill-rule:evenodd;"
d="M 44.8750,6.3800
44.8864,6.2737
44.9362,6.1404
45.0214,6.0264
45.1354,5.9412
45.2687,5.8914
45.3750,5.8800
47.1250,5.8800
47.2313,5.8914
47.3646,5.9412
47.4786,6.0264
47.5638,6.1404
47.6136,6.2737
47.6250,6.3800
47.6250,7.3800
47.6136,7.4863
47.5638,7.6196
47.4786,7.7336
47.3646,7.8188
47.2313,7.8686
47.1250,7.8800
45.3750,7.8800
45.2687,7.8686
45.1354,7.8188
45.0214,7.7336
44.9362,7.6196
44.8864,7.4863
44.8750,7.3800
Z" /> 
</g>
<g style="fill:#C83434; fill-opacity:1.0000; stroke:none;">
<circle cx="45.7700" cy="4.3400" r="0.8000" /> 
<path style="fill:#C83434; fill-opacity:1.0000; stroke:none;fill-rule:evenodd;"
d="M 44.8750,3.8400
44.8864,3.7337
44.9362,3.6004
45.0214,3.4864
45.1354,3.4012
45.2687,3.3514
45.3750,3.3400
47.1250,3.3400
47.2313,3.3514
47.3646,3.4012
47.4786,3.4864
47.5638,3.6004
47.6136,3.7337
47.6250,3.8400
47.6250,4.8400
47.6136,4.9463
47.5638,5.0796
47.4786,5.1936
47.3646,5.2788
47.2313,5.3286
47.1250,5.3400
45.3750,5.3400
45.2687,5.3286
45.1354,5.2788
45.0214,5.1936
44.9362,5.0796
44.8864,4.9463
44.8750,4.8400
Z" /> 
</g>
<g style="fill:#C83434; fill-opacity:1.0000; stroke:none;">
<circle cx="51.7750" cy="20.2600" r="0.3000" /> 
</g>
<g style="fill:#C83434; fill-opacity:1.0000; stroke:none;">
<circle cx="64.0750" cy="52.0600" r="0.3000" /> 
</g>
<g style="fill:#C83434; fill-opacity:1.0000; stroke:none;">
<circle cx="56.4750" cy="51.0600" r="0.3000" /> 
</g>
<g style="fill:#C83434; fill-opacity:1.0000; stroke:none;">
<circle cx="38.4750" cy="20.7600" r="0.3000" /> 
</g>
<g style="fill:none; 
stroke:#C83434; stroke-width:0.2000; stroke-opacity:1; 
stroke-linecap:round; stroke-linejoin:round;">
<path d="M49.5550 4.3400
L46.2500 4.3400
" />
<path d="M51.7750 6.5600
L49.5550 4.3400
" />
<path d="M51.7750 20.2600
L51.7750 6.5600
" />
<path d="M5.5490 15.1340
L17.6440 3.0390
" />
<path d="M5.5490 17.6340
L5.5490 15.1340
" />
<path d="M17.6440 3.0390
L42.4090 3.0390
" />
<path d="M6.8500 18.9350
L10.6250 15.1600
" />
<path d="M42.4090 3.0390
L46.2500 6.8800
" />
<path d="M6.8500 18.9350
L5.5490 17.6340
" />
<path d="M10.6250 15.1600
L20.0750 15.1600
" />
<path d="M20.0750 15.1600
L21.3500 16.4350
" />
<path d="M56.4750 51.0600
L63.0750 51.0600
" />
<path d="M63.0750 51.0600
L64.0750 52.0600
" />
<path d="M39.6550 19.5800
L45.7700 19.5800
" />
<path d="M38.4750 20.7600
L39.6550 19.5800
" />
<path d="M23.2050 19.5800
L30.0850 19.5800
" />
<path d="M21.3500 21.4350
L23.2050 19.5800
" />
<path d="M17.5652 22.7600
L23.2852 17.0400
" />
<path d="M23.2852 17.0400
L30.0850 17.0400
" />
<path d="M6.8500 21.4350
L8.1750 22.7600
" />
<path d="M8.1750 22.7600
L17.5652 22.7600
" />
<path d="M11.5250 11.7600
L27.3450 11.7600
" />
<path d="M27.3450 11.7600
L30.0850 14.5000
" />
<path d="M6.8500 16.4350
L11.5250 11.7600
" />
</g>
<g style="fill:none; 
stroke:#F2EDA1; stroke-width:0.1500; stroke-opacity:1; 
stroke-linecap:round; stroke-linejoin:round;">
<text x="66.7250" y="57.3100"
textLength="2.1548" font-size="1.3333" lengthAdjust="spacingAndGlyphs"
text-anchor="middle" opacity="0" stroke-opacity="0">S8</text>
<g class="stroked-text"><desc>S8</desc>
<path d="M65.9631 57.2172
L66.1060 57.2648
" />
<path d="M66.1060 57.2648
L66.3440 57.2648
" />
<path d="M66.3440 57.2648
L66.4393 57.2172
" />
<path d="M66.4393 57.2172
L66.4869 57.1696
" />
<path d="M66.4869 57.1696
L66.5345 57.0743
" />
<path d="M66.5345 57.0743
L66.5345 56.9791
" />
<path d="M66.5345 56.9791
L66.4869 56.8839
" />
<path d="M66.4869 56.8839
L66.4393 56.8362
" />
<path d="M66.4393 56.8362
L66.3440 56.7886
" />
<path d="M66.3440 56.7886
L66.1536 56.7410
" />
<path d="M66.1536 56.7410
L66.0583 56.6934
" />
<path d="M66.0583 56.6934
L66.0107 56.6458
" />
<path d="M66.0107 56.6458
L65.9631 56.5505
" />
<path d="M65.9631 56.5505
L65.9631 56.4553
" />
<path d="M65.9631 56.4553
L66.0107 56.3601
" />
<path d="M66.0107 56.3601
L66.0583 56.3124
" />
<path d="M66.0583 56.3124
L66.1536 56.2648
" />
<path d="M66.1536 56.2648
L66.3917 56.2648
" />
<path d="M66.3917 56.2648
L66.5345 56.3124
" />
<path d="M67.1060 56.6934
L67.0107 56.6458
" />
<path d="M67.0107 56.6458
L66.9631 56.5982
" />
<path d="M66.9631 56.5982
L66.9155 56.5029
" />
<path d="M66.9155 56.5029
L66.9155 56.4553
" />
<path d="M66.9155 56.4553
L66.9631 56.3601
" />
<path d="M66.9631 56.3601
L67.0107 56.3124
" />
<path d="M67.0107 56.3124
L67.1060 56.2648
" />
<path d="M67.1060 56.2648
L67.2964 56.2648
" />
<path d="M67.2964 56.2648
L67.3917 56.3124
" />
<path d="M67.3917 56.3124
L67.4393 56.3601
" />
<path d="M67.4393 56.3601
L67.4869 56.4553
" />
<path d="M67.4869 56.4553
L67.4869 56.5029
" />
<path d="M67.4869 56.5029
L67.4393 56.5982
" />
<path d="M67.4393 56.5982
L67.3917 56.6458
" />
<path d="M67.3917 56.6458
L67.2964 56.6934
" />
<path d="M67.2964 56.6934
L67.1060 56.6934
" />
<path d="M67.1060 56.6934
L67.0107 56.7410
" />
<path d="M67.0107 56.7410
L66.9631 56.7886
" />
<path d="M66.9631 56.7886
L66.9155 56.8839
" />
<path d="M66.9155 56.8839
L66.9155 57.0743
" />
<path d="M66.9155 57.0743
L66.9631 57.1696
" />
<path d="M66.9631 57.1696
L67.0107 57.2172
" />
<path d="M67.0107 57.2172
L67.1060 57.2648
" />
<path d="M67.1060 57.2648
L67.2964 57.2648
" />
<path d="M67.2964 57.2648
L67.3917 57.2172
" />
<path d="M67.3917 57.2172
L67.4393 57.1696
" />
<path d="M67.4393 57.1696
L67.4869 57.0743
" />
<path d="M67.4869 57.0743
L67.4869 56.8839
" />
<path d="M67.4869 56.8839
L67.4393 56.7886
" />
<path d="M67.4393 56.7886
L67.3917 56.7410
" />
<path d="M67.3917 56.7410
L67.2964 56.6934
" />
</g><text x="28.6250" y="57.3100"
textLength="2.1548" font-size="1.3333" lengthAdjust="spacingAndGlyphs"
text-anchor="middle" opacity="0" stroke-opacity="0">S6</text>
<g class="stroked-text"><desc>S6</desc>
<path d="M27.8631 57.2172
L28.0060 57.2648
" />
<path d="M28.0060 57.2648
L28.2440 57.2648
" />
<path d="M28.2440 57.2648
L28.3393 57.2172
" />
<path d="M28.3393 57.2172
L28.3869 57.1696
" />
<path d="M28.3869 57.1696
L28.4345 57.0743
" />
<path d="M28.4345 57.0743
L28.4345 56.9791
" />
<path d="M28.4345 56.9791
L28.3869 56.8839
" />
<path d="M28.3869 56.8839
L28.3393 56.8362
" />
<path d="M28.3393 56.8362
L28.2440 56.7886
" />
<path d="M28.2440 56.7886
L28.0536 56.7410
" />
<path d="M28.0536 56.7410
L27.9583 56.6934
" />
<path d="M27.9583 56.6934
L27.9107 56.6458
" />
<path d="M27.9107 56.6458
L27.8631 56.5505
" />
<path d="M27.8631 56.5505
L27.8631 56.4553
" />
<path d="M27.8631 56.4553
L27.9107 56.3601
" />
<path d="M27.9107 56.3601
L27.9583 56.3124
" />
<path d="M27.9583 56.3124
L28.0536 56.2648
" />
<path d="M28.0536 56.2648
L28.2917 56.2648
" />
<path d="M28.2917 56.2648
L28.4345 56.3124
" />
<path d="M29.2917 56.2648
L29.1012 56.2648
" />
<path d="M29.1012 56.2648
L29.0060 56.3124
" />
<path d="M29.0060 56.3124
L28.9583 56.3601
" />
<path d="M28.9583 56.3601
L28.8631 56.5029
" />
<path d="M28.8631 56.5029
L28.8155 56.6934
" />
<path d="M28.8155 56.6934
L28.8155 57.0743
" />
<path d="M28.8155 57.0743
L28.8631 57.1696
" />
<path d="M28.8631 57.1696
L28.9107 57.2172
" />
<path d="M28.9107 57.2172
L29.0060 57.2648
" />
<path d="M29.0060 57.2648
L29.1964 57.2648
" />
<path d="M29.1964 57.2648
L29.2917 57.2172
" />
<path d="M29.2917 57.2172
L29.3393 57.1696
" />
<path d="M29.3393 57.1696
L29.3869 57.0743
" />
<path d="M29.3869 57.0743
L29.3869 56.8362
" />
<path d="M29.3869 56.8362
L29.3393 56.7410
" />
<path d="M29.3393 56.7410
L29.2917 56.6934
" />
<path d="M29.2917 56.6934
L29.1964 56.6458
" />
<path d="M29.1964 56.6458
L29.0060 56.6458
" />
<path d="M29.0060 56.6458
L28.9107 56.6934
" />
<path d="M28.9107 56.6934
L28.8631 56.7410
" />
<path d="M28.8631 56.7410
L28.8155 56.8362
" />
</g><text x="47.6750" y="38.2600"
textLength="2.1548" font-size="1.3333" lengthAdjust="spacingAndGlyphs"
text-anchor="middle" opacity="0" stroke-opacity="0">S3</text>
<g class="stroked-text"><desc>S3</desc>
<path d="M46.9131 38.1672
L47.0560 38.2148
" />
<path d="M47.0560 38.2148
L47.2940 38.2148
" />
<path d="M47.2940 38.2148
L47.3893 38.1672
" />
<path d="M47.3893 38.1672
L47.4369 38.1196
" />
<path d="M47.4369 38.1196
L47.4845 38.0243
" />
<path d="M47.4845 38.0243
L47.4845 37.9291
" />
<path d="M47.4845 37.9291
L47.4369 37.8339
" />
<path d="M47.4369 37.8339
L47.3893 37.7862
" />
<path d="M47.3893 37.7862
L47.2940 37.7386
" />
<path d="M47.2940 37.7386
L47.1036 37.6910
" />
<path d="M47.1036 37.6910
L47.0083 37.6434
" />
<path d="M47.0083 37.6434
L46.9607 37.5958
" />
<path d="M46.9607 37.5958
L46.9131 37.5005
" />
<path d="M46.9131 37.5005
L46.9131 37.4053
" />
<path d="M46.9131 37.4053
L46.9607 37.3101
" />
<path d="M46.9607 37.3101
L47.0083 37.2624
" />
<path d="M47.0083 37.2624
L47.1036 37.2148
" />
<path d="M47.1036 37.2148
L47.3417 37.2148
" />
<path d="M47.3417 37.2148
L47.4845 37.2624
" />
<path d="M47.8179 37.2148
L48.4369 37.2148
" />
<path d="M48.4369 37.2148
L48.1036 37.5958
" />
<path d="M48.1036 37.5958
L48.2464 37.5958
" />
<path d="M48.2464 37.5958
L48.3417 37.6434
" />
<path d="M48.3417 37.6434
L48.3893 37.6910
" />
<path d="M48.3893 37.6910
L48.4369 37.7862
" />
<path d="M48.4369 37.7862
L48.4369 38.0243
" />
<path d="M48.4369 38.0243
L48.3893 38.1196
" />
<path d="M48.3893 38.1196
L48.3417 38.1672
" />
<path d="M48.3417 38.1672
L48.2464 38.2148
" />
<path d="M48.2464 38.2148
L47.9607 38.2148
" />
<path d="M47.9607 38.2148
L47.8655 38.1672
" />
<path d="M47.8655 38.1672
L47.8179 38.1196
" />
</g><text x="19.1000" y="52.5850"
textLength="4.5357" font-size="1.3333" lengthAdjust="spacingAndGlyphs"
text-anchor="middle" opacity="0" stroke-opacity="0">REF**</text>
<g class="stroked-text"><desc>REF**</desc>
<path d="M17.7667 52.5398
L17.4333 52.0636
" />
<path d="M17.1952 52.5398
L17.1952 51.5398
" />
<path d="M17.1952 51.5398
L17.5762 51.5398
" />
<path d="M17.5762 51.5398
L17.6714 51.5874
" />
<path d="M17.6714 51.5874
L17.7190 51.6351
" />
<path d="M17.7190 51.6351
L17.7667 51.7303
" />
<path d="M17.7667 51.7303
L17.7667 51.8732
" />
<path d="M17.7667 51.8732
L17.7190 51.9684
" />
<path d="M17.7190 51.9684
L17.6714 52.0160
" />
<path d="M17.6714 52.0160
L17.5762 52.0636
" />
<path d="M17.5762 52.0636
L17.1952 52.0636
" />
<path d="M18.1952 52.0160
L18.5286 52.0160
" />
<path d="M18.6714 52.5398
L18.1952 52.5398
" />
<path d="M18.1952 52.5398
L18.1952 51.5398
" />
<path d="M18.1952 51.5398
L18.6714 51.5398
" />
<path d="M19.4333 52.0160
L19.1000 52.0160
" />
<path d="M19.1000 52.5398
L19.1000 51.5398
" />
<path d="M19.1000 51.5398
L19.5762 51.5398
" />
<path d="M20.1000 51.5398
L20.1000 51.7779
" />
<path d="M19.8619 51.6827
L20.1000 51.7779
" />
<path d="M20.1000 51.7779
L20.3381 51.6827
" />
<path d="M19.9571 51.9684
L20.1000 51.7779
" />
<path d="M20.1000 51.7779
L20.2429 51.9684
" />
<path d="M20.8619 51.5398
L20.8619 51.7779
" />
<path d="M20.6238 51.6827
L20.8619 51.7779
" />
<path d="M20.8619 51.7779
L21.1000 51.6827
" />
<path d="M20.7190 51.9684
L20.8619 51.7779
" />
<path d="M20.8619 51.7779
L21.0048 51.9684
" />
</g><text x="19.1000" y="76.3600"
textLength="2.1548" font-size="1.3333" lengthAdjust="spacingAndGlyphs"
text-anchor="middle" opacity="0" stroke-opacity="0">S9</text>
<g class="stroked-text"><desc>S9</desc>
<path d="M18.3381 76.2672
L18.4810 76.3148
" />
<path d="M18.4810 76.3148
L18.7190 76.3148
" />
<path d="M18.7190 76.3148
L18.8143 76.2672
" />
<path d="M18.8143 76.2672
L18.8619 76.2196
" />
<path d="M18.8619 76.2196
L18.9095 76.1243
" />
<path d="M18.9095 76.1243
L18.9095 76.0291
" />
<path d="M18.9095 76.0291
L18.8619 75.9339
" />
<path d="M18.8619 75.9339
L18.8143 75.8862
" />
<path d="M18.8143 75.8862
L18.7190 75.8386
" />
<path d="M18.7190 75.8386
L18.5286 75.7910
" />
<path d="M18.5286 75.7910
L18.4333 75.7434
" />
<path d="M18.4333 75.7434
L18.3857 75.6958
" />
<path d="M18.3857 75.6958
L18.3381 75.6005
" />
<path d="M18.3381 75.6005
L18.3381 75.5053
" />
<path d="M18.3381 75.5053
L18.3857 75.4101
" />
<path d="M18.3857 75.4101
L18.4333 75.3624
" />
<path d="M18.4333 75.3624
L18.5286 75.3148
" />
<path d="M18.5286 75.3148
L18.7667 75.3148
" />
<path d="M18.7667 75.3148
L18.9095 75.3624
" />
<path d="M19.3857 76.3148
L19.5762 76.3148
" />
<path d="M19.5762 76.3148
L19.6714 76.2672
" />
<path d="M19.6714 76.2672
L19.7190 76.2196
" />
<path d="M19.7190 76.2196
L19.8143 76.0767
" />
<path d="M19.8143 76.0767
L19.8619 75.8862
" />
<path d="M19.8619 75.8862
L19.8619 75.5053
" />
<path d="M19.8619 75.5053
L19.8143 75.4101
" />
<path d="M19.8143 75.4101
L19.7667 75.3624
" />
<path d="M19.7667 75.3624
L19.6714 75.3148
" />
<path d="M19.6714 75.3148
L19.4810 75.3148
" />
<path d="M19.4810 75.3148
L19.3857 75.3624
" />
<path d="M19.3857 75.3624
L19.3381 75.4101
" />
<path d="M19.3381 75.4101
L19.2905 75.5053
" />
<path d="M19.2905 75.5053
L19.2905 75.7434
" />
<path d="M19.2905 75.7434
L19.3381 75.8386
" />
<path d="M19.3381 75.8386
L19.3857 75.8862
" />
<path d="M19.3857 75.8862
L19.4810 75.9339
" />
<path d="M19.4810 75.9339
L19.6714 75.9339
" />
<path d="M19.6714 75.9339
L19.7667 75.8862
" />
<path d="M19.7667 75.8862
L19.8143 75.8386
" />
<path d="M19.8143 75.8386
L19.8619 75.7434
" />
</g><text x="57.2000" y="71.6350"
textLength="4.5357" font-size="1.3333" lengthAdjust="spacingAndGlyphs"
text-anchor="middle" opacity="0" stroke-opacity="0">REF**</text>
<g class="stroked-text"><desc>REF**</desc>
<path d="M55.8667 71.5898
L55.5333 71.1136
" />
<path d="M55.2952 71.5898
L55.2952 70.5898
" />
<path d="M55.2952 70.5898
L55.6762 70.5898
" />
<path d="M55.6762 70.5898
L55.7714 70.6374
" />
<path d="M55.7714 70.6374
L55.8190 70.6851
" />
<path d="M55.8190 70.6851
L55.8667 70.7803
" />
<path d="M55.8667 70.7803
L55.8667 70.9232
" />
<path d="M55.8667 70.9232
L55.8190 71.0184
" />
<path d="M55.8190 71.0184
L55.7714 71.0660
" />
<path d="M55.7714 71.0660
L55.6762 71.1136
" />
<path d="M55.6762 71.1136
L55.2952 71.1136
" />
<path d="M56.2952 71.0660
L56.6286 71.0660
" />
<path d="M56.7714 71.5898
L56.2952 71.5898
" />
<path d="M56.2952 71.5898
L56.2952 70.5898
" />
<path d="M56.2952 70.5898
L56.7714 70.5898
" />
<path d="M57.5333 71.0660
L57.2000 71.0660
" />
<path d="M57.2000 71.5898
L57.2000 70.5898
" />
<path d="M57.2000 70.5898
L57.6762 70.5898
" />
<path d="M58.2000 70.5898
L58.2000 70.8279
" />
<path d="M57.9619 70.7327
L58.2000 70.8279
" />
<path d="M58.2000 70.8279
L58.4381 70.7327
" />
<path d="M58.0571 71.0184
L58.2000 70.8279
" />
<path d="M58.2000 70.8279
L58.3429 71.0184
" />
<path d="M58.9619 70.5898
L58.9619 70.8279
" />
<path d="M58.7238 70.7327
L58.9619 70.8279
" />
<path d="M58.9619 70.8279
L59.2000 70.7327
" />
<path d="M58.8190 71.0184
L58.9619 70.8279
" />
<path d="M58.9619 70.8279
L59.1048 71.0184
" />
</g><text x="57.2000" y="76.3600"
textLength="3.1071" font-size="1.3333" lengthAdjust="spacingAndGlyphs"
text-anchor="middle" opacity="0" stroke-opacity="0">S10</text>
<g class="stroked-text"><desc>S10</desc>
<path d="M55.9619 76.2672
L56.1048 76.3148
" />
<path d="M56.1048 76.3148
L56.3429 76.3148
" />
<path d="M56.3429 76.3148
L56.4381 76.2672
" />
<path d="M56.4381 76.2672
L56.4857 76.2196
" />
<path d="M56.4857 76.2196
L56.5333 76.1243
" />
<path d="M56.5333 76.1243
L56.5333 76.0291
" />
<path d="M56.5333 76.0291
L56.4857 75.9339
" />
<path d="M56.4857 75.9339
L56.4381 75.8862
" />
<path d="M56.4381 75.8862
L56.3429 75.8386
" />
<path d="M56.3429 75.8386
L56.1524 75.7910
" />
<path d="M56.1524 75.7910
L56.0571 75.7434
" />
<path d="M56.0571 75.7434
L56.0095 75.6958
" />
<path d="M56.0095 75.6958
L55.9619 75.6005
" />
<path d="M55.9619 75.6005
L55.9619 75.5053
" />
<path d="M55.9619 75.5053
L56.0095 75.4101
" />
<path d="M56.0095 75.4101
L56.0571 75.3624
" />
<path d="M56.0571 75.3624
L56.1524 75.3148
" />
<path d="M56.1524 75.3148
L56.3905 75.3148
" />
<path d="M56.3905 75.3148
L56.5333 75.3624
" />
<path d="M57.4857 76.3148
L56.9143 76.3148
" />
<path d="M57.2000 76.3148
L57.2000 75.3148
" />
<path d="M57.2000 75.3148
L57.1048 75.4577
" />
<path d="M57.1048 75.4577
L57.0095 75.5529
" />
<path d="M57.0095 75.5529
L56.9143 75.6005
" />
<path d="M58.1048 75.3148
L58.2000 75.3148
" />
<path d="M58.2000 75.3148
L58.2952 75.3624
" />
<path d="M58.2952 75.3624
L58.3429 75.4101
" />
<path d="M58.3429 75.4101
L58.3905 75.5053
" />
<path d="M58.3905 75.5053
L58.4381 75.6958
" />
<path d="M58.4381 75.6958
L58.4381 75.9339
" />
<path d="M58.4381 75.9339
L58.3905 76.1243
" />
<path d="M58.3905 76.1243
L58.3429 76.2196
" />
<path d="M58.3429 76.2196
L58.2952 76.2672
" />
<path d="M58.2952 76.2672
L58.2000 76.3148
" />
<path d="M58.2000 76.3148
L58.1048 76.3148
" />
<path d="M58.1048 76.3148
L58.0095 76.2672
" />
<path d="M58.0095 76.2672
L57.9619 76.2196
" />
<path d="M57.9619 76.2196
L57.9143 76.1243
" />
<path d="M57.9143 76.1243
L57.8667 75.9339
" />
<path d="M57.8667 75.9339
L57.8667 75.6958
" />
<path d="M57.8667 75.6958
L57.9143 75.5053
" />
<path d="M57.9143 75.5053
L57.9619 75.4101
" />
<path d="M57.9619 75.4101
L58.0095 75.3624
" />
<path d="M58.0095 75.3624
L58.1048 75.3148
" />
</g><text x="66.7250" y="38.2600"
textLength="2.1548" font-size="1.3333" lengthAdjust="spacingAndGlyphs"
text-anchor="middle" opacity="0" stroke-opacity="0">S4</text>
<g class="stroked-text"><desc>S4</desc>
<path d="M65.9631 38.1672
L66.1060 38.2148
" />
<path d="M66.1060 38.2148
L66.3440 38.2148
" />
<path d="M66.3440 38.2148
L66.4393 38.1672
" />
<path d="M66.4393 38.1672
L66.4869 38.1196
" />
<path d="M66.4869 38.1196
L66.5345 38.0243
" />
<path d="M66.5345 38.0243
L66.5345 37.9291
" />
<path d="M66.5345 37.9291
L66.4869 37.8339
" />
<path d="M66.4869 37.8339
L66.4393 37.7862
" />
<path d="M66.4393 37.7862
L66.3440 37.7386
" />
<path d="M66.3440 37.7386
L66.1536 37.6910
" />
<path d="M66.1536 37.6910
L66.0583 37.6434
" />
<path d="M66.0583 37.6434
L66.0107 37.5958
" />
<path d="M66.0107 37.5958
L65.9631 37.5005
" />
<path d="M65.9631 37.5005
L65.9631 37.4053
" />
<path d="M65.9631 37.4053
L66.0107 37.3101
" />
<path d="M66.0107 37.3101
L66.0583 37.2624
" />
<path d="M66.0583 37.2624
L66.1536 37.2148
" />
<path d="M66.1536 37.2148
L66.3917 37.2148
" />
<path d="M66.3917 37.2148
L66.5345 37.2624
" />
<path d="M67.3917 37.5482
L67.3917 38.2148
" />
<path d="M67.1536 37.1672
L66.9155 37.8815
" />
<path d="M66.9155 37.8815
L67.5345 37.8815
" />
</g><text x="38.1500" y="52.5850"
textLength="4.5357" font-size="1.3333" lengthAdjust="spacingAndGlyphs"
text-anchor="middle" opacity="0" stroke-opacity="0">REF**</text>
<g class="stroked-text"><desc>REF**</desc>
<path d="M36.8167 52.5398
L36.4833 52.0636
" />
<path d="M36.2452 52.5398
L36.2452 51.5398
" />
<path d="M36.2452 51.5398
L36.6262 51.5398
" />
<path d="M36.6262 51.5398
L36.7214 51.5874
" />
<path d="M36.7214 51.5874
L36.7690 51.6351
" />
<path d="M36.7690 51.6351
L36.8167 51.7303
" />
<path d="M36.8167 51.7303
L36.8167 51.8732
" />
<path d="M36.8167 51.8732
L36.7690 51.9684
" />
<path d="M36.7690 51.9684
L36.7214 52.0160
" />
<path d="M36.7214 52.0160
L36.6262 52.0636
" />
<path d="M36.6262 52.0636
L36.2452 52.0636
" />
<path d="M37.2452 52.0160
L37.5786 52.0160
" />
<path d="M37.7214 52.5398
L37.2452 52.5398
" />
<path d="M37.2452 52.5398
L37.2452 51.5398
" />
<path d="M37.2452 51.5398
L37.7214 51.5398
" />
<path d="M38.4833 52.0160
L38.1500 52.0160
" />
<path d="M38.1500 52.5398
L38.1500 51.5398
" />
<path d="M38.1500 51.5398
L38.6262 51.5398
" />
<path d="M39.1500 51.5398
L39.1500 51.7779
" />
<path d="M38.9119 51.6827
L39.1500 51.7779
" />
<path d="M39.1500 51.7779
L39.3881 51.6827
" />
<path d="M39.0071 51.9684
L39.1500 51.7779
" />
<path d="M39.1500 51.7779
L39.2929 51.9684
" />
<path d="M39.9119 51.5398
L39.9119 51.7779
" />
<path d="M39.6738 51.6827
L39.9119 51.7779
" />
<path d="M39.9119 51.7779
L40.1500 51.6827
" />
<path d="M39.7690 51.9684
L39.9119 51.7779
" />
<path d="M39.9119 51.7779
L40.0548 51.9684
" />
</g><text x="19.1000" y="71.6350"
textLength="4.5357" font-size="1.3333" lengthAdjust="spacingAndGlyphs"
text-anchor="middle" opacity="0" stroke-opacity="0">REF**</text>
<g class="stroked-text"><desc>REF**</desc>
<path d="M17.7667 71.5898
L17.4333 71.1136
" />
<path d="M17.1952 71.5898
L17.1952 70.5898
" />
<path d="M17.1952 70.5898
L17.5762 70.5898
" />
<path d="M17.5762 70.5898
L17.6714 70.6374
" />
<path d="M17.6714 70.6374
L17.7190 70.6851
" />
<path d="M17.7190 70.6851
L17.7667 70.7803
" />
<path d="M17.7667 70.7803
L17.7667 70.9232
" />
<path d="M17.7667 70.9232
L17.7190 71.0184
" />
<path d="M17.7190 71.0184
L17.6714 71.0660
" />
<path d="M17.6714 71.0660
L17.5762 71.1136
" />
<path d="M17.5762 71.1136
L17.1952 71.1136
" />
<path d="M18.1952 71.0660
L18.5286 71.0660
" />
<path d="M18.6714 71.5898
L18.1952 71.5898
" />
<path d="M18.1952 71.5898
L18.1952 70.5898
" />
<path d="M18.1952 70.5898
L18.6714 70.5898
" />
<path d="M19.4333 71.0660
L19.1000 71.0660
" />
<path d="M19.1000 71.5898
L19.1000 70.5898
" />
<path d="M19.1000 70.5898
L19.5762 70.5898
" />
<path d="M20.1000 70.5898
L20.1000 70.8279
" />
<path d="M19.8619 70.7327
L20.1000 70.8279
" />
<path d="M20.1000 70.8279
L20.3381 70.7327
" />
<path d="M19.9571 71.0184
L20.1000 70.8279
" />
<path d="M20.1000 70.8279
L20.2429 71.0184
" />
<path d="M20.8619 70.5898
L20.8619 70.8279
" />
<path d="M20.6238 70.7327
L20.8619 70.8279
" />
<path d="M20.8619 70.8279
L21.1000 70.7327
" />
<path d="M20.7190 71.0184
L20.8619 70.8279
" />
<path d="M20.8619 70.8279
L21.0048 71.0184
" />
</g><text x="19.1000" y="82.3600"
textLength="4.5357" font-size="1.3333" lengthAdjust="spacingAndGlyphs"
text-anchor="middle" opacity="0" stroke-opacity="0">REF**</text>
<g class="stroked-text"><desc>REF**</desc>
<path d="M17.7667 82.3148
L17.4333 81.8386
" />
<path d="M17.1952 82.3148
L17.1952 81.3148
" />
<path d="M17.1952 81.3148
L17.5762 81.3148
" />
<path d="M17.5762 81.3148
L17.6714 81.3624
" />
<path d="M17.6714 81.3624
L17.7190 81.4101
" />
<path d="M17.7190 81.4101
L17.7667 81.5053
" />
<path d="M17.7667 81.5053
L17.7667 81.6482
" />
<path d="M17.7667 81.6482
L17.7190 81.7434
" />
<path d="M17.7190 81.7434
L17.6714 81.7910
" />
<path d="M17.6714 81.7910
L17.5762 81.8386
" />
<path d="M17.5762 81.8386
L17.1952 81.8386
" />
<path d="M18.1952 81.7910
L18.5286 81.7910
" />
<path d="M18.6714 82.3148
L18.1952 82.3148
" />
<path d="M18.1952 82.3148
L18.1952 81.3148
" />
<path d="M18.1952 81.3148
L18.6714 81.3148
" />
<path d="M19.4333 81.7910
L19.1000 81.7910
" />
<path d="M19.1000 82.3148
L19.1000 81.3148
" />
<path d="M19.1000 81.3148
L19.5762 81.3148
" />
<path d="M20.1000 81.3148
L20.1000 81.5529
" />
<path d="M19.8619 81.4577
L20.1000 81.5529
" />
<path d="M20.1000 81.5529
L20.3381 81.4577
" />
<path d="M19.9571 81.7434
L20.1000 81.5529
" />
<path d="M20.1000 81.5529
L20.2429 81.7434
" />
<path d="M20.8619 81.3148
L20.8619 81.5529
" />
<path d="M20.6238 81.4577
L20.8619 81.5529
" />
<path d="M20.8619 81.5529
L21.1000 81.4577
" />
<path d="M20.7190 81.7434
L20.8619 81.5529
" />
<path d="M20.8619 81.5529
L21.0048 81.7434
" />
</g><text x="47.6750" y="57.3100"
textLength="2.1548" font-size="1.3333" lengthAdjust="spacingAndGlyphs"
text-anchor="middle" opacity="0" stroke-opacity="0">S7</text>
<g class="stroked-text"><desc>S7</desc>
<path d="M46.9131 57.2172
L47.0560 57.2648
" />
<path d="M47.0560 57.2648
L47.2940 57.2648
" />
<path d="M47.2940 57.2648
L47.3893 57.2172
" />
<path d="M47.3893 57.2172
L47.4369 57.1696
" />
<path d="M47.4369 57.1696
L47.4845 57.0743
" />
<path d="M47.4845 57.0743
L47.4845 56.9791
" />
<path d="M47.4845 56.9791
L47.4369 56.8839
" />
<path d="M47.4369 56.8839
L47.3893 56.8362
" />
<path d="M47.3893 56.8362
L47.2940 56.7886
" />
<path d="M47.2940 56.7886
L47.1036 56.7410
" />
<path d="M47.1036 56.7410
L47.0083 56.6934
" />
<path d="M47.0083 56.6934
L46.9607 56.6458
" />
<path d="M46.9607 56.6458
L46.9131 56.5505
" />
<path d="M46.9131 56.5505
L46.9131 56.4553
" />
<path d="M46.9131 56.4553
L46.9607 56.3601
" />
<path d="M46.9607 56.3601
L47.0083 56.3124
" />
<path d="M47.0083 56.3124
L47.1036 56.2648
" />
<path d="M47.1036 56.2648
L47.3417 56.2648
" />
<path d="M47.3417 56.2648
L47.4845 56.3124
" />
<path d="M47.8179 56.2648
L48.4845 56.2648
" />
<path d="M48.4845 56.2648
L48.0560 57.2648
" />
</g><text x="57.2500" y="52.5850"
textLength="4.5357" font-size="1.3333" lengthAdjust="spacingAndGlyphs"
text-anchor="middle" opacity="0" stroke-opacity="0">REF**</text>
<g class="stroked-text"><desc>REF**</desc>
<path d="M55.9167 52.5398
L55.5833 52.0636
" />
<path d="M55.3452 52.5398
L55.3452 51.5398
" />
<path d="M55.3452 51.5398
L55.7262 51.5398
" />
<path d="M55.7262 51.5398
L55.8214 51.5874
" />
<path d="M55.8214 51.5874
L55.8690 51.6351
" />
<path d="M55.8690 51.6351
L55.9167 51.7303
" />
<path d="M55.9167 51.7303
L55.9167 51.8732
" />
<path d="M55.9167 51.8732
L55.8690 51.9684
" />
<path d="M55.8690 51.9684
L55.8214 52.0160
" />
<path d="M55.8214 52.0160
L55.7262 52.0636
" />
<path d="M55.7262 52.0636
L55.3452 52.0636
" />
<path d="M56.3452 52.0160
L56.6786 52.0160
" />
<path d="M56.8214 52.5398
L56.3452 52.5398
" />
<path d="M56.3452 52.5398
L56.3452 51.5398
" />
<path d="M56.3452 51.5398
L56.8214 51.5398
" />
<path d="M57.5833 52.0160
L57.2500 52.0160
" />
<path d="M57.2500 52.5398
L57.2500 51.5398
" />
<path d="M57.2500 51.5398
L57.7262 51.5398
" />
<path d="M58.2500 51.5398
L58.2500 51.7779
" />
<path d="M58.0119 51.6827
L58.2500 51.7779
" />
<path d="M58.2500 51.7779
L58.4881 51.6827
" />
<path d="M58.1071 51.9684
L58.2500 51.7779
" />
<path d="M58.2500 51.7779
L58.3929 51.9684
" />
<path d="M59.0119 51.5398
L59.0119 51.7779
" />
<path d="M58.7738 51.6827
L59.0119 51.7779
" />
<path d="M59.0119 51.7779
L59.2500 51.6827
" />
<path d="M58.8690 51.9684
L59.0119 51.7779
" />
<path d="M59.0119 51.7779
L59.1548 51.9684
" />
</g><text x="9.5750" y="57.3100"
textLength="2.1548" font-size="1.3333" lengthAdjust="spacingAndGlyphs"
text-anchor="middle" opacity="0" stroke-opacity="0">S5</text>
<g class="stroked-text"><desc>S5</desc>
<path d="M8.8131 57.2172
L8.9560 57.2648
" />
<path d="M8.9560 57.2648
L9.1940 57.2648
" />
<path d="M9.1940 57.2648
L9.2893 57.2172
" />
<path d="M9.2893 57.2172
L9.3369 57.1696
" />
<path d="M9.3369 57.1696
L9.3845 57.0743
" />
<path d="M9.3845 57.0743
L9.3845 56.9791
" />
<path d="M9.3845 56.9791
L9.3369 56.8839
" />
<path d="M9.3369 56.8839
L9.2893 56.8362
" />
<path d="M9.2893 56.8362
L9.1940 56.7886
" />
<path d="M9.1940 56.7886
L9.0036 56.7410
" />
<path d="M9.0036 56.7410
L8.9083 56.6934
" />
<path d="M8.9083 56.6934
L8.8607 56.6458
" />
<path d="M8.8607 56.6458
L8.8131 56.5505
" />
<path d="M8.8131 56.5505
L8.8131 56.4553
" />
<path d="M8.8131 56.4553
L8.8607 56.3601
" />
<path d="M8.8607 56.3601
L8.9083 56.3124
" />
<path d="M8.9083 56.3124
L9.0036 56.2648
" />
<path d="M9.0036 56.2648
L9.2417 56.2648
" />
<path d="M9.2417 56.2648
L9.3845 56.3124
" />
<path d="M10.2893 56.2648
L9.8131 56.2648
" />
<path d="M9.8131 56.2648
L9.7655 56.7410
" />
<path d="M9.7655 56.7410
L9.8131 56.6934
" />
<path d="M9.8131 56.6934
L9.9083 56.6458
" />
<path d="M9.9083 56.6458
L10.1464 56.6458
" />
<path d="M10.1464 56.6458
L10.2417 56.6934
" />
<path d="M10.2417 56.6934
L10.2893 56.7410
" />
<path d="M10.2893 56.7410
L10.3369 56.8362
" />
<path d="M10.3369 56.8362
L10.3369 57.0743
" />
<path d="M10.3369 57.0743
L10.2893 57.1696
" />
<path d="M10.2893 57.1696
L10.2417 57.2172
" />
<path d="M10.2417 57.2172
L10.1464 57.2648
" />
<path d="M10.1464 57.2648
L9.9083 57.2648
" />
<path d="M9.9083 57.2648
L9.8131 57.2172
" />
<path d="M9.8131 57.2172
L9.7655 57.1696
" />
</g><text x="57.2000" y="82.3600"
textLength="4.5357" font-size="1.3333" lengthAdjust="spacingAndGlyphs"
text-anchor="middle" opacity="0" stroke-opacity="0">REF**</text>
<g class="stroked-text"><desc>REF**</desc>
<path d="M55.8667 82.3148
L55.5333 81.8386
" />
<path d="M55.2952 82.3148
L55.2952 81.3148
" />
<path d="M55.2952 81.3148
L55.6762 81.3148
" />
<path d="M55.6762 81.3148
L55.7714 81.3624
" />
<path d="M55.7714 81.3624
L55.8190 81.4101
" />
<path d="M55.8190 81.4101
L55.8667 81.5053
" />
<path d="M55.8667 81.5053
L55.8667 81.6482
" />
<path d="M55.8667 81.6482
L55.8190 81.7434
" />
<path d="M55.8190 81.7434
L55.7714 81.7910
" />
<path d="M55.7714 81.7910
L55.6762 81.8386
" />
<path d="M55.6762 81.8386
L55.2952 81.8386
" />
<path d="M56.2952 81.7910
L56.6286 81.7910
" />
<path d="M56.7714 82.3148
L56.2952 82.3148
" />
<path d="M56.2952 82.3148
L56.2952 81.3148
" />
<path d="M56.2952 81.3148
L56.7714 81.3148
" />
<path d="M57.5333 81.7910
L57.2000 81.7910
" />
<path d="M57.2000 82.3148
L57.2000 81.3148
" />
<path d="M57.2000 81.3148
L57.6762 81.3148
" />
<path d="M58.2000 81.3148
L58.2000 81.5529
" />
<path d="M57.9619 81.4577
L58.2000 81.5529
" />
<path d="M58.2000 81.5529
L58.4381 81.4577
" />
<path d="M58.0571 81.7434
L58.2000 81.5529
" />
<path d="M58.2000 81.5529
L58.3429 81.7434
" />
<path d="M58.9619 81.3148
L58.9619 81.5529
" />
<path d="M58.7238 81.4577
L58.9619 81.5529
" />
<path d="M58.9619 81.5529
L59.2000 81.4577
" />
<path d="M58.8190 81.7434
L58.9619 81.5529
" />
<path d="M58.9619 81.5529
L59.1048 81.7434
" />
</g><text x="9.5750" y="38.2600"
textLength="2.1548" font-size="1.3333" lengthAdjust="spacingAndGlyphs"
text-anchor="middle" opacity="0" stroke-opacity="0">S1</text>
<g class="stroked-text"><desc>S1</desc>
<path d="M8.8131 38.1672
L8.9560 38.2148
" />
<path d="M8.9560 38.2148
L9.1940 38.2148
" />
<path d="M9.1940 38.2148
L9.2893 38.1672
" />
<path d="M9.2893 38.1672
L9.3369 38.1196
" />
<path d="M9.3369 38.1196
L9.3845 38.0243
" />
<path d="M9.3845 38.0243
L9.3845 37.9291
" />
<path d="M9.3845 37.9291
L9.3369 37.8339
" />
<path d="M9.3369 37.8339
L9.2893 37.7862
" />
<path d="M9.2893 37.7862
L9.1940 37.7386
" />
<path d="M9.1940 37.7386
L9.0036 37.6910
" />
<path d="M9.0036 37.6910
L8.9083 37.6434
" />
<path d="M8.9083 37.6434
L8.8607 37.5958
" />
<path d="M8.8607 37.5958
L8.8131 37.5005
" />
<path d="M8.8131 37.5005
L8.8131 37.4053
" />
<path d="M8.8131 37.4053
L8.8607 37.3101
" />
<path d="M8.8607 37.3101
L8.9083 37.2624
" />
<path d="M8.9083 37.2624
L9.0036 37.2148
" />
<path d="M9.0036 37.2148
L9.2417 37.2148
" />
<path d="M9.2417 37.2148
L9.3845 37.2624
" />
<path d="M10.3369 38.2148
L9.7655 38.2148
" />
<path d="M10.0512 38.2148
L10.0512 37.2148
" />
<path d="M10.0512 37.2148
L9.9560 37.3577
" />
<path d="M9.9560 37.3577
L9.8607 37.4529
" />
<path d="M9.8607 37.4529
L9.7655 37.5005
" />
</g><text x="28.6250" y="38.2600"
textLength="2.1548" font-size="1.3333" lengthAdjust="spacingAndGlyphs"
text-anchor="middle" opacity="0" stroke-opacity="0">S2</text>
<g class="stroked-text"><desc>S2</desc>
<path d="M27.8631 38.1672
L28.0060 38.2148
" />
<path d="M28.0060 38.2148
L28.2440 38.2148
" />
<path d="M28.2440 38.2148
L28.3393 38.1672
" />
<path d="M28.3393 38.1672
L28.3869 38.1196
" />
<path d="M28.3869 38.1196
L28.4345 38.0243
" />
<path d="M28.4345 38.0243
L28.4345 37.9291
" />
<path d="M28.4345 37.9291
L28.3869 37.8339
" />
<path d="M28.3869 37.8339
L28.3393 37.7862
" />
<path d="M28.3393 37.7862
L28.2440 37.7386
" />
<path d="M28.2440 37.7386
L28.0536 37.6910
" />
<path d="M28.0536 37.6910
L27.9583 37.6434
" />
<path d="M27.9583 37.6434
L27.9107 37.5958
" />
<path d="M27.9107 37.5958
L27.8631 37.5005
" />
<path d="M27.8631 37.5005
L27.8631 37.4053
" />
<path d="M27.8631 37.4053
L27.9107 37.3101
" />
<path d="M27.9107 37.3101
L27.9583 37.2624
" />
<path d="M27.9583 37.2624
L28.0536 37.2148
" />
<path d="M28.0536 37.2148
L28.2917 37.2148
" />
<path d="M28.2917 37.2148
L28.4345 37.2624
" />
<path d="M28.8155 37.3101
L28.8631 37.2624
" />
<path d="M28.8631 37.2624
L28.9583 37.2148
" />
<path d="M28.9583 37.2148
L29.1964 37.2148
" />
<path d="M29.1964 37.2148
L29.2917 37.2624
" />
<path d="M29.2917 37.2624
L29.3393 37.3101
" />
<path d="M29.3393 37.3101
L29.3869 37.4053
" />
<path d="M29.3869 37.4053
L29.3869 37.5005
" />
<path d="M29.3869 37.5005
L29.3393 37.6434
" />
<path d="M29.3393 37.6434
L28.7679 38.2148
" />
<path d="M28.7679 38.2148
L29.3869 38.2148
" />
</g></g>
<g style="fill:none; 
stroke:#F2EDA1; stroke-width:0.1200; stroke-opacity:1; 
stroke-linecap:round; stroke-linejoin:round;">
<path d="M59.6250 57.7100
L59.6250 71.9100
" />
<path d="M59.6250 71.9100
L73.8250 71.9100
" />
<path d="M73.8250 57.7100
L59.6250 57.7100
" />
<path d="M73.8250 71.9100
L73.8250 57.7100
" />
<path d="M21.5250 57.7100
L21.5250 71.9100
" />
<path d="M21.5250 71.9100
L35.7250 71.9100
" />
<path d="M35.7250 57.7100
L21.5250 57.7100
" />
<path d="M35.7250 71.9100
L35.7250 57.7100
" />
<path d="M40.5750 38.6600
L40.5750 52.8600
" />
<path d="M40.5750 52.8600
L54.7750 52.8600
" />
<path d="M54.7750 38.6600
L40.5750 38.6600
" />
<path d="M54.7750 52.8600
L54.7750 38.6600
" />
<path d="M12.0000 76.7600
L12.0000 90.9600
" />
<path d="M12.0000 90.9600
L26.2000 90.9600
" />
<path d="M26.2000 76.7600
L12.0000 76.7600
" />
<path d="M26.2000 90.9600
L26.2000 76.7600
" />
<path d="M50.1000 76.7600
L50.1000 90.9600
" />
<path d="M50.1000 90.9600
L64.3000 90.9600
" />
<path d="M64.3000 76.7600
L50.1000 76.7600
" />
<path d="M64.3000 90.9600
L64.3000 76.7600
" />
<path d="M59.6250 38.6600
L59.6250 52.8600
" />
<path d="M59.6250 52.8600
L73.8250 52.8600
" />
<path d="M73.8250 38.6600
L59.6250 38.6600
" />
<path d="M73.8250 52.8600
L73.8250 38.6600
" />
<path d="M40.5750 57.7100
L40.5750 71.9100
" />
<path d="M40.5750 71.9100
L54.7750 71.9100
" />
<path d="M54.7750 57.7100
L40.5750 57.7100
" />
<path d="M54.7750 71.9100
L54.7750 57.7100
" />
<path d="M2.4750 57.7100
L2.4750 71.9100
" />
<path d="M2.4750 71.9100
L16.6750 71.9100
" />
<path d="M16.6750 57.7100
L2.4750 57.7100
" />
<path d="M16.6750 71.9100
L16.6750 57.7100
" />
<path d="M2.4750 38.6600
L2.4750 52.8600
" />
<path d="M2.4750 52.8600
L16.6750 52.8600
" />
<path d="M16.6750 38.6600
L2.4750 38.6600
" />
<path d="M16.6750 52.8600
L16.6750 38.6600
" />
<path d="M21.5250 38.6600
L21.5250 52.8600
" />
<path d="M21.5250 52.8600
L35.7250 52.8600
" />
<path d="M35.7250 38.6600
L21.5250 38.6600
" />
<path d="M35.7250 52.8600
L35.7250 38.6600
" />
<path style="fill:none; 
stroke:#D0D2CD; stroke-width:0.0500; stroke-opacity:1; 
stroke-linecap:round; stroke-linejoin:round;fill:none"
d="M 0.0500,1.3848
76.2502,1.3848
76.2502,95.3848
0.0500,95.3848
Z" /> 
</g>
<g style="fill:#FFFFFF; fill-opacity:1.0000; stroke:none;">
<circle cx="51.7750" cy="20.2600" r="0.1500" /> 
</g>
<g style="fill:#FFFFFF; fill-opacity:1.0000; stroke:none;">
<circle cx="64.0750" cy="52.0600" r="0.1500" /> 
</g>
<g style="fill:#FFFFFF; fill-opacity:1.0000; stroke:none;">
<circle cx="56.4750" cy="51.0600" r="0.1500" /> 
</g>
<g style="fill:#FFFFFF; fill-opacity:1.0000; stroke:none;">
<circle cx="38.4750" cy="20.7600" r="0.1500" /> 
</g>
<g style="fill:#FFFFFF; fill-opacity:1.0000; stroke:none;">
<circle cx="61.6450" cy="64.8100" r="0.8750" /> 
</g>
<g style="fill:#FFFFFF; fill-opacity:1.0000; stroke:none;">
<circle cx="62.9150" cy="62.2700" r="1.5250" /> 
</g>
<g style="fill:#FFFFFF; fill-opacity:1.0000; stroke:none;">
<circle cx="66.7250" cy="64.8100" r="2.0000" /> 
</g>
<g style="fill:#FFFFFF; fill-opacity:1.0000; stroke:none;">
<circle cx="69.2650" cy="59.7300" r="1.5250" /> 
</g>
<g style="fill:#FFFFFF; fill-opacity:1.0000; stroke:none;">
<circle cx="71.8050" cy="64.8100" r="0.8750" /> 
</g>
<g style="fill:#FFFFFF; fill-opacity:1.0000; stroke:none;">
<circle cx="23.5450" cy="64.8100" r="0.8750" /> 
</g>
<g style="fill:#FFFFFF; fill-opacity:1.0000; stroke:none;">
<circle cx="24.8150" cy="62.2700" r="1.5250" /> 
</g>
<g style="fill:#FFFFFF; fill-opacity:1.0000; stroke:none;">
<circle cx="28.6250" cy="64.8100" r="2.0000" /> 
</g>
<g style="fill:#FFFFFF; fill-opacity:1.0000; stroke:none;">
<circle cx="31.1650" cy="59.7300" r="1.5250" /> 
</g>
<g style="fill:#FFFFFF; fill-opacity:1.0000; stroke:none;">
<circle cx="33.7050" cy="64.8100" r="0.8750" /> 
</g>
<g style="fill:#FFFFFF; fill-opacity:1.0000; stroke:none;">
<circle cx="42.5950" cy="45.7600" r="0.8750" /> 
</g>
<g style="fill:#FFFFFF; fill-opacity:1.0000; stroke:none;">
<circle cx="43.8650" cy="43.2200" r="1.5250" /> 
</g>
<g style="fill:#FFFFFF; fill-opacity:1.0000; stroke:none;">
<circle cx="47.6750" cy="45.7600" r="2.0000" /> 
</g>
<g style="fill:#FFFFFF; fill-opacity:1.0000; stroke:none;">
<circle cx="50.2150" cy="40.6800" r="1.5250" /> 
</g>
<g style="fill:#FFFFFF; fill-opacity:1.0000; stroke:none;">
<circle cx="52.7550" cy="45.7600" r="0.8750" /> 
</g>
<g style="fill:#FFFFFF; fill-opacity:1.0000; stroke:none;">
<circle cx="19.1000" cy="55.2850" r="1.1000" /> 
</g>
<g style="fill:#FFFFFF; fill-opacity:1.0000; stroke:none;">
<circle cx="14.0200" cy="83.8600" r="0.8750" /> 
</g>
<g style="fill:#FFFFFF; fill-opacity:1.0000; stroke:none;">
<circle cx="15.2900" cy="81.3200" r="1.5250" /> 
</g>
<g style="fill:#FFFFFF; fill-opacity:1.0000; stroke:none;">
<circle cx="19.1000" cy="83.8600" r="2.0000" /> 
</g>
<g style="fill:#FFFFFF; fill-opacity:1.0000; stroke:none;">
<circle cx="21.6400" cy="78.7800" r="1.5250" /> 
</g>
<g style="fill:#FFFFFF; fill-opacity:1.0000; stroke:none;">
<circle cx="24.1800" cy="83.8600" r="0.8750" /> 
</g>
<g style="fill:#FFFFFF; fill-opacity:1.0000; stroke:none;">
<circle cx="57.2000" cy="74.3350" r="1.1000" /> 
</g>
<g style="fill:#FFFFFF; fill-opacity:1.0000; stroke:none;">
<circle cx="6.8500" cy="16.4350" r="0.5000" /> 
</g>
<g style="fill:#FFFFFF; fill-opacity:1.0000; stroke:none;">
<circle cx="6.8500" cy="21.4350" r="0.5000" /> 
</g>
<g style="fill:#FFFFFF; fill-opacity:1.0000; stroke:none;">
<circle cx="6.8500" cy="18.9350" r="0.5000" /> 
</g>
<g style="fill:none; 
stroke:#FFFFFF; stroke-width:1.5000; stroke-opacity:1; 
stroke-linecap:round; stroke-linejoin:round;">
<path d="M13.7000 13.3350
L15.0000 13.3350
" />
<path d="M13.7000 24.5350
L15.0000 24.5350
" />
</g>
<g style="fill:#FFFFFF; fill-opacity:1.0000; stroke:none;">
<circle cx="21.3500" cy="21.4350" r="0.5000" /> 
</g>
<g style="fill:#FFFFFF; fill-opacity:1.0000; stroke:none;">
<circle cx="21.3500" cy="16.4350" r="0.5000" /> 
</g>
<g style="fill:#FFFFFF; fill-opacity:1.0000; stroke:none;">
<circle cx="52.1200" cy="83.8600" r="0.8750" /> 
</g>
<g style="fill:#FFFFFF; fill-opacity:1.0000; stroke:none;">
<circle cx="53.3900" cy="81.3200" r="1.5250" /> 
</g>
<g style="fill:#FFFFFF; fill-opacity:1.0000; stroke:none;">
<circle cx="57.2000" cy="83.8600" r="2.0000" /> 
</g>
<g style="fill:#FFFFFF; fill-opacity:1.0000; stroke:none;">
<circle cx="59.7400" cy="78.7800" r="1.5250" /> 
</g>
<g style="fill:#FFFFFF; fill-opacity:1.0000; stroke:none;">
<circle cx="62.2800" cy="83.8600" r="0.8750" /> 
</g>
<g style="fill:#FFFFFF; fill-opacity:1.0000; stroke:none;">
<circle cx="61.6450" cy="45.7600" r="0.8750" /> 
</g>
<g style="fill:#FFFFFF; fill-opacity:1.0000; stroke:none;">
<circle cx="62.9150" cy="43.2200" r="1.5250" /> 
</g>
<g style="fill:#FFFFFF; fill-opacity:1.0000; stroke:none;">
<circle cx="66.7250" cy="45.7600" r="2.0000" /> 
</g>
<g style="fill:#FFFFFF; fill-opacity:1.0000; stroke:none;">
<circle cx="69.2650" cy="40.6800" r="1.5250" /> 
</g>
<g style="fill:#FFFFFF; fill-opacity:1.0000; stroke:none;">
<circle cx="71.8050" cy="45.7600" r="0.8750" /> 
</g>
<g style="fill:#FFFFFF; fill-opacity:1.0000; stroke:none;">
<circle cx="38.1500" cy="55.2850" r="1.1000" /> 
</g>
<g style="fill:#FFFFFF; fill-opacity:1.0000; stroke:none;">
<circle cx="19.1000" cy="74.3350" r="1.1000" /> 
</g>
<g style="fill:#FFFFFF; fill-opacity:1.0000; stroke:none;">
<circle cx="30.5300" cy="4.3400" r="0.5000" /> 
</g>
<g style="fill:#FFFFFF; fill-opacity:1.0000; stroke:none;">
<circle cx="30.5300" cy="6.8800" r="0.5000" /> 
</g>
<g style="fill:#FFFFFF; fill-opacity:1.0000; stroke:none;">
<circle cx="30.5300" cy="9.4200" r="0.5000" /> 
</g>
<g style="fill:#FFFFFF; fill-opacity:1.0000; stroke:none;">
<circle cx="30.5300" cy="11.9600" r="0.5000" /> 
</g>
<g style="fill:#FFFFFF; fill-opacity:1.0000; stroke:none;">
<circle cx="30.5300" cy="14.5000" r="0.5000" /> 
</g>
<g style="fill:#FFFFFF; fill-opacity:1.0000; stroke:none;">
<circle cx="30.5300" cy="17.0400" r="0.5000" /> 
</g>
<g style="fill:#FFFFFF; fill-opacity:1.0000; stroke:none;">
<circle cx="30.5300" cy="19.5800" r="0.5000" /> 
</g>
<g style="fill:#FFFFFF; fill-opacity:1.0000; stroke:none;">
<circle cx="45.7700" cy="19.5800" r="0.5000" /> 
</g>
<g style="fill:#FFFFFF; fill-opacity:1.0000; stroke:none;">
<circle cx="45.7700" cy="17.0400" r="0.5000" /> 
</g>
<g style="fill:#FFFFFF; fill-opacity:1.0000; stroke:none;">
<circle cx="45.7700" cy="14.5000" r="0.5000" /> 
</g>
<g style="fill:#FFFFFF; fill-opacity:1.0000; stroke:none;">
<circle cx="45.7700" cy="11.9600" r="0.5000" /> 
</g>
<g style="fill:#FFFFFF; fill-opacity:1.0000; stroke:none;">
<circle cx="45.7700" cy="9.4200" r="0.5000" /> 
</g>
<g style="fill:#FFFFFF; fill-opacity:1.0000; stroke:none;">
<circle cx="45.7700" cy="6.8800" r="0.5000" /> 
</g>
<g style="fill:#FFFFFF; fill-opacity:1.0000; stroke:none;">
<circle cx="45.7700" cy="4.3400" r="0.5000" /> 
</g>
<g style="fill:#FFFFFF; fill-opacity:1.0000; stroke:none;">
<circle cx="7.1620" cy="76.8750" r="1.5240" /> 
</g>
<g style="fill:#FFFFFF; fill-opacity:1.0000; stroke:none;">
<circle cx="7.1620" cy="92.0850" r="1.9939" /> 
</g>
<g style="fill:#FFFFFF; fill-opacity:1.0000; stroke:none;">
<circle cx="31.0380" cy="76.8750" r="1.5240" /> 
</g>
<g style="fill:#FFFFFF; fill-opacity:1.0000; stroke:none;">
<circle cx="31.0380" cy="92.0850" r="1.9939" /> 
</g>
<g style="fill:#FFFFFF; fill-opacity:1.0000; stroke:none;">
<circle cx="42.5950" cy="64.8100" r="0.8750" /> 
</g>
<g style="fill:#FFFFFF; fill-opacity:1.0000; stroke:none;">
<circle cx="43.8650" cy="62.2700" r="1.5250" /> 
</g>
<g style="fill:#FFFFFF; fill-opacity:1.0000; stroke:none;">
<circle cx="47.6750" cy="64.8100" r="2.0000" /> 
</g>
<g style="fill:#FFFFFF; fill-opacity:1.0000; stroke:none;">
<circle cx="50.2150" cy="59.7300" r="1.5250" /> 
</g>
<g style="fill:#FFFFFF; fill-opacity:1.0000; stroke:none;">
<circle cx="52.7550" cy="64.8100" r="0.8750" /> 
</g>
<g style="fill:#FFFFFF; fill-opacity:1.0000; stroke:none;">
<circle cx="57.2500" cy="55.2850" r="1.1000" /> 
</g>
<g style="fill:#FFFFFF; fill-opacity:1.0000; stroke:none;">
<circle cx="4.4950" cy="64.8100" r="0.8750" /> 
</g>
<g style="fill:#FFFFFF; fill-opacity:1.0000; stroke:none;">
<circle cx="5.7650" cy="62.2700" r="1.5250" /> 
</g>
<g style="fill:#FFFFFF; fill-opacity:1.0000; stroke:none;">
<circle cx="9.5750" cy="64.8100" r="2.0000" /> 
</g>
<g style="fill:#FFFFFF; fill-opacity:1.0000; stroke:none;">
<circle cx="12.1150" cy="59.7300" r="1.5250" /> 
</g>
<g style="fill:#FFFFFF; fill-opacity:1.0000; stroke:none;">
<circle cx="14.6550" cy="64.8100" r="0.8750" /> 
</g>
<g style="fill:#FFFFFF; fill-opacity:1.0000; stroke:none;">
<circle cx="45.2620" cy="76.8750" r="1.5240" /> 
</g>
<g style="fill:#FFFFFF; fill-opacity:1.0000; stroke:none;">
<circle cx="45.2620" cy="92.0850" r="1.9939" /> 
</g>
<g style="fill:#FFFFFF; fill-opacity:1.0000; stroke:none;">
<circle cx="69.1380" cy="76.8750" r="1.5240" /> 
</g>
<g style="fill:#FFFFFF; fill-opacity:1.0000; stroke:none;">
<circle cx="69.1380" cy="92.0850" r="1.9939" /> 
</g>
<g style="fill:#FFFFFF; fill-opacity:1.0000; stroke:none;">
<circle cx="4.4950" cy="45.7600" r="0.8750" /> 
</g>
<g style="fill:#FFFFFF; fill-opacity:1.0000; stroke:none;">
<circle cx="5.7650" cy="43.2200" r="1.5250" /> 
</g>
<g style="fill:#FFFFFF; fill-opacity:1.0000; stroke:none;">
<circle cx="9.5750" cy="45.7600" r="2.0000" /> 
</g>
<g style="fill:#FFFFFF; fill-opacity:1.0000; stroke:none;">
<circle cx="12.1150" cy="40.6800" r="1.5250" /> 
</g>
<g style="fill:#FFFFFF; fill-opacity:1.0000; stroke:none;">
<circle cx="14.6550" cy="45.7600" r="0.8750" /> 
</g>
<g style="fill:#FFFFFF; fill-opacity:1.0000; stroke:none;">
<circle cx="23.5450" cy="45.7600" r="0.8750" /> 
</g>
<g style="fill:#FFFFFF; fill-opacity:1.0000; stroke:none;">
<circle cx="24.8150" cy="43.2200" r="1.5250" /> 
</g>
<g style="fill:#FFFFFF; fill-opacity:1.0000; stroke:none;">
<circle cx="28.6250" cy="45.7600" r="2.0000" /> 
</g>
<g style="fill:#FFFFFF; fill-opacity:1.0000; stroke:none;">
<circle cx="31.1650" cy="40.6800" r="1.5250" /> 
</g>
<g style="fill:#FFFFFF; fill-opacity:1.0000; stroke:none;">
<circle cx="33.7050" cy="45.7600" r="0.8750" /> 
</g> 
</svg>
