<?xml version="1.0" standalone="no"?>
 <!DOCTYPE svg PUBLIC "-//W3C//DTD SVG 1.1//EN" 
 "http://www.w3.org/Graphics/SVG/1.1/DTD/svg11.dtd"> 
<svg
  xmlns:svg="http://www.w3.org/2000/svg"
  xmlns="http://www.w3.org/2000/svg"
  xmlns:xlink="http://www.w3.org/1999/xlink"
  version="1.1"
  width="76.2762mm" height="96.3676mm" viewBox="0.0000 0.0000 76.2762 96.3676">
<title>SVG Image created as hxkeysair-pcb-bottom.svg date 2026/07/10 21:52:51 </title>
  <desc>Image generated by PCBNEW </desc>
<g style="fill:#000000; fill-opacity:1.0000;stroke:#000000; stroke-opacity:1.0000;
stroke-linecap:round; stroke-linejoin:round;"
 transform="translate(0 0) scale(1 1)">
<path style="fill:#C83434; fill-opacity:1.0000; stroke:none;fill-rule:evenodd;"
d="M 70.4262,17.4350
70.4262,15.4350
68.4262,15.4350
68.4262,17.4350
Z" /> 
</g>
<g style="fill:#C83434; fill-opacity:1.0000; stroke:none;">
<circle cx="69.4262" cy="21.4350" r="1.0000" /> 
</g>
<g style="fill:#C83434; fill-opacity:1.0000; stroke:none;">
<circle cx="69.4262" cy="18.9350" r="1.0000" /> 
<path style="fill:#C83434; fill-opacity:1.0000; stroke:none;fill-rule:evenodd;"
d="M 63.5262,14.3350
63.5262,12.3350
60.3262,12.3350
60.3262,14.3350
Z" /> 
<path style="fill:#C83434; fill-opacity:1.0000; stroke:none;fill-rule:evenodd;"
d="M 63.5262,25.5350
63.5262,23.5350
60.3262,23.5350
60.3262,25.5350
Z" /> 
</g>
<g style="fill:#C83434; fill-opacity:1.0000; stroke:none;">
<circle cx="54.9262" cy="21.4350" r="1.0000" /> 
</g>
<g style="fill:#C83434; fill-opacity:1.0000; stroke:none;">
<circle cx="54.9262" cy="16.4350" r="1.0000" /> 
<path style="fill:#C83434; fill-opacity:1.0000; stroke:none;fill-rule:evenodd;"
d="M 47.5662,3.8400
47.5548,3.7337
47.5050,3.6004
47.4198,3.4864
47.3058,3.4012
47.1725,3.3514
47.0662,3.3400
45.3162,3.3400
45.2099,3.3514
45.0766,3.4012
44.9626,3.4864
44.8774,3.6004
44.8276,3.7337
44.8162,3.8400
44.8162,4.8400
44.8276,4.9463
44.8774,5.0796
44.9626,5.1936
45.0766,5.2788
45.2099,5.3286
45.3162,5.3400
47.0662,5.3400
47.1725,5.3286
47.3058,5.2788
47.4198,5.1936
47.5050,5.0796
47.5548,4.9463
47.5662,4.8400
Z" /> 
<path style="fill:#C83434; fill-opacity:1.0000; stroke:none;fill-rule:evenodd;"
d="M 44.9462,5.1400
46.5462,5.1400
46.5462,3.5400
44.9462,3.5400
Z" /> 
<path style="fill:#C83434; fill-opacity:1.0000; stroke:none;fill-rule:evenodd;"
d="M 47.5662,6.3800
47.5548,6.2737
47.5050,6.1404
47.4198,6.0264
47.3058,5.9412
47.1725,5.8914
47.0662,5.8800
45.3162,5.8800
45.2099,5.8914
45.0766,5.9412
44.9626,6.0264
44.8774,6.1404
44.8276,6.2737
44.8162,6.3800
44.8162,7.3800
44.8276,7.4863
44.8774,7.6196
44.9626,7.7336
45.0766,7.8188
45.2099,7.8686
45.3162,7.8800
47.0662,7.8800
47.1725,7.8686
47.3058,7.8188
47.4198,7.7336
47.5050,7.6196
47.5548,7.4863
47.5662,7.3800
Z" /> 
</g>
<g style="fill:#C83434; fill-opacity:1.0000; stroke:none;">
<circle cx="45.7462" cy="6.8800" r="0.8000" /> 
<path style="fill:#C83434; fill-opacity:1.0000; stroke:none;fill-rule:evenodd;"
d="M 47.5662,8.9200
47.5548,8.8137
47.5050,8.6804
47.4198,8.5664
47.3058,8.4812
47.1725,8.4314
47.0662,8.4200
45.3162,8.4200
45.2099,8.4314
45.0766,8.4812
44.9626,8.5664
44.8774,8.6804
44.8276,8.8137
44.8162,8.9200
44.8162,9.9200
44.8276,10.0263
44.8774,10.1596
44.9626,10.2736
45.0766,10.3588
45.2099,10.4086
45.3162,10.4200
47.0662,10.4200
47.1725,10.4086
47.3058,10.3588
47.4198,10.2736
47.5050,10.1596
47.5548,10.0263
47.5662,9.9200
Z" /> 
</g>
<g style="fill:#C83434; fill-opacity:1.0000; stroke:none;">
<circle cx="45.7462" cy="9.4200" r="0.8000" /> 
<path style="fill:#C83434; fill-opacity:1.0000; stroke:none;fill-rule:evenodd;"
d="M 47.5662,11.4600
47.5548,11.3537
47.5050,11.2204
47.4198,11.1064
47.3058,11.0212
47.1725,10.9714
47.0662,10.9600
45.3162,10.9600
45.2099,10.9714
45.0766,11.0212
44.9626,11.1064
44.8774,11.2204
44.8276,11.3537
44.8162,11.4600
44.8162,12.4600
44.8276,12.5663
44.8774,12.6996
44.9626,12.8136
45.0766,12.8988
45.2099,12.9486
45.3162,12.9600
47.0662,12.9600
47.1725,12.9486
47.3058,12.8988
47.4198,12.8136
47.5050,12.6996
47.5548,12.5663
47.5662,12.4600
Z" /> 
</g>
<g style="fill:#C83434; fill-opacity:1.0000; stroke:none;">
<circle cx="45.7462" cy="11.9600" r="0.8000" /> 
<path style="fill:#C83434; fill-opacity:1.0000; stroke:none;fill-rule:evenodd;"
d="M 47.5662,14.0000
47.5548,13.8937
47.5050,13.7604
47.4198,13.6464
47.3058,13.5612
47.1725,13.5114
47.0662,13.5000
45.3162,13.5000
45.2099,13.5114
45.0766,13.5612
44.9626,13.6464
44.8774,13.7604
44.8276,13.8937
44.8162,14.0000
44.8162,15.0000
44.8276,15.1063
44.8774,15.2396
44.9626,15.3536
45.0766,15.4388
45.2099,15.4886
45.3162,15.5000
47.0662,15.5000
47.1725,15.4886
47.3058,15.4388
47.4198,15.3536
47.5050,15.2396
47.5548,15.1063
47.5662,15.0000
Z" /> 
</g>
<g style="fill:#C83434; fill-opacity:1.0000; stroke:none;">
<circle cx="45.7462" cy="14.5000" r="0.8000" /> 
<path style="fill:#C83434; fill-opacity:1.0000; stroke:none;fill-rule:evenodd;"
d="M 47.5662,16.5400
47.5548,16.4337
47.5050,16.3004
47.4198,16.1864
47.3058,16.1012
47.1725,16.0514
47.0662,16.0400
45.3162,16.0400
45.2099,16.0514
45.0766,16.1012
44.9626,16.1864
44.8774,16.3004
44.8276,16.4337
44.8162,16.5400
44.8162,17.5400
44.8276,17.6463
44.8774,17.7796
44.9626,17.8936
45.0766,17.9788
45.2099,18.0286
45.3162,18.0400
47.0662,18.0400
47.1725,18.0286
47.3058,17.9788
47.4198,17.8936
47.5050,17.7796
47.5548,17.6463
47.5662,17.5400
Z" /> 
</g>
<g style="fill:#C83434; fill-opacity:1.0000; stroke:none;">
<circle cx="45.7462" cy="17.0400" r="0.8000" /> 
<path style="fill:#C83434; fill-opacity:1.0000; stroke:none;fill-rule:evenodd;"
d="M 47.5662,19.0800
47.5548,18.9737
47.5050,18.8404
47.4198,18.7264
47.3058,18.6412
47.1725,18.5914
47.0662,18.5800
45.3162,18.5800
45.2099,18.5914
45.0766,18.6412
44.9626,18.7264
44.8774,18.8404
44.8276,18.9737
44.8162,19.0800
44.8162,20.0800
44.8276,20.1863
44.8774,20.3196
44.9626,20.4336
45.0766,20.5188
45.2099,20.5686
45.3162,20.5800
47.0662,20.5800
47.1725,20.5686
47.3058,20.5188
47.4198,20.4336
47.5050,20.3196
47.5548,20.1863
47.5662,20.0800
Z" /> 
</g>
<g style="fill:#C83434; fill-opacity:1.0000; stroke:none;">
<circle cx="45.7462" cy="19.5800" r="0.8000" /> 
</g>
<g style="fill:#C83434; fill-opacity:1.0000; stroke:none;">
<circle cx="30.5062" cy="19.5800" r="0.8000" /> 
<path style="fill:#C83434; fill-opacity:1.0000; stroke:none;fill-rule:evenodd;"
d="M 31.4012,19.0800
31.3898,18.9737
31.3400,18.8404
31.2548,18.7264
31.1408,18.6412
31.0075,18.5914
30.9012,18.5800
29.1512,18.5800
29.0449,18.5914
28.9116,18.6412
28.7976,18.7264
28.7124,18.8404
28.6626,18.9737
28.6512,19.0800
28.6512,20.0800
28.6626,20.1863
28.7124,20.3196
28.7976,20.4336
28.9116,20.5188
29.0449,20.5686
29.1512,20.5800
30.9012,20.5800
31.0075,20.5686
31.1408,20.5188
31.2548,20.4336
31.3400,20.3196
31.3898,20.1863
31.4012,20.0800
Z" /> 
</g>
<g style="fill:#C83434; fill-opacity:1.0000; stroke:none;">
<circle cx="30.5062" cy="17.0400" r="0.8000" /> 
<path style="fill:#C83434; fill-opacity:1.0000; stroke:none;fill-rule:evenodd;"
d="M 31.4012,16.5400
31.3898,16.4337
31.3400,16.3004
31.2548,16.1864
31.1408,16.1012
31.0075,16.0514
30.9012,16.0400
29.1512,16.0400
29.0449,16.0514
28.9116,16.1012
28.7976,16.1864
28.7124,16.3004
28.6626,16.4337
28.6512,16.5400
28.6512,17.5400
28.6626,17.6463
28.7124,17.7796
28.7976,17.8936
28.9116,17.9788
29.0449,18.0286
29.1512,18.0400
30.9012,18.0400
31.0075,18.0286
31.1408,17.9788
31.2548,17.8936
31.3400,17.7796
31.3898,17.6463
31.4012,17.5400
Z" /> 
</g>
<g style="fill:#C83434; fill-opacity:1.0000; stroke:none;">
<circle cx="30.5062" cy="14.5000" r="0.8000" /> 
<path style="fill:#C83434; fill-opacity:1.0000; stroke:none;fill-rule:evenodd;"
d="M 31.4012,14.0000
31.3898,13.8937
31.3400,13.7604
31.2548,13.6464
31.1408,13.5612
31.0075,13.5114
30.9012,13.5000
29.1512,13.5000
29.0449,13.5114
28.9116,13.5612
28.7976,13.6464
28.7124,13.7604
28.6626,13.8937
28.6512,14.0000
28.6512,15.0000
28.6626,15.1063
28.7124,15.2396
28.7976,15.3536
28.9116,15.4388
29.0449,15.4886
29.1512,15.5000
30.9012,15.5000
31.0075,15.4886
31.1408,15.4388
31.2548,15.3536
31.3400,15.2396
31.3898,15.1063
31.4012,15.0000
Z" /> 
</g>
<g style="fill:#C83434; fill-opacity:1.0000; stroke:none;">
<circle cx="30.5062" cy="11.9600" r="0.8000" /> 
<path style="fill:#C83434; fill-opacity:1.0000; stroke:none;fill-rule:evenodd;"
d="M 31.4012,11.4600
31.3898,11.3537
31.3400,11.2204
31.2548,11.1064
31.1408,11.0212
31.0075,10.9714
30.9012,10.9600
29.1512,10.9600
29.0449,10.9714
28.9116,11.0212
28.7976,11.1064
28.7124,11.2204
28.6626,11.3537
28.6512,11.4600
28.6512,12.4600
28.6626,12.5663
28.7124,12.6996
28.7976,12.8136
28.9116,12.8988
29.0449,12.9486
29.1512,12.9600
30.9012,12.9600
31.0075,12.9486
31.1408,12.8988
31.2548,12.8136
31.3400,12.6996
31.3898,12.5663
31.4012,12.4600
Z" /> 
</g>
<g style="fill:#C83434; fill-opacity:1.0000; stroke:none;">
<circle cx="30.5062" cy="9.4200" r="0.8000" /> 
<path style="fill:#C83434; fill-opacity:1.0000; stroke:none;fill-rule:evenodd;"
d="M 31.4012,8.9200
31.3898,8.8137
31.3400,8.6804
31.2548,8.5664
31.1408,8.4812
31.0075,8.4314
30.9012,8.4200
29.1512,8.4200
29.0449,8.4314
28.9116,8.4812
28.7976,8.5664
28.7124,8.6804
28.6626,8.8137
28.6512,8.9200
28.6512,9.9200
28.6626,10.0263
28.7124,10.1596
28.7976,10.2736
28.9116,10.3588
29.0449,10.4086
29.1512,10.4200
30.9012,10.4200
31.0075,10.4086
31.1408,10.3588
31.2548,10.2736
31.3400,10.1596
31.3898,10.0263
31.4012,9.9200
Z" /> 
</g>
<g style="fill:#C83434; fill-opacity:1.0000; stroke:none;">
<circle cx="30.5062" cy="6.8800" r="0.8000" /> 
<path style="fill:#C83434; fill-opacity:1.0000; stroke:none;fill-rule:evenodd;"
d="M 31.4012,6.3800
31.3898,6.2737
31.3400,6.1404
31.2548,6.0264
31.1408,5.9412
31.0075,5.8914
30.9012,5.8800
29.1512,5.8800
29.0449,5.8914
28.9116,5.9412
28.7976,6.0264
28.7124,6.1404
28.6626,6.2737
28.6512,6.3800
28.6512,7.3800
28.6626,7.4863
28.7124,7.6196
28.7976,7.7336
28.9116,7.8188
29.0449,7.8686
29.1512,7.8800
30.9012,7.8800
31.0075,7.8686
31.1408,7.8188
31.2548,7.7336
31.3400,7.6196
31.3898,7.4863
31.4012,7.3800
Z" /> 
</g>
<g style="fill:#C83434; fill-opacity:1.0000; stroke:none;">
<circle cx="30.5062" cy="4.3400" r="0.8000" /> 
<path style="fill:#C83434; fill-opacity:1.0000; stroke:none;fill-rule:evenodd;"
d="M 31.4012,3.8400
31.3898,3.7337
31.3400,3.6004
31.2548,3.4864
31.1408,3.4012
31.0075,3.3514
30.9012,3.3400
29.1512,3.3400
29.0449,3.3514
28.9116,3.4012
28.7976,3.4864
28.7124,3.6004
28.6626,3.7337
28.6512,3.8400
28.6512,4.8400
28.6626,4.9463
28.7124,5.0796
28.7976,5.1936
28.9116,5.2788
29.0449,5.3286
29.1512,5.3400
30.9012,5.3400
31.0075,5.3286
31.1408,5.2788
31.2548,5.1936
31.3400,5.0796
31.3898,4.9463
31.4012,4.8400
Z" /> 
</g>
<g style="fill:#C83434; fill-opacity:1.0000; stroke:none;">
<circle cx="24.5012" cy="20.2600" r="0.3000" /> 
</g>
<g style="fill:#C83434; fill-opacity:1.0000; stroke:none;">
<circle cx="12.2012" cy="52.0600" r="0.3000" /> 
</g>
<g style="fill:#C83434; fill-opacity:1.0000; stroke:none;">
<circle cx="19.8012" cy="51.0600" r="0.3000" /> 
</g>
<g style="fill:#C83434; fill-opacity:1.0000; stroke:none;">
<circle cx="37.8012" cy="20.7600" r="0.3000" /> 
</g>
<g style="fill:none; 
stroke:#C83434; stroke-width:0.2000; stroke-opacity:1; 
stroke-linecap:round; stroke-linejoin:round;">
<path d="M26.7212 4.3400
L30.0262 4.3400
" />
<path d="M24.5012 6.5600
L26.7212 4.3400
" />
<path d="M24.5012 20.2600
L24.5012 6.5600
" />
<path d="M70.7272 15.1340
L58.6322 3.0390
" />
<path d="M70.7272 17.6340
L70.7272 15.1340
" />
<path d="M58.6322 3.0390
L33.8672 3.0390
" />
<path d="M69.4262 18.9350
L65.6512 15.1600
" />
<path d="M33.8672 3.0390
L30.0262 6.8800
" />
<path d="M69.4262 18.9350
L70.7272 17.6340
" />
<path d="M65.6512 15.1600
L56.2012 15.1600
" />
<path d="M56.2012 15.1600
L54.9262 16.4350
" />
<path d="M19.8012 51.0600
L13.2012 51.0600
" />
<path d="M13.2012 51.0600
L12.2012 52.0600
" />
<path d="M36.6212 19.5800
L30.5062 19.5800
" />
<path d="M37.8012 20.7600
L36.6212 19.5800
" />
<path d="M53.0712 19.5800
L46.1912 19.5800
" />
<path d="M54.9262 21.4350
L53.0712 19.5800
" />
<path d="M58.7110 22.7600
L52.9910 17.0400
" />
<path d="M52.9910 17.0400
L46.1912 17.0400
" />
<path d="M69.4262 21.4350
L68.1012 22.7600
" />
<path d="M68.1012 22.7600
L58.7110 22.7600
" />
<path d="M64.7512 11.7600
L48.9312 11.7600
" />
<path d="M48.9312 11.7600
L46.1912 14.5000
" />
<path d="M69.4262 16.4350
L64.7512 11.7600
" />
<path style="fill:#4D7FC4; fill-opacity:1.0000; stroke:none;fill-rule:evenodd;"
d="M 17.9112,61.2700
17.8922,61.1743
17.8380,61.0932
17.7569,61.0390
17.6612,61.0200
15.6112,61.0200
15.5155,61.0390
15.4344,61.0932
15.3802,61.1743
15.3612,61.2700
15.3612,63.2700
15.3802,63.3657
15.4344,63.4468
15.5155,63.5010
15.6112,63.5200
17.6612,63.5200
17.7569,63.5010
17.8380,63.4468
17.8922,63.3657
17.9112,63.2700
Z" /> 
<path style="fill:#4D7FC4; fill-opacity:1.0000; stroke:none;fill-rule:evenodd;"
d="M 4.9842,58.7300
4.9652,58.6343
4.9110,58.5532
4.8299,58.4990
4.7342,58.4800
2.6842,58.4800
2.5885,58.4990
2.5074,58.5532
2.4532,58.6343
2.4342,58.7300
2.4342,60.7300
2.4532,60.8257
2.5074,60.9068
2.5885,60.9610
2.6842,60.9800
4.7342,60.9800
4.8299,60.9610
4.9110,60.9068
4.9652,60.8257
4.9842,60.7300
Z" /> 
<path style="fill:#4D7FC4; fill-opacity:1.0000; stroke:none;fill-rule:evenodd;"
d="M 56.0112,61.2700
55.9922,61.1743
55.9380,61.0932
55.8569,61.0390
55.7612,61.0200
53.7112,61.0200
53.6155,61.0390
53.5344,61.0932
53.4802,61.1743
53.4612,61.2700
53.4612,63.2700
53.4802,63.3657
53.5344,63.4468
53.6155,63.5010
53.7112,63.5200
55.7612,63.5200
55.8569,63.5010
55.9380,63.4468
55.9922,63.3657
56.0112,63.2700
Z" /> 
<path style="fill:#4D7FC4; fill-opacity:1.0000; stroke:none;fill-rule:evenodd;"
d="M 43.0842,58.7300
43.0652,58.6343
43.0110,58.5532
42.9299,58.4990
42.8342,58.4800
40.7842,58.4800
40.6885,58.4990
40.6074,58.5532
40.5532,58.6343
40.5342,58.7300
40.5342,60.7300
40.5532,60.8257
40.6074,60.9068
40.6885,60.9610
40.7842,60.9800
42.8342,60.9800
42.9299,60.9610
43.0110,60.9068
43.0652,60.8257
43.0842,60.7300
Z" /> 
<path style="fill:#4D7FC4; fill-opacity:1.0000; stroke:none;fill-rule:evenodd;"
d="M 36.9612,42.2200
36.9422,42.1243
36.8880,42.0432
36.8069,41.9890
36.7112,41.9700
34.6612,41.9700
34.5655,41.9890
34.4844,42.0432
34.4302,42.1243
34.4112,42.2200
34.4112,44.2200
34.4302,44.3157
34.4844,44.3968
34.5655,44.4510
34.6612,44.4700
36.7112,44.4700
36.8069,44.4510
36.8880,44.3968
36.9422,44.3157
36.9612,44.2200
Z" /> 
<path style="fill:#4D7FC4; fill-opacity:1.0000; stroke:none;fill-rule:evenodd;"
d="M 24.0342,39.6800
24.0152,39.5843
23.9610,39.5032
23.8799,39.4490
23.7842,39.4300
21.7342,39.4300
21.6385,39.4490
21.5574,39.5032
21.5032,39.5843
21.4842,39.6800
21.4842,41.6800
21.5032,41.7757
21.5574,41.8568
21.6385,41.9110
21.7342,41.9300
23.7842,41.9300
23.8799,41.9110
23.9610,41.8568
24.0152,41.7757
24.0342,41.6800
Z" /> 
<path style="fill:#4D7FC4; fill-opacity:1.0000; stroke:none;fill-rule:evenodd;"
d="M 65.5362,80.3200
65.5172,80.2243
65.4630,80.1432
65.3819,80.0890
65.2862,80.0700
63.2362,80.0700
63.1405,80.0890
63.0594,80.1432
63.0052,80.2243
62.9862,80.3200
62.9862,82.3200
63.0052,82.4157
63.0594,82.4968
63.1405,82.5510
63.2362,82.5700
65.2862,82.5700
65.3819,82.5510
65.4630,82.4968
65.5172,82.4157
65.5362,82.3200
Z" /> 
<path style="fill:#4D7FC4; fill-opacity:1.0000; stroke:none;fill-rule:evenodd;"
d="M 52.6092,77.7800
52.5902,77.6843
52.5360,77.6032
52.4549,77.5490
52.3592,77.5300
50.3092,77.5300
50.2135,77.5490
50.1324,77.6032
50.0782,77.6843
50.0592,77.7800
50.0592,79.7800
50.0782,79.8757
50.1324,79.9568
50.2135,80.0110
50.3092,80.0300
52.3592,80.0300
52.4549,80.0110
52.5360,79.9568
52.5902,79.8757
52.6092,79.7800
Z" /> 
<path style="fill:#4D7FC4; fill-opacity:1.0000; stroke:none;fill-rule:evenodd;"
d="M 70.4262,17.4350
70.4262,15.4350
68.4262,15.4350
68.4262,17.4350
Z" /> 
</g>
<g style="fill:#4D7FC4; fill-opacity:1.0000; stroke:none;">
<circle cx="69.4262" cy="21.4350" r="1.0000" /> 
</g>
<g style="fill:#4D7FC4; fill-opacity:1.0000; stroke:none;">
<circle cx="69.4262" cy="18.9350" r="1.0000" /> 
<path style="fill:#4D7FC4; fill-opacity:1.0000; stroke:none;fill-rule:evenodd;"
d="M 63.5262,14.3350
63.5262,12.3350
60.3262,12.3350
60.3262,14.3350
Z" /> 
<path style="fill:#4D7FC4; fill-opacity:1.0000; stroke:none;fill-rule:evenodd;"
d="M 63.5262,25.5350
63.5262,23.5350
60.3262,23.5350
60.3262,25.5350
Z" /> 
</g>
<g style="fill:#4D7FC4; fill-opacity:1.0000; stroke:none;">
<circle cx="54.9262" cy="21.4350" r="1.0000" /> 
</g>
<g style="fill:#4D7FC4; fill-opacity:1.0000; stroke:none;">
<circle cx="54.9262" cy="16.4350" r="1.0000" /> 
<path style="fill:#4D7FC4; fill-opacity:1.0000; stroke:none;fill-rule:evenodd;"
d="M 27.4362,80.3200
27.4172,80.2243
27.3630,80.1432
27.2819,80.0890
27.1862,80.0700
25.1362,80.0700
25.0405,80.0890
24.9594,80.1432
24.9052,80.2243
24.8862,80.3200
24.8862,82.3200
24.9052,82.4157
24.9594,82.4968
25.0405,82.5510
25.1362,82.5700
27.1862,82.5700
27.2819,82.5510
27.3630,82.4968
27.4172,82.4157
27.4362,82.3200
Z" /> 
<path style="fill:#4D7FC4; fill-opacity:1.0000; stroke:none;fill-rule:evenodd;"
d="M 14.5092,77.7800
14.4902,77.6843
14.4360,77.6032
14.3549,77.5490
14.2592,77.5300
12.2092,77.5300
12.1135,77.5490
12.0324,77.6032
11.9782,77.6843
11.9592,77.7800
11.9592,79.7800
11.9782,79.8757
12.0324,79.9568
12.1135,80.0110
12.2092,80.0300
14.2592,80.0300
14.3549,80.0110
14.4360,79.9568
14.4902,79.8757
14.5092,79.7800
Z" /> 
<path style="fill:#4D7FC4; fill-opacity:1.0000; stroke:none;fill-rule:evenodd;"
d="M 17.9112,42.2200
17.8922,42.1243
17.8380,42.0432
17.7569,41.9890
17.6612,41.9700
15.6112,41.9700
15.5155,41.9890
15.4344,42.0432
15.3802,42.1243
15.3612,42.2200
15.3612,44.2200
15.3802,44.3157
15.4344,44.3968
15.5155,44.4510
15.6112,44.4700
17.6612,44.4700
17.7569,44.4510
17.8380,44.3968
17.8922,44.3157
17.9112,44.2200
Z" /> 
<path style="fill:#4D7FC4; fill-opacity:1.0000; stroke:none;fill-rule:evenodd;"
d="M 4.9842,39.6800
4.9652,39.5843
4.9110,39.5032
4.8299,39.4490
4.7342,39.4300
2.6842,39.4300
2.5885,39.4490
2.5074,39.5032
2.4532,39.5843
2.4342,39.6800
2.4342,41.6800
2.4532,41.7757
2.5074,41.8568
2.5885,41.9110
2.6842,41.9300
4.7342,41.9300
4.8299,41.9110
4.9110,41.8568
4.9652,41.7757
4.9842,41.6800
Z" /> 
<path style="fill:#4D7FC4; fill-opacity:1.0000; stroke:none;fill-rule:evenodd;"
d="M 44.9462,5.1400
46.5462,5.1400
46.5462,3.5400
44.9462,3.5400
Z" /> 
</g>
<g style="fill:#4D7FC4; fill-opacity:1.0000; stroke:none;">
<circle cx="45.7462" cy="6.8800" r="0.8000" /> 
</g>
<g style="fill:#4D7FC4; fill-opacity:1.0000; stroke:none;">
<circle cx="45.7462" cy="9.4200" r="0.8000" /> 
</g>
<g style="fill:#4D7FC4; fill-opacity:1.0000; stroke:none;">
<circle cx="45.7462" cy="11.9600" r="0.8000" /> 
</g>
<g style="fill:#4D7FC4; fill-opacity:1.0000; stroke:none;">
<circle cx="45.7462" cy="14.5000" r="0.8000" /> 
</g>
<g style="fill:#4D7FC4; fill-opacity:1.0000; stroke:none;">
<circle cx="45.7462" cy="17.0400" r="0.8000" /> 
</g>
<g style="fill:#4D7FC4; fill-opacity:1.0000; stroke:none;">
<circle cx="45.7462" cy="19.5800" r="0.8000" /> 
</g>
<g style="fill:#4D7FC4; fill-opacity:1.0000; stroke:none;">
<circle cx="30.5062" cy="19.5800" r="0.8000" /> 
</g>
<g style="fill:#4D7FC4; fill-opacity:1.0000; stroke:none;">
<circle cx="30.5062" cy="17.0400" r="0.8000" /> 
</g>
<g style="fill:#4D7FC4; fill-opacity:1.0000; stroke:none;">
<circle cx="30.5062" cy="14.5000" r="0.8000" /> 
</g>
<g style="fill:#4D7FC4; fill-opacity:1.0000; stroke:none;">
<circle cx="30.5062" cy="11.9600" r="0.8000" /> 
</g>
<g style="fill:#4D7FC4; fill-opacity:1.0000; stroke:none;">
<circle cx="30.5062" cy="9.4200" r="0.8000" /> 
</g>
<g style="fill:#4D7FC4; fill-opacity:1.0000; stroke:none;">
<circle cx="30.5062" cy="6.8800" r="0.8000" /> 
</g>
<g style="fill:#4D7FC4; fill-opacity:1.0000; stroke:none;">
<circle cx="30.5062" cy="4.3400" r="0.8000" /> 
<path style="fill:#4D7FC4; fill-opacity:1.0000; stroke:none;fill-rule:evenodd;"
d="M 36.9612,61.2700
36.9422,61.1743
36.8880,61.0932
36.8069,61.0390
36.7112,61.0200
34.6612,61.0200
34.5655,61.0390
34.4844,61.0932
34.4302,61.1743
34.4112,61.2700
34.4112,63.2700
34.4302,63.3657
34.4844,63.4468
34.5655,63.5010
34.6612,63.5200
36.7112,63.5200
36.8069,63.5010
36.8880,63.4468
36.9422,63.3657
36.9612,63.2700
Z" /> 
<path style="fill:#4D7FC4; fill-opacity:1.0000; stroke:none;fill-rule:evenodd;"
d="M 24.0342,58.7300
24.0152,58.6343
23.9610,58.5532
23.8799,58.4990
23.7842,58.4800
21.7342,58.4800
21.6385,58.4990
21.5574,58.5532
21.5032,58.6343
21.4842,58.7300
21.4842,60.7300
21.5032,60.8257
21.5574,60.9068
21.6385,60.9610
21.7342,60.9800
23.7842,60.9800
23.8799,60.9610
23.9610,60.9068
24.0152,60.8257
24.0342,60.7300
Z" /> 
<path style="fill:#4D7FC4; fill-opacity:1.0000; stroke:none;fill-rule:evenodd;"
d="M 75.0612,61.2700
75.0422,61.1743
74.9880,61.0932
74.9069,61.0390
74.8112,61.0200
72.7612,61.0200
72.6655,61.0390
72.5844,61.0932
72.5302,61.1743
72.5112,61.2700
72.5112,63.2700
72.5302,63.3657
72.5844,63.4468
72.6655,63.5010
72.7612,63.5200
74.8112,63.5200
74.9069,63.5010
74.9880,63.4468
75.0422,63.3657
75.0612,63.2700
Z" /> 
<path style="fill:#4D7FC4; fill-opacity:1.0000; stroke:none;fill-rule:evenodd;"
d="M 62.1342,58.7300
62.1152,58.6343
62.0610,58.5532
61.9799,58.4990
61.8842,58.4800
59.8342,58.4800
59.7385,58.4990
59.6574,58.5532
59.6032,58.6343
59.5842,58.7300
59.5842,60.7300
59.6032,60.8257
59.6574,60.9068
59.7385,60.9610
59.8342,60.9800
61.8842,60.9800
61.9799,60.9610
62.0610,60.9068
62.1152,60.8257
62.1342,60.7300
Z" /> 
<path style="fill:#4D7FC4; fill-opacity:1.0000; stroke:none;fill-rule:evenodd;"
d="M 75.0612,42.2200
75.0422,42.1243
74.9880,42.0432
74.9069,41.9890
74.8112,41.9700
72.7612,41.9700
72.6655,41.9890
72.5844,42.0432
72.5302,42.1243
72.5112,42.2200
72.5112,44.2200
72.5302,44.3157
72.5844,44.3968
72.6655,44.4510
72.7612,44.4700
74.8112,44.4700
74.9069,44.4510
74.9880,44.3968
75.0422,44.3157
75.0612,44.2200
Z" /> 
<path style="fill:#4D7FC4; fill-opacity:1.0000; stroke:none;fill-rule:evenodd;"
d="M 62.1342,39.6800
62.1152,39.5843
62.0610,39.5032
61.9799,39.4490
61.8842,39.4300
59.8342,39.4300
59.7385,39.4490
59.6574,39.5032
59.6032,39.5843
59.5842,39.6800
59.5842,41.6800
59.6032,41.7757
59.6574,41.8568
59.7385,41.9110
59.8342,41.9300
61.8842,41.9300
61.9799,41.9110
62.0610,41.8568
62.1152,41.7757
62.1342,41.6800
Z" /> 
<path style="fill:#4D7FC4; fill-opacity:1.0000; stroke:none;fill-rule:evenodd;"
d="M 56.0112,42.2200
55.9922,42.1243
55.9380,42.0432
55.8569,41.9890
55.7612,41.9700
53.7112,41.9700
53.6155,41.9890
53.5344,42.0432
53.4802,42.1243
53.4612,42.2200
53.4612,44.2200
53.4802,44.3157
53.5344,44.3968
53.6155,44.4510
53.7112,44.4700
55.7612,44.4700
55.8569,44.4510
55.9380,44.3968
55.9922,44.3157
56.0112,44.2200
Z" /> 
<path style="fill:#4D7FC4; fill-opacity:1.0000; stroke:none;fill-rule:evenodd;"
d="M 43.0842,39.6800
43.0652,39.5843
43.0110,39.5032
42.9299,39.4490
42.8342,39.4300
40.7842,39.4300
40.6885,39.4490
40.6074,39.5032
40.5532,39.5843
40.5342,39.6800
40.5342,41.6800
40.5532,41.7757
40.6074,41.8568
40.6885,41.9110
40.7842,41.9300
42.8342,41.9300
42.9299,41.9110
43.0110,41.8568
43.0652,41.7757
43.0842,41.6800
Z" /> 
<path style="fill:#4D7FC4; fill-opacity:1.0000; stroke:none;fill-rule:evenodd;"
d="M 49.7512,54.9100
49.7341,54.8239
49.6853,54.7509
49.6123,54.7021
49.5262,54.6850
49.0762,54.6850
48.9901,54.7021
48.9171,54.7509
48.8683,54.8239
48.8512,54.9100
48.8512,55.6600
48.8683,55.7461
48.9171,55.8191
48.9901,55.8679
49.0762,55.8850
49.5262,55.8850
49.6123,55.8679
49.6853,55.8191
49.7341,55.7461
49.7512,55.6600
Z" /> 
<path style="fill:#4D7FC4; fill-opacity:1.0000; stroke:none;fill-rule:evenodd;"
d="M 46.4512,54.9100
46.4341,54.8239
46.3853,54.7509
46.3123,54.7021
46.2262,54.6850
45.7762,54.6850
45.6901,54.7021
45.6171,54.7509
45.5683,54.8239
45.5512,54.9100
45.5512,55.6600
45.5683,55.7461
45.6171,55.8191
45.6901,55.8679
45.7762,55.8850
46.2262,55.8850
46.3123,55.8679
46.3853,55.8191
46.4341,55.7461
46.4512,55.6600
Z" /> 
<path style="fill:#4D7FC4; fill-opacity:1.0000; stroke:none;fill-rule:evenodd;"
d="M 59.2762,93.1600
59.2591,93.0739
59.2103,93.0009
59.1373,92.9521
59.0512,92.9350
58.6012,92.9350
58.5151,92.9521
58.4421,93.0009
58.3933,93.0739
58.3762,93.1600
58.3762,93.9100
58.3933,93.9961
58.4421,94.0691
58.5151,94.1179
58.6012,94.1350
59.0512,94.1350
59.1373,94.1179
59.2103,94.0691
59.2591,93.9961
59.2762,93.9100
Z" /> 
<path style="fill:#4D7FC4; fill-opacity:1.0000; stroke:none;fill-rule:evenodd;"
d="M 55.9762,93.1600
55.9591,93.0739
55.9103,93.0009
55.8373,92.9521
55.7512,92.9350
55.3012,92.9350
55.2151,92.9521
55.1421,93.0009
55.0933,93.0739
55.0762,93.1600
55.0762,93.9100
55.0933,93.9961
55.1421,94.0691
55.2151,94.1179
55.3012,94.1350
55.7512,94.1350
55.8373,94.1179
55.9103,94.0691
55.9591,93.9961
55.9762,93.9100
Z" /> 
<path style="fill:#4D7FC4; fill-opacity:1.0000; stroke:none;fill-rule:evenodd;"
d="M 39.5512,24.1100
39.5322,24.0143
39.4780,23.9332
39.3969,23.8790
39.3012,23.8600
38.7762,23.8600
38.6805,23.8790
38.5994,23.9332
38.5452,24.0143
38.5262,24.1100
38.5262,25.0100
38.5452,25.1057
38.5994,25.1868
38.6805,25.2410
38.7762,25.2600
39.3012,25.2600
39.3969,25.2410
39.4780,25.1868
39.5322,25.1057
39.5512,25.0100
Z" /> 
<path style="fill:#4D7FC4; fill-opacity:1.0000; stroke:none;fill-rule:evenodd;"
d="M 37.7262,24.1100
37.7072,24.0143
37.6530,23.9332
37.5719,23.8790
37.4762,23.8600
36.9512,23.8600
36.8555,23.8790
36.7744,23.9332
36.7202,24.0143
36.7012,24.1100
36.7012,25.0100
36.7202,25.1057
36.7744,25.1868
36.8555,25.2410
36.9512,25.2600
37.4762,25.2600
37.5719,25.2410
37.6530,25.1868
37.7072,25.1057
37.7262,25.0100
Z" /> 
<path style="fill:#4D7FC4; fill-opacity:1.0000; stroke:none;fill-rule:evenodd;"
d="M 45.8262,32.0100
45.8433,32.0961
45.8921,32.1691
45.9651,32.2179
46.0512,32.2350
46.5012,32.2350
46.5873,32.2179
46.6603,32.1691
46.7091,32.0961
46.7262,32.0100
46.7262,31.5100
46.7091,31.4239
46.6603,31.3509
46.5873,31.3021
46.5012,31.2850
46.0512,31.2850
45.9651,31.3021
45.8921,31.3509
45.8433,31.4239
45.8262,31.5100
Z" /> 
<path style="fill:#4D7FC4; fill-opacity:1.0000; stroke:none;fill-rule:evenodd;"
d="M 47.3762,32.0100
47.3933,32.0961
47.4421,32.1691
47.5151,32.2179
47.6012,32.2350
48.0512,32.2350
48.1373,32.2179
48.2103,32.1691
48.2591,32.0961
48.2762,32.0100
48.2762,31.5100
48.2591,31.4239
48.2103,31.3509
48.1373,31.3021
48.0512,31.2850
47.6012,31.2850
47.5151,31.3021
47.4421,31.3509
47.3933,31.4239
47.3762,31.5100
Z" /> 
<path style="fill:#4D7FC4; fill-opacity:1.0000; stroke:none;fill-rule:evenodd;"
d="M 11.6512,73.9600
11.6341,73.8739
11.5853,73.8009
11.5123,73.7521
11.4262,73.7350
10.9762,73.7350
10.8901,73.7521
10.8171,73.8009
10.7683,73.8739
10.7512,73.9600
10.7512,74.7100
10.7683,74.7961
10.8171,74.8691
10.8901,74.9179
10.9762,74.9350
11.4262,74.9350
11.5123,74.9179
11.5853,74.8691
11.6341,74.7961
11.6512,74.7100
Z" /> 
<path style="fill:#4D7FC4; fill-opacity:1.0000; stroke:none;fill-rule:evenodd;"
d="M 8.3512,73.9600
8.3341,73.8739
8.2853,73.8009
8.2123,73.7521
8.1262,73.7350
7.6762,73.7350
7.5901,73.7521
7.5171,73.8009
7.4683,73.8739
7.4512,73.9600
7.4512,74.7100
7.4683,74.7961
7.5171,74.8691
7.5901,74.9179
7.6762,74.9350
8.1262,74.9350
8.2123,74.9179
8.2853,74.8691
8.3341,74.7961
8.3512,74.7100
Z" /> 
<path style="fill:#4D7FC4; fill-opacity:1.0000; stroke:none;fill-rule:evenodd;"
d="M 26.0012,24.9700
26.0081,25.0044
26.0276,25.0336
26.0568,25.0531
26.0912,25.0600
27.4112,25.0600
27.4456,25.0531
27.4748,25.0336
27.4943,25.0044
27.5012,24.9700
27.5012,24.2500
27.4943,24.2156
27.4748,24.1864
27.4456,24.1669
27.4112,24.1600
26.0912,24.1600
26.0568,24.1669
26.0276,24.1864
26.0081,24.2156
26.0012,24.2500
Z" /> 
<path style="fill:#4D7FC4; fill-opacity:1.0000; stroke:none;fill-rule:evenodd;"
d="M 26.0012,28.2700
26.0081,28.3044
26.0276,28.3336
26.0568,28.3531
26.0912,28.3600
27.4112,28.3600
27.4456,28.3531
27.4748,28.3336
27.4943,28.3044
27.5012,28.2700
27.5012,27.5500
27.4943,27.5156
27.4748,27.4864
27.4456,27.4669
27.4112,27.4600
26.0912,27.4600
26.0568,27.4669
26.0276,27.4864
26.0081,27.5156
26.0012,27.5500
Z" /> 
<path style="fill:#4D7FC4; fill-opacity:1.0000; stroke:none;fill-rule:evenodd;"
d="M 30.9012,28.2700
30.9081,28.3044
30.9276,28.3336
30.9568,28.3531
30.9912,28.3600
32.3112,28.3600
32.3456,28.3531
32.3748,28.3336
32.3943,28.3044
32.4012,28.2700
32.4012,27.5500
32.3943,27.5156
32.3748,27.4864
32.3456,27.4669
32.3112,27.4600
30.9912,27.4600
30.9568,27.4669
30.9276,27.4864
30.9081,27.5156
30.9012,27.5500
Z" /> 
<path style="fill:#4D7FC4; fill-opacity:1.0000; stroke:none;fill-rule:evenodd;"
d="M 30.9012,24.9700
30.9081,25.0044
30.9276,25.0336
30.9568,25.0531
30.9912,25.0600
32.3112,25.0600
32.3456,25.0531
32.3748,25.0336
32.3943,25.0044
32.4012,24.9700
32.4012,24.2500
32.3943,24.2156
32.3748,24.1864
32.3456,24.1669
32.3112,24.1600
30.9912,24.1600
30.9568,24.1669
30.9276,24.1864
30.9081,24.2156
30.9012,24.2500
Z" /> 
<path style="fill:#4D7FC4; fill-opacity:1.0000; stroke:none;fill-rule:evenodd;"
d="M 30.7012,54.9100
30.6841,54.8239
30.6353,54.7509
30.5623,54.7021
30.4762,54.6850
30.0262,54.6850
29.9401,54.7021
29.8671,54.7509
29.8183,54.8239
29.8012,54.9100
29.8012,55.6600
29.8183,55.7461
29.8671,55.8191
29.9401,55.8679
30.0262,55.8850
30.4762,55.8850
30.5623,55.8679
30.6353,55.8191
30.6841,55.7461
30.7012,55.6600
Z" /> 
<path style="fill:#4D7FC4; fill-opacity:1.0000; stroke:none;fill-rule:evenodd;"
d="M 27.4012,54.9100
27.3841,54.8239
27.3353,54.7509
27.2623,54.7021
27.1762,54.6850
26.7262,54.6850
26.6401,54.7021
26.5671,54.7509
26.5183,54.8239
26.5012,54.9100
26.5012,55.6600
26.5183,55.7461
26.5671,55.8191
26.6401,55.8679
26.7262,55.8850
27.1762,55.8850
27.2623,55.8679
27.3353,55.8191
27.3841,55.7461
27.4012,55.6600
Z" /> 
<path style="fill:#4D7FC4; fill-opacity:1.0000; stroke:none;fill-rule:evenodd;"
d="M 21.1762,93.1600
21.1591,93.0739
21.1103,93.0009
21.0373,92.9521
20.9512,92.9350
20.5012,92.9350
20.4151,92.9521
20.3421,93.0009
20.2933,93.0739
20.2762,93.1600
20.2762,93.9100
20.2933,93.9961
20.3421,94.0691
20.4151,94.1179
20.5012,94.1350
20.9512,94.1350
21.0373,94.1179
21.1103,94.0691
21.1591,93.9961
21.1762,93.9100
Z" /> 
<path style="fill:#4D7FC4; fill-opacity:1.0000; stroke:none;fill-rule:evenodd;"
d="M 17.8762,93.1600
17.8591,93.0739
17.8103,93.0009
17.7373,92.9521
17.6512,92.9350
17.2012,92.9350
17.1151,92.9521
17.0421,93.0009
16.9933,93.0739
16.9762,93.1600
16.9762,93.9100
16.9933,93.9961
17.0421,94.0691
17.1151,94.1179
17.2012,94.1350
17.6512,94.1350
17.7373,94.1179
17.8103,94.0691
17.8591,93.9961
17.8762,93.9100
Z" /> 
<path style="fill:#4D7FC4; fill-opacity:1.0000; stroke:none;fill-rule:evenodd;"
d="M 68.8012,54.9100
68.7841,54.8239
68.7353,54.7509
68.6623,54.7021
68.5762,54.6850
68.1262,54.6850
68.0401,54.7021
67.9671,54.7509
67.9183,54.8239
67.9012,54.9100
67.9012,55.6600
67.9183,55.7461
67.9671,55.8191
68.0401,55.8679
68.1262,55.8850
68.5762,55.8850
68.6623,55.8679
68.7353,55.8191
68.7841,55.7461
68.8012,55.6600
Z" /> 
<path style="fill:#4D7FC4; fill-opacity:1.0000; stroke:none;fill-rule:evenodd;"
d="M 65.5012,54.9100
65.4841,54.8239
65.4353,54.7509
65.3623,54.7021
65.2762,54.6850
64.8262,54.6850
64.7401,54.7021
64.6671,54.7509
64.6183,54.8239
64.6012,54.9100
64.6012,55.6600
64.6183,55.7461
64.6671,55.8191
64.7401,55.8679
64.8262,55.8850
65.2762,55.8850
65.3623,55.8679
65.4353,55.8191
65.4841,55.7461
65.5012,55.6600
Z" /> 
<path style="fill:#4D7FC4; fill-opacity:1.0000; stroke:none;fill-rule:evenodd;"
d="M 49.7512,73.9600
49.7341,73.8739
49.6853,73.8009
49.6123,73.7521
49.5262,73.7350
49.0762,73.7350
48.9901,73.7521
48.9171,73.8009
48.8683,73.8739
48.8512,73.9600
48.8512,74.7100
48.8683,74.7961
48.9171,74.8691
48.9901,74.9179
49.0762,74.9350
49.5262,74.9350
49.6123,74.9179
49.6853,74.8691
49.7341,74.7961
49.7512,74.7100
Z" /> 
<path style="fill:#4D7FC4; fill-opacity:1.0000; stroke:none;fill-rule:evenodd;"
d="M 46.4512,73.9600
46.4341,73.8739
46.3853,73.8009
46.3123,73.7521
46.2262,73.7350
45.7762,73.7350
45.6901,73.7521
45.6171,73.8009
45.5683,73.8739
45.5512,73.9600
45.5512,74.7100
45.5683,74.7961
45.6171,74.8691
45.6901,74.9179
45.7762,74.9350
46.2262,74.9350
46.3123,74.9179
46.3853,74.8691
46.4341,74.7961
46.4512,74.7100
Z" /> 
<path style="fill:#4D7FC4; fill-opacity:1.0000; stroke:none;fill-rule:evenodd;"
d="M 43.8512,24.9700
43.8581,25.0044
43.8776,25.0336
43.9068,25.0531
43.9412,25.0600
45.2612,25.0600
45.2956,25.0531
45.3248,25.0336
45.3443,25.0044
45.3512,24.9700
45.3512,24.2500
45.3443,24.2156
45.3248,24.1864
45.2956,24.1669
45.2612,24.1600
43.9412,24.1600
43.9068,24.1669
43.8776,24.1864
43.8581,24.2156
43.8512,24.2500
Z" /> 
<path style="fill:#4D7FC4; fill-opacity:1.0000; stroke:none;fill-rule:evenodd;"
d="M 43.8512,28.2700
43.8581,28.3044
43.8776,28.3336
43.9068,28.3531
43.9412,28.3600
45.2612,28.3600
45.2956,28.3531
45.3248,28.3336
45.3443,28.3044
45.3512,28.2700
45.3512,27.5500
45.3443,27.5156
45.3248,27.4864
45.2956,27.4669
45.2612,27.4600
43.9412,27.4600
43.9068,27.4669
43.8776,27.4864
43.8581,27.5156
43.8512,27.5500
Z" /> 
<path style="fill:#4D7FC4; fill-opacity:1.0000; stroke:none;fill-rule:evenodd;"
d="M 48.7512,28.2700
48.7581,28.3044
48.7776,28.3336
48.8068,28.3531
48.8412,28.3600
50.1612,28.3600
50.1956,28.3531
50.2248,28.3336
50.2443,28.3044
50.2512,28.2700
50.2512,27.5500
50.2443,27.5156
50.2248,27.4864
50.1956,27.4669
50.1612,27.4600
48.8412,27.4600
48.8068,27.4669
48.7776,27.4864
48.7581,27.5156
48.7512,27.5500
Z" /> 
<path style="fill:#4D7FC4; fill-opacity:1.0000; stroke:none;fill-rule:evenodd;"
d="M 48.7512,24.9700
48.7581,25.0044
48.7776,25.0336
48.8068,25.0531
48.8412,25.0600
50.1612,25.0600
50.1956,25.0531
50.2248,25.0336
50.2443,25.0044
50.2512,24.9700
50.2512,24.2500
50.2443,24.2156
50.2248,24.1864
50.1956,24.1669
50.1612,24.1600
48.8412,24.1600
48.8068,24.1669
48.7776,24.1864
48.7581,24.2156
48.7512,24.2500
Z" /> 
<path style="fill:#4D7FC4; fill-opacity:1.0000; stroke:none;fill-rule:evenodd;"
d="M 30.7012,73.9600
30.6841,73.8739
30.6353,73.8009
30.5623,73.7521
30.4762,73.7350
30.0262,73.7350
29.9401,73.7521
29.8671,73.8009
29.8183,73.8739
29.8012,73.9600
29.8012,74.7100
29.8183,74.7961
29.8671,74.8691
29.9401,74.9179
30.0262,74.9350
30.4762,74.9350
30.5623,74.9179
30.6353,74.8691
30.6841,74.7961
30.7012,74.7100
Z" /> 
<path style="fill:#4D7FC4; fill-opacity:1.0000; stroke:none;fill-rule:evenodd;"
d="M 27.4012,73.9600
27.3841,73.8739
27.3353,73.8009
27.2623,73.7521
27.1762,73.7350
26.7262,73.7350
26.6401,73.7521
26.5671,73.8009
26.5183,73.8739
26.5012,73.9600
26.5012,74.7100
26.5183,74.7961
26.5671,74.8691
26.6401,74.9179
26.7262,74.9350
27.1762,74.9350
27.2623,74.9179
27.3353,74.8691
27.3841,74.7961
27.4012,74.7100
Z" /> 
<path style="fill:#4D7FC4; fill-opacity:1.0000; stroke:none;fill-rule:evenodd;"
d="M 27.9762,32.0100
27.9933,32.0961
28.0421,32.1691
28.1151,32.2179
28.2012,32.2350
28.6512,32.2350
28.7373,32.2179
28.8103,32.1691
28.8591,32.0961
28.8762,32.0100
28.8762,31.5100
28.8591,31.4239
28.8103,31.3509
28.7373,31.3021
28.6512,31.2850
28.2012,31.2850
28.1151,31.3021
28.0421,31.3509
27.9933,31.4239
27.9762,31.5100
Z" /> 
<path style="fill:#4D7FC4; fill-opacity:1.0000; stroke:none;fill-rule:evenodd;"
d="M 29.5262,32.0100
29.5433,32.0961
29.5921,32.1691
29.6651,32.2179
29.7512,32.2350
30.2012,32.2350
30.2873,32.2179
30.3603,32.1691
30.4091,32.0961
30.4262,32.0100
30.4262,31.5100
30.4091,31.4239
30.3603,31.3509
30.2873,31.3021
30.2012,31.2850
29.7512,31.2850
29.6651,31.3021
29.5921,31.3509
29.5433,31.4239
29.5262,31.5100
Z" /> 
<path style="fill:#4D7FC4; fill-opacity:1.0000; stroke:none;fill-rule:evenodd;"
d="M 68.8012,73.9600
68.7841,73.8739
68.7353,73.8009
68.6623,73.7521
68.5762,73.7350
68.1262,73.7350
68.0401,73.7521
67.9671,73.8009
67.9183,73.8739
67.9012,73.9600
67.9012,74.7100
67.9183,74.7961
67.9671,74.8691
68.0401,74.9179
68.1262,74.9350
68.5762,74.9350
68.6623,74.9179
68.7353,74.8691
68.7841,74.7961
68.8012,74.7100
Z" /> 
<path style="fill:#4D7FC4; fill-opacity:1.0000; stroke:none;fill-rule:evenodd;"
d="M 65.5012,73.9600
65.4841,73.8739
65.4353,73.8009
65.3623,73.7521
65.2762,73.7350
64.8262,73.7350
64.7401,73.7521
64.6671,73.8009
64.6183,73.8739
64.6012,73.9600
64.6012,74.7100
64.6183,74.7961
64.6671,74.8691
64.7401,74.9179
64.8262,74.9350
65.2762,74.9350
65.3623,74.9179
65.4353,74.8691
65.4841,74.7961
65.5012,74.7100
Z" /> 
<path style="fill:#4D7FC4; fill-opacity:1.0000; stroke:none;fill-rule:evenodd;"
d="M 11.6512,54.9100
11.6341,54.8239
11.5853,54.7509
11.5123,54.7021
11.4262,54.6850
10.9762,54.6850
10.8901,54.7021
10.8171,54.7509
10.7683,54.8239
10.7512,54.9100
10.7512,55.6600
10.7683,55.7461
10.8171,55.8191
10.8901,55.8679
10.9762,55.8850
11.4262,55.8850
11.5123,55.8679
11.5853,55.8191
11.6341,55.7461
11.6512,55.6600
Z" /> 
<path style="fill:#4D7FC4; fill-opacity:1.0000; stroke:none;fill-rule:evenodd;"
d="M 8.3512,54.9100
8.3341,54.8239
8.2853,54.7509
8.2123,54.7021
8.1262,54.6850
7.6762,54.6850
7.5901,54.7021
7.5171,54.7509
7.4683,54.8239
7.4512,54.9100
7.4512,55.6600
7.4683,55.7461
7.5171,55.8191
7.5901,55.8679
7.6762,55.8850
8.1262,55.8850
8.2123,55.8679
8.2853,55.8191
8.3341,55.7461
8.3512,55.6600
Z" /> 
</g>
<g style="fill:#4D7FC4; fill-opacity:1.0000; stroke:none;">
<circle cx="24.5012" cy="20.2600" r="0.3000" /> 
</g>
<g style="fill:#4D7FC4; fill-opacity:1.0000; stroke:none;">
<circle cx="12.2012" cy="52.0600" r="0.3000" /> 
</g>
<g style="fill:#4D7FC4; fill-opacity:1.0000; stroke:none;">
<circle cx="19.8012" cy="51.0600" r="0.3000" /> 
</g>
<g style="fill:#4D7FC4; fill-opacity:1.0000; stroke:none;">
<circle cx="37.8012" cy="20.7600" r="0.3000" /> 
</g>
<g style="fill:none; 
stroke:#4D7FC4; stroke-width:0.2000; stroke-opacity:1; 
stroke-linecap:round; stroke-linejoin:round;">
<path d="M26.7512 24.6100
L28.4262 26.2850
" />
<path d="M46.2762 29.4105
L50.5522 25.1345
" />
<path d="M26.6512 24.6100
L24.5012 22.4600
" />
<path d="M26.7512 24.6100
L26.6512 24.6100
" />
<path d="M50.5522 23.6110
L49.8012 22.8600
" />
<path d="M42.8012 22.8100
L42.8012 16.6350
" />
<path d="M49.8012 22.8600
L46.3512 22.8600
" />
<path d="M28.4262 26.2850
L28.4262 31.7600
" />
<path d="M46.3512 22.8600
L44.6012 24.6100
" />
<path d="M50.5522 25.1345
L50.5522 23.6110
" />
<path d="M44.6012 24.6100
L42.8012 22.8100
" />
<path d="M42.8012 16.6350
L30.5062 4.3400
" />
<path d="M46.2762 31.7600
L46.2762 29.4105
" />
<path d="M24.5012 22.4600
L24.5012 20.2600
" />
<path d="M32.2767 23.6600
L33.0012 24.3845
" />
<path d="M29.9762 24.7095
L31.0257 23.6600
" />
<path d="M34.3012 10.6750
L30.5062 6.8800
" />
<path d="M33.2512 27.9100
L34.3012 26.8600
" />
<path d="M31.0257 23.6600
L32.2767 23.6600
" />
<path d="M33.0012 24.3845
L33.0012 26.5600
" />
<path d="M31.6512 27.9100
L33.2512 27.9100
" />
<path d="M29.9762 31.7600
L29.9762 24.7095
" />
<path d="M47.8262 31.7600
L47.0502 32.5360
" />
<path d="M33.0012 26.5600
L31.6512 27.9100
" />
<path d="M47.0502 32.5360
L30.7522 32.5360
" />
<path d="M49.5012 27.9100
L47.8262 29.5850
" />
<path d="M47.8262 29.5850
L47.8262 31.7600
" />
<path d="M34.3012 26.8600
L34.3012 10.6750
" />
<path d="M30.7522 32.5360
L29.9762 31.7600
" />
<path d="M60.3952 41.1440
L60.3952 50.6290
" />
<path d="M60.8592 40.6800
L60.3952 41.1440
" />
<path d="M60.3952 50.6290
L65.0512 55.2850
" />
<path d="M10.3002 56.1860
L6.0272 56.1860
" />
<path d="M2.1332 52.2920
L2.1332 37.5280
" />
<path d="M11.2012 55.2850
L10.3002 56.1860
" />
<path d="M2.1332 37.5280
L4.2012 35.4600
" />
<path d="M17.5012 35.4600
L22.7012 30.2600
" />
<path d="M28.8002 56.7360
L25.4772 56.7360
" />
<path d="M33.1734 66.0360
L30.2512 63.1138
" />
<path d="M4.2012 35.4600
L17.5012 35.4600
" />
<path d="M68.3512 55.2850
L66.6762 56.9600
" />
<path d="M40.8740 57.8540
L37.2622 61.4658
" />
<path d="M52.2234 66.0360
L49.3012 63.1138
" />
<path d="M49.3012 63.1138
L49.3012 55.2850
" />
<path d="M11.2012 53.0600
L11.2012 55.2850
" />
<path d="M34.7314 66.0360
L33.1734 66.0360
" />
<path d="M49.3012 55.2850
L46.7322 57.8540
" />
<path d="M22.7012 19.4600
L25.1212 17.0400
" />
<path d="M6.0272 56.1860
L2.1332 52.2920
" />
<path d="M46.7322 57.8540
L40.8740 57.8540
" />
<path d="M12.2012 52.0600
L11.2012 53.0600
" />
<path d="M56.3122 63.5052
L53.7814 66.0360
" />
<path d="M66.6762 56.9600
L60.3870 56.9600
" />
<path d="M53.7814 66.0360
L52.2234 66.0360
" />
<path d="M22.7012 30.2600
L22.7012 19.4600
" />
<path d="M37.2622 63.5052
L34.7314 66.0360
" />
<path d="M56.3122 61.0348
L56.3122 63.5052
" />
<path d="M37.2622 61.4658
L37.2622 63.5052
" />
<path d="M25.1212 17.0400
L30.5062 17.0400
" />
<path d="M60.3870 56.9600
L56.3122 61.0348
" />
<path d="M30.2512 55.2850
L28.8002 56.7360
" />
<path d="M25.4772 56.7360
L19.8012 51.0600
" />
<path d="M30.2512 63.1138
L30.2512 55.2850
" />
<path d="M41.3452 41.1440
L41.3452 50.6290
" />
<path d="M41.3452 50.6290
L46.0012 55.2850
" />
<path d="M41.8092 40.6800
L41.3452 41.1440
" />
<path d="M22.7592 40.6800
L22.2952 41.1440
" />
<path d="M22.2952 50.6290
L26.9512 55.2850
" />
<path d="M22.2952 41.1440
L22.2952 50.6290
" />
<path d="M3.7092 40.6800
L3.2452 41.1440
" />
<path d="M3.2452 41.1440
L3.2452 50.6290
" />
<path d="M3.2452 50.6290
L7.9012 55.2850
" />
<path d="M60.3952 60.1940
L60.3952 69.6790
" />
<path d="M60.3952 69.6790
L65.0512 74.3350
" />
<path d="M60.8592 59.7300
L60.3952 60.1940
" />
<path d="M21.6012 30.0600
L21.6012 19.1600
" />
<path d="M7.9148 78.7500
L6.3615 78.7500
" />
<path d="M11.2012 75.4637
L7.9148 78.7500
" />
<path d="M23.6270 85.0860
L19.1970 80.6560
" />
<path d="M26.2612 14.5000
L30.5062 14.5000
" />
<path d="M35.5408 78.7500
L31.1258 74.3350
" />
<path d="M4.2012 34.1600
L17.5012 34.1600
" />
<path d="M1.3012 37.0600
L4.2012 34.1600
" />
<path d="M19.1970 80.6560
L19.1970 78.7878
" />
<path d="M6.3615 78.7500
L1.3012 73.6897
" />
<path d="M27.7372 76.8490
L27.7372 82.5552
" />
<path d="M1.3012 73.6897
L1.3012 37.0600
" />
<path d="M14.7443 74.3350
L11.2012 74.3350
" />
<path d="M65.8262 76.8600
L51.8262 76.8600
" />
<path d="M46.0148 78.7500
L35.5408 78.7500
" />
<path d="M11.2012 74.3350
L11.2012 75.4637
" />
<path d="M30.2512 74.3350
L27.7372 76.8490
" />
<path d="M51.8262 76.8600
L49.3012 74.3350
" />
<path d="M21.6012 19.1600
L26.2612 14.5000
" />
<path d="M49.3012 74.3350
L49.3012 75.4637
" />
<path d="M25.2064 85.0860
L23.6270 85.0860
" />
<path d="M19.1970 78.7878
L14.7443 74.3350
" />
<path d="M27.7372 82.5552
L25.2064 85.0860
" />
<path d="M68.3512 74.3350
L65.8262 76.8600
" />
<path d="M17.5012 34.1600
L21.6012 30.0600
" />
<path d="M49.3012 75.4637
L46.0148 78.7500
" />
<path d="M31.1258 74.3350
L30.2512 74.3350
" />
<path d="M41.8092 59.7300
L41.3452 60.1940
" />
<path d="M41.3452 69.6790
L46.0012 74.3350
" />
<path d="M41.3452 60.1940
L41.3452 69.6790
" />
<path d="M22.7592 59.7300
L22.2952 60.1940
" />
<path d="M22.2952 60.1940
L22.2952 69.6790
" />
<path d="M22.2952 69.6790
L26.9512 74.3350
" />
<path d="M3.2452 69.6790
L7.9012 74.3350
" />
<path d="M3.2452 60.1940
L3.2452 69.6790
" />
<path d="M3.7092 59.7300
L3.2452 60.1940
" />
<path d="M50.8702 88.8790
L55.5262 93.5350
" />
<path d="M51.3342 78.7800
L50.8702 79.2440
" />
<path d="M50.8702 79.2440
L50.8702 88.8790
" />
<path d="M57.5774 94.7838
L21.9750 94.7838
" />
<path d="M58.8262 93.5350
L57.5774 94.7838
" />
<path d="M20.7262 93.5350
L19.8252 94.4360
" />
<path d="M4.2012 32.7600
L17.3012 32.7600
" />
<path d="M2.4772 94.4360
L0.6270 92.5858
" />
<path d="M0.6270 92.5858
L0.6270 36.3342
" />
<path d="M20.3012 17.9600
L26.3012 11.9600
" />
<path d="M17.3012 32.7600
L20.3012 29.7600
" />
<path d="M21.9750 94.7838
L20.7262 93.5350
" />
<path d="M19.8252 94.4360
L2.4772 94.4360
" />
<path d="M20.3012 29.7600
L20.3012 17.9600
" />
<path d="M26.3012 11.9600
L30.5062 11.9600
" />
<path d="M0.6270 36.3342
L4.2012 32.7600
" />
<path d="M13.2342 78.7800
L12.7702 79.2440
" />
<path d="M12.7702 79.2440
L12.7702 88.8790
" />
<path d="M12.7702 88.8790
L17.4262 93.5350
" />
<path d="M44.6012 27.9100
L43.8502 28.6610
" />
<path d="M30.6002 28.4345
L30.6002 25.6610
" />
<path d="M30.6002 25.6610
L31.6512 24.6100
" />
<path d="M43.8502 28.6610
L30.8267 28.6610
" />
<path d="M30.8267 28.6610
L30.6002 28.4345
" />
<path d="M48.5502 25.5610
L38.2147 25.5610
" />
<path d="M49.5012 24.6100
L48.5502 25.5610
" />
<path d="M38.2147 25.5610
L37.2137 24.5600
" />
<path d="M39.0387 24.5600
L39.0387 21.9975
" />
<path d="M39.0387 21.9975
L37.8012 20.7600
" />
<path d="M70.3412 81.3200
L64.2612 81.3200
" />
<path d="M73.7862 43.2200
L75.3012 41.7050
" />
<path d="M73.7862 43.2200
L73.7862 62.2700
" />
<path d="M73.7862 62.2700
L73.7862 77.8750
" />
<path d="M73.7862 77.8750
L70.3412 81.3200
" />
<path d="M75.3012 41.7050
L75.3012 7.6600
" />
<path d="M71.9812 4.3400
L45.7462 4.3400
" />
<path d="M75.3012 7.6600
L71.9812 4.3400
" />
<path d="M74.2012 32.1600
L70.6012 35.7600
" />
<path d="M72.0212 6.8800
L74.2012 9.0600
" />
<path d="M74.2012 9.0600
L74.2012 32.1600
" />
<path d="M54.7362 43.2200
L54.1012 43.8550
" />
<path d="M54.7362 37.0250
L54.7362 43.2200
" />
<path d="M56.0012 35.7600
L54.7362 37.0250
" />
<path d="M54.1012 61.6350
L54.7362 62.2700
" />
<path d="M54.1012 43.8550
L54.1012 61.6350
" />
<path d="M45.7462 6.8800
L72.0212 6.8800
" />
<path d="M70.6012 35.7600
L56.0012 35.7600
" />
<path d="M45.7462 9.4200
L71.3612 9.4200
" />
<path d="M35.1012 43.8050
L35.1012 61.6850
" />
<path d="M71.3612 9.4200
L72.8012 10.8600
" />
<path d="M37.4012 34.3600
L35.6862 36.0750
" />
<path d="M72.8012 10.8600
L72.8012 31.2600
" />
<path d="M72.8012 31.2600
L69.7012 34.3600
" />
<path d="M35.1012 61.6850
L35.6862 62.2700
" />
<path d="M69.7012 34.3600
L37.4012 34.3600
" />
<path d="M35.6862 43.2200
L35.1012 43.8050
" />
<path d="M35.6862 36.0750
L35.6862 43.2200
" />
<path d="M71.7012 14.8600
L71.7012 30.1600
" />
<path d="M45.7462 11.9600
L46.9462 10.7600
" />
<path d="M16.6362 62.2700
L16.6362 66.9950
" />
<path d="M46.9462 10.7600
L67.6012 10.7600
" />
<path d="M71.7012 30.1600
L68.5012 33.3600
" />
<path d="M16.6362 66.9950
L26.1612 76.5200
" />
<path d="M16.6362 37.8250
L16.6362 43.2200
" />
<path d="M67.6012 10.7600
L71.7012 14.8600
" />
<path d="M68.5012 33.3600
L21.1012 33.3600
" />
<path d="M16.6362 43.2200
L16.0012 43.8550
" />
<path d="M21.1012 33.3600
L16.6362 37.8250
" />
<path d="M16.0012 61.6350
L16.6362 62.2700
" />
<path d="M26.1612 76.5200
L26.1612 81.3200
" />
<path d="M16.0012 43.8550
L16.0012 61.6350
" />
</g>
<g style="fill:none; 
stroke:#E8B2A7; stroke-width:0.1500; stroke-opacity:1; 
stroke-linecap:round; stroke-linejoin:round;">
<text x="38.1262" y="26.7100"
textLength="2.2024" font-size="1.3333" lengthAdjust="spacingAndGlyphs"
text-anchor="middle" opacity="0" stroke-opacity="0">R1</text>
<g class="stroked-text"><desc>R1</desc>
<path d="M37.9595 26.6648
L37.6262 26.1886
" />
<path d="M37.3881 26.6648
L37.3881 25.6648
" />
<path d="M37.3881 25.6648
L37.7691 25.6648
" />
<path d="M37.7691 25.6648
L37.8643 25.7124
" />
<path d="M37.8643 25.7124
L37.9119 25.7601
" />
<path d="M37.9119 25.7601
L37.9595 25.8553
" />
<path d="M37.9595 25.8553
L37.9595 25.9982
" />
<path d="M37.9595 25.9982
L37.9119 26.0934
" />
<path d="M37.9119 26.0934
L37.8643 26.1410
" />
<path d="M37.8643 26.1410
L37.7691 26.1886
" />
<path d="M37.7691 26.1886
L37.3881 26.1886
" />
<path d="M38.9119 26.6648
L38.3405 26.6648
" />
<path d="M38.6262 26.6648
L38.6262 25.6648
" />
<path d="M38.6262 25.6648
L38.5310 25.8077
" />
<path d="M38.5310 25.8077
L38.4357 25.9029
" />
<path d="M38.4357 25.9029
L38.3405 25.9505
" />
</g><text x="47.0512" y="30.8300"
textLength="2.2024" font-size="1.3333" lengthAdjust="spacingAndGlyphs"
text-anchor="middle" opacity="0" stroke-opacity="0">C1</text>
<g class="stroked-text"><desc>C1</desc>
<path d="M46.8845 30.6896
L46.8369 30.7372
" />
<path d="M46.8369 30.7372
L46.6941 30.7848
" />
<path d="M46.6941 30.7848
L46.5988 30.7848
" />
<path d="M46.5988 30.7848
L46.4560 30.7372
" />
<path d="M46.4560 30.7372
L46.3607 30.6420
" />
<path d="M46.3607 30.6420
L46.3131 30.5467
" />
<path d="M46.3131 30.5467
L46.2655 30.3562
" />
<path d="M46.2655 30.3562
L46.2655 30.2134
" />
<path d="M46.2655 30.2134
L46.3131 30.0229
" />
<path d="M46.3131 30.0229
L46.3607 29.9277
" />
<path d="M46.3607 29.9277
L46.4560 29.8324
" />
<path d="M46.4560 29.8324
L46.5988 29.7848
" />
<path d="M46.5988 29.7848
L46.6941 29.7848
" />
<path d="M46.6941 29.7848
L46.8369 29.8324
" />
<path d="M46.8369 29.8324
L46.8845 29.8801
" />
<path d="M47.8369 30.7848
L47.2655 30.7848
" />
<path d="M47.5512 30.7848
L47.5512 29.7848
" />
<path d="M47.5512 29.7848
L47.4560 29.9277
" />
<path d="M47.4560 29.9277
L47.3607 30.0229
" />
<path d="M47.3607 30.0229
L47.2655 30.0705
" />
</g><text x="29.2012" y="23.2600"
textLength="3.1548" font-size="1.3333" lengthAdjust="spacingAndGlyphs"
text-anchor="middle" opacity="0" stroke-opacity="0">D12</text>
<g class="stroked-text"><desc>D12</desc>
<path d="M27.9869 23.2148
L27.9869 22.2148
" />
<path d="M27.9869 22.2148
L28.2250 22.2148
" />
<path d="M28.2250 22.2148
L28.3679 22.2624
" />
<path d="M28.3679 22.2624
L28.4631 22.3577
" />
<path d="M28.4631 22.3577
L28.5107 22.4529
" />
<path d="M28.5107 22.4529
L28.5583 22.6434
" />
<path d="M28.5583 22.6434
L28.5583 22.7862
" />
<path d="M28.5583 22.7862
L28.5107 22.9767
" />
<path d="M28.5107 22.9767
L28.4631 23.0720
" />
<path d="M28.4631 23.0720
L28.3679 23.1672
" />
<path d="M28.3679 23.1672
L28.2250 23.2148
" />
<path d="M28.2250 23.2148
L27.9869 23.2148
" />
<path d="M29.5107 23.2148
L28.9393 23.2148
" />
<path d="M29.2250 23.2148
L29.2250 22.2148
" />
<path d="M29.2250 22.2148
L29.1298 22.3577
" />
<path d="M29.1298 22.3577
L29.0345 22.4529
" />
<path d="M29.0345 22.4529
L28.9393 22.5005
" />
<path d="M29.8917 22.3101
L29.9393 22.2624
" />
<path d="M29.9393 22.2624
L30.0345 22.2148
" />
<path d="M30.0345 22.2148
L30.2726 22.2148
" />
<path d="M30.2726 22.2148
L30.3679 22.2624
" />
<path d="M30.3679 22.2624
L30.4155 22.3101
" />
<path d="M30.4155 22.3101
L30.4631 22.4053
" />
<path d="M30.4631 22.4053
L30.4631 22.5005
" />
<path d="M30.4631 22.5005
L30.4155 22.6434
" />
<path d="M30.4155 22.6434
L29.8441 23.2148
" />
<path d="M29.8441 23.2148
L30.4631 23.2148
" />
</g><text x="25.2012" y="25.0600"
textLength="1.0519" font-size="1.0667" lengthAdjust="spacingAndGlyphs"
text-anchor="middle" opacity="0" stroke-opacity="0">1</text>
<g class="stroked-text"><desc>1</desc>
<path d="M25.4298 25.0223
L24.9726 25.0223
" />
<path d="M25.2012 25.0223
L25.2012 24.2223
" />
<path d="M25.2012 24.2223
L25.1250 24.3366
" />
<path d="M25.1250 24.3366
L25.0488 24.4128
" />
<path d="M25.0488 24.4128
L24.9726 24.4509
" />
</g><text x="47.0512" y="23.2600"
textLength="3.1548" font-size="1.3333" lengthAdjust="spacingAndGlyphs"
text-anchor="middle" opacity="0" stroke-opacity="0">D11</text>
<g class="stroked-text"><desc>D11</desc>
<path d="M45.8369 23.2148
L45.8369 22.2148
" />
<path d="M45.8369 22.2148
L46.0750 22.2148
" />
<path d="M46.0750 22.2148
L46.2179 22.2624
" />
<path d="M46.2179 22.2624
L46.3131 22.3577
" />
<path d="M46.3131 22.3577
L46.3607 22.4529
" />
<path d="M46.3607 22.4529
L46.4083 22.6434
" />
<path d="M46.4083 22.6434
L46.4083 22.7862
" />
<path d="M46.4083 22.7862
L46.3607 22.9767
" />
<path d="M46.3607 22.9767
L46.3131 23.0720
" />
<path d="M46.3131 23.0720
L46.2179 23.1672
" />
<path d="M46.2179 23.1672
L46.0750 23.2148
" />
<path d="M46.0750 23.2148
L45.8369 23.2148
" />
<path d="M47.3607 23.2148
L46.7893 23.2148
" />
<path d="M47.0750 23.2148
L47.0750 22.2148
" />
<path d="M47.0750 22.2148
L46.9798 22.3577
" />
<path d="M46.9798 22.3577
L46.8845 22.4529
" />
<path d="M46.8845 22.4529
L46.7893 22.5005
" />
<path d="M48.3131 23.2148
L47.7417 23.2148
" />
<path d="M48.0274 23.2148
L48.0274 22.2148
" />
<path d="M48.0274 22.2148
L47.9322 22.3577
" />
<path d="M47.9322 22.3577
L47.8369 22.4529
" />
<path d="M47.8369 22.4529
L47.7417 22.5005
" />
</g><text x="43.0512" y="25.0600"
textLength="1.0519" font-size="1.0667" lengthAdjust="spacingAndGlyphs"
text-anchor="middle" opacity="0" stroke-opacity="0">1</text>
<g class="stroked-text"><desc>1</desc>
<path d="M43.2798 25.0223
L42.8226 25.0223
" />
<path d="M43.0512 25.0223
L43.0512 24.2223
" />
<path d="M43.0512 24.2223
L42.9750 24.3366
" />
<path d="M42.9750 24.3366
L42.8988 24.4128
" />
<path d="M42.8988 24.4128
L42.8226 24.4509
" />
</g><text x="29.2012" y="30.8300"
textLength="2.2024" font-size="1.3333" lengthAdjust="spacingAndGlyphs"
text-anchor="middle" opacity="0" stroke-opacity="0">C2</text>
<g class="stroked-text"><desc>C2</desc>
<path d="M29.0345 30.6896
L28.9869 30.7372
" />
<path d="M28.9869 30.7372
L28.8441 30.7848
" />
<path d="M28.8441 30.7848
L28.7488 30.7848
" />
<path d="M28.7488 30.7848
L28.6060 30.7372
" />
<path d="M28.6060 30.7372
L28.5107 30.6420
" />
<path d="M28.5107 30.6420
L28.4631 30.5467
" />
<path d="M28.4631 30.5467
L28.4155 30.3562
" />
<path d="M28.4155 30.3562
L28.4155 30.2134
" />
<path d="M28.4155 30.2134
L28.4631 30.0229
" />
<path d="M28.4631 30.0229
L28.5107 29.9277
" />
<path d="M28.5107 29.9277
L28.6060 29.8324
" />
<path d="M28.6060 29.8324
L28.7488 29.7848
" />
<path d="M28.7488 29.7848
L28.8441 29.7848
" />
<path d="M28.8441 29.7848
L28.9869 29.8324
" />
<path d="M28.9869 29.8324
L29.0345 29.8801
" />
<path d="M29.4155 29.8801
L29.4631 29.8324
" />
<path d="M29.4631 29.8324
L29.5583 29.7848
" />
<path d="M29.5583 29.7848
L29.7964 29.7848
" />
<path d="M29.7964 29.7848
L29.8917 29.8324
" />
<path d="M29.8917 29.8324
L29.9393 29.8801
" />
<path d="M29.9393 29.8801
L29.9869 29.9753
" />
<path d="M29.9869 29.9753
L29.9869 30.0705
" />
<path d="M29.9869 30.0705
L29.9393 30.2134
" />
<path d="M29.9393 30.2134
L29.3679 30.7848
" />
<path d="M29.3679 30.7848
L29.9869 30.7848
" />
</g></g>
<g style="fill:none; 
stroke:#E8B2A7; stroke-width:0.1200; stroke-opacity:1; 
stroke-linecap:round; stroke-linejoin:round;">
<path d="M13.6512 57.9100
L8.5512 57.9100
" />
<path d="M9.7512 62.1100
L4.6512 62.1100
" />
<path d="M15.6512 59.9100 A2.0000 2.0000 0.0 0 0 13.6512 57.9100" />
<path d="M11.7512 64.1100 A2.0000 2.0000 0.0 0 0 9.7512 62.1100" />
<path d="M51.7512 57.9100
L46.6512 57.9100
" />
<path d="M47.8512 62.1100
L42.7512 62.1100
" />
<path d="M53.7512 59.9100 A2.0000 2.0000 0.0 0 0 51.7512 57.9100" />
<path d="M49.8512 64.1100 A2.0000 2.0000 0.0 0 0 47.8512 62.1100" />
<path d="M32.7012 38.8600
L27.6012 38.8600
" />
<path d="M28.8012 43.0600
L23.7012 43.0600
" />
<path d="M34.7012 40.8600 A2.0000 2.0000 0.0 0 0 32.7012 38.8600" />
<path d="M30.8012 45.0600 A2.0000 2.0000 0.0 0 0 28.8012 43.0600" />
<path d="M61.2762 76.9600
L56.1762 76.9600
" />
<path d="M57.3762 81.1600
L52.2762 81.1600
" />
<path d="M63.2762 78.9600 A2.0000 2.0000 0.0 0 0 61.2762 76.9600" />
<path d="M59.3762 83.1600 A2.0000 2.0000 0.0 0 0 57.3762 81.1600" />
<path d="M23.1762 76.9600
L18.0762 76.9600
" />
<path d="M19.2762 81.1600
L14.1762 81.1600
" />
<path d="M25.1762 78.9600 A2.0000 2.0000 0.0 0 0 23.1762 76.9600" />
<path d="M21.2762 83.1600 A2.0000 2.0000 0.0 0 0 19.2762 81.1600" />
<path d="M13.6512 38.8600
L8.5512 38.8600
" />
<path d="M9.7512 43.0600
L4.6512 43.0600
" />
<path d="M15.6512 40.8600 A2.0000 2.0000 0.0 0 0 13.6512 38.8600" />
<path d="M11.7512 45.0600 A2.0000 2.0000 0.0 0 0 9.7512 43.0600" />
<path d="M32.7012 57.9100
L27.6012 57.9100
" />
<path d="M28.8012 62.1100
L23.7012 62.1100
" />
<path d="M34.7012 59.9100 A2.0000 2.0000 0.0 0 0 32.7012 57.9100" />
<path d="M30.8012 64.1100 A2.0000 2.0000 0.0 0 0 28.8012 62.1100" />
<path d="M70.8012 57.9100
L65.7012 57.9100
" />
<path d="M66.9012 62.1100
L61.8012 62.1100
" />
<path d="M72.8012 59.9100 A2.0000 2.0000 0.0 0 0 70.8012 57.9100" />
<path d="M68.9012 64.1100 A2.0000 2.0000 0.0 0 0 66.9012 62.1100" />
<path d="M70.8012 38.8600
L65.7012 38.8600
" />
<path d="M66.9012 43.0600
L61.8012 43.0600
" />
<path d="M72.8012 40.8600 A2.0000 2.0000 0.0 0 0 70.8012 38.8600" />
<path d="M68.9012 45.0600 A2.0000 2.0000 0.0 0 0 66.9012 43.0600" />
<path d="M51.7512 38.8600
L46.6512 38.8600
" />
<path d="M47.8512 43.0600
L42.7512 43.0600
" />
<path d="M53.7512 40.8600 A2.0000 2.0000 0.0 0 0 51.7512 38.8600" />
<path d="M49.8512 45.0600 A2.0000 2.0000 0.0 0 0 47.8512 43.0600" />
</g>
<g style="fill:none; 
stroke:#E8B2A7; stroke-width:0.1500; stroke-opacity:1; 
stroke-linecap:round; stroke-linejoin:round;">
<path d="M48.4012 55.2850
L48.0012 55.2850
" />
<path d="M48.0012 55.2850
L48.0012 54.7350
" />
<path d="M48.0012 55.2850
L48.0012 55.8350
" />
<path d="M48.0012 55.2850
L47.4012 55.6850
" />
<path d="M47.4012 54.8850
L48.0012 55.2850
" />
<path d="M47.4012 55.2850
L46.9012 55.2850
" />
<path d="M47.4012 55.6850
L47.4012 54.8850
" />
<path d="M57.9262 93.5350
L57.5262 93.5350
" />
<path d="M57.5262 93.5350
L57.5262 92.9850
" />
<path d="M57.5262 93.5350
L57.5262 94.0850
" />
<path d="M57.5262 93.5350
L56.9262 93.9350
" />
<path d="M56.9262 93.1350
L57.5262 93.5350
" />
<path d="M56.9262 93.5350
L56.4262 93.5350
" />
<path d="M56.9262 93.9350
L56.9262 93.1350
" />
</g>
<g style="fill:none; 
stroke:#E8B2A7; stroke-width:0.1200; stroke-opacity:1; 
stroke-linecap:round; stroke-linejoin:round;">
<path d="M38.3533 23.8250
L37.8991 23.8250
" />
<path d="M38.3533 25.2950
L37.8991 25.2950
" />
<path d="M46.9106 31.2500
L47.1918 31.2500
" />
<path d="M46.9106 32.2700
L47.1918 32.2700
" />
</g>
<g style="fill:none; 
stroke:#E8B2A7; stroke-width:0.1500; stroke-opacity:1; 
stroke-linecap:round; stroke-linejoin:round;">
<path d="M10.3012 74.3350
L9.9012 74.3350
" />
<path d="M9.9012 74.3350
L9.9012 73.7850
" />
<path d="M9.9012 74.3350
L9.9012 74.8850
" />
<path d="M9.9012 74.3350
L9.3012 74.7350
" />
<path d="M9.3012 73.9350
L9.9012 74.3350
" />
<path d="M9.3012 74.3350
L8.8012 74.3350
" />
<path d="M9.3012 74.7350
L9.3012 73.9350
" />
</g>
<g style="fill:none; 
stroke:#E8B2A7; stroke-width:0.1200; stroke-opacity:1; 
stroke-linecap:round; stroke-linejoin:round;">
<path d="M32.7012 28.5600
L32.7012 23.5100
" />
<path d="M32.2512 29.0100
L32.7012 28.5600
" />
<path d="M31.9012 27.1600
L31.9012 25.3600
" />
<path d="M26.5012 27.1600
L26.5012 25.3600
" />
<path d="M25.7012 23.5100
L32.7012 23.5100
" />
<path d="M25.7012 23.5100
L25.7012 29.0100
" />
<path d="M25.7012 29.0100
L32.2512 29.0100
" />
</g>
<g style="fill:none; 
stroke:#E8B2A7; stroke-width:0.1500; stroke-opacity:1; 
stroke-linecap:round; stroke-linejoin:round;">
<path d="M29.3512 55.2850
L28.9512 55.2850
" />
<path d="M28.9512 55.2850
L28.9512 54.7350
" />
<path d="M28.9512 55.2850
L28.9512 55.8350
" />
<path d="M28.9512 55.2850
L28.3512 55.6850
" />
<path d="M28.3512 54.8850
L28.9512 55.2850
" />
<path d="M28.3512 55.2850
L27.8512 55.2850
" />
<path d="M28.3512 55.6850
L28.3512 54.8850
" />
<path d="M19.8262 93.5350
L19.4262 93.5350
" />
<path d="M19.4262 93.5350
L19.4262 92.9850
" />
<path d="M19.4262 93.5350
L19.4262 94.0850
" />
<path d="M19.4262 93.5350
L18.8262 93.9350
" />
<path d="M18.8262 93.1350
L19.4262 93.5350
" />
<path d="M18.8262 93.5350
L18.3262 93.5350
" />
<path d="M18.8262 93.9350
L18.8262 93.1350
" />
<path d="M67.4512 55.2850
L67.0512 55.2850
" />
<path d="M67.0512 55.2850
L67.0512 54.7350
" />
<path d="M67.0512 55.2850
L67.0512 55.8350
" />
<path d="M67.0512 55.2850
L66.4512 55.6850
" />
<path d="M66.4512 54.8850
L67.0512 55.2850
" />
<path d="M66.4512 55.2850
L65.9512 55.2850
" />
<path d="M66.4512 55.6850
L66.4512 54.8850
" />
<path d="M48.4012 74.3350
L48.0012 74.3350
" />
<path d="M48.0012 74.3350
L48.0012 73.7850
" />
<path d="M48.0012 74.3350
L48.0012 74.8850
" />
<path d="M48.0012 74.3350
L47.4012 74.7350
" />
<path d="M47.4012 73.9350
L48.0012 74.3350
" />
<path d="M47.4012 74.3350
L46.9012 74.3350
" />
<path d="M47.4012 74.7350
L47.4012 73.9350
" />
</g>
<g style="fill:none; 
stroke:#E8B2A7; stroke-width:0.1200; stroke-opacity:1; 
stroke-linecap:round; stroke-linejoin:round;">
<path d="M50.5512 28.5600
L50.5512 23.5100
" />
<path d="M50.1012 29.0100
L50.5512 28.5600
" />
<path d="M49.7512 27.1600
L49.7512 25.3600
" />
<path d="M44.3512 27.1600
L44.3512 25.3600
" />
<path d="M43.5512 23.5100
L50.5512 23.5100
" />
<path d="M43.5512 23.5100
L43.5512 29.0100
" />
<path d="M43.5512 29.0100
L50.1012 29.0100
" />
</g>
<g style="fill:none; 
stroke:#E8B2A7; stroke-width:0.1500; stroke-opacity:1; 
stroke-linecap:round; stroke-linejoin:round;">
<path d="M29.3512 74.3350
L28.9512 74.3350
" />
<path d="M28.9512 74.3350
L28.9512 73.7850
" />
<path d="M28.9512 74.3350
L28.9512 74.8850
" />
<path d="M28.9512 74.3350
L28.3512 74.7350
" />
<path d="M28.3512 73.9350
L28.9512 74.3350
" />
<path d="M28.3512 74.3350
L27.8512 74.3350
" />
<path d="M28.3512 74.7350
L28.3512 73.9350
" />
</g>
<g style="fill:none; 
stroke:#E8B2A7; stroke-width:0.1200; stroke-opacity:1; 
stroke-linecap:round; stroke-linejoin:round;">
<path d="M29.0606 31.2500
L29.3418 31.2500
" />
<path d="M29.0606 32.2700
L29.3418 32.2700
" />
</g>
<g style="fill:none; 
stroke:#E8B2A7; stroke-width:0.1500; stroke-opacity:1; 
stroke-linecap:round; stroke-linejoin:round;">
<path d="M67.4512 74.3350
L67.0512 74.3350
" />
<path d="M67.0512 74.3350
L67.0512 73.7850
" />
<path d="M67.0512 74.3350
L67.0512 74.8850
" />
<path d="M67.0512 74.3350
L66.4512 74.7350
" />
<path d="M66.4512 73.9350
L67.0512 74.3350
" />
<path d="M66.4512 74.3350
L65.9512 74.3350
" />
<path d="M66.4512 74.7350
L66.4512 73.9350
" />
<path d="M10.3012 55.2850
L9.9012 55.2850
" />
<path d="M9.9012 55.2850
L9.9012 54.7350
" />
<path d="M9.9012 55.2850
L9.9012 55.8350
" />
<path d="M9.9012 55.2850
L9.3012 55.6850
" />
<path d="M9.3012 54.8850
L9.9012 55.2850
" />
<path d="M9.3012 55.2850
L8.8012 55.2850
" />
<path d="M9.3012 55.6850
L9.3012 54.8850
" />
<path style="fill:none; 
stroke:#D0D2CD; stroke-width:0.0500; stroke-opacity:1; 
stroke-linecap:round; stroke-linejoin:round;fill:none"
d="M 76.2262,1.3848
0.0260,1.3848
0.0260,95.3848
76.2262,95.3848
Z" /> 
</g>
<g style="fill:#FFFFFF; fill-opacity:1.0000; stroke:none;">
<circle cx="24.5012" cy="20.2600" r="0.1500" /> 
</g>
<g style="fill:#FFFFFF; fill-opacity:1.0000; stroke:none;">
<circle cx="12.2012" cy="52.0600" r="0.1500" /> 
</g>
<g style="fill:#FFFFFF; fill-opacity:1.0000; stroke:none;">
<circle cx="19.8012" cy="51.0600" r="0.1500" /> 
</g>
<g style="fill:#FFFFFF; fill-opacity:1.0000; stroke:none;">
<circle cx="37.8012" cy="20.7600" r="0.1500" /> 
</g>
<g style="fill:#FFFFFF; fill-opacity:1.0000; stroke:none;">
<circle cx="14.6312" cy="64.8100" r="0.8750" /> 
</g>
<g style="fill:#FFFFFF; fill-opacity:1.0000; stroke:none;">
<circle cx="13.3612" cy="62.2700" r="1.5250" /> 
</g>
<g style="fill:#FFFFFF; fill-opacity:1.0000; stroke:none;">
<circle cx="9.5512" cy="64.8100" r="2.0000" /> 
</g>
<g style="fill:#FFFFFF; fill-opacity:1.0000; stroke:none;">
<circle cx="7.0112" cy="59.7300" r="1.5250" /> 
</g>
<g style="fill:#FFFFFF; fill-opacity:1.0000; stroke:none;">
<circle cx="4.4712" cy="64.8100" r="0.8750" /> 
</g>
<g style="fill:#FFFFFF; fill-opacity:1.0000; stroke:none;">
<circle cx="52.7312" cy="64.8100" r="0.8750" /> 
</g>
<g style="fill:#FFFFFF; fill-opacity:1.0000; stroke:none;">
<circle cx="51.4612" cy="62.2700" r="1.5250" /> 
</g>
<g style="fill:#FFFFFF; fill-opacity:1.0000; stroke:none;">
<circle cx="47.6512" cy="64.8100" r="2.0000" /> 
</g>
<g style="fill:#FFFFFF; fill-opacity:1.0000; stroke:none;">
<circle cx="45.1112" cy="59.7300" r="1.5250" /> 
</g>
<g style="fill:#FFFFFF; fill-opacity:1.0000; stroke:none;">
<circle cx="42.5712" cy="64.8100" r="0.8750" /> 
</g>
<g style="fill:#FFFFFF; fill-opacity:1.0000; stroke:none;">
<circle cx="33.6812" cy="45.7600" r="0.8750" /> 
</g>
<g style="fill:#FFFFFF; fill-opacity:1.0000; stroke:none;">
<circle cx="32.4112" cy="43.2200" r="1.5250" /> 
</g>
<g style="fill:#FFFFFF; fill-opacity:1.0000; stroke:none;">
<circle cx="28.6012" cy="45.7600" r="2.0000" /> 
</g>
<g style="fill:#FFFFFF; fill-opacity:1.0000; stroke:none;">
<circle cx="26.0612" cy="40.6800" r="1.5250" /> 
</g>
<g style="fill:#FFFFFF; fill-opacity:1.0000; stroke:none;">
<circle cx="23.5212" cy="45.7600" r="0.8750" /> 
</g>
<g style="fill:#FFFFFF; fill-opacity:1.0000; stroke:none;">
<circle cx="57.1762" cy="55.2850" r="1.1000" /> 
</g>
<g style="fill:#FFFFFF; fill-opacity:1.0000; stroke:none;">
<circle cx="62.2562" cy="83.8600" r="0.8750" /> 
</g>
<g style="fill:#FFFFFF; fill-opacity:1.0000; stroke:none;">
<circle cx="60.9862" cy="81.3200" r="1.5250" /> 
</g>
<g style="fill:#FFFFFF; fill-opacity:1.0000; stroke:none;">
<circle cx="57.1762" cy="83.8600" r="2.0000" /> 
</g>
<g style="fill:#FFFFFF; fill-opacity:1.0000; stroke:none;">
<circle cx="54.6362" cy="78.7800" r="1.5250" /> 
</g>
<g style="fill:#FFFFFF; fill-opacity:1.0000; stroke:none;">
<circle cx="52.0962" cy="83.8600" r="0.8750" /> 
</g>
<g style="fill:#FFFFFF; fill-opacity:1.0000; stroke:none;">
<circle cx="19.0762" cy="74.3350" r="1.1000" /> 
</g>
<g style="fill:#FFFFFF; fill-opacity:1.0000; stroke:none;">
<circle cx="69.4262" cy="16.4350" r="0.5000" /> 
</g>
<g style="fill:#FFFFFF; fill-opacity:1.0000; stroke:none;">
<circle cx="69.4262" cy="21.4350" r="0.5000" /> 
</g>
<g style="fill:#FFFFFF; fill-opacity:1.0000; stroke:none;">
<circle cx="69.4262" cy="18.9350" r="0.5000" /> 
</g>
<g style="fill:none; 
stroke:#FFFFFF; stroke-width:1.5000; stroke-opacity:1; 
stroke-linecap:round; stroke-linejoin:round;">
<path d="M62.5762 13.3350
L61.2762 13.3350
" />
<path d="M62.5762 24.5350
L61.2762 24.5350
" />
</g>
<g style="fill:#FFFFFF; fill-opacity:1.0000; stroke:none;">
<circle cx="54.9262" cy="21.4350" r="0.5000" /> 
</g>
<g style="fill:#FFFFFF; fill-opacity:1.0000; stroke:none;">
<circle cx="54.9262" cy="16.4350" r="0.5000" /> 
</g>
<g style="fill:#FFFFFF; fill-opacity:1.0000; stroke:none;">
<circle cx="24.1562" cy="83.8600" r="0.8750" /> 
</g>
<g style="fill:#FFFFFF; fill-opacity:1.0000; stroke:none;">
<circle cx="22.8862" cy="81.3200" r="1.5250" /> 
</g>
<g style="fill:#FFFFFF; fill-opacity:1.0000; stroke:none;">
<circle cx="19.0762" cy="83.8600" r="2.0000" /> 
</g>
<g style="fill:#FFFFFF; fill-opacity:1.0000; stroke:none;">
<circle cx="16.5362" cy="78.7800" r="1.5250" /> 
</g>
<g style="fill:#FFFFFF; fill-opacity:1.0000; stroke:none;">
<circle cx="13.9962" cy="83.8600" r="0.8750" /> 
</g>
<g style="fill:#FFFFFF; fill-opacity:1.0000; stroke:none;">
<circle cx="14.6312" cy="45.7600" r="0.8750" /> 
</g>
<g style="fill:#FFFFFF; fill-opacity:1.0000; stroke:none;">
<circle cx="13.3612" cy="43.2200" r="1.5250" /> 
</g>
<g style="fill:#FFFFFF; fill-opacity:1.0000; stroke:none;">
<circle cx="9.5512" cy="45.7600" r="2.0000" /> 
</g>
<g style="fill:#FFFFFF; fill-opacity:1.0000; stroke:none;">
<circle cx="7.0112" cy="40.6800" r="1.5250" /> 
</g>
<g style="fill:#FFFFFF; fill-opacity:1.0000; stroke:none;">
<circle cx="4.4712" cy="45.7600" r="0.8750" /> 
</g>
<g style="fill:#FFFFFF; fill-opacity:1.0000; stroke:none;">
<circle cx="38.1262" cy="55.2850" r="1.1000" /> 
</g>
<g style="fill:#FFFFFF; fill-opacity:1.0000; stroke:none;">
<circle cx="57.1762" cy="74.3350" r="1.1000" /> 
</g>
<g style="fill:#FFFFFF; fill-opacity:1.0000; stroke:none;">
<circle cx="45.7462" cy="4.3400" r="0.5000" /> 
</g>
<g style="fill:#FFFFFF; fill-opacity:1.0000; stroke:none;">
<circle cx="45.7462" cy="6.8800" r="0.5000" /> 
</g>
<g style="fill:#FFFFFF; fill-opacity:1.0000; stroke:none;">
<circle cx="45.7462" cy="9.4200" r="0.5000" /> 
</g>
<g style="fill:#FFFFFF; fill-opacity:1.0000; stroke:none;">
<circle cx="45.7462" cy="11.9600" r="0.5000" /> 
</g>
<g style="fill:#FFFFFF; fill-opacity:1.0000; stroke:none;">
<circle cx="45.7462" cy="14.5000" r="0.5000" /> 
</g>
<g style="fill:#FFFFFF; fill-opacity:1.0000; stroke:none;">
<circle cx="45.7462" cy="17.0400" r="0.5000" /> 
</g>
<g style="fill:#FFFFFF; fill-opacity:1.0000; stroke:none;">
<circle cx="45.7462" cy="19.5800" r="0.5000" /> 
</g>
<g style="fill:#FFFFFF; fill-opacity:1.0000; stroke:none;">
<circle cx="30.5062" cy="19.5800" r="0.5000" /> 
</g>
<g style="fill:#FFFFFF; fill-opacity:1.0000; stroke:none;">
<circle cx="30.5062" cy="17.0400" r="0.5000" /> 
</g>
<g style="fill:#FFFFFF; fill-opacity:1.0000; stroke:none;">
<circle cx="30.5062" cy="14.5000" r="0.5000" /> 
</g>
<g style="fill:#FFFFFF; fill-opacity:1.0000; stroke:none;">
<circle cx="30.5062" cy="11.9600" r="0.5000" /> 
</g>
<g style="fill:#FFFFFF; fill-opacity:1.0000; stroke:none;">
<circle cx="30.5062" cy="9.4200" r="0.5000" /> 
</g>
<g style="fill:#FFFFFF; fill-opacity:1.0000; stroke:none;">
<circle cx="30.5062" cy="6.8800" r="0.5000" /> 
</g>
<g style="fill:#FFFFFF; fill-opacity:1.0000; stroke:none;">
<circle cx="30.5062" cy="4.3400" r="0.5000" /> 
</g>
<g style="fill:#FFFFFF; fill-opacity:1.0000; stroke:none;">
<circle cx="69.1142" cy="76.8750" r="1.5240" /> 
</g>
<g style="fill:#FFFFFF; fill-opacity:1.0000; stroke:none;">
<circle cx="69.1142" cy="92.0850" r="1.9939" /> 
</g>
<g style="fill:#FFFFFF; fill-opacity:1.0000; stroke:none;">
<circle cx="45.2382" cy="76.8750" r="1.5240" /> 
</g>
<g style="fill:#FFFFFF; fill-opacity:1.0000; stroke:none;">
<circle cx="45.2382" cy="92.0850" r="1.9939" /> 
</g>
<g style="fill:#FFFFFF; fill-opacity:1.0000; stroke:none;">
<circle cx="33.6812" cy="64.8100" r="0.8750" /> 
</g>
<g style="fill:#FFFFFF; fill-opacity:1.0000; stroke:none;">
<circle cx="32.4112" cy="62.2700" r="1.5250" /> 
</g>
<g style="fill:#FFFFFF; fill-opacity:1.0000; stroke:none;">
<circle cx="28.6012" cy="64.8100" r="2.0000" /> 
</g>
<g style="fill:#FFFFFF; fill-opacity:1.0000; stroke:none;">
<circle cx="26.0612" cy="59.7300" r="1.5250" /> 
</g>
<g style="fill:#FFFFFF; fill-opacity:1.0000; stroke:none;">
<circle cx="23.5212" cy="64.8100" r="0.8750" /> 
</g>
<g style="fill:#FFFFFF; fill-opacity:1.0000; stroke:none;">
<circle cx="19.0262" cy="55.2850" r="1.1000" /> 
</g>
<g style="fill:#FFFFFF; fill-opacity:1.0000; stroke:none;">
<circle cx="71.7812" cy="64.8100" r="0.8750" /> 
</g>
<g style="fill:#FFFFFF; fill-opacity:1.0000; stroke:none;">
<circle cx="70.5112" cy="62.2700" r="1.5250" /> 
</g>
<g style="fill:#FFFFFF; fill-opacity:1.0000; stroke:none;">
<circle cx="66.7012" cy="64.8100" r="2.0000" /> 
</g>
<g style="fill:#FFFFFF; fill-opacity:1.0000; stroke:none;">
<circle cx="64.1612" cy="59.7300" r="1.5250" /> 
</g>
<g style="fill:#FFFFFF; fill-opacity:1.0000; stroke:none;">
<circle cx="61.6212" cy="64.8100" r="0.8750" /> 
</g>
<g style="fill:#FFFFFF; fill-opacity:1.0000; stroke:none;">
<circle cx="31.0142" cy="76.8750" r="1.5240" /> 
</g>
<g style="fill:#FFFFFF; fill-opacity:1.0000; stroke:none;">
<circle cx="31.0142" cy="92.0850" r="1.9939" /> 
</g>
<g style="fill:#FFFFFF; fill-opacity:1.0000; stroke:none;">
<circle cx="7.1382" cy="76.8750" r="1.5240" /> 
</g>
<g style="fill:#FFFFFF; fill-opacity:1.0000; stroke:none;">
<circle cx="7.1382" cy="92.0850" r="1.9939" /> 
</g>
<g style="fill:#FFFFFF; fill-opacity:1.0000; stroke:none;">
<circle cx="71.7812" cy="45.7600" r="0.8750" /> 
</g>
<g style="fill:#FFFFFF; fill-opacity:1.0000; stroke:none;">
<circle cx="70.5112" cy="43.2200" r="1.5250" /> 
</g>
<g style="fill:#FFFFFF; fill-opacity:1.0000; stroke:none;">
<circle cx="66.7012" cy="45.7600" r="2.0000" /> 
</g>
<g style="fill:#FFFFFF; fill-opacity:1.0000; stroke:none;">
<circle cx="64.1612" cy="40.6800" r="1.5250" /> 
</g>
<g style="fill:#FFFFFF; fill-opacity:1.0000; stroke:none;">
<circle cx="61.6212" cy="45.7600" r="0.8750" /> 
</g>
<g style="fill:#FFFFFF; fill-opacity:1.0000; stroke:none;">
<circle cx="52.7312" cy="45.7600" r="0.8750" /> 
</g>
<g style="fill:#FFFFFF; fill-opacity:1.0000; stroke:none;">
<circle cx="51.4612" cy="43.2200" r="1.5250" /> 
</g>
<g style="fill:#FFFFFF; fill-opacity:1.0000; stroke:none;">
<circle cx="47.6512" cy="45.7600" r="2.0000" /> 
</g>
<g style="fill:#FFFFFF; fill-opacity:1.0000; stroke:none;">
<circle cx="45.1112" cy="40.6800" r="1.5250" /> 
</g>
<g style="fill:#FFFFFF; fill-opacity:1.0000; stroke:none;">
<circle cx="42.5712" cy="45.7600" r="0.8750" /> 
</g> 
</svg>
